<svg width="360" height="463" viewBox="0 0 360 463" fill="none" xmlns="http://www.w3.org/2000/svg">
<g clip-path="url(#clip0_1_352)">
<rect width="360" height="463" rx="20" fill="#0A0D10"/>
<path d="M26.8408 31.3828H34.5298C36.1063 31.3828 37.4609 31.6188 38.5938 32.0908C39.736 32.5628 40.6139 33.2614 41.2275 34.1865C41.8411 35.1117 42.1479 36.2492 42.1479 37.5991C42.1479 38.7036 41.9591 39.6523 41.5815 40.4453C41.2134 41.2288 40.6895 41.8849 40.0098 42.4136C39.3395 42.9328 38.5513 43.3481 37.645 43.6597L36.2998 44.3677H29.6162L29.5879 41.0542H34.5581C35.3039 41.0542 35.9222 40.922 36.4131 40.6577C36.904 40.3934 37.2721 40.0252 37.5176 39.5532C37.7725 39.0812 37.8999 38.5337 37.8999 37.9106C37.8999 37.2498 37.7772 36.6787 37.5317 36.1973C37.2863 35.7158 36.9134 35.3477 36.4131 35.0928C35.9128 34.8379 35.285 34.7104 34.5298 34.7104H31.0889V52H26.8408V31.3828ZM38.3672 52L33.666 42.8101L38.1548 42.7817L42.9126 51.8018V52H38.3672ZM52.2158 52.2832C51.0264 52.2832 49.9596 52.0944 49.0156 51.7168C48.0716 51.3298 47.2692 50.7964 46.6084 50.1167C45.957 49.437 45.4567 48.6488 45.1074 47.752C44.7581 46.8457 44.5835 45.8828 44.5835 44.8633V44.2969C44.5835 43.1357 44.7487 42.0737 45.0791 41.1108C45.4095 40.1479 45.8815 39.3125 46.4951 38.6045C47.1182 37.8965 47.8734 37.3537 48.7607 36.9761C49.6481 36.589 50.6488 36.3955 51.7627 36.3955C52.8483 36.3955 53.8112 36.5749 54.6514 36.9336C55.4915 37.2923 56.1948 37.8021 56.7612 38.4629C57.3371 39.1237 57.7713 39.9167 58.064 40.8418C58.3566 41.7575 58.5029 42.777 58.5029 43.9004V45.5996H46.3252V42.8809H54.4956V42.5693C54.4956 42.0029 54.3918 41.4979 54.1841 41.0542C53.9858 40.6011 53.6838 40.2424 53.2778 39.978C52.8719 39.7137 52.3527 39.5815 51.7202 39.5815C51.1821 39.5815 50.7196 39.6995 50.3325 39.9355C49.9455 40.1715 49.6292 40.502 49.3838 40.9268C49.1478 41.3516 48.9684 41.8519 48.8457 42.4277C48.7324 42.9941 48.6758 43.6172 48.6758 44.2969V44.8633C48.6758 45.4769 48.7607 46.0433 48.9307 46.5625C49.11 47.0817 49.3602 47.5301 49.6812 47.9077C50.0116 48.2853 50.408 48.578 50.8706 48.7856C51.3426 48.9933 51.876 49.0972 52.4707 49.0972C53.207 49.0972 53.8914 48.9556 54.5239 48.6724C55.1659 48.3797 55.7181 47.9408 56.1807 47.3555L58.1631 49.5078C57.8421 49.9704 57.4032 50.4141 56.8462 50.8389C56.2987 51.2637 55.6379 51.613 54.8638 51.8867C54.0897 52.151 53.207 52.2832 52.2158 52.2832ZM67.1548 49.0972C67.6551 49.0972 68.0988 49.0028 68.4858 48.814C68.8729 48.6157 69.175 48.342 69.3921 47.9927C69.6187 47.634 69.7367 47.2139 69.7461 46.7324H73.5835C73.5741 47.8086 73.2861 48.7668 72.7197 49.6069C72.1533 50.4377 71.3934 51.0938 70.4399 51.5752C69.4865 52.0472 68.4198 52.2832 67.2397 52.2832C66.0503 52.2832 65.0119 52.085 64.1245 51.6885C63.2466 51.292 62.515 50.7445 61.9297 50.0459C61.3444 49.3379 60.9054 48.5166 60.6128 47.582C60.3201 46.638 60.1738 45.6279 60.1738 44.5518V44.1411C60.1738 43.0555 60.3201 42.0454 60.6128 41.1108C60.9054 40.1668 61.3444 39.3455 61.9297 38.647C62.515 37.939 63.2466 37.3867 64.1245 36.9902C65.0024 36.5938 66.0314 36.3955 67.2114 36.3955C68.467 36.3955 69.5667 36.6362 70.5107 37.1177C71.4642 37.5991 72.21 38.2882 72.748 39.1851C73.2956 40.0724 73.5741 41.125 73.5835 42.3428H69.7461C69.7367 41.833 69.6281 41.3704 69.4204 40.9551C69.2222 40.5397 68.9295 40.2093 68.5425 39.9639C68.1649 39.709 67.6976 39.5815 67.1406 39.5815C66.5459 39.5815 66.0597 39.709 65.6821 39.9639C65.3045 40.2093 65.0119 40.5492 64.8042 40.9834C64.5965 41.4082 64.4502 41.8944 64.3652 42.4419C64.2897 42.98 64.252 43.5464 64.252 44.1411V44.5518C64.252 45.1465 64.2897 45.7176 64.3652 46.2651C64.4408 46.8127 64.5824 47.2988 64.79 47.7236C65.0072 48.1484 65.3045 48.4836 65.6821 48.729C66.0597 48.9744 66.5506 49.0972 67.1548 49.0972ZM83 52.2832C81.8105 52.2832 80.7438 52.0944 79.7998 51.7168C78.8558 51.3298 78.0534 50.7964 77.3926 50.1167C76.7412 49.437 76.2409 48.6488 75.8916 47.752C75.5423 46.8457 75.3677 45.8828 75.3677 44.8633V44.2969C75.3677 43.1357 75.5329 42.0737 75.8633 41.1108C76.1937 40.1479 76.6657 39.3125 77.2793 38.6045C77.9023 37.8965 78.6576 37.3537 79.5449 36.9761C80.4323 36.589 81.4329 36.3955 82.5469 36.3955C83.6325 36.3955 84.5954 36.5749 85.4355 36.9336C86.2757 37.2923 86.979 37.8021 87.5454 38.4629C88.1213 39.1237 88.5555 39.9167 88.8481 40.8418C89.1408 41.7575 89.2871 42.777 89.2871 43.9004V45.5996H77.1094V42.8809H85.2798V42.5693C85.2798 42.0029 85.1759 41.4979 84.9683 41.0542C84.77 40.6011 84.4679 40.2424 84.062 39.978C83.6561 39.7137 83.1369 39.5815 82.5044 39.5815C81.9663 39.5815 81.5037 39.6995 81.1167 39.9355C80.7297 40.1715 80.4134 40.502 80.168 40.9268C79.932 41.3516 79.7526 41.8519 79.6299 42.4277C79.5166 42.9941 79.46 43.6172 79.46 44.2969V44.8633C79.46 45.4769 79.5449 46.0433 79.7148 46.5625C79.8942 47.0817 80.1444 47.5301 80.4653 47.9077C80.7957 48.2853 81.1922 48.578 81.6548 48.7856C82.1268 48.9933 82.6602 49.0972 83.2549 49.0972C83.9912 49.0972 84.6756 48.9556 85.3081 48.6724C85.95 48.3797 86.5023 47.9408 86.9648 47.3555L88.9473 49.5078C88.6263 49.9704 88.1873 50.4141 87.6304 50.8389C87.0828 51.2637 86.422 51.613 85.6479 51.8867C84.8739 52.151 83.9912 52.2832 83 52.2832ZM95.6025 39.9497V52H91.5244V36.6787H95.3477L95.6025 39.9497ZM95.0078 43.8013H93.9033C93.9033 42.6685 94.0496 41.6489 94.3423 40.7427C94.6349 39.827 95.0456 39.0482 95.5742 38.4062C96.1029 37.7549 96.7306 37.2593 97.4575 36.9194C98.1938 36.5701 99.0151 36.3955 99.9214 36.3955C100.639 36.3955 101.295 36.4993 101.89 36.707C102.484 36.9147 102.994 37.2451 103.419 37.6982C103.853 38.1514 104.184 38.7508 104.41 39.4966C104.646 40.2424 104.764 41.1533 104.764 42.2295V52H100.658V42.2153C100.658 41.5356 100.563 41.007 100.375 40.6294C100.186 40.2518 99.9072 39.9875 99.5391 39.8364C99.1803 39.6759 98.7367 39.5957 98.208 39.5957C97.6605 39.5957 97.1838 39.7043 96.7778 39.9214C96.3813 40.1385 96.0509 40.4406 95.7866 40.8276C95.5317 41.2052 95.3382 41.6489 95.2061 42.1587C95.0739 42.6685 95.0078 43.216 95.0078 43.8013ZM115.37 36.6787V39.5674H106.449V36.6787H115.37ZM108.658 32.8979H112.736V47.3838C112.736 47.8275 112.793 48.1673 112.906 48.4033C113.029 48.6393 113.208 48.8045 113.444 48.8989C113.68 48.9839 113.978 49.0264 114.336 49.0264C114.591 49.0264 114.818 49.0169 115.016 48.998C115.224 48.9697 115.398 48.9414 115.54 48.9131L115.554 51.915C115.205 52.0283 114.827 52.118 114.421 52.1841C114.015 52.2502 113.567 52.2832 113.076 52.2832C112.179 52.2832 111.396 52.1369 110.726 51.8442C110.065 51.5422 109.555 51.0607 109.196 50.3999C108.838 49.7391 108.658 48.8706 108.658 47.7944V32.8979ZM133.623 31.3828V52H129.389V31.3828H133.623ZM139.966 31.3828V34.7104H123.144V31.3828H139.966ZM145.22 40.0205V52H141.142V36.6787H144.979L145.22 40.0205ZM149.836 36.5796L149.765 40.3604C149.567 40.332 149.326 40.3084 149.043 40.2896C148.769 40.2612 148.519 40.2471 148.292 40.2471C147.717 40.2471 147.216 40.3226 146.792 40.4736C146.376 40.6152 146.027 40.8276 145.744 41.1108C145.47 41.394 145.262 41.7386 145.121 42.1445C144.988 42.5505 144.913 43.013 144.894 43.5322L144.073 43.2773C144.073 42.2861 144.172 41.3752 144.37 40.5444C144.568 39.7043 144.856 38.9727 145.234 38.3496C145.621 37.7266 146.093 37.2451 146.65 36.9053C147.207 36.5654 147.844 36.3955 148.562 36.3955C148.788 36.3955 149.019 36.4144 149.255 36.4521C149.491 36.4805 149.685 36.5229 149.836 36.5796ZM159.55 48.5449V41.7197C159.55 41.2288 159.47 40.8088 159.309 40.4595C159.149 40.1007 158.898 39.8223 158.559 39.624C158.228 39.4258 157.799 39.3267 157.27 39.3267C156.817 39.3267 156.425 39.4069 156.095 39.5674C155.764 39.7184 155.509 39.9403 155.33 40.2329C155.151 40.5161 155.061 40.8512 155.061 41.2383H150.983C150.983 40.5869 151.134 39.9686 151.436 39.3833C151.738 38.798 152.177 38.2835 152.753 37.8398C153.329 37.3867 154.013 37.0327 154.806 36.7778C155.609 36.5229 156.505 36.3955 157.497 36.3955C158.686 36.3955 159.743 36.5938 160.668 36.9902C161.594 37.3867 162.32 37.9814 162.849 38.7744C163.387 39.5674 163.656 40.5586 163.656 41.748V48.3042C163.656 49.1444 163.708 49.8335 163.812 50.3716C163.916 50.9002 164.067 51.3628 164.265 51.7593V52H160.145C159.946 51.5846 159.795 51.0654 159.691 50.4424C159.597 49.8099 159.55 49.1774 159.55 48.5449ZM160.088 42.6685L160.116 44.9766H157.836C157.298 44.9766 156.831 45.0379 156.435 45.1606C156.038 45.2834 155.712 45.458 155.458 45.6846C155.203 45.9017 155.014 46.1566 154.891 46.4492C154.778 46.7419 154.721 47.0628 154.721 47.4121C154.721 47.7614 154.801 48.0776 154.962 48.3608C155.122 48.6346 155.354 48.8517 155.656 49.0122C155.958 49.1632 156.312 49.2388 156.718 49.2388C157.331 49.2388 157.865 49.116 158.318 48.8706C158.771 48.6252 159.12 48.3231 159.366 47.9644C159.621 47.6056 159.753 47.2658 159.762 46.9448L160.838 48.6724C160.687 49.0594 160.48 49.4606 160.215 49.876C159.96 50.2913 159.635 50.6831 159.238 51.0513C158.842 51.41 158.365 51.7074 157.808 51.9434C157.251 52.1699 156.59 52.2832 155.826 52.2832C154.853 52.2832 153.971 52.0897 153.178 51.7026C152.394 51.3062 151.771 50.7633 151.309 50.0742C150.855 49.3757 150.629 48.5827 150.629 47.6953C150.629 46.8929 150.78 46.1802 151.082 45.5571C151.384 44.9341 151.828 44.4102 152.413 43.9854C153.008 43.5511 153.749 43.2254 154.636 43.0083C155.524 42.7817 156.553 42.6685 157.723 42.6685H160.088ZM175.848 48.6582V30.25H179.955V52H176.259L175.848 48.6582ZM166.163 44.5234V44.2261C166.163 43.0555 166.295 41.9935 166.559 41.04C166.823 40.0771 167.21 39.2511 167.72 38.562C168.23 37.8729 168.858 37.3395 169.604 36.9619C170.349 36.5843 171.199 36.3955 172.152 36.3955C173.049 36.3955 173.833 36.5843 174.503 36.9619C175.183 37.3395 175.758 37.8776 176.23 38.5762C176.712 39.2653 177.099 40.0819 177.392 41.0259C177.684 41.9604 177.897 42.9847 178.029 44.0986V44.75C177.897 45.8167 177.684 46.8079 177.392 47.7236C177.099 48.6393 176.712 49.4417 176.23 50.1309C175.758 50.8105 175.183 51.3392 174.503 51.7168C173.823 52.0944 173.03 52.2832 172.124 52.2832C171.171 52.2832 170.321 52.0897 169.575 51.7026C168.839 51.3156 168.216 50.7728 167.706 50.0742C167.206 49.3757 166.823 48.5544 166.559 47.6104C166.295 46.6663 166.163 45.6374 166.163 44.5234ZM170.241 44.2261V44.5234C170.241 45.1559 170.288 45.7459 170.382 46.2935C170.486 46.841 170.651 47.3271 170.878 47.752C171.114 48.1673 171.416 48.493 171.784 48.729C172.162 48.9556 172.62 49.0688 173.158 49.0688C173.856 49.0688 174.432 48.9131 174.885 48.6016C175.338 48.2806 175.683 47.8416 175.919 47.2847C176.164 46.7277 176.306 46.0858 176.344 45.3589V43.5039C176.315 42.9092 176.23 42.3758 176.089 41.9038C175.957 41.4224 175.758 41.0117 175.494 40.6719C175.239 40.332 174.918 40.0677 174.531 39.8789C174.154 39.6901 173.705 39.5957 173.186 39.5957C172.657 39.5957 172.204 39.7184 171.827 39.9639C171.449 40.1999 171.142 40.5256 170.906 40.9409C170.68 41.3563 170.51 41.8472 170.396 42.4136C170.293 42.9705 170.241 43.5747 170.241 44.2261ZM190.192 52.2832C189.003 52.2832 187.936 52.0944 186.992 51.7168C186.048 51.3298 185.246 50.7964 184.585 50.1167C183.934 49.437 183.433 48.6488 183.084 47.752C182.735 46.8457 182.56 45.8828 182.56 44.8633V44.2969C182.56 43.1357 182.725 42.0737 183.056 41.1108C183.386 40.1479 183.858 39.3125 184.472 38.6045C185.095 37.8965 185.85 37.3537 186.737 36.9761C187.625 36.589 188.625 36.3955 189.739 36.3955C190.825 36.3955 191.788 36.5749 192.628 36.9336C193.468 37.2923 194.171 37.8021 194.738 38.4629C195.314 39.1237 195.748 39.9167 196.041 40.8418C196.333 41.7575 196.479 42.777 196.479 43.9004V45.5996H184.302V42.8809H192.472V42.5693C192.472 42.0029 192.368 41.4979 192.161 41.0542C191.962 40.6011 191.66 40.2424 191.254 39.978C190.848 39.7137 190.329 39.5815 189.697 39.5815C189.159 39.5815 188.696 39.6995 188.309 39.9355C187.922 40.1715 187.606 40.502 187.36 40.9268C187.124 41.3516 186.945 41.8519 186.822 42.4277C186.709 42.9941 186.652 43.6172 186.652 44.2969V44.8633C186.652 45.4769 186.737 46.0433 186.907 46.5625C187.087 47.0817 187.337 47.5301 187.658 47.9077C187.988 48.2853 188.385 48.578 188.847 48.7856C189.319 48.9933 189.853 49.0972 190.447 49.0972C191.184 49.0972 191.868 48.9556 192.5 48.6724C193.142 48.3797 193.695 47.9408 194.157 47.3555L196.14 49.5078C195.819 49.9704 195.38 50.4141 194.823 50.8389C194.275 51.2637 193.614 51.613 192.84 51.8867C192.066 52.151 191.184 52.2832 190.192 52.2832ZM202.88 40.0205V52H198.802V36.6787H202.639L202.88 40.0205ZM207.496 36.5796L207.425 40.3604C207.227 40.332 206.986 40.3084 206.703 40.2896C206.429 40.2612 206.179 40.2471 205.953 40.2471C205.377 40.2471 204.876 40.3226 204.452 40.4736C204.036 40.6152 203.687 40.8276 203.404 41.1108C203.13 41.394 202.922 41.7386 202.781 42.1445C202.649 42.5505 202.573 43.013 202.554 43.5322L201.733 43.2773C201.733 42.2861 201.832 41.3752 202.03 40.5444C202.229 39.7043 202.516 38.9727 202.894 38.3496C203.281 37.7266 203.753 37.2451 204.31 36.9053C204.867 36.5654 205.504 36.3955 206.222 36.3955C206.448 36.3955 206.68 36.4144 206.916 36.4521C207.152 36.4805 207.345 36.5229 207.496 36.5796ZM217.706 47.7661C217.706 47.4735 217.621 47.2091 217.451 46.9731C217.281 46.7371 216.965 46.52 216.502 46.3218C216.049 46.1141 215.393 45.9253 214.534 45.7554C213.76 45.5854 213.037 45.373 212.367 45.1182C211.706 44.8538 211.131 44.5376 210.64 44.1694C210.158 43.8013 209.781 43.367 209.507 42.8667C209.233 42.3569 209.096 41.7764 209.096 41.125C209.096 40.4831 209.233 39.8789 209.507 39.3125C209.79 38.7461 210.191 38.2458 210.71 37.8115C211.239 37.3678 211.881 37.0233 212.636 36.7778C213.401 36.5229 214.26 36.3955 215.213 36.3955C216.544 36.3955 217.687 36.6079 218.64 37.0327C219.603 37.4575 220.339 38.0428 220.849 38.7886C221.368 39.5249 221.628 40.3651 221.628 41.3091H217.55C217.55 40.9126 217.465 40.5586 217.295 40.2471C217.134 39.9261 216.88 39.6759 216.53 39.4966C216.19 39.3078 215.747 39.2134 215.199 39.2134C214.746 39.2134 214.354 39.2936 214.024 39.4541C213.694 39.6051 213.439 39.8128 213.259 40.0771C213.089 40.332 213.004 40.6152 213.004 40.9268C213.004 41.1628 213.052 41.3752 213.146 41.564C213.25 41.7433 213.415 41.9085 213.642 42.0596C213.868 42.2106 214.161 42.3522 214.52 42.4844C214.888 42.6071 215.341 42.7204 215.879 42.8242C216.983 43.0508 217.97 43.3481 218.838 43.7163C219.707 44.075 220.396 44.5659 220.906 45.189C221.416 45.8026 221.67 46.6097 221.67 47.6104C221.67 48.29 221.519 48.9131 221.217 49.4795C220.915 50.0459 220.481 50.5415 219.915 50.9663C219.348 51.3817 218.668 51.7074 217.875 51.9434C217.092 52.1699 216.209 52.2832 215.228 52.2832C213.802 52.2832 212.594 52.0283 211.603 51.5186C210.621 51.0088 209.875 50.3621 209.365 49.5786C208.865 48.7856 208.615 47.9738 208.615 47.1431H212.48C212.499 47.7 212.641 48.1484 212.905 48.4883C213.179 48.8281 213.524 49.0736 213.939 49.2246C214.364 49.3757 214.822 49.4512 215.312 49.4512C215.841 49.4512 216.28 49.3804 216.629 49.2388C216.979 49.0877 217.243 48.8895 217.422 48.644C217.611 48.3892 217.706 48.0965 217.706 47.7661Z" fill="white"/>
<path d="M32.3828 79.125C32.3828 78.8594 32.3411 78.625 32.2578 78.4219C32.1797 78.2135 32.0391 78.026 31.8359 77.8594C31.638 77.6927 31.362 77.5339 31.0078 77.3828C30.6589 77.2318 30.2161 77.0781 29.6797 76.9219C29.1172 76.7552 28.6094 76.5703 28.1562 76.3672C27.7031 76.1589 27.3151 75.9219 26.9922 75.6562C26.6693 75.3906 26.4219 75.0859 26.25 74.7422C26.0781 74.3984 25.9922 74.0052 25.9922 73.5625C25.9922 73.1198 26.0833 72.7109 26.2656 72.3359C26.4479 71.9609 26.7083 71.6354 27.0469 71.3594C27.3906 71.0781 27.7995 70.8594 28.2734 70.7031C28.7474 70.5469 29.276 70.4688 29.8594 70.4688C30.7135 70.4688 31.4375 70.6328 32.0312 70.9609C32.6302 71.2839 33.0859 71.7083 33.3984 72.2344C33.7109 72.7552 33.8672 73.3125 33.8672 73.9062H32.3672C32.3672 73.4792 32.276 73.1016 32.0938 72.7734C31.9115 72.4401 31.6354 72.1797 31.2656 71.9922C30.8958 71.7995 30.4271 71.7031 29.8594 71.7031C29.3229 71.7031 28.8802 71.7839 28.5312 71.9453C28.1823 72.1068 27.9219 72.3255 27.75 72.6016C27.5833 72.8776 27.5 73.1927 27.5 73.5469C27.5 73.7865 27.5495 74.0052 27.6484 74.2031C27.7526 74.3958 27.9115 74.5755 28.125 74.7422C28.3438 74.9089 28.6198 75.0625 28.9531 75.2031C29.2917 75.3438 29.6953 75.4792 30.1641 75.6094C30.8099 75.7917 31.3672 75.9948 31.8359 76.2188C32.3047 76.4427 32.6901 76.6953 32.9922 76.9766C33.2995 77.2526 33.526 77.5677 33.6719 77.9219C33.8229 78.2708 33.8984 78.6667 33.8984 79.1094C33.8984 79.5729 33.8047 79.9922 33.6172 80.3672C33.4297 80.7422 33.1615 81.0625 32.8125 81.3281C32.4635 81.5938 32.0443 81.7995 31.5547 81.9453C31.0703 82.0859 30.5286 82.1562 29.9297 82.1562C29.4036 82.1562 28.8854 82.0833 28.375 81.9375C27.8698 81.7917 27.4089 81.5729 26.9922 81.2812C26.5807 80.9896 26.25 80.6302 26 80.2031C25.7552 79.7708 25.6328 79.2708 25.6328 78.7031H27.1328C27.1328 79.0938 27.2083 79.4297 27.3594 79.7109C27.5104 79.987 27.7161 80.2161 27.9766 80.3984C28.2422 80.5807 28.5417 80.7161 28.875 80.8047C29.2135 80.888 29.5651 80.9297 29.9297 80.9297C30.4557 80.9297 30.901 80.8568 31.2656 80.7109C31.6302 80.5651 31.9062 80.3568 32.0938 80.0859C32.2865 79.8151 32.3828 79.4948 32.3828 79.125ZM39.6094 82.1562C39.0208 82.1562 38.487 82.0573 38.0078 81.8594C37.5339 81.6562 37.125 81.3724 36.7812 81.0078C36.4427 80.6432 36.1823 80.2109 36 79.7109C35.8177 79.2109 35.7266 78.6641 35.7266 78.0703V77.7422C35.7266 77.0547 35.8281 76.4427 36.0312 75.9062C36.2344 75.3646 36.5104 74.9062 36.8594 74.5312C37.2083 74.1562 37.6042 73.8724 38.0469 73.6797C38.4896 73.487 38.9479 73.3906 39.4219 73.3906C40.026 73.3906 40.5469 73.4948 40.9844 73.7031C41.4271 73.9115 41.7891 74.2031 42.0703 74.5781C42.3516 74.9479 42.5599 75.3854 42.6953 75.8906C42.8307 76.3906 42.8984 76.9375 42.8984 77.5312V78.1797H36.5859V77H41.4531V76.8906C41.4323 76.5156 41.3542 76.151 41.2188 75.7969C41.0885 75.4427 40.8802 75.151 40.5938 74.9219C40.3073 74.6927 39.9167 74.5781 39.4219 74.5781C39.0938 74.5781 38.7917 74.6484 38.5156 74.7891C38.2396 74.9245 38.0026 75.1276 37.8047 75.3984C37.6068 75.6693 37.4531 76 37.3438 76.3906C37.2344 76.7812 37.1797 77.2318 37.1797 77.7422V78.0703C37.1797 78.4714 37.2344 78.849 37.3438 79.2031C37.4583 79.5521 37.6224 79.8594 37.8359 80.125C38.0547 80.3906 38.3177 80.599 38.625 80.75C38.9375 80.901 39.2917 80.9766 39.6875 80.9766C40.1979 80.9766 40.6302 80.8724 40.9844 80.6641C41.3385 80.4557 41.6484 80.1771 41.9141 79.8281L42.7891 80.5234C42.6068 80.7995 42.375 81.0625 42.0938 81.3125C41.8125 81.5625 41.4661 81.7656 41.0547 81.9219C40.6484 82.0781 40.1667 82.1562 39.6094 82.1562ZM48.5938 82.1562C48.0052 82.1562 47.4714 82.0573 46.9922 81.8594C46.5182 81.6562 46.1094 81.3724 45.7656 81.0078C45.4271 80.6432 45.1667 80.2109 44.9844 79.7109C44.8021 79.2109 44.7109 78.6641 44.7109 78.0703V77.7422C44.7109 77.0547 44.8125 76.4427 45.0156 75.9062C45.2188 75.3646 45.4948 74.9062 45.8438 74.5312C46.1927 74.1562 46.5885 73.8724 47.0312 73.6797C47.474 73.487 47.9323 73.3906 48.4062 73.3906C49.0104 73.3906 49.5312 73.4948 49.9688 73.7031C50.4115 73.9115 50.7734 74.2031 51.0547 74.5781C51.3359 74.9479 51.5443 75.3854 51.6797 75.8906C51.8151 76.3906 51.8828 76.9375 51.8828 77.5312V78.1797H45.5703V77H50.4375V76.8906C50.4167 76.5156 50.3385 76.151 50.2031 75.7969C50.0729 75.4427 49.8646 75.151 49.5781 74.9219C49.2917 74.6927 48.901 74.5781 48.4062 74.5781C48.0781 74.5781 47.776 74.6484 47.5 74.7891C47.224 74.9245 46.987 75.1276 46.7891 75.3984C46.5911 75.6693 46.4375 76 46.3281 76.3906C46.2188 76.7812 46.1641 77.2318 46.1641 77.7422V78.0703C46.1641 78.4714 46.2188 78.849 46.3281 79.2031C46.4427 79.5521 46.6068 79.8594 46.8203 80.125C47.0391 80.3906 47.3021 80.599 47.6094 80.75C47.9219 80.901 48.276 80.9766 48.6719 80.9766C49.1823 80.9766 49.6146 80.8724 49.9688 80.6641C50.3229 80.4557 50.6328 80.1771 50.8984 79.8281L51.7734 80.5234C51.5911 80.7995 51.3594 81.0625 51.0781 81.3125C50.7969 81.5625 50.4505 81.7656 50.0391 81.9219C49.6328 82.0781 49.151 82.1562 48.5938 82.1562ZM60.9141 81.125L63.2656 73.5469H64.8125L61.4219 83.3047C61.3438 83.513 61.2396 83.737 61.1094 83.9766C60.9844 84.2214 60.8229 84.4531 60.625 84.6719C60.4271 84.8906 60.1875 85.0677 59.9062 85.2031C59.6302 85.3438 59.2995 85.4141 58.9141 85.4141C58.7995 85.4141 58.6536 85.3984 58.4766 85.3672C58.2995 85.3359 58.1745 85.3099 58.1016 85.2891L58.0938 84.1172C58.1354 84.1224 58.2005 84.1276 58.2891 84.1328C58.3828 84.1432 58.4479 84.1484 58.4844 84.1484C58.8125 84.1484 59.0911 84.1042 59.3203 84.0156C59.5495 83.9323 59.7422 83.7891 59.8984 83.5859C60.0599 83.388 60.1979 83.1146 60.3125 82.7656L60.9141 81.125ZM59.1875 73.5469L61.3828 80.1094L61.7578 81.6328L60.7188 82.1641L57.6094 73.5469H59.1875ZM66.1094 77.8672V77.6875C66.1094 77.0781 66.1979 76.513 66.375 75.9922C66.5521 75.4661 66.8073 75.0104 67.1406 74.625C67.474 74.2344 67.8776 73.9323 68.3516 73.7188C68.8255 73.5 69.3568 73.3906 69.9453 73.3906C70.5391 73.3906 71.0729 73.5 71.5469 73.7188C72.026 73.9323 72.4323 74.2344 72.7656 74.625C73.1042 75.0104 73.362 75.4661 73.5391 75.9922C73.7161 76.513 73.8047 77.0781 73.8047 77.6875V77.8672C73.8047 78.4766 73.7161 79.0417 73.5391 79.5625C73.362 80.0833 73.1042 80.5391 72.7656 80.9297C72.4323 81.3151 72.0286 81.6172 71.5547 81.8359C71.0859 82.0495 70.5547 82.1562 69.9609 82.1562C69.3672 82.1562 68.8333 82.0495 68.3594 81.8359C67.8854 81.6172 67.4792 81.3151 67.1406 80.9297C66.8073 80.5391 66.5521 80.0833 66.375 79.5625C66.1979 79.0417 66.1094 78.4766 66.1094 77.8672ZM67.5547 77.6875V77.8672C67.5547 78.2891 67.6042 78.6875 67.7031 79.0625C67.8021 79.4323 67.9505 79.7604 68.1484 80.0469C68.3516 80.3333 68.6042 80.5599 68.9062 80.7266C69.2083 80.888 69.5599 80.9688 69.9609 80.9688C70.3568 80.9688 70.7031 80.888 71 80.7266C71.3021 80.5599 71.5521 80.3333 71.75 80.0469C71.9479 79.7604 72.0964 79.4323 72.1953 79.0625C72.2995 78.6875 72.3516 78.2891 72.3516 77.8672V77.6875C72.3516 77.2708 72.2995 76.8776 72.1953 76.5078C72.0964 76.1328 71.9453 75.8021 71.7422 75.5156C71.5443 75.224 71.2943 74.9948 70.9922 74.8281C70.6953 74.6615 70.3464 74.5781 69.9453 74.5781C69.5495 74.5781 69.2005 74.6615 68.8984 74.8281C68.6016 74.9948 68.3516 75.224 68.1484 75.5156C67.9505 75.8021 67.8021 76.1328 67.7031 76.5078C67.6042 76.8776 67.5547 77.2708 67.5547 77.6875ZM81.2891 80.0469V73.5469H82.7422V82H81.3594L81.2891 80.0469ZM81.5625 78.2656L82.1641 78.25C82.1641 78.8125 82.1042 79.3333 81.9844 79.8125C81.8698 80.2865 81.6823 80.6979 81.4219 81.0469C81.1615 81.3958 80.8203 81.6693 80.3984 81.8672C79.9766 82.0599 79.4635 82.1562 78.8594 82.1562C78.4479 82.1562 78.0703 82.0964 77.7266 81.9766C77.388 81.8568 77.0964 81.6719 76.8516 81.4219C76.6068 81.1719 76.4167 80.8464 76.2812 80.4453C76.151 80.0443 76.0859 79.5625 76.0859 79V73.5469H77.5312V79.0156C77.5312 79.3958 77.5729 79.7109 77.6562 79.9609C77.7448 80.2057 77.862 80.401 78.0078 80.5469C78.1589 80.6875 78.3255 80.7865 78.5078 80.8438C78.6953 80.901 78.888 80.9297 79.0859 80.9297C79.7005 80.9297 80.1875 80.8125 80.5469 80.5781C80.9062 80.3385 81.1641 80.0182 81.3203 79.6172C81.4818 79.2109 81.5625 78.7604 81.5625 78.2656ZM86.8906 74.875V82H85.4453V73.5469H86.8516L86.8906 74.875ZM89.5312 73.5L89.5234 74.8438C89.4036 74.8177 89.2891 74.8021 89.1797 74.7969C89.0755 74.7865 88.9557 74.7812 88.8203 74.7812C88.487 74.7812 88.1927 74.8333 87.9375 74.9375C87.6823 75.0417 87.4661 75.1875 87.2891 75.375C87.112 75.5625 86.9714 75.7865 86.8672 76.0469C86.7682 76.3021 86.7031 76.5833 86.6719 76.8906L86.2656 77.125C86.2656 76.6146 86.3151 76.1354 86.4141 75.6875C86.5182 75.2396 86.6771 74.8438 86.8906 74.5C87.1042 74.151 87.375 73.8802 87.7031 73.6875C88.0365 73.4896 88.4323 73.3906 88.8906 73.3906C88.9948 73.3906 89.1146 73.4036 89.25 73.4297C89.3854 73.4505 89.4792 73.474 89.5312 73.5ZM97.2812 74.875V82H95.8359V73.5469H97.2422L97.2812 74.875ZM99.9219 73.5L99.9141 74.8438C99.7943 74.8177 99.6797 74.8021 99.5703 74.7969C99.4661 74.7865 99.3464 74.7812 99.2109 74.7812C98.8776 74.7812 98.5833 74.8333 98.3281 74.9375C98.0729 75.0417 97.8568 75.1875 97.6797 75.375C97.5026 75.5625 97.362 75.7865 97.2578 76.0469C97.1589 76.3021 97.0938 76.5833 97.0625 76.8906L96.6562 77.125C96.6562 76.6146 96.7057 76.1354 96.8047 75.6875C96.9089 75.2396 97.0677 74.8438 97.2812 74.5C97.4948 74.151 97.7656 73.8802 98.0938 73.6875C98.4271 73.4896 98.8229 73.3906 99.2812 73.3906C99.3854 73.3906 99.5052 73.4036 99.6406 73.4297C99.776 73.4505 99.8698 73.474 99.9219 73.5ZM105.109 82.1562C104.521 82.1562 103.987 82.0573 103.508 81.8594C103.034 81.6562 102.625 81.3724 102.281 81.0078C101.943 80.6432 101.682 80.2109 101.5 79.7109C101.318 79.2109 101.227 78.6641 101.227 78.0703V77.7422C101.227 77.0547 101.328 76.4427 101.531 75.9062C101.734 75.3646 102.01 74.9062 102.359 74.5312C102.708 74.1562 103.104 73.8724 103.547 73.6797C103.99 73.487 104.448 73.3906 104.922 73.3906C105.526 73.3906 106.047 73.4948 106.484 73.7031C106.927 73.9115 107.289 74.2031 107.57 74.5781C107.852 74.9479 108.06 75.3854 108.195 75.8906C108.331 76.3906 108.398 76.9375 108.398 77.5312V78.1797H102.086V77H106.953V76.8906C106.932 76.5156 106.854 76.151 106.719 75.7969C106.589 75.4427 106.38 75.151 106.094 74.9219C105.807 74.6927 105.417 74.5781 104.922 74.5781C104.594 74.5781 104.292 74.6484 104.016 74.7891C103.74 74.9245 103.503 75.1276 103.305 75.3984C103.107 75.6693 102.953 76 102.844 76.3906C102.734 76.7812 102.68 77.2318 102.68 77.7422V78.0703C102.68 78.4714 102.734 78.849 102.844 79.2031C102.958 79.5521 103.122 79.8594 103.336 80.125C103.555 80.3906 103.818 80.599 104.125 80.75C104.438 80.901 104.792 80.9766 105.188 80.9766C105.698 80.9766 106.13 80.8724 106.484 80.6641C106.839 80.4557 107.148 80.1771 107.414 79.8281L108.289 80.5234C108.107 80.7995 107.875 81.0625 107.594 81.3125C107.312 81.5625 106.966 81.7656 106.555 81.9219C106.148 82.0781 105.667 82.1562 105.109 82.1562ZM113.969 80.9688C114.312 80.9688 114.63 80.8984 114.922 80.7578C115.214 80.6172 115.453 80.4245 115.641 80.1797C115.828 79.9297 115.935 79.6458 115.961 79.3281H117.336C117.31 79.8281 117.141 80.2943 116.828 80.7266C116.521 81.1536 116.117 81.5 115.617 81.7656C115.117 82.026 114.568 82.1562 113.969 82.1562C113.333 82.1562 112.779 82.0443 112.305 81.8203C111.836 81.5964 111.445 81.2891 111.133 80.8984C110.826 80.5078 110.594 80.0599 110.438 79.5547C110.286 79.0443 110.211 78.5052 110.211 77.9375V77.6094C110.211 77.0417 110.286 76.5052 110.438 76C110.594 75.4896 110.826 75.0391 111.133 74.6484C111.445 74.2578 111.836 73.9505 112.305 73.7266C112.779 73.5026 113.333 73.3906 113.969 73.3906C114.63 73.3906 115.208 73.526 115.703 73.7969C116.198 74.0625 116.586 74.4271 116.867 74.8906C117.154 75.349 117.31 75.8698 117.336 76.4531H115.961C115.935 76.1042 115.836 75.7891 115.664 75.5078C115.497 75.2266 115.268 75.0026 114.977 74.8359C114.69 74.6641 114.354 74.5781 113.969 74.5781C113.526 74.5781 113.154 74.6667 112.852 74.8438C112.555 75.0156 112.318 75.25 112.141 75.5469C111.969 75.8385 111.844 76.1641 111.766 76.5234C111.693 76.8776 111.656 77.2396 111.656 77.6094V77.9375C111.656 78.3073 111.693 78.6719 111.766 79.0312C111.839 79.3906 111.961 79.7161 112.133 80.0078C112.31 80.2995 112.547 80.5339 112.844 80.7109C113.146 80.8828 113.521 80.9688 113.969 80.9688ZM122.969 82.1562C122.38 82.1562 121.846 82.0573 121.367 81.8594C120.893 81.6562 120.484 81.3724 120.141 81.0078C119.802 80.6432 119.542 80.2109 119.359 79.7109C119.177 79.2109 119.086 78.6641 119.086 78.0703V77.7422C119.086 77.0547 119.188 76.4427 119.391 75.9062C119.594 75.3646 119.87 74.9062 120.219 74.5312C120.568 74.1562 120.964 73.8724 121.406 73.6797C121.849 73.487 122.307 73.3906 122.781 73.3906C123.385 73.3906 123.906 73.4948 124.344 73.7031C124.786 73.9115 125.148 74.2031 125.43 74.5781C125.711 74.9479 125.919 75.3854 126.055 75.8906C126.19 76.3906 126.258 76.9375 126.258 77.5312V78.1797H119.945V77H124.812V76.8906C124.792 76.5156 124.714 76.151 124.578 75.7969C124.448 75.4427 124.24 75.151 123.953 74.9219C123.667 74.6927 123.276 74.5781 122.781 74.5781C122.453 74.5781 122.151 74.6484 121.875 74.7891C121.599 74.9245 121.362 75.1276 121.164 75.3984C120.966 75.6693 120.812 76 120.703 76.3906C120.594 76.7812 120.539 77.2318 120.539 77.7422V78.0703C120.539 78.4714 120.594 78.849 120.703 79.2031C120.818 79.5521 120.982 79.8594 121.195 80.125C121.414 80.3906 121.677 80.599 121.984 80.75C122.297 80.901 122.651 80.9766 123.047 80.9766C123.557 80.9766 123.99 80.8724 124.344 80.6641C124.698 80.4557 125.008 80.1771 125.273 79.8281L126.148 80.5234C125.966 80.7995 125.734 81.0625 125.453 81.3125C125.172 81.5625 124.826 81.7656 124.414 81.9219C124.008 82.0781 123.526 82.1562 122.969 82.1562ZM129.891 75.3516V82H128.445V73.5469H129.812L129.891 75.3516ZM129.547 77.4531L128.945 77.4297C128.951 76.8516 129.036 76.3177 129.203 75.8281C129.37 75.3333 129.604 74.9036 129.906 74.5391C130.208 74.1745 130.568 73.8932 130.984 73.6953C131.406 73.4922 131.872 73.3906 132.383 73.3906C132.799 73.3906 133.174 73.4479 133.508 73.5625C133.841 73.6719 134.125 73.849 134.359 74.0938C134.599 74.3385 134.781 74.6562 134.906 75.0469C135.031 75.4323 135.094 75.9036 135.094 76.4609V82H133.641V76.4453C133.641 76.0026 133.576 75.6484 133.445 75.3828C133.315 75.112 133.125 74.9167 132.875 74.7969C132.625 74.6719 132.318 74.6094 131.953 74.6094C131.594 74.6094 131.266 74.6849 130.969 74.8359C130.677 74.987 130.424 75.1953 130.211 75.4609C130.003 75.7266 129.839 76.0312 129.719 76.375C129.604 76.7135 129.547 77.0729 129.547 77.4531ZM141.328 73.5469V74.6562H136.758V73.5469H141.328ZM138.305 71.4922H139.75V79.9062C139.75 80.1927 139.794 80.4089 139.883 80.5547C139.971 80.7005 140.086 80.7969 140.227 80.8438C140.367 80.8906 140.518 80.9141 140.68 80.9141C140.799 80.9141 140.924 80.9036 141.055 80.8828C141.19 80.8568 141.292 80.8359 141.359 80.8203L141.367 82C141.253 82.0365 141.102 82.0703 140.914 82.1016C140.732 82.138 140.51 82.1562 140.25 82.1562C139.896 82.1562 139.57 82.0859 139.273 81.9453C138.977 81.8047 138.74 81.5703 138.562 81.2422C138.391 80.9089 138.305 80.4609 138.305 79.8984V71.4922ZM151.531 73.5469V74.6562H146.961V73.5469H151.531ZM148.508 71.4922H149.953V79.9062C149.953 80.1927 149.997 80.4089 150.086 80.5547C150.174 80.7005 150.289 80.7969 150.43 80.8438C150.57 80.8906 150.721 80.9141 150.883 80.9141C151.003 80.9141 151.128 80.9036 151.258 80.8828C151.393 80.8568 151.495 80.8359 151.562 80.8203L151.57 82C151.456 82.0365 151.305 82.0703 151.117 82.1016C150.935 82.138 150.714 82.1562 150.453 82.1562C150.099 82.1562 149.773 82.0859 149.477 81.9453C149.18 81.8047 148.943 81.5703 148.766 81.2422C148.594 80.9089 148.508 80.4609 148.508 79.8984V71.4922ZM155.172 74.875V82H153.727V73.5469H155.133L155.172 74.875ZM157.812 73.5L157.805 74.8438C157.685 74.8177 157.57 74.8021 157.461 74.7969C157.357 74.7865 157.237 74.7812 157.102 74.7812C156.768 74.7812 156.474 74.8333 156.219 74.9375C155.964 75.0417 155.747 75.1875 155.57 75.375C155.393 75.5625 155.253 75.7865 155.148 76.0469C155.049 76.3021 154.984 76.5833 154.953 76.8906L154.547 77.125C154.547 76.6146 154.596 76.1354 154.695 75.6875C154.799 75.2396 154.958 74.8438 155.172 74.5C155.385 74.151 155.656 73.8802 155.984 73.6875C156.318 73.4896 156.714 73.3906 157.172 73.3906C157.276 73.3906 157.396 73.4036 157.531 73.4297C157.667 73.4505 157.76 73.474 157.812 73.5ZM164.32 80.5547V76.2031C164.32 75.8698 164.253 75.5807 164.117 75.3359C163.987 75.0859 163.789 74.8932 163.523 74.7578C163.258 74.6224 162.93 74.5547 162.539 74.5547C162.174 74.5547 161.854 74.6172 161.578 74.7422C161.307 74.8672 161.094 75.0312 160.938 75.2344C160.786 75.4375 160.711 75.6562 160.711 75.8906H159.266C159.266 75.5885 159.344 75.2891 159.5 74.9922C159.656 74.6953 159.88 74.4271 160.172 74.1875C160.469 73.9427 160.823 73.75 161.234 73.6094C161.651 73.4635 162.115 73.3906 162.625 73.3906C163.24 73.3906 163.781 73.4948 164.25 73.7031C164.724 73.9115 165.094 74.2266 165.359 74.6484C165.63 75.0651 165.766 75.5885 165.766 76.2188V80.1562C165.766 80.4375 165.789 80.737 165.836 81.0547C165.888 81.3724 165.964 81.6458 166.062 81.875V82H164.555C164.482 81.8333 164.424 81.612 164.383 81.3359C164.341 81.0547 164.32 80.7943 164.32 80.5547ZM164.57 76.875L164.586 77.8906H163.125C162.714 77.8906 162.346 77.9245 162.023 77.9922C161.701 78.0547 161.43 78.151 161.211 78.2812C160.992 78.4115 160.826 78.5755 160.711 78.7734C160.596 78.9661 160.539 79.1927 160.539 79.4531C160.539 79.7188 160.599 79.9609 160.719 80.1797C160.839 80.3984 161.018 80.5729 161.258 80.7031C161.503 80.8281 161.802 80.8906 162.156 80.8906C162.599 80.8906 162.99 80.7969 163.328 80.6094C163.667 80.4219 163.935 80.1927 164.133 79.9219C164.336 79.651 164.445 79.388 164.461 79.1328L165.078 79.8281C165.042 80.0469 164.943 80.2891 164.781 80.5547C164.62 80.8203 164.404 81.0755 164.133 81.3203C163.867 81.5599 163.549 81.7604 163.18 81.9219C162.815 82.0781 162.404 82.1562 161.945 82.1562C161.372 82.1562 160.87 82.0443 160.438 81.8203C160.01 81.5964 159.677 81.2969 159.438 80.9219C159.203 80.5417 159.086 80.1172 159.086 79.6484C159.086 79.1953 159.174 78.7969 159.352 78.4531C159.529 78.1042 159.784 77.8151 160.117 77.5859C160.451 77.3516 160.852 77.1745 161.32 77.0547C161.789 76.9349 162.312 76.875 162.891 76.875H164.57ZM173.867 80.3594V70H175.32V82H173.992L173.867 80.3594ZM168.18 77.8672V77.7031C168.18 77.0573 168.258 76.4714 168.414 75.9453C168.576 75.4141 168.802 74.9583 169.094 74.5781C169.391 74.1979 169.742 73.9062 170.148 73.7031C170.56 73.4948 171.018 73.3906 171.523 73.3906C172.055 73.3906 172.518 73.4844 172.914 73.6719C173.315 73.8542 173.654 74.1224 173.93 74.4766C174.211 74.8255 174.432 75.2474 174.594 75.7422C174.755 76.237 174.867 76.7969 174.93 77.4219V78.1406C174.872 78.7604 174.76 79.3177 174.594 79.8125C174.432 80.3073 174.211 80.7292 173.93 81.0781C173.654 81.4271 173.315 81.6953 172.914 81.8828C172.513 82.0651 172.044 82.1562 171.508 82.1562C171.013 82.1562 170.56 82.0495 170.148 81.8359C169.742 81.6224 169.391 81.3229 169.094 80.9375C168.802 80.5521 168.576 80.099 168.414 79.5781C168.258 79.0521 168.18 78.4818 168.18 77.8672ZM169.633 77.7031V77.8672C169.633 78.2891 169.674 78.6849 169.758 79.0547C169.846 79.4245 169.982 79.75 170.164 80.0312C170.346 80.3125 170.578 80.5339 170.859 80.6953C171.141 80.8516 171.477 80.9297 171.867 80.9297C172.346 80.9297 172.74 80.8281 173.047 80.625C173.359 80.4219 173.609 80.1536 173.797 79.8203C173.984 79.487 174.13 79.125 174.234 78.7344V76.8516C174.172 76.5651 174.081 76.2891 173.961 76.0234C173.846 75.7526 173.695 75.513 173.508 75.3047C173.326 75.0911 173.099 74.9219 172.828 74.7969C172.562 74.6719 172.247 74.6094 171.883 74.6094C171.487 74.6094 171.146 74.6927 170.859 74.8594C170.578 75.0208 170.346 75.2448 170.164 75.5312C169.982 75.8125 169.846 76.1406 169.758 76.5156C169.674 76.8854 169.633 77.2812 169.633 77.7031ZM181.578 82.1562C180.99 82.1562 180.456 82.0573 179.977 81.8594C179.503 81.6562 179.094 81.3724 178.75 81.0078C178.411 80.6432 178.151 80.2109 177.969 79.7109C177.786 79.2109 177.695 78.6641 177.695 78.0703V77.7422C177.695 77.0547 177.797 76.4427 178 75.9062C178.203 75.3646 178.479 74.9062 178.828 74.5312C179.177 74.1562 179.573 73.8724 180.016 73.6797C180.458 73.487 180.917 73.3906 181.391 73.3906C181.995 73.3906 182.516 73.4948 182.953 73.7031C183.396 73.9115 183.758 74.2031 184.039 74.5781C184.32 74.9479 184.529 75.3854 184.664 75.8906C184.799 76.3906 184.867 76.9375 184.867 77.5312V78.1797H178.555V77H183.422V76.8906C183.401 76.5156 183.323 76.151 183.188 75.7969C183.057 75.4427 182.849 75.151 182.562 74.9219C182.276 74.6927 181.885 74.5781 181.391 74.5781C181.062 74.5781 180.76 74.6484 180.484 74.7891C180.208 74.9245 179.971 75.1276 179.773 75.3984C179.576 75.6693 179.422 76 179.312 76.3906C179.203 76.7812 179.148 77.2318 179.148 77.7422V78.0703C179.148 78.4714 179.203 78.849 179.312 79.2031C179.427 79.5521 179.591 79.8594 179.805 80.125C180.023 80.3906 180.286 80.599 180.594 80.75C180.906 80.901 181.26 80.9766 181.656 80.9766C182.167 80.9766 182.599 80.8724 182.953 80.6641C183.307 80.4557 183.617 80.1771 183.883 79.8281L184.758 80.5234C184.576 80.7995 184.344 81.0625 184.062 81.3125C183.781 81.5625 183.435 81.7656 183.023 81.9219C182.617 82.0781 182.135 82.1562 181.578 82.1562ZM196.508 80.5547V76.2031C196.508 75.8698 196.44 75.5807 196.305 75.3359C196.174 75.0859 195.977 74.8932 195.711 74.7578C195.445 74.6224 195.117 74.5547 194.727 74.5547C194.362 74.5547 194.042 74.6172 193.766 74.7422C193.495 74.8672 193.281 75.0312 193.125 75.2344C192.974 75.4375 192.898 75.6562 192.898 75.8906H191.453C191.453 75.5885 191.531 75.2891 191.688 74.9922C191.844 74.6953 192.068 74.4271 192.359 74.1875C192.656 73.9427 193.01 73.75 193.422 73.6094C193.839 73.4635 194.302 73.3906 194.812 73.3906C195.427 73.3906 195.969 73.4948 196.438 73.7031C196.911 73.9115 197.281 74.2266 197.547 74.6484C197.818 75.0651 197.953 75.5885 197.953 76.2188V80.1562C197.953 80.4375 197.977 80.737 198.023 81.0547C198.076 81.3724 198.151 81.6458 198.25 81.875V82H196.742C196.669 81.8333 196.612 81.612 196.57 81.3359C196.529 81.0547 196.508 80.7943 196.508 80.5547ZM196.758 76.875L196.773 77.8906H195.312C194.901 77.8906 194.534 77.9245 194.211 77.9922C193.888 78.0547 193.617 78.151 193.398 78.2812C193.18 78.4115 193.013 78.5755 192.898 78.7734C192.784 78.9661 192.727 79.1927 192.727 79.4531C192.727 79.7188 192.786 79.9609 192.906 80.1797C193.026 80.3984 193.206 80.5729 193.445 80.7031C193.69 80.8281 193.99 80.8906 194.344 80.8906C194.786 80.8906 195.177 80.7969 195.516 80.6094C195.854 80.4219 196.122 80.1927 196.32 79.9219C196.523 79.651 196.633 79.388 196.648 79.1328L197.266 79.8281C197.229 80.0469 197.13 80.2891 196.969 80.5547C196.807 80.8203 196.591 81.0755 196.32 81.3203C196.055 81.5599 195.737 81.7604 195.367 81.9219C195.003 82.0781 194.591 82.1562 194.133 82.1562C193.56 82.1562 193.057 82.0443 192.625 81.8203C192.198 81.5964 191.865 81.2969 191.625 80.9219C191.391 80.5417 191.273 80.1172 191.273 79.6484C191.273 79.1953 191.362 78.7969 191.539 78.4531C191.716 78.1042 191.971 77.8151 192.305 77.5859C192.638 77.3516 193.039 77.1745 193.508 77.0547C193.977 76.9349 194.5 76.875 195.078 76.875H196.758ZM204.109 80.9688C204.453 80.9688 204.771 80.8984 205.062 80.7578C205.354 80.6172 205.594 80.4245 205.781 80.1797C205.969 79.9297 206.076 79.6458 206.102 79.3281H207.477C207.451 79.8281 207.281 80.2943 206.969 80.7266C206.661 81.1536 206.258 81.5 205.758 81.7656C205.258 82.026 204.708 82.1562 204.109 82.1562C203.474 82.1562 202.919 82.0443 202.445 81.8203C201.977 81.5964 201.586 81.2891 201.273 80.8984C200.966 80.5078 200.734 80.0599 200.578 79.5547C200.427 79.0443 200.352 78.5052 200.352 77.9375V77.6094C200.352 77.0417 200.427 76.5052 200.578 76C200.734 75.4896 200.966 75.0391 201.273 74.6484C201.586 74.2578 201.977 73.9505 202.445 73.7266C202.919 73.5026 203.474 73.3906 204.109 73.3906C204.771 73.3906 205.349 73.526 205.844 73.7969C206.339 74.0625 206.727 74.4271 207.008 74.8906C207.294 75.349 207.451 75.8698 207.477 76.4531H206.102C206.076 76.1042 205.977 75.7891 205.805 75.5078C205.638 75.2266 205.409 75.0026 205.117 74.8359C204.831 74.6641 204.495 74.5781 204.109 74.5781C203.667 74.5781 203.294 74.6667 202.992 74.8438C202.695 75.0156 202.458 75.25 202.281 75.5469C202.109 75.8385 201.984 76.1641 201.906 76.5234C201.833 76.8776 201.797 77.2396 201.797 77.6094V77.9375C201.797 78.3073 201.833 78.6719 201.906 79.0312C201.979 79.3906 202.102 79.7161 202.273 80.0078C202.451 80.2995 202.688 80.5339 202.984 80.7109C203.286 80.8828 203.661 80.9688 204.109 80.9688ZM213.141 73.5469V74.6562H208.57V73.5469H213.141ZM210.117 71.4922H211.562V79.9062C211.562 80.1927 211.607 80.4089 211.695 80.5547C211.784 80.7005 211.898 80.7969 212.039 80.8438C212.18 80.8906 212.331 80.9141 212.492 80.9141C212.612 80.9141 212.737 80.9036 212.867 80.8828C213.003 80.8568 213.104 80.8359 213.172 80.8203L213.18 82C213.065 82.0365 212.914 82.0703 212.727 82.1016C212.544 82.138 212.323 82.1562 212.062 82.1562C211.708 82.1562 211.383 82.0859 211.086 81.9453C210.789 81.8047 210.552 81.5703 210.375 81.2422C210.203 80.9089 210.117 80.4609 210.117 79.8984V71.4922ZM216.906 73.5469V82H215.453V73.5469H216.906ZM215.344 71.3047C215.344 71.0703 215.414 70.8724 215.555 70.7109C215.701 70.5495 215.914 70.4688 216.195 70.4688C216.471 70.4688 216.682 70.5495 216.828 70.7109C216.979 70.8724 217.055 71.0703 217.055 71.3047C217.055 71.5286 216.979 71.7214 216.828 71.8828C216.682 72.0391 216.471 72.1172 216.195 72.1172C215.914 72.1172 215.701 72.0391 215.555 71.8828C215.414 71.7214 215.344 71.5286 215.344 71.3047ZM222.297 80.6953L224.609 73.5469H226.086L223.047 82H222.078L222.297 80.6953ZM220.367 73.5469L222.75 80.7344L222.914 82H221.945L218.883 73.5469H220.367ZM229.547 73.5469V82H228.094V73.5469H229.547ZM227.984 71.3047C227.984 71.0703 228.055 70.8724 228.195 70.7109C228.341 70.5495 228.555 70.4688 228.836 70.4688C229.112 70.4688 229.323 70.5495 229.469 70.7109C229.62 70.8724 229.695 71.0703 229.695 71.3047C229.695 71.5286 229.62 71.7214 229.469 71.8828C229.323 72.0391 229.112 72.1172 228.836 72.1172C228.555 72.1172 228.341 72.0391 228.195 71.8828C228.055 71.7214 227.984 71.5286 227.984 71.3047ZM235.906 73.5469V74.6562H231.336V73.5469H235.906ZM232.883 71.4922H234.328V79.9062C234.328 80.1927 234.372 80.4089 234.461 80.5547C234.549 80.7005 234.664 80.7969 234.805 80.8438C234.945 80.8906 235.096 80.9141 235.258 80.9141C235.378 80.9141 235.503 80.9036 235.633 80.8828C235.768 80.8568 235.87 80.8359 235.938 80.8203L235.945 82C235.831 82.0365 235.68 82.0703 235.492 82.1016C235.31 82.138 235.089 82.1562 234.828 82.1562C234.474 82.1562 234.148 82.0859 233.852 81.9453C233.555 81.8047 233.318 81.5703 233.141 81.2422C232.969 80.9089 232.883 80.4609 232.883 79.8984V71.4922ZM240.477 81.125L242.828 73.5469H244.375L240.984 83.3047C240.906 83.513 240.802 83.737 240.672 83.9766C240.547 84.2214 240.385 84.4531 240.188 84.6719C239.99 84.8906 239.75 85.0677 239.469 85.2031C239.193 85.3438 238.862 85.4141 238.477 85.4141C238.362 85.4141 238.216 85.3984 238.039 85.3672C237.862 85.3359 237.737 85.3099 237.664 85.2891L237.656 84.1172C237.698 84.1224 237.763 84.1276 237.852 84.1328C237.945 84.1432 238.01 84.1484 238.047 84.1484C238.375 84.1484 238.654 84.1042 238.883 84.0156C239.112 83.9323 239.305 83.7891 239.461 83.5859C239.622 83.388 239.76 83.1146 239.875 82.7656L240.477 81.125ZM238.75 73.5469L240.945 80.1094L241.32 81.6328L240.281 82.1641L237.172 73.5469H238.75ZM252.219 73.5469V82H250.766V73.5469H252.219ZM250.656 71.3047C250.656 71.0703 250.727 70.8724 250.867 70.7109C251.013 70.5495 251.227 70.4688 251.508 70.4688C251.784 70.4688 251.995 70.5495 252.141 70.7109C252.292 70.8724 252.367 71.0703 252.367 71.3047C252.367 71.5286 252.292 71.7214 252.141 71.8828C251.995 72.0391 251.784 72.1172 251.508 72.1172C251.227 72.1172 251.013 72.0391 250.867 71.8828C250.727 71.7214 250.656 71.5286 250.656 71.3047ZM256.484 75.3516V82H255.039V73.5469H256.406L256.484 75.3516ZM256.141 77.4531L255.539 77.4297C255.544 76.8516 255.63 76.3177 255.797 75.8281C255.964 75.3333 256.198 74.9036 256.5 74.5391C256.802 74.1745 257.161 73.8932 257.578 73.6953C258 73.4922 258.466 73.3906 258.977 73.3906C259.393 73.3906 259.768 73.4479 260.102 73.5625C260.435 73.6719 260.719 73.849 260.953 74.0938C261.193 74.3385 261.375 74.6562 261.5 75.0469C261.625 75.4323 261.688 75.9036 261.688 76.4609V82H260.234V76.4453C260.234 76.0026 260.169 75.6484 260.039 75.3828C259.909 75.112 259.719 74.9167 259.469 74.7969C259.219 74.6719 258.911 74.6094 258.547 74.6094C258.188 74.6094 257.859 74.6849 257.562 74.8359C257.271 74.987 257.018 75.1953 256.805 75.4609C256.596 75.7266 256.432 76.0312 256.312 76.375C256.198 76.7135 256.141 77.0729 256.141 77.4531ZM31.0859 103.555V99.2031C31.0859 98.8698 31.0182 98.5807 30.8828 98.3359C30.7526 98.0859 30.5547 97.8932 30.2891 97.7578C30.0234 97.6224 29.6953 97.5547 29.3047 97.5547C28.9401 97.5547 28.6198 97.6172 28.3438 97.7422C28.0729 97.8672 27.8594 98.0312 27.7031 98.2344C27.5521 98.4375 27.4766 98.6562 27.4766 98.8906H26.0312C26.0312 98.5885 26.1094 98.2891 26.2656 97.9922C26.4219 97.6953 26.6458 97.4271 26.9375 97.1875C27.2344 96.9427 27.5885 96.75 28 96.6094C28.4167 96.4635 28.8802 96.3906 29.3906 96.3906C30.0052 96.3906 30.5469 96.4948 31.0156 96.7031C31.4896 96.9115 31.8594 97.2266 32.125 97.6484C32.3958 98.0651 32.5312 98.5885 32.5312 99.2188V103.156C32.5312 103.438 32.5547 103.737 32.6016 104.055C32.6536 104.372 32.7292 104.646 32.8281 104.875V105H31.3203C31.2474 104.833 31.1901 104.612 31.1484 104.336C31.1068 104.055 31.0859 103.794 31.0859 103.555ZM31.3359 99.875L31.3516 100.891H29.8906C29.4792 100.891 29.112 100.924 28.7891 100.992C28.4661 101.055 28.1953 101.151 27.9766 101.281C27.7578 101.411 27.5911 101.576 27.4766 101.773C27.362 101.966 27.3047 102.193 27.3047 102.453C27.3047 102.719 27.3646 102.961 27.4844 103.18C27.6042 103.398 27.7839 103.573 28.0234 103.703C28.2682 103.828 28.5677 103.891 28.9219 103.891C29.3646 103.891 29.7552 103.797 30.0938 103.609C30.4323 103.422 30.7005 103.193 30.8984 102.922C31.1016 102.651 31.2109 102.388 31.2266 102.133L31.8438 102.828C31.8073 103.047 31.7083 103.289 31.5469 103.555C31.3854 103.82 31.1693 104.076 30.8984 104.32C30.6328 104.56 30.3151 104.76 29.9453 104.922C29.5807 105.078 29.1693 105.156 28.7109 105.156C28.138 105.156 27.6354 105.044 27.2031 104.82C26.776 104.596 26.4427 104.297 26.2031 103.922C25.9688 103.542 25.8516 103.117 25.8516 102.648C25.8516 102.195 25.9401 101.797 26.1172 101.453C26.2943 101.104 26.5495 100.815 26.8828 100.586C27.2161 100.352 27.6172 100.174 28.0859 100.055C28.5547 99.9349 29.0781 99.875 29.6562 99.875H31.3359ZM36.75 98.3516V105H35.3047V96.5469H36.6719L36.75 98.3516ZM36.4062 100.453L35.8047 100.43C35.8099 99.8516 35.8958 99.3177 36.0625 98.8281C36.2292 98.3333 36.4635 97.9036 36.7656 97.5391C37.0677 97.1745 37.4271 96.8932 37.8438 96.6953C38.2656 96.4922 38.7318 96.3906 39.2422 96.3906C39.6589 96.3906 40.0339 96.4479 40.3672 96.5625C40.7005 96.6719 40.9844 96.849 41.2188 97.0938C41.4583 97.3385 41.6406 97.6562 41.7656 98.0469C41.8906 98.4323 41.9531 98.9036 41.9531 99.4609V105H40.5V99.4453C40.5 99.0026 40.4349 98.6484 40.3047 98.3828C40.1745 98.112 39.9844 97.9167 39.7344 97.7969C39.4844 97.6719 39.1771 97.6094 38.8125 97.6094C38.4531 97.6094 38.125 97.6849 37.8281 97.8359C37.5365 97.987 37.2839 98.1953 37.0703 98.4609C36.862 98.7266 36.6979 99.0312 36.5781 99.375C36.4635 99.7135 36.4062 100.073 36.4062 100.453ZM50.6875 96.5469V105H49.2344V96.5469H50.6875ZM49.125 94.3047C49.125 94.0703 49.1953 93.8724 49.3359 93.7109C49.4818 93.5495 49.6953 93.4688 49.9766 93.4688C50.2526 93.4688 50.4635 93.5495 50.6094 93.7109C50.7604 93.8724 50.8359 94.0703 50.8359 94.3047C50.8359 94.5286 50.7604 94.7214 50.6094 94.8828C50.4635 95.0391 50.2526 95.1172 49.9766 95.1172C49.6953 95.1172 49.4818 95.0391 49.3359 94.8828C49.1953 94.7214 49.125 94.5286 49.125 94.3047ZM54.9531 98.3516V105H53.5078V96.5469H54.875L54.9531 98.3516ZM54.6094 100.453L54.0078 100.43C54.013 99.8516 54.099 99.3177 54.2656 98.8281C54.4323 98.3333 54.6667 97.9036 54.9688 97.5391C55.2708 97.1745 55.6302 96.8932 56.0469 96.6953C56.4688 96.4922 56.9349 96.3906 57.4453 96.3906C57.862 96.3906 58.237 96.4479 58.5703 96.5625C58.9036 96.6719 59.1875 96.849 59.4219 97.0938C59.6615 97.3385 59.8438 97.6562 59.9688 98.0469C60.0938 98.4323 60.1562 98.9036 60.1562 99.4609V105H58.7031V99.4453C58.7031 99.0026 58.638 98.6484 58.5078 98.3828C58.3776 98.112 58.1875 97.9167 57.9375 97.7969C57.6875 97.6719 57.3802 97.6094 57.0156 97.6094C56.6562 97.6094 56.3281 97.6849 56.0312 97.8359C55.7396 97.987 55.487 98.1953 55.2734 98.4609C55.0651 98.7266 54.901 99.0312 54.7812 99.375C54.6667 99.7135 54.6094 100.073 54.6094 100.453ZM66.3906 96.5469V97.6562H61.8203V96.5469H66.3906ZM63.3672 94.4922H64.8125V102.906C64.8125 103.193 64.8568 103.409 64.9453 103.555C65.0339 103.701 65.1484 103.797 65.2891 103.844C65.4297 103.891 65.5807 103.914 65.7422 103.914C65.862 103.914 65.987 103.904 66.1172 103.883C66.2526 103.857 66.3542 103.836 66.4219 103.82L66.4297 105C66.3151 105.036 66.1641 105.07 65.9766 105.102C65.7943 105.138 65.5729 105.156 65.3125 105.156C64.9583 105.156 64.6328 105.086 64.3359 104.945C64.0391 104.805 63.8021 104.57 63.625 104.242C63.4531 103.909 63.3672 103.461 63.3672 102.898V94.4922ZM72.0938 105.156C71.5052 105.156 70.9714 105.057 70.4922 104.859C70.0182 104.656 69.6094 104.372 69.2656 104.008C68.9271 103.643 68.6667 103.211 68.4844 102.711C68.3021 102.211 68.2109 101.664 68.2109 101.07V100.742C68.2109 100.055 68.3125 99.4427 68.5156 98.9062C68.7188 98.3646 68.9948 97.9062 69.3438 97.5312C69.6927 97.1562 70.0885 96.8724 70.5312 96.6797C70.974 96.487 71.4323 96.3906 71.9062 96.3906C72.5104 96.3906 73.0312 96.4948 73.4688 96.7031C73.9115 96.9115 74.2734 97.2031 74.5547 97.5781C74.8359 97.9479 75.0443 98.3854 75.1797 98.8906C75.3151 99.3906 75.3828 99.9375 75.3828 100.531V101.18H69.0703V100H73.9375V99.8906C73.9167 99.5156 73.8385 99.151 73.7031 98.7969C73.5729 98.4427 73.3646 98.151 73.0781 97.9219C72.7917 97.6927 72.401 97.5781 71.9062 97.5781C71.5781 97.5781 71.276 97.6484 71 97.7891C70.724 97.9245 70.487 98.1276 70.2891 98.3984C70.0911 98.6693 69.9375 99 69.8281 99.3906C69.7188 99.7812 69.6641 100.232 69.6641 100.742V101.07C69.6641 101.471 69.7188 101.849 69.8281 102.203C69.9427 102.552 70.1068 102.859 70.3203 103.125C70.5391 103.391 70.8021 103.599 71.1094 103.75C71.4219 103.901 71.776 103.977 72.1719 103.977C72.6823 103.977 73.1146 103.872 73.4688 103.664C73.8229 103.456 74.1328 103.177 74.3984 102.828L75.2734 103.523C75.0911 103.799 74.8594 104.062 74.5781 104.312C74.2969 104.562 73.9505 104.766 73.5391 104.922C73.1328 105.078 72.651 105.156 72.0938 105.156ZM79.0156 97.875V105H77.5703V96.5469H78.9766L79.0156 97.875ZM81.6562 96.5L81.6484 97.8438C81.5286 97.8177 81.4141 97.8021 81.3047 97.7969C81.2005 97.7865 81.0807 97.7812 80.9453 97.7812C80.612 97.7812 80.3177 97.8333 80.0625 97.9375C79.8073 98.0417 79.5911 98.1875 79.4141 98.375C79.237 98.5625 79.0964 98.7865 78.9922 99.0469C78.8932 99.3021 78.8281 99.5833 78.7969 99.8906L78.3906 100.125C78.3906 99.6146 78.4401 99.1354 78.5391 98.6875C78.6432 98.2396 78.8021 97.8438 79.0156 97.5C79.2292 97.151 79.5 96.8802 79.8281 96.6875C80.1615 96.4896 80.5573 96.3906 81.0156 96.3906C81.1198 96.3906 81.2396 96.4036 81.375 96.4297C81.5104 96.4505 81.6042 96.474 81.6562 96.5ZM88.1641 103.555V99.2031C88.1641 98.8698 88.0964 98.5807 87.9609 98.3359C87.8307 98.0859 87.6328 97.8932 87.3672 97.7578C87.1016 97.6224 86.7734 97.5547 86.3828 97.5547C86.0182 97.5547 85.6979 97.6172 85.4219 97.7422C85.151 97.8672 84.9375 98.0312 84.7812 98.2344C84.6302 98.4375 84.5547 98.6562 84.5547 98.8906H83.1094C83.1094 98.5885 83.1875 98.2891 83.3438 97.9922C83.5 97.6953 83.724 97.4271 84.0156 97.1875C84.3125 96.9427 84.6667 96.75 85.0781 96.6094C85.4948 96.4635 85.9583 96.3906 86.4688 96.3906C87.0833 96.3906 87.625 96.4948 88.0938 96.7031C88.5677 96.9115 88.9375 97.2266 89.2031 97.6484C89.474 98.0651 89.6094 98.5885 89.6094 99.2188V103.156C89.6094 103.438 89.6328 103.737 89.6797 104.055C89.7318 104.372 89.8073 104.646 89.9062 104.875V105H88.3984C88.3255 104.833 88.2682 104.612 88.2266 104.336C88.1849 104.055 88.1641 103.794 88.1641 103.555ZM88.4141 99.875L88.4297 100.891H86.9688C86.5573 100.891 86.1901 100.924 85.8672 100.992C85.5443 101.055 85.2734 101.151 85.0547 101.281C84.8359 101.411 84.6693 101.576 84.5547 101.773C84.4401 101.966 84.3828 102.193 84.3828 102.453C84.3828 102.719 84.4427 102.961 84.5625 103.18C84.6823 103.398 84.862 103.573 85.1016 103.703C85.3464 103.828 85.6458 103.891 86 103.891C86.4427 103.891 86.8333 103.797 87.1719 103.609C87.5104 103.422 87.7786 103.193 87.9766 102.922C88.1797 102.651 88.2891 102.388 88.3047 102.133L88.9219 102.828C88.8854 103.047 88.7865 103.289 88.625 103.555C88.4635 103.82 88.2474 104.076 87.9766 104.32C87.7109 104.56 87.3932 104.76 87.0234 104.922C86.6589 105.078 86.2474 105.156 85.7891 105.156C85.2161 105.156 84.7135 105.044 84.2812 104.82C83.8542 104.596 83.5208 104.297 83.2812 103.922C83.0469 103.542 82.9297 103.117 82.9297 102.648C82.9297 102.195 83.0182 101.797 83.1953 101.453C83.3724 101.104 83.6276 100.815 83.9609 100.586C84.2943 100.352 84.6953 100.174 85.1641 100.055C85.6328 99.9349 86.1562 99.875 86.7344 99.875H88.4141ZM95.7656 103.969C96.1094 103.969 96.4271 103.898 96.7188 103.758C97.0104 103.617 97.25 103.424 97.4375 103.18C97.625 102.93 97.7318 102.646 97.7578 102.328H99.1328C99.1068 102.828 98.9375 103.294 98.625 103.727C98.3177 104.154 97.9141 104.5 97.4141 104.766C96.9141 105.026 96.3646 105.156 95.7656 105.156C95.1302 105.156 94.5755 105.044 94.1016 104.82C93.6328 104.596 93.2422 104.289 92.9297 103.898C92.6224 103.508 92.3906 103.06 92.2344 102.555C92.0833 102.044 92.0078 101.505 92.0078 100.938V100.609C92.0078 100.042 92.0833 99.5052 92.2344 99C92.3906 98.4896 92.6224 98.0391 92.9297 97.6484C93.2422 97.2578 93.6328 96.9505 94.1016 96.7266C94.5755 96.5026 95.1302 96.3906 95.7656 96.3906C96.4271 96.3906 97.0052 96.526 97.5 96.7969C97.9948 97.0625 98.3828 97.4271 98.6641 97.8906C98.9505 98.349 99.1068 98.8698 99.1328 99.4531H97.7578C97.7318 99.1042 97.6328 98.7891 97.4609 98.5078C97.2943 98.2266 97.0651 98.0026 96.7734 97.8359C96.487 97.6641 96.151 97.5781 95.7656 97.5781C95.3229 97.5781 94.9505 97.6667 94.6484 97.8438C94.3516 98.0156 94.1146 98.25 93.9375 98.5469C93.7656 98.8385 93.6406 99.1641 93.5625 99.5234C93.4896 99.8776 93.4531 100.24 93.4531 100.609V100.938C93.4531 101.307 93.4896 101.672 93.5625 102.031C93.6354 102.391 93.7578 102.716 93.9297 103.008C94.1068 103.299 94.3438 103.534 94.6406 103.711C94.9427 103.883 95.3177 103.969 95.7656 103.969ZM104.797 96.5469V97.6562H100.227V96.5469H104.797ZM101.773 94.4922H103.219V102.906C103.219 103.193 103.263 103.409 103.352 103.555C103.44 103.701 103.555 103.797 103.695 103.844C103.836 103.891 103.987 103.914 104.148 103.914C104.268 103.914 104.393 103.904 104.523 103.883C104.659 103.857 104.76 103.836 104.828 103.82L104.836 105C104.721 105.036 104.57 105.07 104.383 105.102C104.201 105.138 103.979 105.156 103.719 105.156C103.365 105.156 103.039 105.086 102.742 104.945C102.445 104.805 102.208 104.57 102.031 104.242C101.859 103.909 101.773 103.461 101.773 102.898V94.4922ZM108.562 96.5469V105H107.109V96.5469H108.562ZM107 94.3047C107 94.0703 107.07 93.8724 107.211 93.7109C107.357 93.5495 107.57 93.4688 107.852 93.4688C108.128 93.4688 108.339 93.5495 108.484 93.7109C108.635 93.8724 108.711 94.0703 108.711 94.3047C108.711 94.5286 108.635 94.7214 108.484 94.8828C108.339 95.0391 108.128 95.1172 107.852 95.1172C107.57 95.1172 107.357 95.0391 107.211 94.8828C107.07 94.7214 107 94.5286 107 94.3047ZM113.953 103.695L116.266 96.5469H117.742L114.703 105H113.734L113.953 103.695ZM112.023 96.5469L114.406 103.734L114.57 105H113.602L110.539 96.5469H112.023ZM123.031 105.156C122.443 105.156 121.909 105.057 121.43 104.859C120.956 104.656 120.547 104.372 120.203 104.008C119.865 103.643 119.604 103.211 119.422 102.711C119.24 102.211 119.148 101.664 119.148 101.07V100.742C119.148 100.055 119.25 99.4427 119.453 98.9062C119.656 98.3646 119.932 97.9062 120.281 97.5312C120.63 97.1562 121.026 96.8724 121.469 96.6797C121.911 96.487 122.37 96.3906 122.844 96.3906C123.448 96.3906 123.969 96.4948 124.406 96.7031C124.849 96.9115 125.211 97.2031 125.492 97.5781C125.773 97.9479 125.982 98.3854 126.117 98.8906C126.253 99.3906 126.32 99.9375 126.32 100.531V101.18H120.008V100H124.875V99.8906C124.854 99.5156 124.776 99.151 124.641 98.7969C124.51 98.4427 124.302 98.151 124.016 97.9219C123.729 97.6927 123.339 97.5781 122.844 97.5781C122.516 97.5781 122.214 97.6484 121.938 97.7891C121.661 97.9245 121.424 98.1276 121.227 98.3984C121.029 98.6693 120.875 99 120.766 99.3906C120.656 99.7812 120.602 100.232 120.602 100.742V101.07C120.602 101.471 120.656 101.849 120.766 102.203C120.88 102.552 121.044 102.859 121.258 103.125C121.477 103.391 121.74 103.599 122.047 103.75C122.359 103.901 122.714 103.977 123.109 103.977C123.62 103.977 124.052 103.872 124.406 103.664C124.76 103.456 125.07 103.177 125.336 102.828L126.211 103.523C126.029 103.799 125.797 104.062 125.516 104.312C125.234 104.562 124.888 104.766 124.477 104.922C124.07 105.078 123.589 105.156 123.031 105.156ZM138.453 96.5469H139.766V104.82C139.766 105.565 139.615 106.201 139.312 106.727C139.01 107.253 138.589 107.651 138.047 107.922C137.51 108.198 136.891 108.336 136.188 108.336C135.896 108.336 135.552 108.289 135.156 108.195C134.766 108.107 134.38 107.953 134 107.734C133.625 107.521 133.31 107.232 133.055 106.867L133.812 106.008C134.167 106.435 134.536 106.732 134.922 106.898C135.312 107.065 135.698 107.148 136.078 107.148C136.536 107.148 136.932 107.062 137.266 106.891C137.599 106.719 137.857 106.464 138.039 106.125C138.227 105.792 138.32 105.38 138.32 104.891V98.4062L138.453 96.5469ZM132.633 100.867V100.703C132.633 100.057 132.708 99.4714 132.859 98.9453C133.016 98.4141 133.237 97.9583 133.523 97.5781C133.815 97.1979 134.167 96.9062 134.578 96.7031C134.99 96.4948 135.453 96.3906 135.969 96.3906C136.5 96.3906 136.964 96.4844 137.359 96.6719C137.76 96.8542 138.099 97.1224 138.375 97.4766C138.656 97.8255 138.878 98.2474 139.039 98.7422C139.201 99.237 139.312 99.7969 139.375 100.422V101.141C139.318 101.76 139.206 102.318 139.039 102.812C138.878 103.307 138.656 103.729 138.375 104.078C138.099 104.427 137.76 104.695 137.359 104.883C136.958 105.065 136.49 105.156 135.953 105.156C135.448 105.156 134.99 105.049 134.578 104.836C134.172 104.622 133.823 104.323 133.531 103.938C133.24 103.552 133.016 103.099 132.859 102.578C132.708 102.052 132.633 101.482 132.633 100.867ZM134.078 100.703V100.867C134.078 101.289 134.12 101.685 134.203 102.055C134.292 102.424 134.424 102.75 134.602 103.031C134.784 103.312 135.016 103.534 135.297 103.695C135.578 103.852 135.914 103.93 136.305 103.93C136.784 103.93 137.18 103.828 137.492 103.625C137.805 103.422 138.052 103.154 138.234 102.82C138.422 102.487 138.568 102.125 138.672 101.734V99.8516C138.615 99.5651 138.526 99.2891 138.406 99.0234C138.292 98.7526 138.141 98.513 137.953 98.3047C137.771 98.0911 137.544 97.9219 137.273 97.7969C137.003 97.6719 136.685 97.6094 136.32 97.6094C135.924 97.6094 135.583 97.6927 135.297 97.8594C135.016 98.0208 134.784 98.2448 134.602 98.5312C134.424 98.8125 134.292 99.1406 134.203 99.5156C134.12 99.8854 134.078 100.281 134.078 100.703ZM143.906 97.875V105H142.461V96.5469H143.867L143.906 97.875ZM146.547 96.5L146.539 97.8438C146.419 97.8177 146.305 97.8021 146.195 97.7969C146.091 97.7865 145.971 97.7812 145.836 97.7812C145.503 97.7812 145.208 97.8333 144.953 97.9375C144.698 98.0417 144.482 98.1875 144.305 98.375C144.128 98.5625 143.987 98.7865 143.883 99.0469C143.784 99.3021 143.719 99.5833 143.688 99.8906L143.281 100.125C143.281 99.6146 143.331 99.1354 143.43 98.6875C143.534 98.2396 143.693 97.8438 143.906 97.5C144.12 97.151 144.391 96.8802 144.719 96.6875C145.052 96.4896 145.448 96.3906 145.906 96.3906C146.01 96.3906 146.13 96.4036 146.266 96.4297C146.401 96.4505 146.495 96.474 146.547 96.5ZM153.055 103.555V99.2031C153.055 98.8698 152.987 98.5807 152.852 98.3359C152.721 98.0859 152.523 97.8932 152.258 97.7578C151.992 97.6224 151.664 97.5547 151.273 97.5547C150.909 97.5547 150.589 97.6172 150.312 97.7422C150.042 97.8672 149.828 98.0312 149.672 98.2344C149.521 98.4375 149.445 98.6562 149.445 98.8906H148C148 98.5885 148.078 98.2891 148.234 97.9922C148.391 97.6953 148.615 97.4271 148.906 97.1875C149.203 96.9427 149.557 96.75 149.969 96.6094C150.385 96.4635 150.849 96.3906 151.359 96.3906C151.974 96.3906 152.516 96.4948 152.984 96.7031C153.458 96.9115 153.828 97.2266 154.094 97.6484C154.365 98.0651 154.5 98.5885 154.5 99.2188V103.156C154.5 103.438 154.523 103.737 154.57 104.055C154.622 104.372 154.698 104.646 154.797 104.875V105H153.289C153.216 104.833 153.159 104.612 153.117 104.336C153.076 104.055 153.055 103.794 153.055 103.555ZM153.305 99.875L153.32 100.891H151.859C151.448 100.891 151.081 100.924 150.758 100.992C150.435 101.055 150.164 101.151 149.945 101.281C149.727 101.411 149.56 101.576 149.445 101.773C149.331 101.966 149.273 102.193 149.273 102.453C149.273 102.719 149.333 102.961 149.453 103.18C149.573 103.398 149.753 103.573 149.992 103.703C150.237 103.828 150.536 103.891 150.891 103.891C151.333 103.891 151.724 103.797 152.062 103.609C152.401 103.422 152.669 103.193 152.867 102.922C153.07 102.651 153.18 102.388 153.195 102.133L153.812 102.828C153.776 103.047 153.677 103.289 153.516 103.555C153.354 103.82 153.138 104.076 152.867 104.32C152.602 104.56 152.284 104.76 151.914 104.922C151.549 105.078 151.138 105.156 150.68 105.156C150.107 105.156 149.604 105.044 149.172 104.82C148.745 104.596 148.411 104.297 148.172 103.922C147.938 103.542 147.82 103.117 147.82 102.648C147.82 102.195 147.909 101.797 148.086 101.453C148.263 101.104 148.518 100.815 148.852 100.586C149.185 100.352 149.586 100.174 150.055 100.055C150.523 99.9349 151.047 99.875 151.625 99.875H153.305ZM158.719 98.1719V108.25H157.266V96.5469H158.594L158.719 98.1719ZM164.414 100.703V100.867C164.414 101.482 164.341 102.052 164.195 102.578C164.049 103.099 163.836 103.552 163.555 103.938C163.279 104.323 162.938 104.622 162.531 104.836C162.125 105.049 161.659 105.156 161.133 105.156C160.596 105.156 160.122 105.068 159.711 104.891C159.299 104.714 158.951 104.456 158.664 104.117C158.378 103.779 158.148 103.372 157.977 102.898C157.81 102.424 157.695 101.891 157.633 101.297V100.422C157.695 99.7969 157.812 99.237 157.984 98.7422C158.156 98.2474 158.383 97.8255 158.664 97.4766C158.951 97.1224 159.297 96.8542 159.703 96.6719C160.109 96.4844 160.578 96.3906 161.109 96.3906C161.641 96.3906 162.112 96.4948 162.523 96.7031C162.935 96.9062 163.281 97.1979 163.562 97.5781C163.844 97.9583 164.055 98.4141 164.195 98.9453C164.341 99.4714 164.414 100.057 164.414 100.703ZM162.961 100.867V100.703C162.961 100.281 162.917 99.8854 162.828 99.5156C162.74 99.1406 162.602 98.8125 162.414 98.5312C162.232 98.2448 161.997 98.0208 161.711 97.8594C161.424 97.6927 161.083 97.6094 160.688 97.6094C160.323 97.6094 160.005 97.6719 159.734 97.7969C159.469 97.9219 159.242 98.0911 159.055 98.3047C158.867 98.513 158.714 98.7526 158.594 99.0234C158.479 99.2891 158.393 99.5651 158.336 99.8516V101.875C158.44 102.24 158.586 102.583 158.773 102.906C158.961 103.224 159.211 103.482 159.523 103.68C159.836 103.872 160.229 103.969 160.703 103.969C161.094 103.969 161.43 103.888 161.711 103.727C161.997 103.56 162.232 103.333 162.414 103.047C162.602 102.76 162.74 102.432 162.828 102.062C162.917 101.688 162.961 101.289 162.961 100.867ZM168.203 93V105H166.758V93H168.203ZM167.859 100.453L167.258 100.43C167.263 99.8516 167.349 99.3177 167.516 98.8281C167.682 98.3333 167.917 97.9036 168.219 97.5391C168.521 97.1745 168.88 96.8932 169.297 96.6953C169.719 96.4922 170.185 96.3906 170.695 96.3906C171.112 96.3906 171.487 96.4479 171.82 96.5625C172.154 96.6719 172.438 96.849 172.672 97.0938C172.911 97.3385 173.094 97.6562 173.219 98.0469C173.344 98.4323 173.406 98.9036 173.406 99.4609V105H171.953V99.4453C171.953 99.0026 171.888 98.6484 171.758 98.3828C171.628 98.112 171.438 97.9167 171.188 97.7969C170.938 97.6719 170.63 97.6094 170.266 97.6094C169.906 97.6094 169.578 97.6849 169.281 97.8359C168.99 97.987 168.737 98.1953 168.523 98.4609C168.315 98.7266 168.151 99.0312 168.031 99.375C167.917 99.7135 167.859 100.073 167.859 100.453ZM176.094 104.234C176.094 103.99 176.169 103.784 176.32 103.617C176.477 103.445 176.701 103.359 176.992 103.359C177.284 103.359 177.505 103.445 177.656 103.617C177.812 103.784 177.891 103.99 177.891 104.234C177.891 104.474 177.812 104.677 177.656 104.844C177.505 105.01 177.284 105.094 176.992 105.094C176.701 105.094 176.477 105.01 176.32 104.844C176.169 104.677 176.094 104.474 176.094 104.234Z" fill="#CED8E1"/>
<rect x="295" y="25" width="40" height="40" rx="20" fill="#151A20"/>
<path d="M313 53C312.172 53 311.5 52.3284 311.5 51.5C311.5 50.6716 312.172 50 313 50H315H317C317.828 50 318.5 50.6716 318.5 51.5C318.5 52.3284 317.828 53 317 53H313ZM308 45.5667C308 44.7014 308.701 44 309.567 44H315H320.433C321.299 44 322 44.7014 322 45.5667C322 46.4319 321.299 47.1333 320.433 47.1333H315H309.567C308.701 47.1333 308 46.4319 308 45.5667ZM324.167 37C324.903 37 325.5 37.597 325.5 38.3333C325.5 39.0697 324.903 39.6667 324.167 39.6667H315H305.833C305.097 39.6667 304.5 39.0697 304.5 38.3333C304.5 37.597 305.097 37 305.833 37H324.167Z" fill="white"/>
<path d="M37.2412 170.499C37.2412 171.062 37.11 171.54 36.8476 171.934C36.5895 172.323 36.2383 172.619 35.7939 172.822C35.3538 173.025 34.8566 173.127 34.3022 173.127C33.7479 173.127 33.2485 173.025 32.8042 172.822C32.3598 172.619 32.0086 172.323 31.7505 171.934C31.4923 171.54 31.3633 171.062 31.3633 170.499C31.3633 170.131 31.4331 169.794 31.5727 169.49C31.7166 169.181 31.9176 168.912 32.1758 168.684C32.4381 168.455 32.747 168.279 33.1025 168.157C33.4622 168.03 33.8579 167.966 34.2895 167.966C34.8566 167.966 35.3623 168.076 35.8066 168.296C36.2509 168.512 36.6001 168.811 36.854 169.191C37.1121 169.572 37.2412 170.008 37.2412 170.499ZM36.0605 170.474C36.0605 170.131 35.9865 169.828 35.8383 169.566C35.6902 169.299 35.4829 169.092 35.2163 168.944C34.9497 168.796 34.6408 168.722 34.2895 168.722C33.9298 168.722 33.6188 168.796 33.3564 168.944C33.0983 169.092 32.8973 169.299 32.7534 169.566C32.6095 169.828 32.5376 170.131 32.5376 170.474C32.5376 170.829 32.6074 171.134 32.747 171.388C32.8909 171.637 33.094 171.83 33.3564 171.965C33.623 172.097 33.9383 172.162 34.3022 172.162C34.6661 172.162 34.9793 172.097 35.2417 171.965C35.504 171.83 35.705 171.637 35.8447 171.388C35.9886 171.134 36.0605 170.829 36.0605 170.474ZM37.0254 166.164C37.0254 166.612 36.9069 167.016 36.6699 167.376C36.4329 167.736 36.1092 168.019 35.6987 168.227C35.2882 168.434 34.8227 168.538 34.3022 168.538C33.7732 168.538 33.3014 168.434 32.8867 168.227C32.4762 168.019 32.1546 167.736 31.9218 167.376C31.6891 167.016 31.5727 166.612 31.5727 166.164C31.5727 165.626 31.6891 165.169 31.9218 164.792C32.1588 164.416 32.4826 164.128 32.893 163.929C33.3035 163.73 33.7711 163.631 34.2959 163.631C34.8248 163.631 35.2946 163.73 35.705 163.929C36.1155 164.128 36.4371 164.416 36.6699 164.792C36.9069 165.169 37.0254 165.626 37.0254 166.164ZM35.851 166.183C35.851 165.874 35.7855 165.601 35.6543 165.364C35.5231 165.127 35.3411 164.941 35.1084 164.805C34.8756 164.666 34.6048 164.596 34.2959 164.596C33.9869 164.596 33.7161 164.661 33.4834 164.792C33.2549 164.919 33.075 165.101 32.9438 165.338C32.8169 165.575 32.7534 165.857 32.7534 166.183C32.7534 166.5 32.8169 166.777 32.9438 167.014C33.075 167.251 33.257 167.435 33.4897 167.566C33.7225 167.698 33.9933 167.763 34.3022 167.763C34.6111 167.763 34.8799 167.698 35.1084 167.566C35.3411 167.435 35.5231 167.251 35.6543 167.014C35.7855 166.777 35.851 166.5 35.851 166.183ZM40.5341 163.25V173H39.3535V163.25H40.5341ZM44.7299 166.132L41.7339 169.337L40.0581 171.077L39.9629 169.826L41.1626 168.392L43.2954 166.132H44.7299ZM43.6572 173L41.207 169.725L41.8164 168.677L45.041 173H43.6572Z" fill="white"/>
<path d="M35.9209 205.745H36.0224V206.742H35.9209C35.2988 206.742 34.7783 206.843 34.3593 207.046C33.9404 207.245 33.6082 207.514 33.3628 207.853C33.1173 208.187 32.9396 208.563 32.8296 208.982C32.7238 209.401 32.6709 209.827 32.6709 210.258V211.617C32.6709 212.027 32.7195 212.391 32.8169 212.708C32.9142 213.022 33.0475 213.286 33.2168 213.502C33.386 213.718 33.5765 213.881 33.7881 213.991C34.0039 214.101 34.2282 214.156 34.4609 214.156C34.7317 214.156 34.973 214.105 35.1845 214.003C35.3961 213.898 35.5739 213.752 35.7177 213.565C35.8659 213.375 35.978 213.151 36.0542 212.893C36.1303 212.634 36.1684 212.351 36.1684 212.042C36.1684 211.767 36.1346 211.502 36.0669 211.249C35.9992 210.99 35.8955 210.762 35.7558 210.563C35.6162 210.36 35.4406 210.201 35.229 210.087C35.0216 209.968 34.7741 209.909 34.4863 209.909C34.1605 209.909 33.8558 209.99 33.5722 210.15C33.2929 210.307 33.0623 210.514 32.8803 210.772C32.7026 211.026 32.601 211.304 32.5757 211.604L31.9536 211.598C32.0128 211.124 32.1229 210.72 32.2837 210.385C32.4487 210.047 32.6518 209.772 32.893 209.56C33.1385 209.344 33.4114 209.188 33.7119 209.09C34.0166 208.989 34.3382 208.938 34.6767 208.938C35.138 208.938 35.5358 209.025 35.8701 209.198C36.2044 209.372 36.4795 209.604 36.6953 209.896C36.9111 210.184 37.0698 210.51 37.1714 210.874C37.2772 211.234 37.33 211.604 37.33 211.985C37.33 212.421 37.2687 212.829 37.146 213.21C37.0232 213.591 36.8392 213.925 36.5937 214.213C36.3525 214.501 36.0542 214.725 35.6987 214.886C35.3432 215.047 34.9306 215.127 34.4609 215.127C33.9616 215.127 33.5257 215.025 33.1533 214.822C32.7809 214.615 32.472 214.34 32.2265 213.997C31.9811 213.654 31.797 213.273 31.6743 212.854C31.5516 212.436 31.4902 212.01 31.4902 211.579V211.026C31.4902 210.375 31.5558 209.736 31.687 209.109C31.8182 208.483 32.0446 207.916 32.3662 207.408C32.692 206.9 33.1427 206.496 33.7182 206.196C34.2938 205.895 35.028 205.745 35.9209 205.745ZM40.5341 205.25V215H39.3535V205.25H40.5341ZM44.7299 208.132L41.7339 211.337L40.0581 213.077L39.9629 211.826L41.1626 210.392L43.2954 208.132H44.7299ZM43.6572 215L41.207 211.725L41.8164 210.677L45.041 215H43.6572Z" fill="white"/>
<path d="M37.6601 253.89V254.854H30.9824V254.163L35.1211 247.758H36.0796L35.0512 249.611L32.3154 253.89H37.6601ZM36.3716 247.758V257H35.1972V247.758H36.3716ZM40.5341 247.25V257H39.3535V247.25H40.5341ZM44.7299 250.132L41.7339 253.337L40.0581 255.077L39.9629 253.826L41.1626 252.392L43.2954 250.132H44.7299ZM43.6572 257L41.207 253.725L41.8164 252.677L45.041 257H43.6572Z" fill="white"/>
<path d="M37.4697 298.035V299H31.4204V298.156L34.4482 294.785C34.8206 294.37 35.1084 294.019 35.3115 293.731C35.5188 293.439 35.6627 293.179 35.7431 292.951C35.8278 292.718 35.8701 292.481 35.8701 292.24C35.8701 291.935 35.8066 291.66 35.6797 291.415C35.5569 291.165 35.375 290.966 35.1338 290.818C34.8925 290.67 34.6006 290.596 34.2578 290.596C33.8473 290.596 33.5045 290.676 33.2295 290.837C32.9586 290.993 32.7555 291.214 32.6201 291.497C32.4847 291.781 32.417 292.106 32.417 292.475H31.2426C31.2426 291.954 31.3569 291.478 31.5854 291.046C31.8139 290.615 32.1525 290.272 32.601 290.018C33.0496 289.76 33.6019 289.631 34.2578 289.631C34.8418 289.631 35.3411 289.735 35.7558 289.942C36.1705 290.145 36.4879 290.433 36.708 290.805C36.9323 291.173 37.0444 291.605 37.0444 292.1C37.0444 292.371 36.9979 292.646 36.9048 292.925C36.8159 293.2 36.6911 293.475 36.5302 293.75C36.3737 294.026 36.1896 294.296 35.978 294.563C35.7706 294.83 35.5485 295.092 35.3115 295.35L32.8359 298.035H37.4697ZM40.5341 289.25V299H39.3535V289.25H40.5341ZM44.7299 292.132L41.7339 295.337L40.0581 297.077L39.9629 295.826L41.1626 294.392L43.2954 292.132H44.7299ZM43.6572 299L41.207 295.725L41.8164 294.677L45.041 299H43.6572Z" fill="white"/>
<path d="M37.2158 335.643V337.052C37.2158 337.809 37.1481 338.448 37.0127 338.969C36.8772 339.489 36.6826 339.908 36.4287 340.226C36.1748 340.543 35.868 340.774 35.5083 340.917C35.1528 341.057 34.7508 341.127 34.3022 341.127C33.9467 341.127 33.6188 341.083 33.3183 340.994C33.0179 340.905 32.747 340.763 32.5058 340.568C32.2688 340.369 32.0657 340.111 31.8965 339.794C31.7272 339.477 31.5981 339.091 31.5092 338.639C31.4204 338.186 31.3759 337.657 31.3759 337.052V335.643C31.3759 334.885 31.4437 334.25 31.5791 333.738C31.7187 333.226 31.9155 332.816 32.1694 332.507C32.4233 332.194 32.728 331.969 33.0835 331.834C33.4432 331.699 33.8452 331.631 34.2895 331.631C34.6492 331.631 34.9793 331.675 35.2798 331.764C35.5844 331.849 35.8553 331.986 36.0923 332.177C36.3292 332.363 36.5302 332.613 36.6953 332.926C36.8646 333.235 36.9936 333.613 37.0825 334.062C37.1714 334.511 37.2158 335.037 37.2158 335.643ZM36.0351 337.242V335.446C36.0351 335.031 36.0097 334.667 35.959 334.354C35.9124 334.037 35.8426 333.766 35.7495 333.542C35.6564 333.317 35.5379 333.135 35.394 332.996C35.2544 332.856 35.0914 332.754 34.9052 332.691C34.7233 332.623 34.518 332.589 34.2895 332.589C34.0102 332.589 33.7627 332.642 33.5468 332.748C33.331 332.85 33.1491 333.013 33.0009 333.237C32.8571 333.461 32.747 333.755 32.6709 334.119C32.5947 334.483 32.5566 334.925 32.5566 335.446V337.242C32.5566 337.657 32.5799 338.023 32.6264 338.34C32.6772 338.658 32.7513 338.933 32.8486 339.166C32.9459 339.394 33.0644 339.582 33.2041 339.73C33.3437 339.879 33.5045 339.989 33.6865 340.061C33.8727 340.128 34.0779 340.162 34.3022 340.162C34.59 340.162 34.8418 340.107 35.0576 339.997C35.2734 339.887 35.4533 339.716 35.5971 339.483C35.7452 339.246 35.8553 338.943 35.9272 338.575C35.9992 338.203 36.0351 337.758 36.0351 337.242Z" fill="white"/>
<line x1="59.146" y1="167.5" x2="320.146" y2="167.5" stroke="#1E2125" stroke-dasharray="7 7"/>
<line x1="59.146" y1="209.5" x2="320.146" y2="209.5" stroke="#1E2125" stroke-dasharray="7 7"/>
<line x1="59.146" y1="251.5" x2="320.146" y2="251.5" stroke="#1E2125" stroke-dasharray="7 7"/>
<line x1="59.146" y1="293.5" x2="320.146" y2="293.5" stroke="#1E2125" stroke-dasharray="7 7"/>
<line x1="59.146" y1="335.5" x2="320.146" y2="335.5" stroke="#1E2125" stroke-dasharray="7 7"/>
<rect x="73.146" y="230" width="16" height="48" rx="8" fill="#3A9745"/>
<rect x="102.146" y="271" width="16" height="31" rx="8" fill="#D9524E"/>
<rect x="131.146" y="210" width="16" height="62" rx="8" fill="#3A9745"/>
<rect x="160.146" y="227" width="16" height="33" rx="8" fill="#D9524E"/>
<rect x="189.146" y="230" width="16" height="97" rx="8" fill="#D9524E"/>
<rect x="218.146" y="173" width="16" height="119" rx="8" fill="#3A9745"/>
<rect x="247.146" y="233" width="16" height="69" rx="8" fill="#D9524E"/>
<rect x="276.146" y="215" width="16" height="78" rx="8" fill="#3A9745"/>
<rect x="305.146" y="243" width="16" height="29" rx="8" fill="#D9524E"/>
<path d="M26.498 381.758L28.8975 386.398L31.3032 381.758H32.6934L29.5068 387.547V391H28.2817V387.547L25.0952 381.758H26.498ZM36.1338 391.127C35.6556 391.127 35.2218 391.047 34.8325 390.886C34.4474 390.721 34.1152 390.49 33.8359 390.194C33.5609 389.898 33.3493 389.546 33.2012 389.14C33.0531 388.734 32.979 388.29 32.979 387.807V387.541C32.979 386.982 33.0615 386.485 33.2266 386.049C33.3916 385.609 33.6159 385.236 33.8994 384.932C34.1829 384.627 34.5046 384.396 34.8643 384.24C35.224 384.083 35.5964 384.005 35.9814 384.005C36.4723 384.005 36.8955 384.09 37.251 384.259C37.6107 384.428 37.9048 384.665 38.1333 384.97C38.3618 385.27 38.5311 385.626 38.6411 386.036C38.7511 386.442 38.8062 386.887 38.8062 387.369V387.896H33.6772V386.938H37.6318V386.849C37.6149 386.544 37.5514 386.248 37.4414 385.96C37.3356 385.672 37.1663 385.435 36.9336 385.249C36.7008 385.063 36.3835 384.97 35.9814 384.97C35.7148 384.97 35.4694 385.027 35.2451 385.141C35.0208 385.251 34.8283 385.416 34.6675 385.636C34.5067 385.856 34.3818 386.125 34.293 386.442C34.2041 386.76 34.1597 387.126 34.1597 387.541V387.807C34.1597 388.133 34.2041 388.44 34.293 388.728C34.3861 389.011 34.5194 389.261 34.6929 389.477C34.8706 389.692 35.0843 389.862 35.334 389.984C35.5879 390.107 35.8757 390.168 36.1973 390.168C36.612 390.168 36.9632 390.084 37.251 389.915C37.5387 389.745 37.7905 389.519 38.0063 389.235L38.7173 389.8C38.5692 390.025 38.3809 390.238 38.1523 390.441C37.9238 390.645 37.6424 390.81 37.3081 390.937C36.978 391.063 36.5866 391.127 36.1338 391.127ZM44.2271 389.826V386.29C44.2271 386.019 44.172 385.784 44.062 385.585C43.9562 385.382 43.7954 385.226 43.5796 385.116C43.3638 385.006 43.0972 384.951 42.7798 384.951C42.4836 384.951 42.2233 385.001 41.999 385.103C41.779 385.205 41.6055 385.338 41.4785 385.503C41.3558 385.668 41.2944 385.846 41.2944 386.036H40.1201C40.1201 385.791 40.1836 385.547 40.3105 385.306C40.4375 385.065 40.6195 384.847 40.8564 384.652C41.0977 384.453 41.3854 384.297 41.7197 384.183C42.0583 384.064 42.4349 384.005 42.8496 384.005C43.349 384.005 43.7891 384.09 44.1699 384.259C44.555 384.428 44.8555 384.684 45.0713 385.027C45.2913 385.365 45.4014 385.791 45.4014 386.303V389.502C45.4014 389.73 45.4204 389.974 45.4585 390.232C45.5008 390.49 45.5622 390.712 45.6426 390.898V391H44.4175C44.3582 390.865 44.3117 390.685 44.2778 390.46C44.244 390.232 44.2271 390.02 44.2271 389.826ZM44.4302 386.836L44.4429 387.661H43.2559C42.9215 387.661 42.6232 387.689 42.3608 387.744C42.0985 387.794 41.8784 387.873 41.7007 387.979C41.5229 388.084 41.3875 388.218 41.2944 388.378C41.2013 388.535 41.1548 388.719 41.1548 388.931C41.1548 389.146 41.2035 389.343 41.3008 389.521C41.3981 389.699 41.5441 389.84 41.7388 389.946C41.9377 390.048 42.181 390.099 42.4688 390.099C42.8285 390.099 43.1458 390.022 43.4209 389.87C43.696 389.718 43.9139 389.532 44.0747 389.312C44.2397 389.091 44.3286 388.878 44.3413 388.67L44.8428 389.235C44.8132 389.413 44.7327 389.61 44.6016 389.826C44.4704 390.042 44.2948 390.249 44.0747 390.448C43.8589 390.642 43.6007 390.805 43.3003 390.937C43.0041 391.063 42.6698 391.127 42.2974 391.127C41.8319 391.127 41.4235 391.036 41.0723 390.854C40.7253 390.672 40.4544 390.429 40.2598 390.124C40.0693 389.815 39.9741 389.47 39.9741 389.089C39.9741 388.721 40.0461 388.397 40.1899 388.118C40.3338 387.835 40.5412 387.6 40.812 387.414C41.0828 387.223 41.4087 387.079 41.7896 386.982C42.1704 386.885 42.5957 386.836 43.0654 386.836H44.4302ZM48.4229 385.211V391H47.2485V384.132H48.3911L48.4229 385.211ZM50.5684 384.094L50.562 385.186C50.4647 385.164 50.3716 385.152 50.2827 385.147C50.1981 385.139 50.1007 385.135 49.9907 385.135C49.7199 385.135 49.4808 385.177 49.2734 385.262C49.0661 385.346 48.8905 385.465 48.7466 385.617C48.6027 385.77 48.4884 385.951 48.4038 386.163C48.3234 386.37 48.2705 386.599 48.2451 386.849L47.915 387.039C47.915 386.624 47.9552 386.235 48.0356 385.871C48.1203 385.507 48.2493 385.186 48.4229 384.906C48.5964 384.623 48.8164 384.403 49.083 384.246C49.3538 384.085 49.6755 384.005 50.0479 384.005C50.1325 384.005 50.2298 384.015 50.3398 384.037C50.4499 384.054 50.526 384.073 50.5684 384.094ZM60.8071 390.035V391H54.7578V390.156L57.7856 386.785C58.158 386.37 58.4458 386.019 58.6489 385.731C58.8563 385.439 59.0002 385.179 59.0806 384.951C59.1652 384.718 59.2075 384.481 59.2075 384.24C59.2075 383.935 59.144 383.66 59.0171 383.415C58.8944 383.165 58.7124 382.966 58.4712 382.818C58.23 382.67 57.938 382.596 57.5952 382.596C57.1847 382.596 56.842 382.676 56.5669 382.837C56.2961 382.993 56.0929 383.214 55.9575 383.497C55.8221 383.781 55.7544 384.106 55.7544 384.475H54.5801C54.5801 383.954 54.6943 383.478 54.9229 383.046C55.1514 382.615 55.4899 382.272 55.9385 382.018C56.387 381.76 56.9393 381.631 57.5952 381.631C58.1792 381.631 58.6785 381.735 59.0933 381.942C59.508 382.145 59.8254 382.433 60.0454 382.805C60.2697 383.173 60.3818 383.605 60.3818 384.1C60.3818 384.371 60.3353 384.646 60.2422 384.925C60.1533 385.2 60.0285 385.475 59.8677 385.75C59.7111 386.026 59.527 386.296 59.3154 386.563C59.1081 386.83 58.8859 387.092 58.6489 387.35L56.1733 390.035H60.8071ZM67.8657 385.643V387.052C67.8657 387.809 67.798 388.448 67.6626 388.969C67.5272 389.489 67.3325 389.908 67.0786 390.226C66.8247 390.543 66.5179 390.774 66.1582 390.917C65.8027 391.057 65.4007 391.127 64.9521 391.127C64.5967 391.127 64.2687 391.083 63.9683 390.994C63.6678 390.905 63.397 390.763 63.1558 390.568C62.9188 390.369 62.7157 390.111 62.5464 389.794C62.3771 389.477 62.248 389.091 62.1592 388.639C62.0703 388.186 62.0259 387.657 62.0259 387.052V385.643C62.0259 384.885 62.0936 384.25 62.229 383.738C62.3687 383.226 62.5654 382.816 62.8193 382.507C63.0732 382.194 63.3779 381.969 63.7334 381.834C64.0931 381.699 64.4951 381.631 64.9395 381.631C65.2992 381.631 65.6292 381.675 65.9297 381.764C66.2344 381.849 66.5052 381.986 66.7422 382.177C66.9792 382.363 67.1802 382.613 67.3452 382.926C67.5145 383.235 67.6436 383.613 67.7324 384.062C67.8213 384.511 67.8657 385.037 67.8657 385.643ZM66.6851 387.242V385.446C66.6851 385.031 66.6597 384.667 66.6089 384.354C66.5623 384.037 66.4925 383.766 66.3994 383.542C66.3063 383.317 66.1878 383.135 66.0439 382.996C65.9043 382.856 65.7414 382.754 65.5552 382.691C65.3732 382.623 65.168 382.589 64.9395 382.589C64.6602 382.589 64.4126 382.642 64.1968 382.748C63.981 382.85 63.799 383.013 63.6509 383.237C63.507 383.461 63.397 383.755 63.3208 384.119C63.2446 384.483 63.2065 384.925 63.2065 385.446V387.242C63.2065 387.657 63.2298 388.023 63.2764 388.34C63.3271 388.658 63.4012 388.933 63.4985 389.166C63.5959 389.394 63.7144 389.582 63.854 389.73C63.9937 389.879 64.1545 389.989 64.3364 390.061C64.5226 390.128 64.7279 390.162 64.9521 390.162C65.2399 390.162 65.4917 390.107 65.7075 389.997C65.9233 389.887 66.1032 389.716 66.2471 389.483C66.3952 389.246 66.5052 388.943 66.5771 388.575C66.6491 388.203 66.6851 387.758 66.6851 387.242ZM75.4321 390.035V391H69.3828V390.156L72.4106 386.785C72.783 386.37 73.0708 386.019 73.2739 385.731C73.4813 385.439 73.6252 385.179 73.7056 384.951C73.7902 384.718 73.8325 384.481 73.8325 384.24C73.8325 383.935 73.769 383.66 73.6421 383.415C73.5194 383.165 73.3374 382.966 73.0962 382.818C72.855 382.67 72.563 382.596 72.2202 382.596C71.8097 382.596 71.467 382.676 71.1919 382.837C70.9211 382.993 70.7179 383.214 70.5825 383.497C70.4471 383.781 70.3794 384.106 70.3794 384.475H69.2051C69.2051 383.954 69.3193 383.478 69.5479 383.046C69.7764 382.615 70.1149 382.272 70.5635 382.018C71.012 381.76 71.5643 381.631 72.2202 381.631C72.8042 381.631 73.3035 381.735 73.7183 381.942C74.133 382.145 74.4504 382.433 74.6704 382.805C74.8947 383.173 75.0068 383.605 75.0068 384.1C75.0068 384.371 74.9603 384.646 74.8672 384.925C74.7783 385.2 74.6535 385.475 74.4927 385.75C74.3361 386.026 74.152 386.296 73.9404 386.563C73.7331 386.83 73.5109 387.092 73.2739 387.35L70.7983 390.035H75.4321ZM78.1743 386.601L77.2349 386.36L77.6982 381.758H82.4399V382.843H78.6948L78.4155 385.357C78.5848 385.26 78.7985 385.169 79.0566 385.084C79.319 384.999 79.6195 384.957 79.958 384.957C80.3854 384.957 80.7684 385.031 81.1069 385.179C81.4455 385.323 81.7332 385.53 81.9702 385.801C82.2114 386.072 82.3955 386.398 82.5225 386.779C82.6494 387.16 82.7129 387.585 82.7129 388.055C82.7129 388.499 82.6515 388.907 82.5288 389.28C82.4103 389.652 82.2305 389.978 81.9893 390.257C81.748 390.532 81.4434 390.746 81.0752 390.898C80.7113 391.051 80.2817 391.127 79.7866 391.127C79.4142 391.127 79.0609 391.076 78.7266 390.975C78.3965 390.869 78.1003 390.71 77.8379 390.499C77.5798 390.283 77.3682 390.016 77.2031 389.699C77.0423 389.377 76.9408 389 76.8984 388.569H78.0156C78.0664 388.916 78.168 389.208 78.3203 389.445C78.4727 389.682 78.6715 389.862 78.917 389.984C79.1667 390.103 79.4565 390.162 79.7866 390.162C80.0659 390.162 80.3135 390.113 80.5293 390.016C80.7451 389.919 80.9271 389.779 81.0752 389.597C81.2233 389.415 81.3354 389.195 81.4116 388.937C81.492 388.679 81.5322 388.389 81.5322 388.067C81.5322 387.775 81.492 387.505 81.4116 387.255C81.3312 387.005 81.2106 386.787 81.0498 386.601C80.8932 386.415 80.7007 386.271 80.4722 386.169C80.2437 386.064 79.9813 386.011 79.6851 386.011C79.2915 386.011 78.9932 386.064 78.79 386.169C78.5911 386.275 78.3859 386.419 78.1743 386.601Z" fill="#CED8E1"/>
<g clip-path="url(#clip1_1_352)">
<rect x="52.5" y="409" width="47" height="29" rx="14.5" fill="#D6F3FF"/>
<path d="M71.3237 427.035V428H65.2744V427.156L68.3022 423.785C68.6746 423.37 68.9624 423.019 69.1655 422.731C69.3729 422.439 69.5168 422.179 69.5972 421.951C69.6818 421.718 69.7241 421.481 69.7241 421.24C69.7241 420.935 69.6606 420.66 69.5337 420.415C69.411 420.165 69.229 419.966 68.9878 419.818C68.7466 419.67 68.4546 419.596 68.1118 419.596C67.7013 419.596 67.3586 419.676 67.0835 419.837C66.8127 419.993 66.6095 420.214 66.4741 420.497C66.3387 420.781 66.271 421.106 66.271 421.475H65.0967C65.0967 420.954 65.2109 420.478 65.4395 420.046C65.668 419.615 66.0065 419.272 66.4551 419.018C66.9036 418.76 67.4559 418.631 68.1118 418.631C68.6958 418.631 69.1951 418.735 69.6099 418.942C70.0246 419.145 70.342 419.433 70.562 419.805C70.7863 420.173 70.8984 420.605 70.8984 421.1C70.8984 421.371 70.8519 421.646 70.7588 421.925C70.6699 422.2 70.5451 422.475 70.3843 422.75C70.2277 423.026 70.0436 423.296 69.832 423.563C69.6247 423.83 69.4025 424.092 69.1655 424.35L66.6899 427.035H71.3237ZM79.3267 424.89V425.854H72.6489V425.163L76.7876 418.758H77.7461L76.7178 420.611L73.9819 424.89H79.3267ZM78.0381 418.758V428H76.8638V418.758H78.0381ZM82.1943 418.25V428H81.02V418.25H82.1943ZM81.915 424.306L81.4263 424.287C81.4305 423.817 81.5003 423.383 81.6357 422.985C81.7712 422.583 81.9616 422.234 82.207 421.938C82.4525 421.642 82.7445 421.413 83.083 421.252C83.4258 421.087 83.8045 421.005 84.2192 421.005C84.5578 421.005 84.8625 421.051 85.1333 421.145C85.4041 421.233 85.6348 421.377 85.8252 421.576C86.0199 421.775 86.168 422.033 86.2695 422.351C86.3711 422.664 86.4219 423.047 86.4219 423.5V428H85.2412V423.487C85.2412 423.127 85.1883 422.839 85.0825 422.624C84.9767 422.403 84.8223 422.245 84.6191 422.147C84.416 422.046 84.1663 421.995 83.8701 421.995C83.5781 421.995 83.3115 422.056 83.0703 422.179C82.8333 422.302 82.6281 422.471 82.4546 422.687C82.2853 422.903 82.152 423.15 82.0547 423.43C81.9616 423.705 81.915 423.997 81.915 424.306Z" fill="black"/>
<rect x="99.5" y="409" width="40" height="29" rx="14.5" fill="#D6F3FF"/>
<path d="M116.127 418.707V428H114.953V420.173L112.585 421.037V419.977L115.943 418.707H116.127ZM124.537 426.667V418.25H125.717V428H124.638L124.537 426.667ZM119.916 424.642V424.509C119.916 423.984 119.979 423.508 120.106 423.081C120.237 422.649 120.421 422.279 120.658 421.97C120.899 421.661 121.185 421.424 121.515 421.259C121.849 421.09 122.222 421.005 122.632 421.005C123.064 421.005 123.441 421.081 123.762 421.233C124.088 421.382 124.363 421.599 124.587 421.887C124.816 422.171 124.996 422.514 125.127 422.916C125.258 423.318 125.349 423.772 125.4 424.28V424.864C125.353 425.368 125.262 425.821 125.127 426.223C124.996 426.625 124.816 426.967 124.587 427.251C124.363 427.535 124.088 427.752 123.762 427.905C123.436 428.053 123.056 428.127 122.62 428.127C122.218 428.127 121.849 428.04 121.515 427.867C121.185 427.693 120.899 427.45 120.658 427.137C120.421 426.824 120.237 426.455 120.106 426.032C119.979 425.605 119.916 425.141 119.916 424.642ZM121.096 424.509V424.642C121.096 424.985 121.13 425.306 121.198 425.607C121.27 425.907 121.38 426.172 121.528 426.4C121.676 426.629 121.864 426.809 122.093 426.94C122.321 427.067 122.594 427.13 122.912 427.13C123.301 427.13 123.62 427.048 123.87 426.883C124.124 426.718 124.327 426.5 124.479 426.229C124.632 425.958 124.75 425.664 124.835 425.347V423.817C124.784 423.584 124.71 423.36 124.613 423.144C124.52 422.924 124.397 422.729 124.245 422.56C124.097 422.387 123.912 422.249 123.692 422.147C123.477 422.046 123.221 421.995 122.924 421.995C122.603 421.995 122.326 422.063 122.093 422.198C121.864 422.329 121.676 422.511 121.528 422.744C121.38 422.973 121.27 423.239 121.198 423.544C121.13 423.844 121.096 424.166 121.096 424.509Z" fill="black"/>
<rect x="139.5" y="409" width="40" height="29" rx="14.5" fill="#7F00E2"/>
<path d="M153.982 422.801H154.82C155.23 422.801 155.569 422.734 155.835 422.598C156.106 422.458 156.307 422.27 156.438 422.033C156.574 421.792 156.642 421.521 156.642 421.221C156.642 420.865 156.582 420.567 156.464 420.326C156.345 420.084 156.168 419.903 155.931 419.78C155.694 419.657 155.393 419.596 155.029 419.596C154.699 419.596 154.407 419.661 154.153 419.792C153.904 419.919 153.707 420.101 153.563 420.338C153.423 420.575 153.354 420.855 153.354 421.176H152.179C152.179 420.707 152.298 420.279 152.535 419.894C152.772 419.509 153.104 419.202 153.531 418.974C153.963 418.745 154.462 418.631 155.029 418.631C155.588 418.631 156.077 418.73 156.496 418.929C156.915 419.124 157.24 419.416 157.473 419.805C157.706 420.19 157.822 420.671 157.822 421.246C157.822 421.479 157.767 421.729 157.657 421.995C157.551 422.257 157.384 422.503 157.156 422.731C156.931 422.96 156.639 423.148 156.28 423.296C155.92 423.44 155.488 423.512 154.985 423.512H153.982V422.801ZM153.982 423.766V423.062H154.985C155.573 423.062 156.06 423.131 156.445 423.271C156.83 423.411 157.132 423.597 157.353 423.83C157.577 424.062 157.733 424.318 157.822 424.598C157.915 424.873 157.962 425.148 157.962 425.423C157.962 425.854 157.888 426.237 157.74 426.572C157.596 426.906 157.391 427.19 157.124 427.422C156.862 427.655 156.553 427.831 156.197 427.949C155.842 428.068 155.455 428.127 155.036 428.127C154.634 428.127 154.255 428.07 153.899 427.956C153.548 427.841 153.237 427.676 152.966 427.46C152.695 427.24 152.484 426.972 152.332 426.654C152.179 426.333 152.103 425.967 152.103 425.556H153.277C153.277 425.878 153.347 426.159 153.487 426.4C153.631 426.642 153.834 426.83 154.096 426.965C154.363 427.097 154.676 427.162 155.036 427.162C155.395 427.162 155.704 427.101 155.962 426.978C156.225 426.851 156.426 426.661 156.565 426.407C156.709 426.153 156.781 425.833 156.781 425.448C156.781 425.063 156.701 424.748 156.54 424.502C156.379 424.253 156.151 424.069 155.854 423.95C155.562 423.827 155.218 423.766 154.82 423.766H153.982ZM164.537 426.667V418.25H165.717V428H164.638L164.537 426.667ZM159.916 424.642V424.509C159.916 423.984 159.979 423.508 160.106 423.081C160.237 422.649 160.421 422.279 160.658 421.97C160.899 421.661 161.185 421.424 161.515 421.259C161.849 421.09 162.222 421.005 162.632 421.005C163.064 421.005 163.441 421.081 163.762 421.233C164.088 421.382 164.363 421.599 164.587 421.887C164.816 422.171 164.996 422.514 165.127 422.916C165.258 423.318 165.349 423.772 165.4 424.28V424.864C165.353 425.368 165.262 425.821 165.127 426.223C164.996 426.625 164.816 426.967 164.587 427.251C164.363 427.535 164.088 427.752 163.762 427.905C163.436 428.053 163.056 428.127 162.62 428.127C162.218 428.127 161.849 428.04 161.515 427.867C161.185 427.693 160.899 427.45 160.658 427.137C160.421 426.824 160.237 426.455 160.106 426.032C159.979 425.605 159.916 425.141 159.916 424.642ZM161.096 424.509V424.642C161.096 424.985 161.13 425.306 161.198 425.607C161.27 425.907 161.38 426.172 161.528 426.4C161.676 426.629 161.864 426.809 162.093 426.94C162.321 427.067 162.594 427.13 162.912 427.13C163.301 427.13 163.62 427.048 163.87 426.883C164.124 426.718 164.327 426.5 164.479 426.229C164.632 425.958 164.75 425.664 164.835 425.347V423.817C164.784 423.584 164.71 423.36 164.613 423.144C164.52 422.924 164.397 422.729 164.245 422.56C164.097 422.387 163.912 422.249 163.692 422.147C163.477 422.046 163.221 421.995 162.924 421.995C162.603 421.995 162.326 422.063 162.093 422.198C161.864 422.329 161.676 422.511 161.528 422.744C161.38 422.973 161.27 423.239 161.198 423.544C161.13 423.844 161.096 424.166 161.096 424.509Z" fill="white"/>
<rect x="179.5" y="409" width="42" height="29" rx="14.5" fill="#D6F3FF"/>
<path d="M196.127 418.707V428H194.953V420.173L192.585 421.037V419.977L195.943 418.707H196.127ZM201.947 426.781L203.711 421.132H204.486L204.333 422.255L202.537 428H201.782L201.947 426.781ZM200.76 421.132L202.264 426.845L202.372 428H201.579L199.585 421.132H200.76ZM206.174 426.8L207.609 421.132H208.777L206.784 428H205.997L206.174 426.8ZM204.657 421.132L206.384 426.686L206.581 428H205.832L203.984 422.243L203.832 421.132H204.657Z" fill="black"/>
<rect x="221.5" y="409" width="42" height="29" rx="14.5" fill="#D6F3FF"/>
<path d="M235.982 422.801H236.82C237.23 422.801 237.569 422.734 237.835 422.598C238.106 422.458 238.307 422.27 238.438 422.033C238.574 421.792 238.642 421.521 238.642 421.221C238.642 420.865 238.582 420.567 238.464 420.326C238.345 420.084 238.168 419.903 237.931 419.78C237.694 419.657 237.393 419.596 237.029 419.596C236.699 419.596 236.407 419.661 236.153 419.792C235.904 419.919 235.707 420.101 235.563 420.338C235.423 420.575 235.354 420.855 235.354 421.176H234.179C234.179 420.707 234.298 420.279 234.535 419.894C234.772 419.509 235.104 419.202 235.531 418.974C235.963 418.745 236.462 418.631 237.029 418.631C237.588 418.631 238.077 418.73 238.496 418.929C238.915 419.124 239.24 419.416 239.473 419.805C239.706 420.19 239.822 420.671 239.822 421.246C239.822 421.479 239.767 421.729 239.657 421.995C239.551 422.257 239.384 422.503 239.156 422.731C238.931 422.96 238.639 423.148 238.28 423.296C237.92 423.44 237.488 423.512 236.985 423.512H235.982V422.801ZM235.982 423.766V423.062H236.985C237.573 423.062 238.06 423.131 238.445 423.271C238.83 423.411 239.132 423.597 239.353 423.83C239.577 424.062 239.733 424.318 239.822 424.598C239.915 424.873 239.962 425.148 239.962 425.423C239.962 425.854 239.888 426.237 239.74 426.572C239.596 426.906 239.391 427.19 239.124 427.422C238.862 427.655 238.553 427.831 238.197 427.949C237.842 428.068 237.455 428.127 237.036 428.127C236.634 428.127 236.255 428.07 235.899 427.956C235.548 427.841 235.237 427.676 234.966 427.46C234.695 427.24 234.484 426.972 234.332 426.654C234.179 426.333 234.103 425.967 234.103 425.556H235.277C235.277 425.878 235.347 426.159 235.487 426.4C235.631 426.642 235.834 426.83 236.096 426.965C236.363 427.097 236.676 427.162 237.036 427.162C237.395 427.162 237.704 427.101 237.962 426.978C238.225 426.851 238.426 426.661 238.565 426.407C238.709 426.153 238.781 425.833 238.781 425.448C238.781 425.063 238.701 424.748 238.54 424.502C238.379 424.253 238.151 424.069 237.854 423.95C237.562 423.827 237.218 423.766 236.82 423.766H235.982ZM243.947 426.781L245.711 421.132H246.486L246.333 422.255L244.537 428H243.782L243.947 426.781ZM242.76 421.132L244.264 426.845L244.372 428H243.579L241.585 421.132H242.76ZM248.174 426.8L249.609 421.132H250.777L248.784 428H247.997L248.174 426.8ZM246.657 421.132L248.384 426.686L248.581 428H247.832L245.984 422.243L245.832 421.132H246.657Z" fill="black"/>
<rect x="263.5" y="409" width="44" height="29" rx="14.5" fill="#D6F3FF"/>
<path d="M280.127 418.707V428H278.953V420.173L276.585 421.037V419.977L279.943 418.707H280.127ZM285.375 422.497V428H284.195V421.132H285.312L285.375 422.497ZM285.134 424.306L284.588 424.287C284.593 423.817 284.654 423.383 284.772 422.985C284.891 422.583 285.067 422.234 285.299 421.938C285.532 421.642 285.822 421.413 286.169 421.252C286.516 421.087 286.918 421.005 287.375 421.005C287.697 421.005 287.993 421.051 288.264 421.145C288.535 421.233 288.769 421.375 288.968 421.57C289.167 421.764 289.322 422.014 289.432 422.319C289.542 422.624 289.597 422.992 289.597 423.423V428H288.422V423.48C288.422 423.121 288.361 422.833 288.238 422.617C288.12 422.401 287.951 422.245 287.73 422.147C287.51 422.046 287.252 421.995 286.956 421.995C286.609 421.995 286.319 422.056 286.086 422.179C285.854 422.302 285.667 422.471 285.528 422.687C285.388 422.903 285.287 423.15 285.223 423.43C285.164 423.705 285.134 423.997 285.134 424.306ZM289.584 423.658L288.797 423.899C288.801 423.523 288.862 423.161 288.981 422.814C289.104 422.467 289.279 422.158 289.508 421.887C289.741 421.616 290.026 421.403 290.365 421.246C290.703 421.085 291.09 421.005 291.526 421.005C291.895 421.005 292.22 421.054 292.504 421.151C292.792 421.248 293.033 421.398 293.228 421.602C293.426 421.8 293.577 422.056 293.678 422.37C293.78 422.683 293.831 423.055 293.831 423.487V428H292.65V423.474C292.65 423.089 292.589 422.791 292.466 422.579C292.347 422.363 292.178 422.213 291.958 422.128C291.742 422.04 291.484 421.995 291.184 421.995C290.925 421.995 290.697 422.04 290.498 422.128C290.299 422.217 290.132 422.34 289.997 422.497C289.861 422.649 289.757 422.825 289.686 423.023C289.618 423.222 289.584 423.434 289.584 423.658Z" fill="black"/>
</g>
</g>
<defs>
<clipPath id="clip0_1_352">
<rect width="360" height="463" rx="20" fill="white"/>
</clipPath>
<clipPath id="clip1_1_352">
<rect width="255" height="29" fill="white" transform="translate(52.5 409)"/>
</clipPath>
</defs>
</svg>
