<svg width="360" height="353" viewBox="0 0 360 353" fill="none" xmlns="http://www.w3.org/2000/svg">
<g clip-path="url(#clip0_0_30)">
<rect width="360" height="353" rx="20" fill="#0A0D10"/>
<path fill-rule="evenodd" clip-rule="evenodd" d="M39.839 39.92C40.3365 39.4033 41.0027 39.082 41.7168 39.0142C42.4309 38.9465 43.1456 39.1369 43.7314 39.5508C44.3172 39.9648 44.7353 40.5749 44.9098 41.2707C45.0844 41.9664 45.0039 42.7016 44.683 43.3431C44.3621 43.9846 43.8219 44.4899 43.1604 44.7673C42.499 45.0448 41.76 45.076 41.0774 44.8554C40.3949 44.6348 39.814 44.177 39.44 43.5649C39.0661 42.9528 38.9238 42.227 39.039 41.519L34.166 39.076C33.7517 39.5084 33.2175 39.8069 32.6322 39.9331C32.0468 40.0593 31.4371 40.0075 30.8815 39.7842C30.3258 39.561 29.8497 39.1766 29.5144 38.6805C29.179 38.1844 28.9998 37.5993 28.9998 37.0005C28.9998 36.4017 29.179 35.8166 29.5144 35.3205C29.8497 34.8244 30.3258 34.44 30.8815 34.2167C31.4371 33.9935 32.0468 33.9417 32.6322 34.0679C33.2175 34.1941 33.7517 34.4926 34.166 34.925L39.039 32.482C38.9238 31.774 39.0661 31.0482 39.44 30.4361C39.814 29.824 40.3949 29.3662 41.0774 29.1456C41.76 28.925 42.499 28.9562 43.1604 29.2337C43.8219 29.5111 44.3621 30.0164 44.683 30.6579C45.0039 31.2993 45.0844 32.0346 44.9098 32.7303C44.7353 33.426 44.3172 34.0362 43.7314 34.4502C43.1456 34.8641 42.4309 35.0545 41.7168 34.9868C41.0027 34.919 40.3365 34.5977 39.839 34.081L34.962 36.519C35.0134 36.8376 35.0134 37.1624 34.962 37.481L39.839 39.919V39.92ZM42 33C42.2652 33 42.5196 32.8946 42.7071 32.7071C42.8946 32.5196 43 32.2652 43 32C43 31.7348 42.8946 31.4804 42.7071 31.2929C42.5196 31.1054 42.2652 31 42 31C41.7348 31 41.4804 31.1054 41.2929 31.2929C41.1054 31.4804 41 31.7348 41 32C41 32.2652 41.1054 32.5196 41.2929 32.7071C41.4804 32.8946 41.7348 33 42 33ZM42 43C42.2652 43 42.5196 42.8946 42.7071 42.7071C42.8946 42.5196 43 42.2652 43 42C43 41.7348 42.8946 41.4804 42.7071 41.2929C42.5196 41.1054 42.2652 41 42 41C41.7348 41 41.4804 41.1054 41.2929 41.2929C41.1054 41.4804 41 41.7348 41 42C41 42.2652 41.1054 42.5196 41.2929 42.7071C41.4804 42.8946 41.7348 43 42 43ZM32 38C32.2652 38 32.5196 37.8946 32.7071 37.7071C32.8946 37.5196 33 37.2652 33 37C33 36.7348 32.8946 36.4804 32.7071 36.2929C32.5196 36.1054 32.2652 36 32 36C31.7348 36 31.4804 36.1054 31.2929 36.2929C31.1054 36.4804 31 36.7348 31 37C31 37.2652 31.1054 37.5196 31.2929 37.7071C31.4804 37.8946 31.7348 38 32 38Z" fill="#F8F8F8"/>
<path d="M34.5293 81.9043H29.457V78.7051H34.5293C35.3132 78.7051 35.9512 78.5775 36.4434 78.3223C36.9355 78.0579 37.2956 77.6934 37.5234 77.2285C37.7513 76.7637 37.8652 76.2396 37.8652 75.6562C37.8652 75.0638 37.7513 74.5124 37.5234 74.002C37.2956 73.4915 36.9355 73.0814 36.4434 72.7715C35.9512 72.4616 35.3132 72.3066 34.5293 72.3066H30.8789V89H26.7773V69.0938H34.5293C36.0879 69.0938 37.4232 69.3763 38.5352 69.9414C39.6562 70.4974 40.513 71.2676 41.1055 72.252C41.6979 73.2363 41.9941 74.362 41.9941 75.6289C41.9941 76.9141 41.6979 78.026 41.1055 78.9648C40.513 79.9036 39.6562 80.6283 38.5352 81.1387C37.4232 81.6491 36.0879 81.9043 34.5293 81.9043ZM43.7578 81.7539V81.4668C43.7578 80.3822 43.9128 79.3841 44.2227 78.4727C44.5326 77.5521 44.9837 76.7546 45.5762 76.0801C46.1686 75.4056 46.8978 74.8815 47.7637 74.5078C48.6296 74.125 49.623 73.9336 50.7441 73.9336C51.8652 73.9336 52.8633 74.125 53.7383 74.5078C54.6133 74.8815 55.347 75.4056 55.9395 76.0801C56.541 76.7546 56.9967 77.5521 57.3066 78.4727C57.6165 79.3841 57.7715 80.3822 57.7715 81.4668V81.7539C57.7715 82.8294 57.6165 83.8275 57.3066 84.748C56.9967 85.6595 56.541 86.457 55.9395 87.1406C55.347 87.8151 54.6178 88.3392 53.752 88.7129C52.8861 89.0866 51.8926 89.2734 50.7715 89.2734C49.6504 89.2734 48.6523 89.0866 47.7773 88.7129C46.9115 88.3392 46.1777 87.8151 45.5762 87.1406C44.9837 86.457 44.5326 85.6595 44.2227 84.748C43.9128 83.8275 43.7578 82.8294 43.7578 81.7539ZM47.6953 81.4668V81.7539C47.6953 82.3737 47.75 82.9525 47.8594 83.4902C47.9688 84.028 48.1419 84.502 48.3789 84.9121C48.625 85.3132 48.944 85.6276 49.3359 85.8555C49.7279 86.0833 50.2064 86.1973 50.7715 86.1973C51.3184 86.1973 51.7878 86.0833 52.1797 85.8555C52.5716 85.6276 52.8861 85.3132 53.123 84.9121C53.36 84.502 53.5332 84.028 53.6426 83.4902C53.7611 82.9525 53.8203 82.3737 53.8203 81.7539V81.4668C53.8203 80.8652 53.7611 80.3001 53.6426 79.7715C53.5332 79.2337 53.3555 78.7598 53.1094 78.3496C52.8724 77.9303 52.5579 77.6022 52.166 77.3652C51.7741 77.1283 51.3001 77.0098 50.7441 77.0098C50.1882 77.0098 49.7142 77.1283 49.3223 77.3652C48.9395 77.6022 48.625 77.9303 48.3789 78.3496C48.1419 78.7598 47.9688 79.2337 47.8594 79.7715C47.75 80.3001 47.6953 80.8652 47.6953 81.4668ZM64.1289 77.4336V89H60.1914V74.207H63.8965L64.1289 77.4336ZM68.5859 74.1113L68.5176 77.7617C68.3262 77.7344 68.0938 77.7116 67.8203 77.6934C67.556 77.666 67.3145 77.6523 67.0957 77.6523C66.5397 77.6523 66.0566 77.7253 65.6465 77.8711C65.2454 78.0078 64.9082 78.2129 64.6348 78.4863C64.3704 78.7598 64.1699 79.0924 64.0332 79.4844C63.9056 79.8763 63.8327 80.3229 63.8145 80.8242L63.0215 80.5781C63.0215 79.6211 63.1172 78.7415 63.3086 77.9395C63.5 77.1283 63.778 76.4219 64.1426 75.8203C64.5163 75.2188 64.972 74.7539 65.5098 74.4258C66.0475 74.0977 66.6628 73.9336 67.3555 73.9336C67.5742 73.9336 67.7975 73.9518 68.0254 73.9883C68.2533 74.0156 68.4401 74.0566 68.5859 74.1113ZM78.375 74.207V76.9961H69.7617V74.207H78.375ZM71.8945 70.5566H75.832V84.543C75.832 84.9714 75.8867 85.2995 75.9961 85.5273C76.1146 85.7552 76.2878 85.9147 76.5156 86.0059C76.7435 86.0879 77.0306 86.1289 77.377 86.1289C77.623 86.1289 77.8418 86.1198 78.0332 86.1016C78.2337 86.0742 78.4023 86.0469 78.5391 86.0195L78.5527 88.918C78.2155 89.0273 77.8509 89.1139 77.459 89.1777C77.0671 89.2415 76.6341 89.2734 76.1602 89.2734C75.2943 89.2734 74.5378 89.1322 73.8906 88.8496C73.2526 88.5579 72.7604 88.0931 72.4141 87.4551C72.0677 86.8171 71.8945 85.9785 71.8945 84.9395V70.5566ZM85.6348 89H81.6699V72.8945C81.6699 71.7734 81.8887 70.8301 82.3262 70.0645C82.7728 69.2897 83.3971 68.7064 84.1992 68.3145C85.0104 67.9134 85.972 67.7129 87.084 67.7129C87.4486 67.7129 87.7995 67.7402 88.1367 67.7949C88.474 67.8405 88.8021 67.8997 89.1211 67.9727L89.0801 70.9395C88.9069 70.8939 88.7246 70.862 88.5332 70.8438C88.3418 70.8255 88.1185 70.8164 87.8633 70.8164C87.3893 70.8164 86.9837 70.8984 86.6465 71.0625C86.3184 71.2174 86.0677 71.4499 85.8945 71.7598C85.7214 72.0697 85.6348 72.4479 85.6348 72.8945V89ZM88.5879 74.207V76.9961H79.4688V74.207H88.5879ZM90.0234 81.7539V81.4668C90.0234 80.3822 90.1784 79.3841 90.4883 78.4727C90.7982 77.5521 91.2493 76.7546 91.8418 76.0801C92.4342 75.4056 93.1634 74.8815 94.0293 74.5078C94.8952 74.125 95.8887 73.9336 97.0098 73.9336C98.1309 73.9336 99.1289 74.125 100.004 74.5078C100.879 74.8815 101.613 75.4056 102.205 76.0801C102.807 76.7546 103.262 77.5521 103.572 78.4727C103.882 79.3841 104.037 80.3822 104.037 81.4668V81.7539C104.037 82.8294 103.882 83.8275 103.572 84.748C103.262 85.6595 102.807 86.457 102.205 87.1406C101.613 87.8151 100.883 88.3392 100.018 88.7129C99.1517 89.0866 98.1582 89.2734 97.0371 89.2734C95.916 89.2734 94.918 89.0866 94.043 88.7129C93.1771 88.3392 92.4434 87.8151 91.8418 87.1406C91.2493 86.457 90.7982 85.6595 90.4883 84.748C90.1784 83.8275 90.0234 82.8294 90.0234 81.7539ZM93.9609 81.4668V81.7539C93.9609 82.3737 94.0156 82.9525 94.125 83.4902C94.2344 84.028 94.4076 84.502 94.6445 84.9121C94.8906 85.3132 95.2096 85.6276 95.6016 85.8555C95.9935 86.0833 96.472 86.1973 97.0371 86.1973C97.584 86.1973 98.0534 86.0833 98.4453 85.8555C98.8372 85.6276 99.1517 85.3132 99.3887 84.9121C99.6257 84.502 99.7988 84.028 99.9082 83.4902C100.027 82.9525 100.086 82.3737 100.086 81.7539V81.4668C100.086 80.8652 100.027 80.3001 99.9082 79.7715C99.7988 79.2337 99.6211 78.7598 99.375 78.3496C99.138 77.9303 98.8236 77.6022 98.4316 77.3652C98.0397 77.1283 97.5658 77.0098 97.0098 77.0098C96.4538 77.0098 95.9798 77.1283 95.5879 77.3652C95.2051 77.6022 94.8906 77.9303 94.6445 78.3496C94.4076 78.7598 94.2344 79.2337 94.125 79.7715C94.0156 80.3001 93.9609 80.8652 93.9609 81.4668ZM110.613 68V89H106.662V68H110.613ZM118.023 74.207V89H114.072V74.207H118.023ZM113.826 70.3516C113.826 69.7773 114.027 69.3034 114.428 68.9297C114.829 68.556 115.367 68.3691 116.041 68.3691C116.706 68.3691 117.24 68.556 117.641 68.9297C118.051 69.3034 118.256 69.7773 118.256 70.3516C118.256 70.9258 118.051 71.3997 117.641 71.7734C117.24 72.1471 116.706 72.334 116.041 72.334C115.367 72.334 114.829 72.1471 114.428 71.7734C114.027 71.3997 113.826 70.9258 113.826 70.3516ZM120.648 81.7539V81.4668C120.648 80.3822 120.803 79.3841 121.113 78.4727C121.423 77.5521 121.874 76.7546 122.467 76.0801C123.059 75.4056 123.788 74.8815 124.654 74.5078C125.52 74.125 126.514 73.9336 127.635 73.9336C128.756 73.9336 129.754 74.125 130.629 74.5078C131.504 74.8815 132.238 75.4056 132.83 76.0801C133.432 76.7546 133.887 77.5521 134.197 78.4727C134.507 79.3841 134.662 80.3822 134.662 81.4668V81.7539C134.662 82.8294 134.507 83.8275 134.197 84.748C133.887 85.6595 133.432 86.457 132.83 87.1406C132.238 87.8151 131.508 88.3392 130.643 88.7129C129.777 89.0866 128.783 89.2734 127.662 89.2734C126.541 89.2734 125.543 89.0866 124.668 88.7129C123.802 88.3392 123.068 87.8151 122.467 87.1406C121.874 86.457 121.423 85.6595 121.113 84.748C120.803 83.8275 120.648 82.8294 120.648 81.7539ZM124.586 81.4668V81.7539C124.586 82.3737 124.641 82.9525 124.75 83.4902C124.859 84.028 125.033 84.502 125.27 84.9121C125.516 85.3132 125.835 85.6276 126.227 85.8555C126.618 86.0833 127.097 86.1973 127.662 86.1973C128.209 86.1973 128.678 86.0833 129.07 85.8555C129.462 85.6276 129.777 85.3132 130.014 84.9121C130.251 84.502 130.424 84.028 130.533 83.4902C130.652 82.9525 130.711 82.3737 130.711 81.7539V81.4668C130.711 80.8652 130.652 80.3001 130.533 79.7715C130.424 79.2337 130.246 78.7598 130 78.3496C129.763 77.9303 129.449 77.6022 129.057 77.3652C128.665 77.1283 128.191 77.0098 127.635 77.0098C127.079 77.0098 126.605 77.1283 126.213 77.3652C125.83 77.6022 125.516 77.9303 125.27 78.3496C125.033 78.7598 124.859 79.2337 124.75 79.7715C124.641 80.3001 124.586 80.8652 124.586 81.4668ZM160.078 78.5957V86.4844C159.768 86.8581 159.29 87.2637 158.643 87.7012C157.995 88.1296 157.161 88.4987 156.141 88.8086C155.12 89.1185 153.885 89.2734 152.436 89.2734C151.15 89.2734 149.979 89.0638 148.922 88.6445C147.865 88.2161 146.953 87.5918 146.188 86.7715C145.431 85.9512 144.848 84.9486 144.438 83.7637C144.027 82.5697 143.822 81.207 143.822 79.6758V78.4316C143.822 76.9004 144.018 75.5378 144.41 74.3438C144.811 73.1497 145.381 72.1426 146.119 71.3223C146.857 70.502 147.737 69.8776 148.758 69.4492C149.779 69.0208 150.913 68.8066 152.162 68.8066C153.894 68.8066 155.316 69.0892 156.428 69.6543C157.54 70.2103 158.387 70.985 158.971 71.9785C159.563 72.9629 159.928 74.0931 160.064 75.3691H156.086C155.986 74.6947 155.794 74.1068 155.512 73.6055C155.229 73.1042 154.824 72.7122 154.295 72.4297C153.775 72.1471 153.101 72.0059 152.271 72.0059C151.588 72.0059 150.977 72.1471 150.439 72.4297C149.911 72.7031 149.464 73.1087 149.1 73.6465C148.735 74.1842 148.457 74.8496 148.266 75.6426C148.074 76.4355 147.979 77.3561 147.979 78.4043V79.6758C147.979 80.7148 148.079 81.6354 148.279 82.4375C148.48 83.2305 148.776 83.9004 149.168 84.4473C149.569 84.985 150.061 85.3906 150.645 85.6641C151.228 85.9375 151.907 86.0742 152.682 86.0742C153.329 86.0742 153.867 86.0195 154.295 85.9102C154.732 85.8008 155.083 85.6686 155.348 85.5137C155.621 85.3496 155.831 85.1947 155.977 85.0488V81.5215H152.23V78.5957H160.078ZM167.078 77.4336V89H163.141V74.207H166.846L167.078 77.4336ZM171.535 74.1113L171.467 77.7617C171.275 77.7344 171.043 77.7116 170.77 77.6934C170.505 77.666 170.264 77.6523 170.045 77.6523C169.489 77.6523 169.006 77.7253 168.596 77.8711C168.195 78.0078 167.857 78.2129 167.584 78.4863C167.32 78.7598 167.119 79.0924 166.982 79.4844C166.855 79.8763 166.782 80.3229 166.764 80.8242L165.971 80.5781C165.971 79.6211 166.066 78.7415 166.258 77.9395C166.449 77.1283 166.727 76.4219 167.092 75.8203C167.465 75.2188 167.921 74.7539 168.459 74.4258C168.997 74.0977 169.612 73.9336 170.305 73.9336C170.523 73.9336 170.747 73.9518 170.975 73.9883C171.202 74.0156 171.389 74.0566 171.535 74.1113ZM172.355 81.7539V81.4668C172.355 80.3822 172.51 79.3841 172.82 78.4727C173.13 77.5521 173.581 76.7546 174.174 76.0801C174.766 75.4056 175.495 74.8815 176.361 74.5078C177.227 74.125 178.221 73.9336 179.342 73.9336C180.463 73.9336 181.461 74.125 182.336 74.5078C183.211 74.8815 183.945 75.4056 184.537 76.0801C185.139 76.7546 185.594 77.5521 185.904 78.4727C186.214 79.3841 186.369 80.3822 186.369 81.4668V81.7539C186.369 82.8294 186.214 83.8275 185.904 84.748C185.594 85.6595 185.139 86.457 184.537 87.1406C183.945 87.8151 183.215 88.3392 182.35 88.7129C181.484 89.0866 180.49 89.2734 179.369 89.2734C178.248 89.2734 177.25 89.0866 176.375 88.7129C175.509 88.3392 174.775 87.8151 174.174 87.1406C173.581 86.457 173.13 85.6595 172.82 84.748C172.51 83.8275 172.355 82.8294 172.355 81.7539ZM176.293 81.4668V81.7539C176.293 82.3737 176.348 82.9525 176.457 83.4902C176.566 84.028 176.74 84.502 176.977 84.9121C177.223 85.3132 177.542 85.6276 177.934 85.8555C178.326 86.0833 178.804 86.1973 179.369 86.1973C179.916 86.1973 180.385 86.0833 180.777 85.8555C181.169 85.6276 181.484 85.3132 181.721 84.9121C181.958 84.502 182.131 84.028 182.24 83.4902C182.359 82.9525 182.418 82.3737 182.418 81.7539V81.4668C182.418 80.8652 182.359 80.3001 182.24 79.7715C182.131 79.2337 181.953 78.7598 181.707 78.3496C181.47 77.9303 181.156 77.6022 180.764 77.3652C180.372 77.1283 179.898 77.0098 179.342 77.0098C178.786 77.0098 178.312 77.1283 177.92 77.3652C177.537 77.6022 177.223 77.9303 176.977 78.3496C176.74 78.7598 176.566 79.2337 176.457 79.7715C176.348 80.3001 176.293 80.8652 176.293 81.4668ZM193.014 85.1719L196.09 74.207H198.592L197.785 78.5137L194.709 89H192.617L193.014 85.1719ZM191.455 74.207L193.656 85.1582L193.861 89H191.4L187.654 74.207H191.455ZM201.408 84.9805L203.555 74.207H207.369L203.623 89H201.176L201.408 84.9805ZM198.934 74.207L201.996 85.0898L202.42 89H200.314L197.238 78.5273L196.459 74.207H198.934ZM216.598 74.207V76.9961H207.984V74.207H216.598ZM210.117 70.5566H214.055V84.543C214.055 84.9714 214.109 85.2995 214.219 85.5273C214.337 85.7552 214.51 85.9147 214.738 86.0059C214.966 86.0879 215.253 86.1289 215.6 86.1289C215.846 86.1289 216.064 86.1198 216.256 86.1016C216.456 86.0742 216.625 86.0469 216.762 86.0195L216.775 88.918C216.438 89.0273 216.074 89.1139 215.682 89.1777C215.29 89.2415 214.857 89.2734 214.383 89.2734C213.517 89.2734 212.76 89.1322 212.113 88.8496C211.475 88.5579 210.983 88.0931 210.637 87.4551C210.29 86.8171 210.117 85.9785 210.117 84.9395V70.5566ZM222.682 68V89H218.744V68H222.682ZM222.121 81.084H221.041C221.05 80.054 221.187 79.1061 221.451 78.2402C221.715 77.3652 222.094 76.6087 222.586 75.9707C223.078 75.3236 223.666 74.8223 224.35 74.4668C225.042 74.1113 225.808 73.9336 226.646 73.9336C227.376 73.9336 228.036 74.0384 228.629 74.248C229.23 74.4486 229.745 74.7767 230.174 75.2324C230.611 75.679 230.949 76.2669 231.186 76.9961C231.423 77.7253 231.541 78.6094 231.541 79.6484V89H227.576V79.6211C227.576 78.9648 227.48 78.4499 227.289 78.0762C227.107 77.6934 226.838 77.4245 226.482 77.2695C226.136 77.1055 225.708 77.0234 225.197 77.0234C224.632 77.0234 224.149 77.1283 223.748 77.3379C223.356 77.5475 223.042 77.8392 222.805 78.2129C222.568 78.5775 222.395 79.0059 222.285 79.498C222.176 79.9902 222.121 80.5189 222.121 81.084ZM43.1289 118.582V119.525C43.1289 121.038 42.9238 122.396 42.5137 123.6C42.1035 124.803 41.5247 125.828 40.7773 126.676C40.0299 127.514 39.1367 128.157 38.0977 128.604C37.0677 129.05 35.9238 129.273 34.666 129.273C33.4173 129.273 32.2734 129.05 31.2344 128.604C30.2044 128.157 29.3112 127.514 28.5547 126.676C27.7982 125.828 27.2103 124.803 26.791 123.6C26.3809 122.396 26.1758 121.038 26.1758 119.525V118.582C26.1758 117.06 26.3809 115.702 26.791 114.508C27.2012 113.305 27.7799 112.279 28.5273 111.432C29.2839 110.584 30.1771 109.937 31.207 109.49C32.2461 109.044 33.39 108.82 34.6387 108.82C35.8965 108.82 37.0404 109.044 38.0703 109.49C39.1094 109.937 40.0026 110.584 40.75 111.432C41.5065 112.279 42.0898 113.305 42.5 114.508C42.9193 115.702 43.1289 117.06 43.1289 118.582ZM38.9863 119.525V118.555C38.9863 117.497 38.8906 116.568 38.6992 115.766C38.5078 114.964 38.2253 114.289 37.8516 113.742C37.4779 113.195 37.0221 112.785 36.4844 112.512C35.9466 112.229 35.3314 112.088 34.6387 112.088C33.946 112.088 33.3307 112.229 32.793 112.512C32.2643 112.785 31.8132 113.195 31.4395 113.742C31.0749 114.289 30.7969 114.964 30.6055 115.766C30.4141 116.568 30.3184 117.497 30.3184 118.555V119.525C30.3184 120.574 30.4141 121.503 30.6055 122.314C30.7969 123.117 31.0794 123.796 31.4531 124.352C31.8268 124.898 32.2826 125.313 32.8203 125.596C33.3581 125.878 33.9733 126.02 34.666 126.02C35.3587 126.02 35.974 125.878 36.5117 125.596C37.0495 125.313 37.5007 124.898 37.8652 124.352C38.2298 123.796 38.5078 123.117 38.6992 122.314C38.8906 121.503 38.9863 120.574 38.9863 119.525ZM50.8672 126.129L54.1484 114.207H58.2637L53.2734 129H50.7852L50.8672 126.129ZM48.6113 114.207L51.9062 126.143L51.9746 129H49.4727L44.4824 114.207H48.6113ZM66.6445 129.273C65.4961 129.273 64.4661 129.091 63.5547 128.727C62.6432 128.353 61.8685 127.838 61.2305 127.182C60.6016 126.525 60.1185 125.764 59.7812 124.898C59.444 124.023 59.2754 123.094 59.2754 122.109V121.562C59.2754 120.441 59.4349 119.416 59.7539 118.486C60.0729 117.557 60.5286 116.75 61.1211 116.066C61.7227 115.383 62.4518 114.859 63.3086 114.494C64.1654 114.12 65.1315 113.934 66.207 113.934C67.2552 113.934 68.1849 114.107 68.9961 114.453C69.8073 114.799 70.4863 115.292 71.0332 115.93C71.5892 116.568 72.0085 117.333 72.291 118.227C72.5736 119.111 72.7148 120.095 72.7148 121.18V122.82H60.957V120.195H68.8457V119.895C68.8457 119.348 68.7454 118.86 68.5449 118.432C68.3535 117.994 68.0618 117.648 67.6699 117.393C67.278 117.137 66.7767 117.01 66.166 117.01C65.6465 117.01 65.1999 117.124 64.8262 117.352C64.4525 117.579 64.1471 117.898 63.9102 118.309C63.6823 118.719 63.5091 119.202 63.3906 119.758C63.2812 120.305 63.2266 120.906 63.2266 121.562V122.109C63.2266 122.702 63.3086 123.249 63.4727 123.75C63.6458 124.251 63.8874 124.684 64.1973 125.049C64.5163 125.413 64.8991 125.696 65.3457 125.896C65.8014 126.097 66.3164 126.197 66.8906 126.197C67.6016 126.197 68.2624 126.061 68.873 125.787C69.4928 125.505 70.026 125.081 70.4727 124.516L72.3867 126.594C72.0768 127.04 71.653 127.469 71.1152 127.879C70.5866 128.289 69.9486 128.626 69.2012 128.891C68.4538 129.146 67.6016 129.273 66.6445 129.273ZM78.8945 117.434V129H74.957V114.207H78.6621L78.8945 117.434ZM83.3516 114.111L83.2832 117.762C83.0918 117.734 82.8594 117.712 82.5859 117.693C82.3216 117.666 82.0801 117.652 81.8613 117.652C81.3053 117.652 80.8223 117.725 80.4121 117.871C80.0111 118.008 79.6738 118.213 79.4004 118.486C79.1361 118.76 78.9355 119.092 78.7988 119.484C78.6712 119.876 78.5983 120.323 78.5801 120.824L77.7871 120.578C77.7871 119.621 77.8828 118.742 78.0742 117.939C78.2656 117.128 78.5436 116.422 78.9082 115.82C79.2819 115.219 79.7376 114.754 80.2754 114.426C80.8132 114.098 81.4284 113.934 82.1211 113.934C82.3398 113.934 82.5632 113.952 82.791 113.988C83.0189 114.016 83.2057 114.057 83.3516 114.111ZM100.592 109.094V129H96.5039V109.094H100.592ZM106.717 109.094V112.307H90.4746V109.094H106.717ZM112.965 114.207V129H109.014V114.207H112.965ZM108.768 110.352C108.768 109.777 108.968 109.303 109.369 108.93C109.77 108.556 110.308 108.369 110.982 108.369C111.648 108.369 112.181 108.556 112.582 108.93C112.992 109.303 113.197 109.777 113.197 110.352C113.197 110.926 112.992 111.4 112.582 111.773C112.181 112.147 111.648 112.334 110.982 112.334C110.308 112.334 109.77 112.147 109.369 111.773C108.968 111.4 108.768 110.926 108.768 110.352ZM120.156 117.27V129H116.205V114.207H119.91L120.156 117.27ZM119.609 121.084H118.516C118.516 120.054 118.639 119.106 118.885 118.24C119.14 117.365 119.509 116.609 119.992 115.971C120.484 115.324 121.09 114.822 121.811 114.467C122.531 114.111 123.365 113.934 124.312 113.934C124.969 113.934 125.57 114.034 126.117 114.234C126.664 114.426 127.133 114.731 127.525 115.15C127.926 115.561 128.236 116.098 128.455 116.764C128.674 117.42 128.783 118.208 128.783 119.129V129H124.846V119.566C124.846 118.892 124.755 118.372 124.572 118.008C124.39 117.643 124.13 117.388 123.793 117.242C123.465 117.096 123.068 117.023 122.604 117.023C122.093 117.023 121.646 117.128 121.264 117.338C120.89 117.548 120.58 117.839 120.334 118.213C120.088 118.577 119.906 119.006 119.787 119.498C119.669 119.99 119.609 120.519 119.609 121.084ZM128.414 120.633L127.006 120.811C127.006 119.844 127.124 118.947 127.361 118.117C127.607 117.288 127.967 116.559 128.441 115.93C128.924 115.301 129.521 114.813 130.232 114.467C130.943 114.111 131.764 113.934 132.693 113.934C133.404 113.934 134.051 114.038 134.635 114.248C135.218 114.449 135.715 114.772 136.125 115.219C136.544 115.656 136.863 116.23 137.082 116.941C137.31 117.652 137.424 118.523 137.424 119.553V129H133.473V119.553C133.473 118.869 133.382 118.35 133.199 117.994C133.026 117.63 132.771 117.379 132.434 117.242C132.105 117.096 131.714 117.023 131.258 117.023C130.784 117.023 130.369 117.119 130.014 117.311C129.658 117.493 129.362 117.748 129.125 118.076C128.888 118.404 128.71 118.787 128.592 119.225C128.473 119.653 128.414 120.122 128.414 120.633ZM147.281 129.273C146.133 129.273 145.103 129.091 144.191 128.727C143.28 128.353 142.505 127.838 141.867 127.182C141.238 126.525 140.755 125.764 140.418 124.898C140.081 124.023 139.912 123.094 139.912 122.109V121.562C139.912 120.441 140.072 119.416 140.391 118.486C140.71 117.557 141.165 116.75 141.758 116.066C142.359 115.383 143.089 114.859 143.945 114.494C144.802 114.12 145.768 113.934 146.844 113.934C147.892 113.934 148.822 114.107 149.633 114.453C150.444 114.799 151.123 115.292 151.67 115.93C152.226 116.568 152.645 117.333 152.928 118.227C153.21 119.111 153.352 120.095 153.352 121.18V122.82H141.594V120.195H149.482V119.895C149.482 119.348 149.382 118.86 149.182 118.432C148.99 117.994 148.699 117.648 148.307 117.393C147.915 117.137 147.413 117.01 146.803 117.01C146.283 117.01 145.837 117.124 145.463 117.352C145.089 117.579 144.784 117.898 144.547 118.309C144.319 118.719 144.146 119.202 144.027 119.758C143.918 120.305 143.863 120.906 143.863 121.562V122.109C143.863 122.702 143.945 123.249 144.109 123.75C144.283 124.251 144.524 124.684 144.834 125.049C145.153 125.413 145.536 125.696 145.982 125.896C146.438 126.097 146.953 126.197 147.527 126.197C148.238 126.197 148.899 126.061 149.51 125.787C150.13 125.505 150.663 125.081 151.109 124.516L153.023 126.594C152.714 127.04 152.29 127.469 151.752 127.879C151.223 128.289 150.585 128.626 149.838 128.891C149.09 129.146 148.238 129.273 147.281 129.273Z" fill="white"/>
<rect x="289" y="75.9997" width="46.0002" height="46.0007" rx="23.0001" fill="#151A20"/>
<path fill-rule="evenodd" clip-rule="evenodd" d="M314.839 101.92C315.336 101.403 316.003 101.081 316.717 101.014C317.431 100.946 318.146 101.136 318.731 101.55C319.317 101.964 319.735 102.574 319.91 103.27C320.084 103.966 320.004 104.701 319.683 105.343C319.362 105.984 318.822 106.489 318.16 106.767C317.499 107.044 316.76 107.076 316.077 106.855C315.395 106.634 314.814 106.176 314.44 105.564C314.066 104.952 313.924 104.226 314.039 103.518L309.166 101.076C308.752 101.508 308.217 101.806 307.632 101.933C307.047 102.059 306.437 102.007 305.881 101.784C305.326 101.561 304.85 101.176 304.514 100.68C304.179 100.184 304 99.5988 304 99C304 98.4012 304.179 97.8161 304.514 97.32C304.85 96.8239 305.326 96.4395 305.881 96.2163C306.437 95.993 307.047 95.9412 307.632 96.0674C308.217 96.1936 308.752 96.4921 309.166 96.9245L314.039 94.4815C313.924 93.7735 314.066 93.0477 314.44 92.4356C314.814 91.8235 315.395 91.3657 316.077 91.1451C316.76 90.9245 317.499 90.9557 318.16 91.2332C318.822 91.5106 319.362 92.0159 319.683 92.6574C320.004 93.2988 320.084 94.0341 319.91 94.7298C319.735 95.4255 319.317 96.0357 318.731 96.4497C318.146 96.8636 317.431 97.054 316.717 96.9863C316.003 96.9185 315.336 96.5972 314.839 96.0805L309.962 98.5185C310.013 98.8371 310.013 99.1619 309.962 99.4805L314.839 101.918V101.92ZM317 94.9995C317.265 94.9995 317.519 94.8941 317.707 94.7066C317.895 94.5191 318 94.2647 318 93.9995C318 93.7343 317.895 93.4799 317.707 93.2924C317.519 93.1049 317.265 92.9995 317 92.9995C316.735 92.9995 316.48 93.1049 316.293 93.2924C316.105 93.4799 316 93.7343 316 93.9995C316 94.2647 316.105 94.5191 316.293 94.7066C316.48 94.8941 316.735 94.9995 317 94.9995ZM317 105C317.265 105 317.519 104.894 317.707 104.707C317.895 104.519 318 104.265 318 104C318 103.734 317.895 103.48 317.707 103.292C317.519 103.105 317.265 103 317 103C316.735 103 316.48 103.105 316.293 103.292C316.105 103.48 316 103.734 316 104C316 104.265 316.105 104.519 316.293 104.707C316.48 104.894 316.735 105 317 105ZM307 99.9995C307.265 99.9995 307.519 99.8941 307.707 99.7066C307.895 99.5191 308 99.2647 308 98.9995C308 98.7343 307.895 98.4799 307.707 98.2924C307.519 98.1049 307.265 97.9995 307 97.9995C306.735 97.9995 306.48 98.1049 306.293 98.2924C306.105 98.4799 306 98.7343 306 98.9995C306 99.2647 306.105 99.5191 306.293 99.7066C306.48 99.8941 306.735 99.9995 307 99.9995Z" fill="white"/>
<path d="M32.3828 163.125C32.3828 162.859 32.3411 162.625 32.2578 162.422C32.1797 162.214 32.0391 162.026 31.8359 161.859C31.638 161.693 31.362 161.534 31.0078 161.383C30.6589 161.232 30.2161 161.078 29.6797 160.922C29.1172 160.755 28.6094 160.57 28.1562 160.367C27.7031 160.159 27.3151 159.922 26.9922 159.656C26.6693 159.391 26.4219 159.086 26.25 158.742C26.0781 158.398 25.9922 158.005 25.9922 157.562C25.9922 157.12 26.0833 156.711 26.2656 156.336C26.4479 155.961 26.7083 155.635 27.0469 155.359C27.3906 155.078 27.7995 154.859 28.2734 154.703C28.7474 154.547 29.276 154.469 29.8594 154.469C30.7135 154.469 31.4375 154.633 32.0312 154.961C32.6302 155.284 33.0859 155.708 33.3984 156.234C33.7109 156.755 33.8672 157.312 33.8672 157.906H32.3672C32.3672 157.479 32.276 157.102 32.0938 156.773C31.9115 156.44 31.6354 156.18 31.2656 155.992C30.8958 155.799 30.4271 155.703 29.8594 155.703C29.3229 155.703 28.8802 155.784 28.5312 155.945C28.1823 156.107 27.9219 156.326 27.75 156.602C27.5833 156.878 27.5 157.193 27.5 157.547C27.5 157.786 27.5495 158.005 27.6484 158.203C27.7526 158.396 27.9115 158.576 28.125 158.742C28.3438 158.909 28.6198 159.062 28.9531 159.203C29.2917 159.344 29.6953 159.479 30.1641 159.609C30.8099 159.792 31.3672 159.995 31.8359 160.219C32.3047 160.443 32.6901 160.695 32.9922 160.977C33.2995 161.253 33.526 161.568 33.6719 161.922C33.8229 162.271 33.8984 162.667 33.8984 163.109C33.8984 163.573 33.8047 163.992 33.6172 164.367C33.4297 164.742 33.1615 165.062 32.8125 165.328C32.4635 165.594 32.0443 165.799 31.5547 165.945C31.0703 166.086 30.5286 166.156 29.9297 166.156C29.4036 166.156 28.8854 166.083 28.375 165.938C27.8698 165.792 27.4089 165.573 26.9922 165.281C26.5807 164.99 26.25 164.63 26 164.203C25.7552 163.771 25.6328 163.271 25.6328 162.703H27.1328C27.1328 163.094 27.2083 163.43 27.3594 163.711C27.5104 163.987 27.7161 164.216 27.9766 164.398C28.2422 164.581 28.5417 164.716 28.875 164.805C29.2135 164.888 29.5651 164.93 29.9297 164.93C30.4557 164.93 30.901 164.857 31.2656 164.711C31.6302 164.565 31.9062 164.357 32.0938 164.086C32.2865 163.815 32.3828 163.495 32.3828 163.125ZM39.6094 166.156C39.0208 166.156 38.487 166.057 38.0078 165.859C37.5339 165.656 37.125 165.372 36.7812 165.008C36.4427 164.643 36.1823 164.211 36 163.711C35.8177 163.211 35.7266 162.664 35.7266 162.07V161.742C35.7266 161.055 35.8281 160.443 36.0312 159.906C36.2344 159.365 36.5104 158.906 36.8594 158.531C37.2083 158.156 37.6042 157.872 38.0469 157.68C38.4896 157.487 38.9479 157.391 39.4219 157.391C40.026 157.391 40.5469 157.495 40.9844 157.703C41.4271 157.911 41.7891 158.203 42.0703 158.578C42.3516 158.948 42.5599 159.385 42.6953 159.891C42.8307 160.391 42.8984 160.938 42.8984 161.531V162.18H36.5859V161H41.4531V160.891C41.4323 160.516 41.3542 160.151 41.2188 159.797C41.0885 159.443 40.8802 159.151 40.5938 158.922C40.3073 158.693 39.9167 158.578 39.4219 158.578C39.0938 158.578 38.7917 158.648 38.5156 158.789C38.2396 158.924 38.0026 159.128 37.8047 159.398C37.6068 159.669 37.4531 160 37.3438 160.391C37.2344 160.781 37.1797 161.232 37.1797 161.742V162.07C37.1797 162.471 37.2344 162.849 37.3438 163.203C37.4583 163.552 37.6224 163.859 37.8359 164.125C38.0547 164.391 38.3177 164.599 38.625 164.75C38.9375 164.901 39.2917 164.977 39.6875 164.977C40.1979 164.977 40.6302 164.872 40.9844 164.664C41.3385 164.456 41.6484 164.177 41.9141 163.828L42.7891 164.523C42.6068 164.799 42.375 165.062 42.0938 165.312C41.8125 165.562 41.4661 165.766 41.0547 165.922C40.6484 166.078 40.1667 166.156 39.6094 166.156ZM48.5938 166.156C48.0052 166.156 47.4714 166.057 46.9922 165.859C46.5182 165.656 46.1094 165.372 45.7656 165.008C45.4271 164.643 45.1667 164.211 44.9844 163.711C44.8021 163.211 44.7109 162.664 44.7109 162.07V161.742C44.7109 161.055 44.8125 160.443 45.0156 159.906C45.2188 159.365 45.4948 158.906 45.8438 158.531C46.1927 158.156 46.5885 157.872 47.0312 157.68C47.474 157.487 47.9323 157.391 48.4062 157.391C49.0104 157.391 49.5312 157.495 49.9688 157.703C50.4115 157.911 50.7734 158.203 51.0547 158.578C51.3359 158.948 51.5443 159.385 51.6797 159.891C51.8151 160.391 51.8828 160.938 51.8828 161.531V162.18H45.5703V161H50.4375V160.891C50.4167 160.516 50.3385 160.151 50.2031 159.797C50.0729 159.443 49.8646 159.151 49.5781 158.922C49.2917 158.693 48.901 158.578 48.4062 158.578C48.0781 158.578 47.776 158.648 47.5 158.789C47.224 158.924 46.987 159.128 46.7891 159.398C46.5911 159.669 46.4375 160 46.3281 160.391C46.2188 160.781 46.1641 161.232 46.1641 161.742V162.07C46.1641 162.471 46.2188 162.849 46.3281 163.203C46.4427 163.552 46.6068 163.859 46.8203 164.125C47.0391 164.391 47.3021 164.599 47.6094 164.75C47.9219 164.901 48.276 164.977 48.6719 164.977C49.1823 164.977 49.6146 164.872 49.9688 164.664C50.3229 164.456 50.6328 164.177 50.8984 163.828L51.7734 164.523C51.5911 164.799 51.3594 165.062 51.0781 165.312C50.7969 165.562 50.4505 165.766 50.0391 165.922C49.6328 166.078 49.151 166.156 48.5938 166.156ZM59.9844 154V166H58.5391V154H59.9844ZM59.6406 161.453L59.0391 161.43C59.0443 160.852 59.1302 160.318 59.2969 159.828C59.4635 159.333 59.6979 158.904 60 158.539C60.3021 158.174 60.6615 157.893 61.0781 157.695C61.5 157.492 61.9661 157.391 62.4766 157.391C62.8932 157.391 63.2682 157.448 63.6016 157.562C63.9349 157.672 64.2188 157.849 64.4531 158.094C64.6927 158.339 64.875 158.656 65 159.047C65.125 159.432 65.1875 159.904 65.1875 160.461V166H63.7344V160.445C63.7344 160.003 63.6693 159.648 63.5391 159.383C63.4089 159.112 63.2188 158.917 62.9688 158.797C62.7188 158.672 62.4115 158.609 62.0469 158.609C61.6875 158.609 61.3594 158.685 61.0625 158.836C60.7708 158.987 60.5182 159.195 60.3047 159.461C60.0964 159.727 59.9323 160.031 59.8125 160.375C59.6979 160.714 59.6406 161.073 59.6406 161.453ZM67.4688 161.867V161.688C67.4688 161.078 67.5573 160.513 67.7344 159.992C67.9115 159.466 68.1667 159.01 68.5 158.625C68.8333 158.234 69.237 157.932 69.7109 157.719C70.1849 157.5 70.7161 157.391 71.3047 157.391C71.8984 157.391 72.4323 157.5 72.9062 157.719C73.3854 157.932 73.7917 158.234 74.125 158.625C74.4635 159.01 74.7214 159.466 74.8984 159.992C75.0755 160.513 75.1641 161.078 75.1641 161.688V161.867C75.1641 162.477 75.0755 163.042 74.8984 163.562C74.7214 164.083 74.4635 164.539 74.125 164.93C73.7917 165.315 73.388 165.617 72.9141 165.836C72.4453 166.049 71.9141 166.156 71.3203 166.156C70.7266 166.156 70.1927 166.049 69.7188 165.836C69.2448 165.617 68.8385 165.315 68.5 164.93C68.1667 164.539 67.9115 164.083 67.7344 163.562C67.5573 163.042 67.4688 162.477 67.4688 161.867ZM68.9141 161.688V161.867C68.9141 162.289 68.9635 162.688 69.0625 163.062C69.1615 163.432 69.3099 163.76 69.5078 164.047C69.7109 164.333 69.9635 164.56 70.2656 164.727C70.5677 164.888 70.9193 164.969 71.3203 164.969C71.7161 164.969 72.0625 164.888 72.3594 164.727C72.6615 164.56 72.9115 164.333 73.1094 164.047C73.3073 163.76 73.4557 163.432 73.5547 163.062C73.6589 162.688 73.7109 162.289 73.7109 161.867V161.688C73.7109 161.271 73.6589 160.878 73.5547 160.508C73.4557 160.133 73.3047 159.802 73.1016 159.516C72.9036 159.224 72.6536 158.995 72.3516 158.828C72.0547 158.661 71.7057 158.578 71.3047 158.578C70.9089 158.578 70.5599 158.661 70.2578 158.828C69.9609 158.995 69.7109 159.224 69.5078 159.516C69.3099 159.802 69.1615 160.133 69.0625 160.508C68.9635 160.878 68.9141 161.271 68.9141 161.688ZM79.6172 164.5L81.7891 157.547H82.7422L82.5547 158.93L80.3438 166H79.4141L79.6172 164.5ZM78.1562 157.547L80.0078 164.578L80.1406 166H79.1641L76.7109 157.547H78.1562ZM84.8203 164.523L86.5859 157.547H88.0234L85.5703 166H84.6016L84.8203 164.523ZM82.9531 157.547L85.0781 164.383L85.3203 166H84.3984L82.125 158.914L81.9375 157.547H82.9531ZM96.8516 165.125L99.2031 157.547H100.75L97.3594 167.305C97.2812 167.513 97.1771 167.737 97.0469 167.977C96.9219 168.221 96.7604 168.453 96.5625 168.672C96.3646 168.891 96.125 169.068 95.8438 169.203C95.5677 169.344 95.237 169.414 94.8516 169.414C94.737 169.414 94.5911 169.398 94.4141 169.367C94.237 169.336 94.112 169.31 94.0391 169.289L94.0312 168.117C94.0729 168.122 94.138 168.128 94.2266 168.133C94.3203 168.143 94.3854 168.148 94.4219 168.148C94.75 168.148 95.0286 168.104 95.2578 168.016C95.487 167.932 95.6797 167.789 95.8359 167.586C95.9974 167.388 96.1354 167.115 96.25 166.766L96.8516 165.125ZM95.125 157.547L97.3203 164.109L97.6953 165.633L96.6562 166.164L93.5469 157.547H95.125ZM102.047 161.867V161.688C102.047 161.078 102.135 160.513 102.312 159.992C102.49 159.466 102.745 159.01 103.078 158.625C103.411 158.234 103.815 157.932 104.289 157.719C104.763 157.5 105.294 157.391 105.883 157.391C106.477 157.391 107.01 157.5 107.484 157.719C107.964 157.932 108.37 158.234 108.703 158.625C109.042 159.01 109.299 159.466 109.477 159.992C109.654 160.513 109.742 161.078 109.742 161.688V161.867C109.742 162.477 109.654 163.042 109.477 163.562C109.299 164.083 109.042 164.539 108.703 164.93C108.37 165.315 107.966 165.617 107.492 165.836C107.023 166.049 106.492 166.156 105.898 166.156C105.305 166.156 104.771 166.049 104.297 165.836C103.823 165.617 103.417 165.315 103.078 164.93C102.745 164.539 102.49 164.083 102.312 163.562C102.135 163.042 102.047 162.477 102.047 161.867ZM103.492 161.688V161.867C103.492 162.289 103.542 162.688 103.641 163.062C103.74 163.432 103.888 163.76 104.086 164.047C104.289 164.333 104.542 164.56 104.844 164.727C105.146 164.888 105.497 164.969 105.898 164.969C106.294 164.969 106.641 164.888 106.938 164.727C107.24 164.56 107.49 164.333 107.688 164.047C107.885 163.76 108.034 163.432 108.133 163.062C108.237 162.688 108.289 162.289 108.289 161.867V161.688C108.289 161.271 108.237 160.878 108.133 160.508C108.034 160.133 107.883 159.802 107.68 159.516C107.482 159.224 107.232 158.995 106.93 158.828C106.633 158.661 106.284 158.578 105.883 158.578C105.487 158.578 105.138 158.661 104.836 158.828C104.539 158.995 104.289 159.224 104.086 159.516C103.888 159.802 103.74 160.133 103.641 160.508C103.542 160.878 103.492 161.271 103.492 161.688ZM117.227 164.047V157.547H118.68V166H117.297L117.227 164.047ZM117.5 162.266L118.102 162.25C118.102 162.812 118.042 163.333 117.922 163.812C117.807 164.286 117.62 164.698 117.359 165.047C117.099 165.396 116.758 165.669 116.336 165.867C115.914 166.06 115.401 166.156 114.797 166.156C114.385 166.156 114.008 166.096 113.664 165.977C113.326 165.857 113.034 165.672 112.789 165.422C112.544 165.172 112.354 164.846 112.219 164.445C112.089 164.044 112.023 163.562 112.023 163V157.547H113.469V163.016C113.469 163.396 113.51 163.711 113.594 163.961C113.682 164.206 113.799 164.401 113.945 164.547C114.096 164.688 114.263 164.786 114.445 164.844C114.633 164.901 114.826 164.93 115.023 164.93C115.638 164.93 116.125 164.812 116.484 164.578C116.844 164.339 117.102 164.018 117.258 163.617C117.419 163.211 117.5 162.76 117.5 162.266ZM122.828 158.875V166H121.383V157.547H122.789L122.828 158.875ZM125.469 157.5L125.461 158.844C125.341 158.818 125.227 158.802 125.117 158.797C125.013 158.786 124.893 158.781 124.758 158.781C124.424 158.781 124.13 158.833 123.875 158.938C123.62 159.042 123.404 159.188 123.227 159.375C123.049 159.562 122.909 159.786 122.805 160.047C122.706 160.302 122.641 160.583 122.609 160.891L122.203 161.125C122.203 160.615 122.253 160.135 122.352 159.688C122.456 159.24 122.615 158.844 122.828 158.5C123.042 158.151 123.312 157.88 123.641 157.688C123.974 157.49 124.37 157.391 124.828 157.391C124.932 157.391 125.052 157.404 125.188 157.43C125.323 157.451 125.417 157.474 125.469 157.5ZM133.219 159.172V169.25H131.766V157.547H133.094L133.219 159.172ZM138.914 161.703V161.867C138.914 162.482 138.841 163.052 138.695 163.578C138.549 164.099 138.336 164.552 138.055 164.938C137.779 165.323 137.438 165.622 137.031 165.836C136.625 166.049 136.159 166.156 135.633 166.156C135.096 166.156 134.622 166.068 134.211 165.891C133.799 165.714 133.451 165.456 133.164 165.117C132.878 164.779 132.648 164.372 132.477 163.898C132.31 163.424 132.195 162.891 132.133 162.297V161.422C132.195 160.797 132.312 160.237 132.484 159.742C132.656 159.247 132.883 158.826 133.164 158.477C133.451 158.122 133.797 157.854 134.203 157.672C134.609 157.484 135.078 157.391 135.609 157.391C136.141 157.391 136.612 157.495 137.023 157.703C137.435 157.906 137.781 158.198 138.062 158.578C138.344 158.958 138.555 159.414 138.695 159.945C138.841 160.471 138.914 161.057 138.914 161.703ZM137.461 161.867V161.703C137.461 161.281 137.417 160.885 137.328 160.516C137.24 160.141 137.102 159.812 136.914 159.531C136.732 159.245 136.497 159.021 136.211 158.859C135.924 158.693 135.583 158.609 135.188 158.609C134.823 158.609 134.505 158.672 134.234 158.797C133.969 158.922 133.742 159.091 133.555 159.305C133.367 159.513 133.214 159.753 133.094 160.023C132.979 160.289 132.893 160.565 132.836 160.852V162.875C132.94 163.24 133.086 163.583 133.273 163.906C133.461 164.224 133.711 164.482 134.023 164.68C134.336 164.872 134.729 164.969 135.203 164.969C135.594 164.969 135.93 164.888 136.211 164.727C136.497 164.56 136.732 164.333 136.914 164.047C137.102 163.76 137.24 163.432 137.328 163.062C137.417 162.688 137.461 162.289 137.461 161.867ZM140.875 161.867V161.688C140.875 161.078 140.964 160.513 141.141 159.992C141.318 159.466 141.573 159.01 141.906 158.625C142.24 158.234 142.643 157.932 143.117 157.719C143.591 157.5 144.122 157.391 144.711 157.391C145.305 157.391 145.839 157.5 146.312 157.719C146.792 157.932 147.198 158.234 147.531 158.625C147.87 159.01 148.128 159.466 148.305 159.992C148.482 160.513 148.57 161.078 148.57 161.688V161.867C148.57 162.477 148.482 163.042 148.305 163.562C148.128 164.083 147.87 164.539 147.531 164.93C147.198 165.315 146.794 165.617 146.32 165.836C145.852 166.049 145.32 166.156 144.727 166.156C144.133 166.156 143.599 166.049 143.125 165.836C142.651 165.617 142.245 165.315 141.906 164.93C141.573 164.539 141.318 164.083 141.141 163.562C140.964 163.042 140.875 162.477 140.875 161.867ZM142.32 161.688V161.867C142.32 162.289 142.37 162.688 142.469 163.062C142.568 163.432 142.716 163.76 142.914 164.047C143.117 164.333 143.37 164.56 143.672 164.727C143.974 164.888 144.326 164.969 144.727 164.969C145.122 164.969 145.469 164.888 145.766 164.727C146.068 164.56 146.318 164.333 146.516 164.047C146.714 163.76 146.862 163.432 146.961 163.062C147.065 162.688 147.117 162.289 147.117 161.867V161.688C147.117 161.271 147.065 160.878 146.961 160.508C146.862 160.133 146.711 159.802 146.508 159.516C146.31 159.224 146.06 158.995 145.758 158.828C145.461 158.661 145.112 158.578 144.711 158.578C144.315 158.578 143.966 158.661 143.664 158.828C143.367 158.995 143.117 159.224 142.914 159.516C142.716 159.802 142.568 160.133 142.469 160.508C142.37 160.878 142.32 161.271 142.32 161.688ZM152.328 158.875V166H150.883V157.547H152.289L152.328 158.875ZM154.969 157.5L154.961 158.844C154.841 158.818 154.727 158.802 154.617 158.797C154.513 158.786 154.393 158.781 154.258 158.781C153.924 158.781 153.63 158.833 153.375 158.938C153.12 159.042 152.904 159.188 152.727 159.375C152.549 159.562 152.409 159.786 152.305 160.047C152.206 160.302 152.141 160.583 152.109 160.891L151.703 161.125C151.703 160.615 151.753 160.135 151.852 159.688C151.956 159.24 152.115 158.844 152.328 158.5C152.542 158.151 152.812 157.88 153.141 157.688C153.474 157.49 153.87 157.391 154.328 157.391C154.432 157.391 154.552 157.404 154.688 157.43C154.823 157.451 154.917 157.474 154.969 157.5ZM160.734 157.547V158.656H156.164V157.547H160.734ZM157.711 155.492H159.156V163.906C159.156 164.193 159.201 164.409 159.289 164.555C159.378 164.701 159.492 164.797 159.633 164.844C159.773 164.891 159.924 164.914 160.086 164.914C160.206 164.914 160.331 164.904 160.461 164.883C160.596 164.857 160.698 164.836 160.766 164.82L160.773 166C160.659 166.036 160.508 166.07 160.32 166.102C160.138 166.138 159.917 166.156 159.656 166.156C159.302 166.156 158.977 166.086 158.68 165.945C158.383 165.805 158.146 165.57 157.969 165.242C157.797 164.909 157.711 164.461 157.711 163.898V155.492ZM165.086 166H163.641V156.656C163.641 156.047 163.75 155.534 163.969 155.117C164.193 154.695 164.513 154.378 164.93 154.164C165.346 153.945 165.841 153.836 166.414 153.836C166.581 153.836 166.747 153.846 166.914 153.867C167.086 153.888 167.253 153.919 167.414 153.961L167.336 155.141C167.227 155.115 167.102 155.096 166.961 155.086C166.826 155.076 166.69 155.07 166.555 155.07C166.247 155.07 165.982 155.133 165.758 155.258C165.539 155.378 165.372 155.555 165.258 155.789C165.143 156.023 165.086 156.312 165.086 156.656V166ZM166.883 157.547V158.656H162.305V157.547H166.883ZM168.609 161.867V161.688C168.609 161.078 168.698 160.513 168.875 159.992C169.052 159.466 169.307 159.01 169.641 158.625C169.974 158.234 170.378 157.932 170.852 157.719C171.326 157.5 171.857 157.391 172.445 157.391C173.039 157.391 173.573 157.5 174.047 157.719C174.526 157.932 174.932 158.234 175.266 158.625C175.604 159.01 175.862 159.466 176.039 159.992C176.216 160.513 176.305 161.078 176.305 161.688V161.867C176.305 162.477 176.216 163.042 176.039 163.562C175.862 164.083 175.604 164.539 175.266 164.93C174.932 165.315 174.529 165.617 174.055 165.836C173.586 166.049 173.055 166.156 172.461 166.156C171.867 166.156 171.333 166.049 170.859 165.836C170.385 165.617 169.979 165.315 169.641 164.93C169.307 164.539 169.052 164.083 168.875 163.562C168.698 163.042 168.609 162.477 168.609 161.867ZM170.055 161.688V161.867C170.055 162.289 170.104 162.688 170.203 163.062C170.302 163.432 170.451 163.76 170.648 164.047C170.852 164.333 171.104 164.56 171.406 164.727C171.708 164.888 172.06 164.969 172.461 164.969C172.857 164.969 173.203 164.888 173.5 164.727C173.802 164.56 174.052 164.333 174.25 164.047C174.448 163.76 174.596 163.432 174.695 163.062C174.799 162.688 174.852 162.289 174.852 161.867V161.688C174.852 161.271 174.799 160.878 174.695 160.508C174.596 160.133 174.445 159.802 174.242 159.516C174.044 159.224 173.794 158.995 173.492 158.828C173.195 158.661 172.846 158.578 172.445 158.578C172.049 158.578 171.701 158.661 171.398 158.828C171.102 158.995 170.852 159.224 170.648 159.516C170.451 159.802 170.302 160.133 170.203 160.508C170.104 160.878 170.055 161.271 170.055 161.688ZM180.188 154V166H178.734V154H180.188ZM184.578 157.547V166H183.125V157.547H184.578ZM183.016 155.305C183.016 155.07 183.086 154.872 183.227 154.711C183.372 154.549 183.586 154.469 183.867 154.469C184.143 154.469 184.354 154.549 184.5 154.711C184.651 154.872 184.727 155.07 184.727 155.305C184.727 155.529 184.651 155.721 184.5 155.883C184.354 156.039 184.143 156.117 183.867 156.117C183.586 156.117 183.372 156.039 183.227 155.883C183.086 155.721 183.016 155.529 183.016 155.305ZM187.016 161.867V161.688C187.016 161.078 187.104 160.513 187.281 159.992C187.458 159.466 187.714 159.01 188.047 158.625C188.38 158.234 188.784 157.932 189.258 157.719C189.732 157.5 190.263 157.391 190.852 157.391C191.445 157.391 191.979 157.5 192.453 157.719C192.932 157.932 193.339 158.234 193.672 158.625C194.01 159.01 194.268 159.466 194.445 159.992C194.622 160.513 194.711 161.078 194.711 161.688V161.867C194.711 162.477 194.622 163.042 194.445 163.562C194.268 164.083 194.01 164.539 193.672 164.93C193.339 165.315 192.935 165.617 192.461 165.836C191.992 166.049 191.461 166.156 190.867 166.156C190.273 166.156 189.74 166.049 189.266 165.836C188.792 165.617 188.385 165.315 188.047 164.93C187.714 164.539 187.458 164.083 187.281 163.562C187.104 163.042 187.016 162.477 187.016 161.867ZM188.461 161.688V161.867C188.461 162.289 188.51 162.688 188.609 163.062C188.708 163.432 188.857 163.76 189.055 164.047C189.258 164.333 189.51 164.56 189.812 164.727C190.115 164.888 190.466 164.969 190.867 164.969C191.263 164.969 191.609 164.888 191.906 164.727C192.208 164.56 192.458 164.333 192.656 164.047C192.854 163.76 193.003 163.432 193.102 163.062C193.206 162.688 193.258 162.289 193.258 161.867V161.688C193.258 161.271 193.206 160.878 193.102 160.508C193.003 160.133 192.852 159.802 192.648 159.516C192.451 159.224 192.201 158.995 191.898 158.828C191.602 158.661 191.253 158.578 190.852 158.578C190.456 158.578 190.107 158.661 189.805 158.828C189.508 158.995 189.258 159.224 189.055 159.516C188.857 159.802 188.708 160.133 188.609 160.508C188.51 160.878 188.461 161.271 188.461 161.688ZM204.062 164.695L206.375 157.547H207.852L204.812 166H203.844L204.062 164.695ZM202.133 157.547L204.516 164.734L204.68 166H203.711L200.648 157.547H202.133ZM214.602 164.555V160.203C214.602 159.87 214.534 159.581 214.398 159.336C214.268 159.086 214.07 158.893 213.805 158.758C213.539 158.622 213.211 158.555 212.82 158.555C212.456 158.555 212.135 158.617 211.859 158.742C211.589 158.867 211.375 159.031 211.219 159.234C211.068 159.438 210.992 159.656 210.992 159.891H209.547C209.547 159.589 209.625 159.289 209.781 158.992C209.938 158.695 210.161 158.427 210.453 158.188C210.75 157.943 211.104 157.75 211.516 157.609C211.932 157.464 212.396 157.391 212.906 157.391C213.521 157.391 214.062 157.495 214.531 157.703C215.005 157.911 215.375 158.227 215.641 158.648C215.911 159.065 216.047 159.589 216.047 160.219V164.156C216.047 164.438 216.07 164.737 216.117 165.055C216.169 165.372 216.245 165.646 216.344 165.875V166H214.836C214.763 165.833 214.706 165.612 214.664 165.336C214.622 165.055 214.602 164.794 214.602 164.555ZM214.852 160.875L214.867 161.891H213.406C212.995 161.891 212.628 161.924 212.305 161.992C211.982 162.055 211.711 162.151 211.492 162.281C211.273 162.411 211.107 162.576 210.992 162.773C210.878 162.966 210.82 163.193 210.82 163.453C210.82 163.719 210.88 163.961 211 164.18C211.12 164.398 211.299 164.573 211.539 164.703C211.784 164.828 212.083 164.891 212.438 164.891C212.88 164.891 213.271 164.797 213.609 164.609C213.948 164.422 214.216 164.193 214.414 163.922C214.617 163.651 214.727 163.388 214.742 163.133L215.359 163.828C215.323 164.047 215.224 164.289 215.062 164.555C214.901 164.82 214.685 165.076 214.414 165.32C214.148 165.56 213.831 165.76 213.461 165.922C213.096 166.078 212.685 166.156 212.227 166.156C211.654 166.156 211.151 166.044 210.719 165.82C210.292 165.596 209.958 165.297 209.719 164.922C209.484 164.542 209.367 164.117 209.367 163.648C209.367 163.195 209.456 162.797 209.633 162.453C209.81 162.104 210.065 161.815 210.398 161.586C210.732 161.352 211.133 161.174 211.602 161.055C212.07 160.935 212.594 160.875 213.172 160.875H214.852ZM220.391 154V166H218.938V154H220.391ZM228.383 164.047V157.547H229.836V166H228.453L228.383 164.047ZM228.656 162.266L229.258 162.25C229.258 162.812 229.198 163.333 229.078 163.812C228.964 164.286 228.776 164.698 228.516 165.047C228.255 165.396 227.914 165.669 227.492 165.867C227.07 166.06 226.557 166.156 225.953 166.156C225.542 166.156 225.164 166.096 224.82 165.977C224.482 165.857 224.19 165.672 223.945 165.422C223.701 165.172 223.51 164.846 223.375 164.445C223.245 164.044 223.18 163.562 223.18 163V157.547H224.625V163.016C224.625 163.396 224.667 163.711 224.75 163.961C224.839 164.206 224.956 164.401 225.102 164.547C225.253 164.688 225.419 164.786 225.602 164.844C225.789 164.901 225.982 164.93 226.18 164.93C226.794 164.93 227.281 164.812 227.641 164.578C228 164.339 228.258 164.018 228.414 163.617C228.576 163.211 228.656 162.76 228.656 162.266ZM236.047 166.156C235.458 166.156 234.924 166.057 234.445 165.859C233.971 165.656 233.562 165.372 233.219 165.008C232.88 164.643 232.62 164.211 232.438 163.711C232.255 163.211 232.164 162.664 232.164 162.07V161.742C232.164 161.055 232.266 160.443 232.469 159.906C232.672 159.365 232.948 158.906 233.297 158.531C233.646 158.156 234.042 157.872 234.484 157.68C234.927 157.487 235.385 157.391 235.859 157.391C236.464 157.391 236.984 157.495 237.422 157.703C237.865 157.911 238.227 158.203 238.508 158.578C238.789 158.948 238.997 159.385 239.133 159.891C239.268 160.391 239.336 160.938 239.336 161.531V162.18H233.023V161H237.891V160.891C237.87 160.516 237.792 160.151 237.656 159.797C237.526 159.443 237.318 159.151 237.031 158.922C236.745 158.693 236.354 158.578 235.859 158.578C235.531 158.578 235.229 158.648 234.953 158.789C234.677 158.924 234.44 159.128 234.242 159.398C234.044 159.669 233.891 160 233.781 160.391C233.672 160.781 233.617 161.232 233.617 161.742V162.07C233.617 162.471 233.672 162.849 233.781 163.203C233.896 163.552 234.06 163.859 234.273 164.125C234.492 164.391 234.755 164.599 235.062 164.75C235.375 164.901 235.729 164.977 236.125 164.977C236.635 164.977 237.068 164.872 237.422 164.664C237.776 164.456 238.086 164.177 238.352 163.828L239.227 164.523C239.044 164.799 238.812 165.062 238.531 165.312C238.25 165.562 237.904 165.766 237.492 165.922C237.086 166.078 236.604 166.156 236.047 166.156ZM247.438 154V166H245.992V154H247.438ZM247.094 161.453L246.492 161.43C246.497 160.852 246.583 160.318 246.75 159.828C246.917 159.333 247.151 158.904 247.453 158.539C247.755 158.174 248.115 157.893 248.531 157.695C248.953 157.492 249.419 157.391 249.93 157.391C250.346 157.391 250.721 157.448 251.055 157.562C251.388 157.672 251.672 157.849 251.906 158.094C252.146 158.339 252.328 158.656 252.453 159.047C252.578 159.432 252.641 159.904 252.641 160.461V166H251.188V160.445C251.188 160.003 251.122 159.648 250.992 159.383C250.862 159.112 250.672 158.917 250.422 158.797C250.172 158.672 249.865 158.609 249.5 158.609C249.141 158.609 248.812 158.685 248.516 158.836C248.224 158.987 247.971 159.195 247.758 159.461C247.549 159.727 247.385 160.031 247.266 160.375C247.151 160.714 247.094 161.073 247.094 161.453ZM260.289 164.555V160.203C260.289 159.87 260.221 159.581 260.086 159.336C259.956 159.086 259.758 158.893 259.492 158.758C259.227 158.622 258.898 158.555 258.508 158.555C258.143 158.555 257.823 158.617 257.547 158.742C257.276 158.867 257.062 159.031 256.906 159.234C256.755 159.438 256.68 159.656 256.68 159.891H255.234C255.234 159.589 255.312 159.289 255.469 158.992C255.625 158.695 255.849 158.427 256.141 158.188C256.438 157.943 256.792 157.75 257.203 157.609C257.62 157.464 258.083 157.391 258.594 157.391C259.208 157.391 259.75 157.495 260.219 157.703C260.693 157.911 261.062 158.227 261.328 158.648C261.599 159.065 261.734 159.589 261.734 160.219V164.156C261.734 164.438 261.758 164.737 261.805 165.055C261.857 165.372 261.932 165.646 262.031 165.875V166H260.523C260.451 165.833 260.393 165.612 260.352 165.336C260.31 165.055 260.289 164.794 260.289 164.555ZM260.539 160.875L260.555 161.891H259.094C258.682 161.891 258.315 161.924 257.992 161.992C257.669 162.055 257.398 162.151 257.18 162.281C256.961 162.411 256.794 162.576 256.68 162.773C256.565 162.966 256.508 163.193 256.508 163.453C256.508 163.719 256.568 163.961 256.688 164.18C256.807 164.398 256.987 164.573 257.227 164.703C257.471 164.828 257.771 164.891 258.125 164.891C258.568 164.891 258.958 164.797 259.297 164.609C259.635 164.422 259.904 164.193 260.102 163.922C260.305 163.651 260.414 163.388 260.43 163.133L261.047 163.828C261.01 164.047 260.911 164.289 260.75 164.555C260.589 164.82 260.372 165.076 260.102 165.32C259.836 165.56 259.518 165.76 259.148 165.922C258.784 166.078 258.372 166.156 257.914 166.156C257.341 166.156 256.839 166.044 256.406 165.82C255.979 165.596 255.646 165.297 255.406 164.922C255.172 164.542 255.055 164.117 255.055 163.648C255.055 163.195 255.143 162.797 255.32 162.453C255.497 162.104 255.753 161.815 256.086 161.586C256.419 161.352 256.82 161.174 257.289 161.055C257.758 160.935 258.281 160.875 258.859 160.875H260.539ZM269.43 163.758C269.43 163.549 269.383 163.357 269.289 163.18C269.201 162.997 269.016 162.833 268.734 162.688C268.458 162.536 268.042 162.406 267.484 162.297C267.016 162.198 266.591 162.081 266.211 161.945C265.836 161.81 265.516 161.646 265.25 161.453C264.99 161.26 264.789 161.034 264.648 160.773C264.508 160.513 264.438 160.208 264.438 159.859C264.438 159.526 264.51 159.211 264.656 158.914C264.807 158.617 265.018 158.354 265.289 158.125C265.565 157.896 265.896 157.716 266.281 157.586C266.667 157.456 267.096 157.391 267.57 157.391C268.247 157.391 268.826 157.51 269.305 157.75C269.784 157.99 270.151 158.31 270.406 158.711C270.661 159.107 270.789 159.547 270.789 160.031H269.344C269.344 159.797 269.273 159.57 269.133 159.352C268.997 159.128 268.797 158.943 268.531 158.797C268.271 158.651 267.951 158.578 267.57 158.578C267.169 158.578 266.844 158.641 266.594 158.766C266.349 158.885 266.169 159.039 266.055 159.227C265.945 159.414 265.891 159.612 265.891 159.82C265.891 159.977 265.917 160.117 265.969 160.242C266.026 160.362 266.125 160.474 266.266 160.578C266.406 160.677 266.604 160.771 266.859 160.859C267.115 160.948 267.44 161.036 267.836 161.125C268.529 161.281 269.099 161.469 269.547 161.688C269.995 161.906 270.328 162.174 270.547 162.492C270.766 162.81 270.875 163.195 270.875 163.648C270.875 164.018 270.797 164.357 270.641 164.664C270.49 164.971 270.268 165.237 269.977 165.461C269.69 165.68 269.346 165.852 268.945 165.977C268.549 166.096 268.104 166.156 267.609 166.156C266.865 166.156 266.234 166.023 265.719 165.758C265.203 165.492 264.812 165.148 264.547 164.727C264.281 164.305 264.148 163.859 264.148 163.391H265.602C265.622 163.786 265.737 164.102 265.945 164.336C266.154 164.565 266.409 164.729 266.711 164.828C267.013 164.922 267.312 164.969 267.609 164.969C268.005 164.969 268.336 164.917 268.602 164.812C268.872 164.708 269.078 164.565 269.219 164.383C269.359 164.201 269.43 163.992 269.43 163.758ZM27.6719 180.547V189H26.2188V180.547H27.6719ZM26.1094 178.305C26.1094 178.07 26.1797 177.872 26.3203 177.711C26.4661 177.549 26.6797 177.469 26.9609 177.469C27.237 177.469 27.4479 177.549 27.5938 177.711C27.7448 177.872 27.8203 178.07 27.8203 178.305C27.8203 178.529 27.7448 178.721 27.5938 178.883C27.4479 179.039 27.237 179.117 26.9609 179.117C26.6797 179.117 26.4661 179.039 26.3203 178.883C26.1797 178.721 26.1094 178.529 26.1094 178.305ZM31.9375 182.352V189H30.4922V180.547H31.8594L31.9375 182.352ZM31.5938 184.453L30.9922 184.43C30.9974 183.852 31.0833 183.318 31.25 182.828C31.4167 182.333 31.651 181.904 31.9531 181.539C32.2552 181.174 32.6146 180.893 33.0312 180.695C33.4531 180.492 33.9193 180.391 34.4297 180.391C34.8464 180.391 35.2214 180.448 35.5547 180.562C35.888 180.672 36.1719 180.849 36.4062 181.094C36.6458 181.339 36.8281 181.656 36.9531 182.047C37.0781 182.432 37.1406 182.904 37.1406 183.461V189H35.6875V183.445C35.6875 183.003 35.6224 182.648 35.4922 182.383C35.362 182.112 35.1719 181.917 34.9219 181.797C34.6719 181.672 34.3646 181.609 34 181.609C33.6406 181.609 33.3125 181.685 33.0156 181.836C32.724 181.987 32.4714 182.195 32.2578 182.461C32.0495 182.727 31.8854 183.031 31.7656 183.375C31.651 183.714 31.5938 184.073 31.5938 184.453ZM43.2188 187.969C43.5625 187.969 43.8802 187.898 44.1719 187.758C44.4635 187.617 44.7031 187.424 44.8906 187.18C45.0781 186.93 45.1849 186.646 45.2109 186.328H46.5859C46.5599 186.828 46.3906 187.294 46.0781 187.727C45.7708 188.154 45.3672 188.5 44.8672 188.766C44.3672 189.026 43.8177 189.156 43.2188 189.156C42.5833 189.156 42.0286 189.044 41.5547 188.82C41.0859 188.596 40.6953 188.289 40.3828 187.898C40.0755 187.508 39.8438 187.06 39.6875 186.555C39.5365 186.044 39.4609 185.505 39.4609 184.938V184.609C39.4609 184.042 39.5365 183.505 39.6875 183C39.8438 182.49 40.0755 182.039 40.3828 181.648C40.6953 181.258 41.0859 180.951 41.5547 180.727C42.0286 180.503 42.5833 180.391 43.2188 180.391C43.8802 180.391 44.4583 180.526 44.9531 180.797C45.4479 181.062 45.8359 181.427 46.1172 181.891C46.4036 182.349 46.5599 182.87 46.5859 183.453H45.2109C45.1849 183.104 45.0859 182.789 44.9141 182.508C44.7474 182.227 44.5182 182.003 44.2266 181.836C43.9401 181.664 43.6042 181.578 43.2188 181.578C42.776 181.578 42.4036 181.667 42.1016 181.844C41.8047 182.016 41.5677 182.25 41.3906 182.547C41.2188 182.839 41.0938 183.164 41.0156 183.523C40.9427 183.878 40.9062 184.24 40.9062 184.609V184.938C40.9062 185.307 40.9427 185.672 41.0156 186.031C41.0885 186.391 41.2109 186.716 41.3828 187.008C41.5599 187.299 41.7969 187.534 42.0938 187.711C42.3958 187.883 42.7708 187.969 43.2188 187.969ZM50.1562 181.875V189H48.7109V180.547H50.1172L50.1562 181.875ZM52.7969 180.5L52.7891 181.844C52.6693 181.818 52.5547 181.802 52.4453 181.797C52.3411 181.786 52.2214 181.781 52.0859 181.781C51.7526 181.781 51.4583 181.833 51.2031 181.938C50.9479 182.042 50.7318 182.188 50.5547 182.375C50.3776 182.562 50.237 182.786 50.1328 183.047C50.0339 183.302 49.9688 183.583 49.9375 183.891L49.5312 184.125C49.5312 183.615 49.5807 183.135 49.6797 182.688C49.7839 182.24 49.9427 181.844 50.1562 181.5C50.3698 181.151 50.6406 180.88 50.9688 180.688C51.3021 180.49 51.6979 180.391 52.1562 180.391C52.2604 180.391 52.3802 180.404 52.5156 180.43C52.651 180.451 52.7448 180.474 52.7969 180.5ZM57.9844 189.156C57.3958 189.156 56.862 189.057 56.3828 188.859C55.9089 188.656 55.5 188.372 55.1562 188.008C54.8177 187.643 54.5573 187.211 54.375 186.711C54.1927 186.211 54.1016 185.664 54.1016 185.07V184.742C54.1016 184.055 54.2031 183.443 54.4062 182.906C54.6094 182.365 54.8854 181.906 55.2344 181.531C55.5833 181.156 55.9792 180.872 56.4219 180.68C56.8646 180.487 57.3229 180.391 57.7969 180.391C58.401 180.391 58.9219 180.495 59.3594 180.703C59.8021 180.911 60.1641 181.203 60.4453 181.578C60.7266 181.948 60.9349 182.385 61.0703 182.891C61.2057 183.391 61.2734 183.938 61.2734 184.531V185.18H54.9609V184H59.8281V183.891C59.8073 183.516 59.7292 183.151 59.5938 182.797C59.4635 182.443 59.2552 182.151 58.9688 181.922C58.6823 181.693 58.2917 181.578 57.7969 181.578C57.4688 181.578 57.1667 181.648 56.8906 181.789C56.6146 181.924 56.3776 182.128 56.1797 182.398C55.9818 182.669 55.8281 183 55.7188 183.391C55.6094 183.781 55.5547 184.232 55.5547 184.742V185.07C55.5547 185.471 55.6094 185.849 55.7188 186.203C55.8333 186.552 55.9974 186.859 56.2109 187.125C56.4297 187.391 56.6927 187.599 57 187.75C57.3125 187.901 57.6667 187.977 58.0625 187.977C58.5729 187.977 59.0052 187.872 59.3594 187.664C59.7135 187.456 60.0234 187.177 60.2891 186.828L61.1641 187.523C60.9818 187.799 60.75 188.062 60.4688 188.312C60.1875 188.562 59.8411 188.766 59.4297 188.922C59.0234 189.078 58.5417 189.156 57.9844 189.156ZM68.4453 187.555V183.203C68.4453 182.87 68.3776 182.581 68.2422 182.336C68.112 182.086 67.9141 181.893 67.6484 181.758C67.3828 181.622 67.0547 181.555 66.6641 181.555C66.2995 181.555 65.9792 181.617 65.7031 181.742C65.4323 181.867 65.2188 182.031 65.0625 182.234C64.9115 182.438 64.8359 182.656 64.8359 182.891H63.3906C63.3906 182.589 63.4688 182.289 63.625 181.992C63.7812 181.695 64.0052 181.427 64.2969 181.188C64.5938 180.943 64.9479 180.75 65.3594 180.609C65.776 180.464 66.2396 180.391 66.75 180.391C67.3646 180.391 67.9062 180.495 68.375 180.703C68.849 180.911 69.2188 181.227 69.4844 181.648C69.7552 182.065 69.8906 182.589 69.8906 183.219V187.156C69.8906 187.438 69.9141 187.737 69.9609 188.055C70.013 188.372 70.0885 188.646 70.1875 188.875V189H68.6797C68.6068 188.833 68.5495 188.612 68.5078 188.336C68.4661 188.055 68.4453 187.794 68.4453 187.555ZM68.6953 183.875L68.7109 184.891H67.25C66.8385 184.891 66.4714 184.924 66.1484 184.992C65.8255 185.055 65.5547 185.151 65.3359 185.281C65.1172 185.411 64.9505 185.576 64.8359 185.773C64.7214 185.966 64.6641 186.193 64.6641 186.453C64.6641 186.719 64.724 186.961 64.8438 187.18C64.9635 187.398 65.1432 187.573 65.3828 187.703C65.6276 187.828 65.9271 187.891 66.2812 187.891C66.724 187.891 67.1146 187.797 67.4531 187.609C67.7917 187.422 68.0599 187.193 68.2578 186.922C68.4609 186.651 68.5703 186.388 68.5859 186.133L69.2031 186.828C69.1667 187.047 69.0677 187.289 68.9062 187.555C68.7448 187.82 68.5286 188.076 68.2578 188.32C67.9922 188.56 67.6745 188.76 67.3047 188.922C66.9401 189.078 66.5286 189.156 66.0703 189.156C65.4974 189.156 64.9948 189.044 64.5625 188.82C64.1354 188.596 63.8021 188.297 63.5625 187.922C63.3281 187.542 63.2109 187.117 63.2109 186.648C63.2109 186.195 63.2995 185.797 63.4766 185.453C63.6536 185.104 63.9089 184.815 64.2422 184.586C64.5755 184.352 64.9766 184.174 65.4453 184.055C65.9141 183.935 66.4375 183.875 67.0156 183.875H68.6953ZM77.5859 186.758C77.5859 186.549 77.5391 186.357 77.4453 186.18C77.3568 185.997 77.1719 185.833 76.8906 185.688C76.6146 185.536 76.1979 185.406 75.6406 185.297C75.1719 185.198 74.7474 185.081 74.3672 184.945C73.9922 184.81 73.6719 184.646 73.4062 184.453C73.1458 184.26 72.9453 184.034 72.8047 183.773C72.6641 183.513 72.5938 183.208 72.5938 182.859C72.5938 182.526 72.6667 182.211 72.8125 181.914C72.9635 181.617 73.1745 181.354 73.4453 181.125C73.7214 180.896 74.0521 180.716 74.4375 180.586C74.8229 180.456 75.2526 180.391 75.7266 180.391C76.4036 180.391 76.9818 180.51 77.4609 180.75C77.9401 180.99 78.3073 181.31 78.5625 181.711C78.8177 182.107 78.9453 182.547 78.9453 183.031H77.5C77.5 182.797 77.4297 182.57 77.2891 182.352C77.1536 182.128 76.9531 181.943 76.6875 181.797C76.4271 181.651 76.1068 181.578 75.7266 181.578C75.3255 181.578 75 181.641 74.75 181.766C74.5052 181.885 74.3255 182.039 74.2109 182.227C74.1016 182.414 74.0469 182.612 74.0469 182.82C74.0469 182.977 74.0729 183.117 74.125 183.242C74.1823 183.362 74.2812 183.474 74.4219 183.578C74.5625 183.677 74.7604 183.771 75.0156 183.859C75.2708 183.948 75.5964 184.036 75.9922 184.125C76.6849 184.281 77.2552 184.469 77.7031 184.688C78.151 184.906 78.4844 185.174 78.7031 185.492C78.9219 185.81 79.0312 186.195 79.0312 186.648C79.0312 187.018 78.9531 187.357 78.7969 187.664C78.6458 187.971 78.4245 188.237 78.1328 188.461C77.8464 188.68 77.5026 188.852 77.1016 188.977C76.7057 189.096 76.2604 189.156 75.7656 189.156C75.0208 189.156 74.3906 189.023 73.875 188.758C73.3594 188.492 72.9688 188.148 72.7031 187.727C72.4375 187.305 72.3047 186.859 72.3047 186.391H73.7578C73.7786 186.786 73.8932 187.102 74.1016 187.336C74.3099 187.565 74.5651 187.729 74.8672 187.828C75.1693 187.922 75.4688 187.969 75.7656 187.969C76.1615 187.969 76.4922 187.917 76.7578 187.812C77.0286 187.708 77.2344 187.565 77.375 187.383C77.5156 187.201 77.5859 186.992 77.5859 186.758ZM84.9375 189.156C84.349 189.156 83.8151 189.057 83.3359 188.859C82.862 188.656 82.4531 188.372 82.1094 188.008C81.7708 187.643 81.5104 187.211 81.3281 186.711C81.1458 186.211 81.0547 185.664 81.0547 185.07V184.742C81.0547 184.055 81.1562 183.443 81.3594 182.906C81.5625 182.365 81.8385 181.906 82.1875 181.531C82.5365 181.156 82.9323 180.872 83.375 180.68C83.8177 180.487 84.276 180.391 84.75 180.391C85.3542 180.391 85.875 180.495 86.3125 180.703C86.7552 180.911 87.1172 181.203 87.3984 181.578C87.6797 181.948 87.888 182.385 88.0234 182.891C88.1589 183.391 88.2266 183.938 88.2266 184.531V185.18H81.9141V184H86.7812V183.891C86.7604 183.516 86.6823 183.151 86.5469 182.797C86.4167 182.443 86.2083 182.151 85.9219 181.922C85.6354 181.693 85.2448 181.578 84.75 181.578C84.4219 181.578 84.1198 181.648 83.8438 181.789C83.5677 181.924 83.3307 182.128 83.1328 182.398C82.9349 182.669 82.7812 183 82.6719 183.391C82.5625 183.781 82.5078 184.232 82.5078 184.742V185.07C82.5078 185.471 82.5625 185.849 82.6719 186.203C82.7865 186.552 82.9505 186.859 83.1641 187.125C83.3828 187.391 83.6458 187.599 83.9531 187.75C84.2656 187.901 84.6198 187.977 85.0156 187.977C85.526 187.977 85.9583 187.872 86.3125 187.664C86.6667 187.456 86.9766 187.177 87.2422 186.828L88.1172 187.523C87.9349 187.799 87.7031 188.062 87.4219 188.312C87.1406 188.562 86.7943 188.766 86.3828 188.922C85.9766 189.078 85.4948 189.156 84.9375 189.156ZM95.7422 187.359V177H97.1953V189H95.8672L95.7422 187.359ZM90.0547 184.867V184.703C90.0547 184.057 90.1328 183.471 90.2891 182.945C90.4505 182.414 90.6771 181.958 90.9688 181.578C91.2656 181.198 91.6172 180.906 92.0234 180.703C92.4349 180.495 92.8932 180.391 93.3984 180.391C93.9297 180.391 94.3932 180.484 94.7891 180.672C95.1901 180.854 95.5286 181.122 95.8047 181.477C96.0859 181.826 96.3073 182.247 96.4688 182.742C96.6302 183.237 96.7422 183.797 96.8047 184.422V185.141C96.7474 185.76 96.6354 186.318 96.4688 186.812C96.3073 187.307 96.0859 187.729 95.8047 188.078C95.5286 188.427 95.1901 188.695 94.7891 188.883C94.388 189.065 93.9193 189.156 93.3828 189.156C92.888 189.156 92.4349 189.049 92.0234 188.836C91.6172 188.622 91.2656 188.323 90.9688 187.938C90.6771 187.552 90.4505 187.099 90.2891 186.578C90.1328 186.052 90.0547 185.482 90.0547 184.867ZM91.5078 184.703V184.867C91.5078 185.289 91.5495 185.685 91.6328 186.055C91.7214 186.424 91.8568 186.75 92.0391 187.031C92.2214 187.312 92.4531 187.534 92.7344 187.695C93.0156 187.852 93.3516 187.93 93.7422 187.93C94.2214 187.93 94.6146 187.828 94.9219 187.625C95.2344 187.422 95.4844 187.154 95.6719 186.82C95.8594 186.487 96.0052 186.125 96.1094 185.734V183.852C96.0469 183.565 95.9557 183.289 95.8359 183.023C95.7214 182.753 95.5703 182.513 95.3828 182.305C95.2005 182.091 94.974 181.922 94.7031 181.797C94.4375 181.672 94.1224 181.609 93.7578 181.609C93.362 181.609 93.0208 181.693 92.7344 181.859C92.4531 182.021 92.2214 182.245 92.0391 182.531C91.8568 182.812 91.7214 183.141 91.6328 183.516C91.5495 183.885 91.5078 184.281 91.5078 184.703ZM104.031 184.867V184.688C104.031 184.078 104.12 183.513 104.297 182.992C104.474 182.466 104.729 182.01 105.062 181.625C105.396 181.234 105.799 180.932 106.273 180.719C106.747 180.5 107.279 180.391 107.867 180.391C108.461 180.391 108.995 180.5 109.469 180.719C109.948 180.932 110.354 181.234 110.688 181.625C111.026 182.01 111.284 182.466 111.461 182.992C111.638 183.513 111.727 184.078 111.727 184.688V184.867C111.727 185.477 111.638 186.042 111.461 186.562C111.284 187.083 111.026 187.539 110.688 187.93C110.354 188.315 109.951 188.617 109.477 188.836C109.008 189.049 108.477 189.156 107.883 189.156C107.289 189.156 106.755 189.049 106.281 188.836C105.807 188.617 105.401 188.315 105.062 187.93C104.729 187.539 104.474 187.083 104.297 186.562C104.12 186.042 104.031 185.477 104.031 184.867ZM105.477 184.688V184.867C105.477 185.289 105.526 185.688 105.625 186.062C105.724 186.432 105.872 186.76 106.07 187.047C106.273 187.333 106.526 187.56 106.828 187.727C107.13 187.888 107.482 187.969 107.883 187.969C108.279 187.969 108.625 187.888 108.922 187.727C109.224 187.56 109.474 187.333 109.672 187.047C109.87 186.76 110.018 186.432 110.117 186.062C110.221 185.688 110.273 185.289 110.273 184.867V184.688C110.273 184.271 110.221 183.878 110.117 183.508C110.018 183.133 109.867 182.802 109.664 182.516C109.466 182.224 109.216 181.995 108.914 181.828C108.617 181.661 108.268 181.578 107.867 181.578C107.471 181.578 107.122 181.661 106.82 181.828C106.523 181.995 106.273 182.224 106.07 182.516C105.872 182.802 105.724 183.133 105.625 183.508C105.526 183.878 105.477 184.271 105.477 184.688ZM116.484 187.695L118.797 180.547H120.273L117.234 189H116.266L116.484 187.695ZM114.555 180.547L116.938 187.734L117.102 189H116.133L113.07 180.547H114.555ZM125.562 189.156C124.974 189.156 124.44 189.057 123.961 188.859C123.487 188.656 123.078 188.372 122.734 188.008C122.396 187.643 122.135 187.211 121.953 186.711C121.771 186.211 121.68 185.664 121.68 185.07V184.742C121.68 184.055 121.781 183.443 121.984 182.906C122.188 182.365 122.464 181.906 122.812 181.531C123.161 181.156 123.557 180.872 124 180.68C124.443 180.487 124.901 180.391 125.375 180.391C125.979 180.391 126.5 180.495 126.938 180.703C127.38 180.911 127.742 181.203 128.023 181.578C128.305 181.948 128.513 182.385 128.648 182.891C128.784 183.391 128.852 183.938 128.852 184.531V185.18H122.539V184H127.406V183.891C127.385 183.516 127.307 183.151 127.172 182.797C127.042 182.443 126.833 182.151 126.547 181.922C126.26 181.693 125.87 181.578 125.375 181.578C125.047 181.578 124.745 181.648 124.469 181.789C124.193 181.924 123.956 182.128 123.758 182.398C123.56 182.669 123.406 183 123.297 183.391C123.188 183.781 123.133 184.232 123.133 184.742V185.07C123.133 185.471 123.188 185.849 123.297 186.203C123.411 186.552 123.576 186.859 123.789 187.125C124.008 187.391 124.271 187.599 124.578 187.75C124.891 187.901 125.245 187.977 125.641 187.977C126.151 187.977 126.583 187.872 126.938 187.664C127.292 187.456 127.602 187.177 127.867 186.828L128.742 187.523C128.56 187.799 128.328 188.062 128.047 188.312C127.766 188.562 127.419 188.766 127.008 188.922C126.602 189.078 126.12 189.156 125.562 189.156ZM132.484 181.875V189H131.039V180.547H132.445L132.484 181.875ZM135.125 180.5L135.117 181.844C134.997 181.818 134.883 181.802 134.773 181.797C134.669 181.786 134.549 181.781 134.414 181.781C134.081 181.781 133.786 181.833 133.531 181.938C133.276 182.042 133.06 182.188 132.883 182.375C132.706 182.562 132.565 182.786 132.461 183.047C132.362 183.302 132.297 183.583 132.266 183.891L131.859 184.125C131.859 183.615 131.909 183.135 132.008 182.688C132.112 182.24 132.271 181.844 132.484 181.5C132.698 181.151 132.969 180.88 133.297 180.688C133.63 180.49 134.026 180.391 134.484 180.391C134.589 180.391 134.708 180.404 134.844 180.43C134.979 180.451 135.073 180.474 135.125 180.5ZM144.969 180.547V181.656H140.398V180.547H144.969ZM141.945 178.492H143.391V186.906C143.391 187.193 143.435 187.409 143.523 187.555C143.612 187.701 143.727 187.797 143.867 187.844C144.008 187.891 144.159 187.914 144.32 187.914C144.44 187.914 144.565 187.904 144.695 187.883C144.831 187.857 144.932 187.836 145 187.82L145.008 189C144.893 189.036 144.742 189.07 144.555 189.102C144.372 189.138 144.151 189.156 143.891 189.156C143.536 189.156 143.211 189.086 142.914 188.945C142.617 188.805 142.38 188.57 142.203 188.242C142.031 187.909 141.945 187.461 141.945 186.898V178.492ZM148.734 180.547V189H147.281V180.547H148.734ZM147.172 178.305C147.172 178.07 147.242 177.872 147.383 177.711C147.529 177.549 147.742 177.469 148.023 177.469C148.299 177.469 148.51 177.549 148.656 177.711C148.807 177.872 148.883 178.07 148.883 178.305C148.883 178.529 148.807 178.721 148.656 178.883C148.51 179.039 148.299 179.117 148.023 179.117C147.742 179.117 147.529 179.039 147.383 178.883C147.242 178.721 147.172 178.529 147.172 178.305ZM152.992 182.227V189H151.539V180.547H152.914L152.992 182.227ZM152.695 184.453L152.023 184.43C152.029 183.852 152.104 183.318 152.25 182.828C152.396 182.333 152.612 181.904 152.898 181.539C153.185 181.174 153.542 180.893 153.969 180.695C154.396 180.492 154.891 180.391 155.453 180.391C155.849 180.391 156.214 180.448 156.547 180.562C156.88 180.672 157.169 180.846 157.414 181.086C157.659 181.326 157.849 181.633 157.984 182.008C158.12 182.383 158.188 182.836 158.188 183.367V189H156.742V183.438C156.742 182.995 156.667 182.641 156.516 182.375C156.37 182.109 156.161 181.917 155.891 181.797C155.62 181.672 155.302 181.609 154.938 181.609C154.51 181.609 154.154 181.685 153.867 181.836C153.581 181.987 153.352 182.195 153.18 182.461C153.008 182.727 152.883 183.031 152.805 183.375C152.732 183.714 152.695 184.073 152.695 184.453ZM158.172 183.656L157.203 183.953C157.208 183.49 157.284 183.044 157.43 182.617C157.581 182.19 157.797 181.81 158.078 181.477C158.365 181.143 158.716 180.88 159.133 180.688C159.549 180.49 160.026 180.391 160.562 180.391C161.016 180.391 161.417 180.451 161.766 180.57C162.12 180.69 162.417 180.875 162.656 181.125C162.901 181.37 163.086 181.685 163.211 182.07C163.336 182.456 163.398 182.914 163.398 183.445V189H161.945V183.43C161.945 182.956 161.87 182.589 161.719 182.328C161.573 182.062 161.365 181.878 161.094 181.773C160.828 181.664 160.51 181.609 160.141 181.609C159.823 181.609 159.542 181.664 159.297 181.773C159.052 181.883 158.846 182.034 158.68 182.227C158.513 182.414 158.385 182.63 158.297 182.875C158.214 183.12 158.172 183.38 158.172 183.656ZM169.594 189.156C169.005 189.156 168.471 189.057 167.992 188.859C167.518 188.656 167.109 188.372 166.766 188.008C166.427 187.643 166.167 187.211 165.984 186.711C165.802 186.211 165.711 185.664 165.711 185.07V184.742C165.711 184.055 165.812 183.443 166.016 182.906C166.219 182.365 166.495 181.906 166.844 181.531C167.193 181.156 167.589 180.872 168.031 180.68C168.474 180.487 168.932 180.391 169.406 180.391C170.01 180.391 170.531 180.495 170.969 180.703C171.411 180.911 171.773 181.203 172.055 181.578C172.336 181.948 172.544 182.385 172.68 182.891C172.815 183.391 172.883 183.938 172.883 184.531V185.18H166.57V184H171.438V183.891C171.417 183.516 171.339 183.151 171.203 182.797C171.073 182.443 170.865 182.151 170.578 181.922C170.292 181.693 169.901 181.578 169.406 181.578C169.078 181.578 168.776 181.648 168.5 181.789C168.224 181.924 167.987 182.128 167.789 182.398C167.591 182.669 167.438 183 167.328 183.391C167.219 183.781 167.164 184.232 167.164 184.742V185.07C167.164 185.471 167.219 185.849 167.328 186.203C167.443 186.552 167.607 186.859 167.82 187.125C168.039 187.391 168.302 187.599 168.609 187.75C168.922 187.901 169.276 187.977 169.672 187.977C170.182 187.977 170.615 187.872 170.969 187.664C171.323 187.456 171.633 187.177 171.898 186.828L172.773 187.523C172.591 187.799 172.359 188.062 172.078 188.312C171.797 188.562 171.451 188.766 171.039 188.922C170.633 189.078 170.151 189.156 169.594 189.156ZM176.383 187.281V188.445C176.383 188.919 176.263 189.419 176.023 189.945C175.784 190.477 175.448 190.919 175.016 191.273L174.195 190.703C174.362 190.474 174.503 190.24 174.617 190C174.732 189.766 174.818 189.521 174.875 189.266C174.938 189.016 174.969 188.75 174.969 188.469V187.281H176.383ZM184.641 182.172V192.25H183.188V180.547H184.516L184.641 182.172ZM190.336 184.703V184.867C190.336 185.482 190.263 186.052 190.117 186.578C189.971 187.099 189.758 187.552 189.477 187.938C189.201 188.323 188.859 188.622 188.453 188.836C188.047 189.049 187.581 189.156 187.055 189.156C186.518 189.156 186.044 189.068 185.633 188.891C185.221 188.714 184.872 188.456 184.586 188.117C184.299 187.779 184.07 187.372 183.898 186.898C183.732 186.424 183.617 185.891 183.555 185.297V184.422C183.617 183.797 183.734 183.237 183.906 182.742C184.078 182.247 184.305 181.826 184.586 181.477C184.872 181.122 185.219 180.854 185.625 180.672C186.031 180.484 186.5 180.391 187.031 180.391C187.562 180.391 188.034 180.495 188.445 180.703C188.857 180.906 189.203 181.198 189.484 181.578C189.766 181.958 189.977 182.414 190.117 182.945C190.263 183.471 190.336 184.057 190.336 184.703ZM188.883 184.867V184.703C188.883 184.281 188.839 183.885 188.75 183.516C188.661 183.141 188.523 182.812 188.336 182.531C188.154 182.245 187.919 182.021 187.633 181.859C187.346 181.693 187.005 181.609 186.609 181.609C186.245 181.609 185.927 181.672 185.656 181.797C185.391 181.922 185.164 182.091 184.977 182.305C184.789 182.513 184.635 182.753 184.516 183.023C184.401 183.289 184.315 183.565 184.258 183.852V185.875C184.362 186.24 184.508 186.583 184.695 186.906C184.883 187.224 185.133 187.482 185.445 187.68C185.758 187.872 186.151 187.969 186.625 187.969C187.016 187.969 187.352 187.888 187.633 187.727C187.919 187.56 188.154 187.333 188.336 187.047C188.523 186.76 188.661 186.432 188.75 186.062C188.839 185.688 188.883 185.289 188.883 184.867ZM194.125 181.875V189H192.68V180.547H194.086L194.125 181.875ZM196.766 180.5L196.758 181.844C196.638 181.818 196.523 181.802 196.414 181.797C196.31 181.786 196.19 181.781 196.055 181.781C195.721 181.781 195.427 181.833 195.172 181.938C194.917 182.042 194.701 182.188 194.523 182.375C194.346 182.562 194.206 182.786 194.102 183.047C194.003 183.302 193.938 183.583 193.906 183.891L193.5 184.125C193.5 183.615 193.549 183.135 193.648 182.688C193.753 182.24 193.911 181.844 194.125 181.5C194.339 181.151 194.609 180.88 194.938 180.688C195.271 180.49 195.667 180.391 196.125 180.391C196.229 180.391 196.349 180.404 196.484 180.43C196.62 180.451 196.714 180.474 196.766 180.5ZM198.062 184.867V184.688C198.062 184.078 198.151 183.513 198.328 182.992C198.505 182.466 198.76 182.01 199.094 181.625C199.427 181.234 199.831 180.932 200.305 180.719C200.779 180.5 201.31 180.391 201.898 180.391C202.492 180.391 203.026 180.5 203.5 180.719C203.979 180.932 204.385 181.234 204.719 181.625C205.057 182.01 205.315 182.466 205.492 182.992C205.669 183.513 205.758 184.078 205.758 184.688V184.867C205.758 185.477 205.669 186.042 205.492 186.562C205.315 187.083 205.057 187.539 204.719 187.93C204.385 188.315 203.982 188.617 203.508 188.836C203.039 189.049 202.508 189.156 201.914 189.156C201.32 189.156 200.786 189.049 200.312 188.836C199.839 188.617 199.432 188.315 199.094 187.93C198.76 187.539 198.505 187.083 198.328 186.562C198.151 186.042 198.062 185.477 198.062 184.867ZM199.508 184.688V184.867C199.508 185.289 199.557 185.688 199.656 186.062C199.755 186.432 199.904 186.76 200.102 187.047C200.305 187.333 200.557 187.56 200.859 187.727C201.161 187.888 201.513 187.969 201.914 187.969C202.31 187.969 202.656 187.888 202.953 187.727C203.255 187.56 203.505 187.333 203.703 187.047C203.901 186.76 204.049 186.432 204.148 186.062C204.253 185.688 204.305 185.289 204.305 184.867V184.688C204.305 184.271 204.253 183.878 204.148 183.508C204.049 183.133 203.898 182.802 203.695 182.516C203.497 182.224 203.247 181.995 202.945 181.828C202.648 181.661 202.299 181.578 201.898 181.578C201.503 181.578 201.154 181.661 200.852 181.828C200.555 181.995 200.305 182.224 200.102 182.516C199.904 182.802 199.755 183.133 199.656 183.508C199.557 183.878 199.508 184.271 199.508 184.688ZM210.516 187.695L212.828 180.547H214.305L211.266 189H210.297L210.516 187.695ZM208.586 180.547L210.969 187.734L211.133 189H210.164L207.102 180.547H208.586ZM217.766 180.547V189H216.312V180.547H217.766ZM216.203 178.305C216.203 178.07 216.273 177.872 216.414 177.711C216.56 177.549 216.773 177.469 217.055 177.469C217.331 177.469 217.542 177.549 217.688 177.711C217.839 177.872 217.914 178.07 217.914 178.305C217.914 178.529 217.839 178.721 217.688 178.883C217.542 179.039 217.331 179.117 217.055 179.117C216.773 179.117 216.56 179.039 216.414 178.883C216.273 178.721 216.203 178.529 216.203 178.305ZM222.031 182.352V189H220.586V180.547H221.953L222.031 182.352ZM221.688 184.453L221.086 184.43C221.091 183.852 221.177 183.318 221.344 182.828C221.51 182.333 221.745 181.904 222.047 181.539C222.349 181.174 222.708 180.893 223.125 180.695C223.547 180.492 224.013 180.391 224.523 180.391C224.94 180.391 225.315 180.448 225.648 180.562C225.982 180.672 226.266 180.849 226.5 181.094C226.74 181.339 226.922 181.656 227.047 182.047C227.172 182.432 227.234 182.904 227.234 183.461V189H225.781V183.445C225.781 183.003 225.716 182.648 225.586 182.383C225.456 182.112 225.266 181.917 225.016 181.797C224.766 181.672 224.458 181.609 224.094 181.609C223.734 181.609 223.406 181.685 223.109 181.836C222.818 181.987 222.565 182.195 222.352 182.461C222.143 182.727 221.979 183.031 221.859 183.375C221.745 183.714 221.688 184.073 221.688 184.453ZM235.406 180.547H236.719V188.82C236.719 189.565 236.568 190.201 236.266 190.727C235.964 191.253 235.542 191.651 235 191.922C234.464 192.198 233.844 192.336 233.141 192.336C232.849 192.336 232.505 192.289 232.109 192.195C231.719 192.107 231.333 191.953 230.953 191.734C230.578 191.521 230.263 191.232 230.008 190.867L230.766 190.008C231.12 190.435 231.49 190.732 231.875 190.898C232.266 191.065 232.651 191.148 233.031 191.148C233.49 191.148 233.885 191.062 234.219 190.891C234.552 190.719 234.81 190.464 234.992 190.125C235.18 189.792 235.273 189.38 235.273 188.891V182.406L235.406 180.547ZM229.586 184.867V184.703C229.586 184.057 229.661 183.471 229.812 182.945C229.969 182.414 230.19 181.958 230.477 181.578C230.768 181.198 231.12 180.906 231.531 180.703C231.943 180.495 232.406 180.391 232.922 180.391C233.453 180.391 233.917 180.484 234.312 180.672C234.714 180.854 235.052 181.122 235.328 181.477C235.609 181.826 235.831 182.247 235.992 182.742C236.154 183.237 236.266 183.797 236.328 184.422V185.141C236.271 185.76 236.159 186.318 235.992 186.812C235.831 187.307 235.609 187.729 235.328 188.078C235.052 188.427 234.714 188.695 234.312 188.883C233.911 189.065 233.443 189.156 232.906 189.156C232.401 189.156 231.943 189.049 231.531 188.836C231.125 188.622 230.776 188.323 230.484 187.938C230.193 187.552 229.969 187.099 229.812 186.578C229.661 186.052 229.586 185.482 229.586 184.867ZM231.031 184.703V184.867C231.031 185.289 231.073 185.685 231.156 186.055C231.245 186.424 231.378 186.75 231.555 187.031C231.737 187.312 231.969 187.534 232.25 187.695C232.531 187.852 232.867 187.93 233.258 187.93C233.737 187.93 234.133 187.828 234.445 187.625C234.758 187.422 235.005 187.154 235.188 186.82C235.375 186.487 235.521 186.125 235.625 185.734V183.852C235.568 183.565 235.479 183.289 235.359 183.023C235.245 182.753 235.094 182.513 234.906 182.305C234.724 182.091 234.497 181.922 234.227 181.797C233.956 181.672 233.638 181.609 233.273 181.609C232.878 181.609 232.536 181.693 232.25 181.859C231.969 182.021 231.737 182.245 231.555 182.531C231.378 182.812 231.245 183.141 231.156 183.516C231.073 183.885 231.031 184.281 231.031 184.703ZM245.328 182.172V192.25H243.875V180.547H245.203L245.328 182.172ZM251.023 184.703V184.867C251.023 185.482 250.951 186.052 250.805 186.578C250.659 187.099 250.445 187.552 250.164 187.938C249.888 188.323 249.547 188.622 249.141 188.836C248.734 189.049 248.268 189.156 247.742 189.156C247.206 189.156 246.732 189.068 246.32 188.891C245.909 188.714 245.56 188.456 245.273 188.117C244.987 187.779 244.758 187.372 244.586 186.898C244.419 186.424 244.305 185.891 244.242 185.297V184.422C244.305 183.797 244.422 183.237 244.594 182.742C244.766 182.247 244.992 181.826 245.273 181.477C245.56 181.122 245.906 180.854 246.312 180.672C246.719 180.484 247.188 180.391 247.719 180.391C248.25 180.391 248.721 180.495 249.133 180.703C249.544 180.906 249.891 181.198 250.172 181.578C250.453 181.958 250.664 182.414 250.805 182.945C250.951 183.471 251.023 184.057 251.023 184.703ZM249.57 184.867V184.703C249.57 184.281 249.526 183.885 249.438 183.516C249.349 183.141 249.211 182.812 249.023 182.531C248.841 182.245 248.607 182.021 248.32 181.859C248.034 181.693 247.693 181.609 247.297 181.609C246.932 181.609 246.615 181.672 246.344 181.797C246.078 181.922 245.852 182.091 245.664 182.305C245.477 182.513 245.323 182.753 245.203 183.023C245.089 183.289 245.003 183.565 244.945 183.852V185.875C245.049 186.24 245.195 186.583 245.383 186.906C245.57 187.224 245.82 187.482 246.133 187.68C246.445 187.872 246.839 187.969 247.312 187.969C247.703 187.969 248.039 187.888 248.32 187.727C248.607 187.56 248.841 187.333 249.023 187.047C249.211 186.76 249.349 186.432 249.438 186.062C249.526 185.688 249.57 185.289 249.57 184.867ZM254.812 181.875V189H253.367V180.547H254.773L254.812 181.875ZM257.453 180.5L257.445 181.844C257.326 181.818 257.211 181.802 257.102 181.797C256.997 181.786 256.878 181.781 256.742 181.781C256.409 181.781 256.115 181.833 255.859 181.938C255.604 182.042 255.388 182.188 255.211 182.375C255.034 182.562 254.893 182.786 254.789 183.047C254.69 183.302 254.625 183.583 254.594 183.891L254.188 184.125C254.188 183.615 254.237 183.135 254.336 182.688C254.44 182.24 254.599 181.844 254.812 181.5C255.026 181.151 255.297 180.88 255.625 180.688C255.958 180.49 256.354 180.391 256.812 180.391C256.917 180.391 257.036 180.404 257.172 180.43C257.307 180.451 257.401 180.474 257.453 180.5ZM258.75 184.867V184.688C258.75 184.078 258.839 183.513 259.016 182.992C259.193 182.466 259.448 182.01 259.781 181.625C260.115 181.234 260.518 180.932 260.992 180.719C261.466 180.5 261.997 180.391 262.586 180.391C263.18 180.391 263.714 180.5 264.188 180.719C264.667 180.932 265.073 181.234 265.406 181.625C265.745 182.01 266.003 182.466 266.18 182.992C266.357 183.513 266.445 184.078 266.445 184.688V184.867C266.445 185.477 266.357 186.042 266.18 186.562C266.003 187.083 265.745 187.539 265.406 187.93C265.073 188.315 264.669 188.617 264.195 188.836C263.727 189.049 263.195 189.156 262.602 189.156C262.008 189.156 261.474 189.049 261 188.836C260.526 188.617 260.12 188.315 259.781 187.93C259.448 187.539 259.193 187.083 259.016 186.562C258.839 186.042 258.75 185.477 258.75 184.867ZM260.195 184.688V184.867C260.195 185.289 260.245 185.688 260.344 186.062C260.443 186.432 260.591 186.76 260.789 187.047C260.992 187.333 261.245 187.56 261.547 187.727C261.849 187.888 262.201 187.969 262.602 187.969C262.997 187.969 263.344 187.888 263.641 187.727C263.943 187.56 264.193 187.333 264.391 187.047C264.589 186.76 264.737 186.432 264.836 186.062C264.94 185.688 264.992 185.289 264.992 184.867V184.688C264.992 184.271 264.94 183.878 264.836 183.508C264.737 183.133 264.586 182.802 264.383 182.516C264.185 182.224 263.935 181.995 263.633 181.828C263.336 181.661 262.987 181.578 262.586 181.578C262.19 181.578 261.841 181.661 261.539 181.828C261.242 181.995 260.992 182.224 260.789 182.516C260.591 182.802 260.443 183.133 260.344 183.508C260.245 183.878 260.195 184.271 260.195 184.688ZM270.688 189H269.242V179.812C269.242 179.172 269.367 178.63 269.617 178.188C269.867 177.745 270.224 177.409 270.688 177.18C271.151 176.951 271.701 176.836 272.336 176.836C272.711 176.836 273.078 176.883 273.438 176.977C273.797 177.065 274.167 177.177 274.547 177.312L274.305 178.531C274.065 178.438 273.786 178.349 273.469 178.266C273.156 178.177 272.812 178.133 272.438 178.133C271.818 178.133 271.37 178.273 271.094 178.555C270.823 178.831 270.688 179.25 270.688 179.812V189ZM272.414 180.547V181.656H267.906V180.547H272.414ZM275.258 180.547V189H273.812V180.547H275.258ZM281.672 180.547V181.656H277.102V180.547H281.672ZM278.648 178.492H280.094V186.906C280.094 187.193 280.138 187.409 280.227 187.555C280.315 187.701 280.43 187.797 280.57 187.844C280.711 187.891 280.862 187.914 281.023 187.914C281.143 187.914 281.268 187.904 281.398 187.883C281.534 187.857 281.635 187.836 281.703 187.82L281.711 189C281.596 189.036 281.445 189.07 281.258 189.102C281.076 189.138 280.854 189.156 280.594 189.156C280.24 189.156 279.914 189.086 279.617 188.945C279.32 188.805 279.083 188.57 278.906 188.242C278.734 187.909 278.648 187.461 278.648 186.898V178.492ZM288.852 187.555V183.203C288.852 182.87 288.784 182.581 288.648 182.336C288.518 182.086 288.32 181.893 288.055 181.758C287.789 181.622 287.461 181.555 287.07 181.555C286.706 181.555 286.385 181.617 286.109 181.742C285.839 181.867 285.625 182.031 285.469 182.234C285.318 182.438 285.242 182.656 285.242 182.891H283.797C283.797 182.589 283.875 182.289 284.031 181.992C284.188 181.695 284.411 181.427 284.703 181.188C285 180.943 285.354 180.75 285.766 180.609C286.182 180.464 286.646 180.391 287.156 180.391C287.771 180.391 288.312 180.495 288.781 180.703C289.255 180.911 289.625 181.227 289.891 181.648C290.161 182.065 290.297 182.589 290.297 183.219V187.156C290.297 187.438 290.32 187.737 290.367 188.055C290.419 188.372 290.495 188.646 290.594 188.875V189H289.086C289.013 188.833 288.956 188.612 288.914 188.336C288.872 188.055 288.852 187.794 288.852 187.555ZM289.102 183.875L289.117 184.891H287.656C287.245 184.891 286.878 184.924 286.555 184.992C286.232 185.055 285.961 185.151 285.742 185.281C285.523 185.411 285.357 185.576 285.242 185.773C285.128 185.966 285.07 186.193 285.07 186.453C285.07 186.719 285.13 186.961 285.25 187.18C285.37 187.398 285.549 187.573 285.789 187.703C286.034 187.828 286.333 187.891 286.688 187.891C287.13 187.891 287.521 187.797 287.859 187.609C288.198 187.422 288.466 187.193 288.664 186.922C288.867 186.651 288.977 186.388 288.992 186.133L289.609 186.828C289.573 187.047 289.474 187.289 289.312 187.555C289.151 187.82 288.935 188.076 288.664 188.32C288.398 188.56 288.081 188.76 287.711 188.922C287.346 189.078 286.935 189.156 286.477 189.156C285.904 189.156 285.401 189.044 284.969 188.82C284.542 188.596 284.208 188.297 283.969 187.922C283.734 187.542 283.617 187.117 283.617 186.648C283.617 186.195 283.706 185.797 283.883 185.453C284.06 185.104 284.315 184.815 284.648 184.586C284.982 184.352 285.383 184.174 285.852 184.055C286.32 183.935 286.844 183.875 287.422 183.875H289.102ZM293.062 177H294.516V187.359L294.391 189H293.062V177ZM300.227 184.703V184.867C300.227 185.482 300.154 186.052 300.008 186.578C299.862 187.099 299.648 187.552 299.367 187.938C299.086 188.323 298.742 188.622 298.336 188.836C297.93 189.049 297.464 189.156 296.938 189.156C296.401 189.156 295.93 189.065 295.523 188.883C295.122 188.695 294.784 188.427 294.508 188.078C294.232 187.729 294.01 187.307 293.844 186.812C293.682 186.318 293.57 185.76 293.508 185.141V184.422C293.57 183.797 293.682 183.237 293.844 182.742C294.01 182.247 294.232 181.826 294.508 181.477C294.784 181.122 295.122 180.854 295.523 180.672C295.924 180.484 296.391 180.391 296.922 180.391C297.453 180.391 297.924 180.495 298.336 180.703C298.747 180.906 299.091 181.198 299.367 181.578C299.648 181.958 299.862 182.414 300.008 182.945C300.154 183.471 300.227 184.057 300.227 184.703ZM298.773 184.867V184.703C298.773 184.281 298.734 183.885 298.656 183.516C298.578 183.141 298.453 182.812 298.281 182.531C298.109 182.245 297.883 182.021 297.602 181.859C297.32 181.693 296.974 181.609 296.562 181.609C296.198 181.609 295.88 181.672 295.609 181.797C295.344 181.922 295.117 182.091 294.93 182.305C294.742 182.513 294.589 182.753 294.469 183.023C294.354 183.289 294.268 183.565 294.211 183.852V185.734C294.294 186.099 294.43 186.451 294.617 186.789C294.81 187.122 295.065 187.396 295.383 187.609C295.706 187.823 296.104 187.93 296.578 187.93C296.969 187.93 297.302 187.852 297.578 187.695C297.859 187.534 298.086 187.312 298.258 187.031C298.435 186.75 298.565 186.424 298.648 186.055C298.732 185.685 298.773 185.289 298.773 184.867ZM304.125 180.547V189H302.672V180.547H304.125ZM302.562 178.305C302.562 178.07 302.633 177.872 302.773 177.711C302.919 177.549 303.133 177.469 303.414 177.469C303.69 177.469 303.901 177.549 304.047 177.711C304.198 177.872 304.273 178.07 304.273 178.305C304.273 178.529 304.198 178.721 304.047 178.883C303.901 179.039 303.69 179.117 303.414 179.117C303.133 179.117 302.919 179.039 302.773 178.883C302.633 178.721 302.562 178.529 302.562 178.305ZM308.516 177V189H307.062V177H308.516ZM312.906 180.547V189H311.453V180.547H312.906ZM311.344 178.305C311.344 178.07 311.414 177.872 311.555 177.711C311.701 177.549 311.914 177.469 312.195 177.469C312.471 177.469 312.682 177.549 312.828 177.711C312.979 177.872 313.055 178.07 313.055 178.305C313.055 178.529 312.979 178.721 312.828 178.883C312.682 179.039 312.471 179.117 312.195 179.117C311.914 179.117 311.701 179.039 311.555 178.883C311.414 178.721 311.344 178.529 311.344 178.305ZM319.266 180.547V181.656H314.695V180.547H319.266ZM316.242 178.492H317.688V186.906C317.688 187.193 317.732 187.409 317.82 187.555C317.909 187.701 318.023 187.797 318.164 187.844C318.305 187.891 318.456 187.914 318.617 187.914C318.737 187.914 318.862 187.904 318.992 187.883C319.128 187.857 319.229 187.836 319.297 187.82L319.305 189C319.19 189.036 319.039 189.07 318.852 189.102C318.669 189.138 318.448 189.156 318.188 189.156C317.833 189.156 317.508 189.086 317.211 188.945C316.914 188.805 316.677 188.57 316.5 188.242C316.328 187.909 316.242 187.461 316.242 186.898V178.492ZM323.836 188.125L326.188 180.547H327.734L324.344 190.305C324.266 190.513 324.161 190.737 324.031 190.977C323.906 191.221 323.745 191.453 323.547 191.672C323.349 191.891 323.109 192.068 322.828 192.203C322.552 192.344 322.221 192.414 321.836 192.414C321.721 192.414 321.576 192.398 321.398 192.367C321.221 192.336 321.096 192.31 321.023 192.289L321.016 191.117C321.057 191.122 321.122 191.128 321.211 191.133C321.305 191.143 321.37 191.148 321.406 191.148C321.734 191.148 322.013 191.104 322.242 191.016C322.471 190.932 322.664 190.789 322.82 190.586C322.982 190.388 323.12 190.115 323.234 189.766L323.836 188.125ZM322.109 180.547L324.305 187.109L324.68 188.633L323.641 189.164L320.531 180.547H322.109ZM328.719 188.234C328.719 187.99 328.794 187.784 328.945 187.617C329.102 187.445 329.326 187.359 329.617 187.359C329.909 187.359 330.13 187.445 330.281 187.617C330.438 187.784 330.516 187.99 330.516 188.234C330.516 188.474 330.438 188.677 330.281 188.844C330.13 189.01 329.909 189.094 329.617 189.094C329.326 189.094 329.102 189.01 328.945 188.844C328.794 188.677 328.719 188.474 328.719 188.234Z" fill="#CED8E1"/>
<path d="M3.99445 318.125L0 317.129V351H360V220L357.503 221.494L353.01 232.951L350.513 234.943L346.019 233.947L341.026 228.966L338.03 229.464L333.537 240.422L330.541 247.395H326.546L322.552 240.92L319.874 240.422H317.06L311.567 256.361L310.069 257.357L307.573 258.354L305.076 254.867L301.082 233.947L298.585 231.456L296.089 232.452L291.096 249.388L288.1 251.38L282.607 248.392L279.612 245.901H275.617L271.623 255.365L269.126 258.852L264.133 259.848L260.139 264.829L257.642 265.825L255.146 264.829L249.653 251.878L245.159 250.882L239.667 264.331L237.67 266.323L234.674 265.825L228.682 257.357L224.189 256.859L220.693 251.38L218.197 247.395L215.7 246.399L213.703 247.894L208.71 266.821L207.212 269.81L205.215 270.308L202.718 265.327L197.725 238.928L196.227 236.935H195.229L192.732 238.43L188.738 253.373L186.741 256.361L182.746 257.357L177.753 267.319L176.255 268.814H173.759L170.763 266.821L167.767 262.338L165.27 261.342L161.276 263.833L158.779 272.3L156.283 275.289L153.786 276.285L149.293 273.795L145.797 270.806L142.302 270.308L140.804 268.814L136.81 263.335L134.313 261.84L131.817 263.335L127.822 284.753L124.827 292.722H121.831L117.337 287.243L114.84 286.247L110.846 285.749L107.351 293.221L103.856 297.205L101.859 297.703L97.8641 291.726L93.3703 289.236L90.3745 290.232L84.3828 312.646L81.8863 313.643L77.8918 309.658L72.3994 305.673H69.9029L66.9071 302.186L62.4133 300.692L59.4175 302.186L55.423 314.639L51.4286 317.129L48.932 318.125L45.4369 319.62L39.9445 320.616L36.9487 318.125L33.4535 312.646L28.9598 311.65L24.9653 308.662L21.4702 306.669L19.473 307.167L17.4757 311.152L13.4813 320.616L10.9847 322.608L7.9889 322.11L3.99445 318.125Z" fill="url(#paint0_linear_0_30)"/>
<path d="M360 220C354.857 220 354.857 235.235 349.714 235.235C344.571 235.235 344.786 228.842 339.429 228.842C334.071 228.842 334.5 247.614 329.143 247.614C323.786 247.614 324.643 240.078 318.857 240.078C313.071 240.078 314.571 258.387 308.571 258.387C302.571 258.387 303.429 231.426 298.286 231.426C293.143 231.426 293.571 251.096 288 251.096C282.429 251.096 283.286 245.709 277.714 245.709C272.143 245.709 273 259.176 267.429 259.176C261.857 259.176 262.5 265.705 257.143 265.705C251.786 265.705 252.214 251.014 246.857 251.014C241.5 251.014 242.143 266.467 236.571 266.467C231 266.467 232.286 257.135 226.286 257.135C220.286 257.135 221.357 246.743 216 246.743C210.643 246.743 211.286 270.466 205.714 270.466C200.143 270.466 201 236.595 195.429 236.595C189.857 236.595 190.5 256.836 185.143 256.836C179.786 256.836 180.857 268.943 174.857 268.943C168.857 268.943 170.357 261.597 164.571 261.597C158.786 261.597 160.286 276.56 154.286 276.56C148.286 276.56 149.786 270.793 144 270.793C138.214 270.793 139.286 262.06 133.714 262.06C128.143 262.06 129 293.428 123.429 293.428C117.857 293.428 119.143 285.756 113.143 285.756C107.143 285.756 108 297.753 102.857 297.753C97.7144 297.753 98.3572 289.184 92.5715 289.184C86.7858 289.184 87.6429 313.941 82.2858 313.941C76.9286 313.941 78.0001 306.486 72.0001 306.486C66.0001 306.486 67.5001 301.072 61.7144 301.072C55.9286 301.072 57 317.668 51.4286 317.668C45.8572 317.668 47.1429 321.15 41.1429 321.15C35.1429 321.15 36.8572 311.982 30.8572 311.982C24.8572 311.982 25.7143 307.085 20.5715 307.085C15.4286 307.085 15.4286 323 10.2858 323C5.14291 323 5.57149 317.396 6.10352e-05 317.396" stroke="#CF65DE" stroke-width="2"/>
<circle cx="21.5" cy="308.5" r="4.5" fill="#CF65DF" stroke="#170019" stroke-width="2"/>
<circle cx="61.5" cy="302.5" r="4.5" fill="#CF65DF" stroke="#170019" stroke-width="2"/>
<circle cx="92.4999" cy="289.5" r="4.5" fill="#CF65DF" stroke="#170019" stroke-width="2"/>
<circle cx="133.5" cy="261.5" r="4.5" fill="#CF65DF" stroke="#170019" stroke-width="2"/>
<circle cx="164.5" cy="263.5" r="4.5" fill="#CF65DF" stroke="#170019" stroke-width="2"/>
<circle cx="195.5" cy="238.5" r="4.5" fill="#CF65DF" stroke="#170019" stroke-width="2"/>
<circle cx="217.5" cy="246.5" r="4.5" fill="#CF65DF" stroke="#170019" stroke-width="2"/>
<circle cx="257.5" cy="263.5" r="4.5" fill="#CF65DF" stroke="#170019" stroke-width="2"/>
<circle cx="297.5" cy="232.5" r="4.5" fill="#CF65DF" stroke="#170019" stroke-width="2"/>
<circle cx="338.5" cy="229.5" r="4.5" fill="#CF65DF" stroke="#170019" stroke-width="2"/>
<circle cx="308.5" cy="256.5" r="4.5" fill="#CF65DF" stroke="#170019" stroke-width="2"/>
<circle cx="124.5" cy="291.5" r="4.5" fill="#CF65DF" stroke="#170019" stroke-width="2"/>
</g>
<defs>
<linearGradient id="paint0_linear_0_30" x1="180" y1="220" x2="180" y2="351" gradientUnits="userSpaceOnUse">
<stop stop-color="#CF65DF" stop-opacity="0.12"/>
<stop offset="1" stop-color="white" stop-opacity="0"/>
</linearGradient>
<clipPath id="clip0_0_30">
<rect width="360" height="353" rx="20" fill="white"/>
</clipPath>
</defs>
</svg>
