<svg width="360" height="461" viewBox="0 0 360 461" fill="none" xmlns="http://www.w3.org/2000/svg">
<g clip-path="url(#clip0_1_531)">
<rect width="360" height="460.145" rx="20" fill="#0A0D10"/>
<path d="M33.168 43.918H28.8203V41.1758H33.168C33.8398 41.1758 34.3867 41.0664 34.8086 40.8477C35.2305 40.6211 35.5391 40.3086 35.7344 39.9102C35.9297 39.5117 36.0273 39.0625 36.0273 38.5625C36.0273 38.0547 35.9297 37.582 35.7344 37.1445C35.5391 36.707 35.2305 36.3555 34.8086 36.0898C34.3867 35.8242 33.8398 35.6914 33.168 35.6914H30.0391V50H26.5234V32.9375H33.168C34.5039 32.9375 35.6484 33.1797 36.6016 33.6641C37.5625 34.1406 38.2969 34.8008 38.8047 35.6445C39.3125 36.4883 39.5664 37.4531 39.5664 38.5391C39.5664 39.6406 39.3125 40.5938 38.8047 41.3984C38.2969 42.2031 37.5625 42.8242 36.6016 43.2617C35.6484 43.6992 34.5039 43.918 33.168 43.918ZM45.0859 40.0273V50H41.7109V37.3203H44.875L45.0859 40.0273ZM44.5938 43.2148H43.6797C43.6797 42.2773 43.8008 41.4336 44.043 40.6836C44.2852 39.9258 44.625 39.2812 45.0625 38.75C45.5 38.2109 46.0195 37.8008 46.6211 37.5195C47.2305 37.2305 47.9102 37.0859 48.6602 37.0859C49.2539 37.0859 49.7969 37.1719 50.2891 37.3438C50.7812 37.5156 51.2031 37.7891 51.5547 38.1641C51.9141 38.5391 52.1875 39.0352 52.375 39.6523C52.5703 40.2695 52.668 41.0234 52.668 41.9141V50H49.2695V41.9023C49.2695 41.3398 49.1914 40.9023 49.0352 40.5898C48.8789 40.2773 48.6484 40.0586 48.3438 39.9336C48.0469 39.8008 47.6797 39.7344 47.2422 39.7344C46.7891 39.7344 46.3945 39.8242 46.0586 40.0039C45.7305 40.1836 45.457 40.4336 45.2383 40.7539C45.0273 41.0664 44.8672 41.4336 44.7578 41.8555C44.6484 42.2773 44.5938 42.7305 44.5938 43.2148ZM58.7969 32V50H55.4102V32H58.7969ZM74.7695 32.9375V50H71.2656V32.9375H74.7695ZM80.0195 32.9375V35.6914H66.0977V32.9375H80.0195ZM85.1055 32V50H81.7305V32H85.1055ZM84.625 43.2148H83.6992C83.707 42.332 83.8242 41.5195 84.0508 40.7773C84.2773 40.0273 84.6016 39.3789 85.0234 38.832C85.4453 38.2773 85.9492 37.8477 86.5352 37.543C87.1289 37.2383 87.7852 37.0859 88.5039 37.0859C89.1289 37.0859 89.6953 37.1758 90.2031 37.3555C90.7188 37.5273 91.1602 37.8086 91.5273 38.1992C91.9023 38.582 92.1914 39.0859 92.3945 39.7109C92.5977 40.3359 92.6992 41.0938 92.6992 41.9844V50H89.3008V41.9609C89.3008 41.3984 89.2188 40.957 89.0547 40.6367C88.8984 40.3086 88.668 40.0781 88.3633 39.9453C88.0664 39.8047 87.6992 39.7344 87.2617 39.7344C86.7773 39.7344 86.3633 39.8242 86.0195 40.0039C85.6836 40.1836 85.4141 40.4336 85.2109 40.7539C85.0078 41.0664 84.8594 41.4336 84.7656 41.8555C84.6719 42.2773 84.625 42.7305 84.625 43.2148ZM98.8281 37.3203V50H95.4414V37.3203H98.8281ZM95.2305 34.0156C95.2305 33.5234 95.4023 33.1172 95.7461 32.7969C96.0898 32.4766 96.5508 32.3164 97.1289 32.3164C97.6992 32.3164 98.1562 32.4766 98.5 32.7969C98.8516 33.1172 99.0273 33.5234 99.0273 34.0156C99.0273 34.5078 98.8516 34.9141 98.5 35.2344C98.1562 35.5547 97.6992 35.7148 97.1289 35.7148C96.5508 35.7148 96.0898 35.5547 95.7461 35.2344C95.4023 34.9141 95.2305 34.5078 95.2305 34.0156ZM108.473 46.4961C108.473 46.2539 108.402 46.0352 108.262 45.8398C108.121 45.6445 107.859 45.4648 107.477 45.3008C107.102 45.1289 106.559 44.9727 105.848 44.832C105.207 44.6914 104.609 44.5156 104.055 44.3047C103.508 44.0859 103.031 43.8242 102.625 43.5195C102.227 43.2148 101.914 42.8555 101.688 42.4414C101.461 42.0195 101.348 41.5391 101.348 41C101.348 40.4688 101.461 39.9688 101.688 39.5C101.922 39.0312 102.254 38.6172 102.684 38.2578C103.121 37.8906 103.652 37.6055 104.277 37.4023C104.91 37.1914 105.621 37.0859 106.41 37.0859C107.512 37.0859 108.457 37.2617 109.246 37.6133C110.043 37.9648 110.652 38.4492 111.074 39.0664C111.504 39.6758 111.719 40.3711 111.719 41.1523H108.344C108.344 40.8242 108.273 40.5312 108.133 40.2734C108 40.0078 107.789 39.8008 107.5 39.6523C107.219 39.4961 106.852 39.418 106.398 39.418C106.023 39.418 105.699 39.4844 105.426 39.6172C105.152 39.7422 104.941 39.9141 104.793 40.1328C104.652 40.3438 104.582 40.5781 104.582 40.8359C104.582 41.0312 104.621 41.207 104.699 41.3633C104.785 41.5117 104.922 41.6484 105.109 41.7734C105.297 41.8984 105.539 42.0156 105.836 42.125C106.141 42.2266 106.516 42.3203 106.961 42.4062C107.875 42.5938 108.691 42.8398 109.41 43.1445C110.129 43.4414 110.699 43.8477 111.121 44.3633C111.543 44.8711 111.754 45.5391 111.754 46.3672C111.754 46.9297 111.629 47.4453 111.379 47.9141C111.129 48.3828 110.77 48.793 110.301 49.1445C109.832 49.4883 109.27 49.7578 108.613 49.9531C107.965 50.1406 107.234 50.2344 106.422 50.2344C105.242 50.2344 104.242 50.0234 103.422 49.6016C102.609 49.1797 101.992 48.6445 101.57 47.9961C101.156 47.3398 100.949 46.668 100.949 45.9805H104.148C104.164 46.4414 104.281 46.8125 104.5 47.0938C104.727 47.375 105.012 47.5781 105.355 47.7031C105.707 47.8281 106.086 47.8906 106.492 47.8906C106.93 47.8906 107.293 47.832 107.582 47.7148C107.871 47.5898 108.09 47.4258 108.238 47.2227C108.395 47.0117 108.473 46.7695 108.473 46.4961ZM122.477 32.9375L126.039 40.7188L129.602 32.9375H133.434L127.82 43.7891V50H124.258V43.7891L118.633 32.9375H122.477ZM139.844 50.2344C138.859 50.2344 137.977 50.0781 137.195 49.7656C136.414 49.4453 135.75 49.0039 135.203 48.4414C134.664 47.8789 134.25 47.2266 133.961 46.4844C133.672 45.7344 133.527 44.9375 133.527 44.0938V43.625C133.527 42.6641 133.664 41.7852 133.938 40.9883C134.211 40.1914 134.602 39.5 135.109 38.9141C135.625 38.3281 136.25 37.8789 136.984 37.5664C137.719 37.2461 138.547 37.0859 139.469 37.0859C140.367 37.0859 141.164 37.2344 141.859 37.5312C142.555 37.8281 143.137 38.25 143.605 38.7969C144.082 39.3438 144.441 40 144.684 40.7656C144.926 41.5234 145.047 42.3672 145.047 43.2969V44.7031H134.969V42.4531H141.73V42.1953C141.73 41.7266 141.645 41.3086 141.473 40.9414C141.309 40.5664 141.059 40.2695 140.723 40.0508C140.387 39.832 139.957 39.7227 139.434 39.7227C138.988 39.7227 138.605 39.8203 138.285 40.0156C137.965 40.2109 137.703 40.4844 137.5 40.8359C137.305 41.1875 137.156 41.6016 137.055 42.0781C136.961 42.5469 136.914 43.0625 136.914 43.625V44.0938C136.914 44.6016 136.984 45.0703 137.125 45.5C137.273 45.9297 137.48 46.3008 137.746 46.6133C138.02 46.9258 138.348 47.168 138.73 47.3398C139.121 47.5117 139.562 47.5977 140.055 47.5977C140.664 47.5977 141.23 47.4805 141.754 47.2461C142.285 47.0039 142.742 46.6406 143.125 46.1562L144.766 47.9375C144.5 48.3203 144.137 48.6875 143.676 49.0391C143.223 49.3906 142.676 49.6797 142.035 49.9062C141.395 50.125 140.664 50.2344 139.844 50.2344ZM153.812 47.1406V41.4922C153.812 41.0859 153.746 40.7383 153.613 40.4492C153.48 40.1523 153.273 39.9219 152.992 39.7578C152.719 39.5938 152.363 39.5117 151.926 39.5117C151.551 39.5117 151.227 39.5781 150.953 39.7109C150.68 39.8359 150.469 40.0195 150.32 40.2617C150.172 40.4961 150.098 40.7734 150.098 41.0938H146.723C146.723 40.5547 146.848 40.043 147.098 39.5586C147.348 39.0742 147.711 38.6484 148.188 38.2812C148.664 37.9062 149.23 37.6133 149.887 37.4023C150.551 37.1914 151.293 37.0859 152.113 37.0859C153.098 37.0859 153.973 37.25 154.738 37.5781C155.504 37.9062 156.105 38.3984 156.543 39.0547C156.988 39.7109 157.211 40.5312 157.211 41.5156V46.9414C157.211 47.6367 157.254 48.207 157.34 48.6523C157.426 49.0898 157.551 49.4727 157.715 49.8008V50H154.305C154.141 49.6562 154.016 49.2266 153.93 48.7109C153.852 48.1875 153.812 47.6641 153.812 47.1406ZM154.258 42.2773L154.281 44.1875H152.395C151.949 44.1875 151.562 44.2383 151.234 44.3398C150.906 44.4414 150.637 44.5859 150.426 44.7734C150.215 44.9531 150.059 45.1641 149.957 45.4062C149.863 45.6484 149.816 45.9141 149.816 46.2031C149.816 46.4922 149.883 46.7539 150.016 46.9883C150.148 47.2148 150.34 47.3945 150.59 47.5273C150.84 47.6523 151.133 47.7148 151.469 47.7148C151.977 47.7148 152.418 47.6133 152.793 47.4102C153.168 47.207 153.457 46.957 153.66 46.6602C153.871 46.3633 153.98 46.082 153.988 45.8164L154.879 47.2461C154.754 47.5664 154.582 47.8984 154.363 48.2422C154.152 48.5859 153.883 48.9102 153.555 49.2148C153.227 49.5117 152.832 49.7578 152.371 49.9531C151.91 50.1406 151.363 50.2344 150.73 50.2344C149.926 50.2344 149.195 50.0742 148.539 49.7539C147.891 49.4258 147.375 48.9766 146.992 48.4062C146.617 47.8281 146.43 47.1719 146.43 46.4375C146.43 45.7734 146.555 45.1836 146.805 44.668C147.055 44.1523 147.422 43.7188 147.906 43.3672C148.398 43.0078 149.012 42.7383 149.746 42.5586C150.48 42.3711 151.332 42.2773 152.301 42.2773H154.258ZM163.188 40.0859V50H159.812V37.3203H162.988L163.188 40.0859ZM167.008 37.2383L166.949 40.3672C166.785 40.3438 166.586 40.3242 166.352 40.3086C166.125 40.2852 165.918 40.2734 165.73 40.2734C165.254 40.2734 164.84 40.3359 164.488 40.4609C164.145 40.5781 163.855 40.7539 163.621 40.9883C163.395 41.2227 163.223 41.5078 163.105 41.8438C162.996 42.1797 162.934 42.5625 162.918 42.9922L162.238 42.7812C162.238 41.9609 162.32 41.207 162.484 40.5195C162.648 39.8242 162.887 39.2188 163.199 38.7031C163.52 38.1875 163.91 37.7891 164.371 37.5078C164.832 37.2266 165.359 37.0859 165.953 37.0859C166.141 37.0859 166.332 37.1016 166.527 37.1328C166.723 37.1562 166.883 37.1914 167.008 37.2383Z" fill="white"/>
<path d="M262.705 325.613H263.8L266.595 332.568L269.384 325.613H270.486L267.017 334.145H266.162L262.705 325.613ZM262.347 325.613H263.314L263.472 330.817V334.145H262.347V325.613ZM269.871 325.613H270.837V334.145H269.712V330.817L269.871 325.613ZM276.398 333.061V329.797C276.398 329.547 276.347 329.33 276.246 329.147C276.148 328.959 275.999 328.815 275.8 328.713C275.601 328.611 275.355 328.561 275.062 328.561C274.788 328.561 274.548 328.608 274.341 328.701C274.138 328.795 273.978 328.918 273.861 329.07C273.747 329.223 273.691 329.387 273.691 329.563H272.607C272.607 329.336 272.665 329.111 272.783 328.889C272.9 328.666 273.068 328.465 273.287 328.285C273.509 328.102 273.775 327.957 274.083 327.852C274.396 327.742 274.744 327.688 275.126 327.688C275.587 327.688 275.994 327.766 276.345 327.922C276.701 328.078 276.978 328.315 277.177 328.631C277.38 328.943 277.482 329.336 277.482 329.809V332.762C277.482 332.973 277.499 333.197 277.535 333.436C277.574 333.674 277.63 333.879 277.705 334.051V334.145H276.574C276.519 334.02 276.476 333.854 276.445 333.647C276.413 333.436 276.398 333.24 276.398 333.061ZM276.585 330.301L276.597 331.063H275.501C275.193 331.063 274.917 331.088 274.675 331.139C274.433 331.186 274.23 331.258 274.066 331.356C273.902 331.453 273.777 331.576 273.691 331.725C273.605 331.869 273.562 332.039 273.562 332.234C273.562 332.434 273.607 332.615 273.697 332.779C273.787 332.943 273.921 333.074 274.101 333.172C274.285 333.266 274.509 333.313 274.775 333.313C275.107 333.313 275.4 333.242 275.654 333.102C275.908 332.961 276.109 332.789 276.257 332.586C276.41 332.383 276.492 332.186 276.503 331.994L276.966 332.516C276.939 332.68 276.865 332.861 276.744 333.061C276.622 333.26 276.46 333.451 276.257 333.635C276.058 333.815 275.82 333.965 275.542 334.086C275.269 334.203 274.96 334.262 274.617 334.262C274.187 334.262 273.81 334.178 273.486 334.01C273.165 333.842 272.915 333.617 272.736 333.336C272.56 333.051 272.472 332.733 272.472 332.381C272.472 332.041 272.538 331.742 272.671 331.484C272.804 331.223 272.996 331.006 273.246 330.834C273.496 330.658 273.796 330.526 274.148 330.436C274.499 330.346 274.892 330.301 275.326 330.301H276.585ZM280.874 333.488L282.638 327.805H283.798L281.255 335.123C281.197 335.279 281.119 335.447 281.021 335.627C280.927 335.811 280.806 335.984 280.658 336.149C280.509 336.313 280.33 336.445 280.119 336.547C279.912 336.652 279.663 336.705 279.374 336.705C279.288 336.705 279.179 336.693 279.046 336.67C278.913 336.647 278.82 336.627 278.765 336.611L278.759 335.733C278.79 335.736 278.839 335.74 278.906 335.744C278.976 335.752 279.025 335.756 279.052 335.756C279.298 335.756 279.507 335.723 279.679 335.656C279.851 335.594 279.996 335.486 280.113 335.334C280.234 335.186 280.337 334.981 280.423 334.719L280.874 333.488ZM279.58 327.805L281.226 332.727L281.507 333.869L280.728 334.268L278.396 327.805H279.58Z" fill="white"/>
<path d="M214.35 326.369L211.526 334.145H210.371L213.623 325.613H214.367L214.35 326.369ZM216.717 334.145L213.887 326.369L213.869 325.613H214.614L217.877 334.145H216.717ZM216.571 330.986V331.912H211.778V330.986H216.571ZM219.94 329.024V336.582H218.85V327.805H219.846L219.94 329.024ZM224.211 330.922V331.045C224.211 331.506 224.156 331.934 224.047 332.328C223.938 332.719 223.778 333.059 223.567 333.348C223.36 333.637 223.104 333.861 222.799 334.022C222.494 334.182 222.145 334.262 221.75 334.262C221.348 334.262 220.992 334.195 220.684 334.063C220.375 333.93 220.114 333.736 219.899 333.483C219.684 333.229 219.512 332.924 219.383 332.568C219.258 332.213 219.172 331.813 219.125 331.367V330.711C219.172 330.242 219.26 329.822 219.389 329.451C219.518 329.08 219.688 328.764 219.899 328.502C220.114 328.236 220.373 328.035 220.678 327.899C220.983 327.758 221.334 327.688 221.733 327.688C222.131 327.688 222.485 327.766 222.793 327.922C223.102 328.074 223.362 328.293 223.572 328.578C223.783 328.863 223.942 329.205 224.047 329.604C224.156 329.998 224.211 330.438 224.211 330.922ZM223.121 331.045V330.922C223.121 330.606 223.088 330.309 223.022 330.031C222.955 329.75 222.852 329.504 222.711 329.293C222.574 329.078 222.399 328.91 222.184 328.789C221.969 328.664 221.713 328.602 221.416 328.602C221.143 328.602 220.905 328.649 220.701 328.742C220.502 328.836 220.332 328.963 220.192 329.123C220.051 329.279 219.936 329.459 219.846 329.662C219.76 329.861 219.696 330.068 219.653 330.283V331.801C219.731 332.074 219.84 332.332 219.981 332.574C220.121 332.813 220.309 333.006 220.543 333.154C220.778 333.299 221.072 333.371 221.428 333.371C221.721 333.371 221.973 333.311 222.184 333.19C222.399 333.065 222.574 332.895 222.711 332.68C222.852 332.465 222.955 332.219 223.022 331.942C223.088 331.66 223.121 331.361 223.121 331.045ZM226.678 328.801V334.145H225.594V327.805H226.649L226.678 328.801ZM228.658 327.77L228.653 328.777C228.563 328.758 228.477 328.746 228.395 328.742C228.317 328.734 228.227 328.731 228.125 328.731C227.875 328.731 227.655 328.77 227.463 328.848C227.272 328.926 227.11 329.035 226.977 329.176C226.844 329.317 226.739 329.484 226.66 329.68C226.586 329.871 226.537 330.082 226.514 330.313L226.209 330.488C226.209 330.106 226.246 329.746 226.321 329.41C226.399 329.074 226.518 328.777 226.678 328.52C226.838 328.258 227.041 328.055 227.287 327.91C227.537 327.762 227.834 327.688 228.178 327.688C228.256 327.688 228.346 327.697 228.447 327.717C228.549 327.733 228.619 327.75 228.658 327.77Z" fill="white"/>
<path d="M159.731 325.613H160.827L163.622 332.568L166.411 325.613H167.512L164.043 334.145H163.188L159.731 325.613ZM159.374 325.613H160.34L160.499 330.817V334.145H159.374V325.613ZM166.897 325.613H167.864V334.145H166.739V330.817L166.897 325.613ZM173.424 333.061V329.797C173.424 329.547 173.374 329.33 173.272 329.147C173.174 328.959 173.026 328.815 172.827 328.713C172.627 328.611 172.381 328.561 172.088 328.561C171.815 328.561 171.575 328.608 171.368 328.701C171.165 328.795 171.004 328.918 170.887 329.07C170.774 329.223 170.717 329.387 170.717 329.563H169.633C169.633 329.336 169.692 329.111 169.809 328.889C169.926 328.666 170.094 328.465 170.313 328.285C170.536 328.102 170.801 327.957 171.11 327.852C171.422 327.742 171.77 327.688 172.153 327.688C172.614 327.688 173.02 327.766 173.372 327.922C173.727 328.078 174.004 328.315 174.204 328.631C174.407 328.943 174.508 329.336 174.508 329.809V332.762C174.508 332.973 174.526 333.197 174.561 333.436C174.6 333.674 174.657 333.879 174.731 334.051V334.145H173.6C173.545 334.02 173.502 333.854 173.471 333.647C173.44 333.436 173.424 333.24 173.424 333.061ZM173.612 330.301L173.624 331.063H172.528C172.219 331.063 171.944 331.088 171.702 331.139C171.46 331.186 171.256 331.258 171.092 331.356C170.928 331.453 170.803 331.576 170.717 331.725C170.631 331.869 170.588 332.039 170.588 332.234C170.588 332.434 170.633 332.615 170.723 332.779C170.813 332.943 170.948 333.074 171.127 333.172C171.311 333.266 171.536 333.313 171.801 333.313C172.133 333.313 172.426 333.242 172.68 333.102C172.934 332.961 173.135 332.789 173.284 332.586C173.436 332.383 173.518 332.186 173.53 331.994L173.993 332.516C173.965 332.68 173.891 332.861 173.77 333.061C173.649 333.26 173.487 333.451 173.284 333.635C173.085 333.815 172.846 333.965 172.569 334.086C172.295 334.203 171.987 334.262 171.643 334.262C171.213 334.262 170.836 334.178 170.512 334.01C170.192 333.842 169.942 333.617 169.762 333.336C169.586 333.051 169.499 332.733 169.499 332.381C169.499 332.041 169.565 331.742 169.698 331.484C169.831 331.223 170.022 331.006 170.272 330.834C170.522 330.658 170.823 330.526 171.174 330.436C171.526 330.346 171.918 330.301 172.352 330.301H173.612ZM177.297 328.801V334.145H176.213V327.805H177.268L177.297 328.801ZM179.278 327.77L179.272 328.777C179.182 328.758 179.096 328.746 179.014 328.742C178.936 328.734 178.846 328.731 178.745 328.731C178.495 328.731 178.274 328.77 178.083 328.848C177.891 328.926 177.729 329.035 177.596 329.176C177.463 329.317 177.358 329.484 177.28 329.68C177.206 329.871 177.157 330.082 177.133 330.313L176.829 330.488C176.829 330.106 176.866 329.746 176.94 329.41C177.018 329.074 177.137 328.777 177.297 328.52C177.458 328.258 177.661 328.055 177.907 327.91C178.157 327.762 178.454 327.688 178.797 327.688C178.876 327.688 178.965 327.697 179.067 327.717C179.168 327.733 179.239 327.75 179.278 327.77Z" fill="white"/>
<path d="M110.851 325.613V334.145H109.72V325.613H110.851ZM114.425 329.451V330.377H110.605V329.451H114.425ZM115.005 325.613V326.539H110.605V325.613H115.005ZM118.69 334.262C118.249 334.262 117.849 334.188 117.489 334.039C117.134 333.887 116.827 333.674 116.569 333.401C116.315 333.127 116.12 332.803 115.983 332.428C115.847 332.053 115.778 331.643 115.778 331.197V330.951C115.778 330.436 115.855 329.977 116.007 329.574C116.159 329.168 116.366 328.824 116.628 328.543C116.89 328.262 117.187 328.049 117.519 327.904C117.851 327.76 118.194 327.688 118.55 327.688C119.003 327.688 119.394 327.766 119.722 327.922C120.054 328.078 120.325 328.297 120.536 328.578C120.747 328.856 120.903 329.184 121.005 329.563C121.107 329.938 121.157 330.348 121.157 330.793V331.279H116.423V330.395H120.073V330.313C120.058 330.031 119.999 329.758 119.898 329.492C119.8 329.227 119.644 329.008 119.429 328.836C119.214 328.664 118.921 328.578 118.55 328.578C118.304 328.578 118.077 328.631 117.87 328.736C117.663 328.838 117.485 328.99 117.337 329.193C117.189 329.397 117.073 329.645 116.991 329.938C116.909 330.231 116.868 330.568 116.868 330.951V331.197C116.868 331.498 116.909 331.781 116.991 332.047C117.077 332.309 117.2 332.539 117.36 332.738C117.524 332.938 117.722 333.094 117.952 333.207C118.187 333.32 118.452 333.377 118.749 333.377C119.132 333.377 119.456 333.299 119.722 333.143C119.987 332.986 120.22 332.777 120.419 332.516L121.075 333.037C120.939 333.244 120.765 333.442 120.554 333.629C120.343 333.817 120.083 333.969 119.774 334.086C119.47 334.203 119.108 334.262 118.69 334.262ZM122.417 325.145H123.507V332.914L123.413 334.145H122.417V325.145ZM127.79 330.922V331.045C127.79 331.506 127.735 331.934 127.626 332.328C127.517 332.719 127.357 333.059 127.146 333.348C126.935 333.637 126.677 333.861 126.372 334.022C126.067 334.182 125.718 334.262 125.323 334.262C124.921 334.262 124.567 334.193 124.263 334.057C123.962 333.916 123.708 333.715 123.501 333.453C123.294 333.192 123.128 332.875 123.003 332.504C122.882 332.133 122.798 331.715 122.751 331.25V330.711C122.798 330.242 122.882 329.822 123.003 329.451C123.128 329.08 123.294 328.764 123.501 328.502C123.708 328.236 123.962 328.035 124.263 327.899C124.564 327.758 124.913 327.688 125.312 327.688C125.71 327.688 126.064 327.766 126.372 327.922C126.681 328.074 126.939 328.293 127.146 328.578C127.357 328.863 127.517 329.205 127.626 329.604C127.735 329.998 127.79 330.438 127.79 330.922ZM126.7 331.045V330.922C126.7 330.606 126.671 330.309 126.612 330.031C126.554 329.75 126.46 329.504 126.331 329.293C126.202 329.078 126.032 328.91 125.821 328.789C125.61 328.664 125.351 328.602 125.042 328.602C124.769 328.602 124.53 328.649 124.327 328.742C124.128 328.836 123.958 328.963 123.817 329.123C123.677 329.279 123.562 329.459 123.472 329.662C123.386 329.861 123.321 330.068 123.278 330.283V331.695C123.341 331.969 123.442 332.233 123.583 332.486C123.728 332.736 123.919 332.942 124.157 333.102C124.399 333.262 124.698 333.342 125.054 333.342C125.347 333.342 125.597 333.283 125.804 333.166C126.015 333.045 126.185 332.879 126.314 332.668C126.446 332.457 126.544 332.213 126.607 331.936C126.669 331.658 126.7 331.361 126.7 331.045Z" fill="white"/>
<path d="M318.521 331.654V325.613H319.646V331.654C319.646 332.217 319.531 332.692 319.301 333.078C319.07 333.465 318.752 333.76 318.346 333.963C317.943 334.162 317.48 334.262 316.957 334.262C316.434 334.262 315.969 334.172 315.562 333.992C315.156 333.813 314.838 333.539 314.607 333.172C314.377 332.805 314.262 332.342 314.262 331.783H315.393C315.393 332.143 315.459 332.438 315.592 332.668C315.725 332.899 315.908 333.068 316.143 333.178C316.381 333.287 316.652 333.342 316.957 333.342C317.254 333.342 317.519 333.279 317.754 333.154C317.992 333.026 318.18 332.836 318.316 332.586C318.453 332.332 318.521 332.022 318.521 331.654ZM325.277 332.68V327.805H326.367V334.145H325.33L325.277 332.68ZM325.482 331.344L325.934 331.332C325.934 331.754 325.889 332.145 325.799 332.504C325.713 332.859 325.572 333.168 325.377 333.43C325.182 333.692 324.926 333.897 324.609 334.045C324.293 334.19 323.908 334.262 323.455 334.262C323.146 334.262 322.863 334.217 322.605 334.127C322.352 334.037 322.133 333.899 321.949 333.711C321.766 333.524 321.623 333.279 321.521 332.979C321.424 332.678 321.375 332.317 321.375 331.895V327.805H322.459V331.906C322.459 332.192 322.49 332.428 322.553 332.615C322.619 332.799 322.707 332.945 322.816 333.055C322.93 333.16 323.055 333.234 323.191 333.277C323.332 333.32 323.477 333.342 323.625 333.342C324.086 333.342 324.451 333.254 324.721 333.078C324.99 332.899 325.184 332.658 325.301 332.358C325.422 332.053 325.482 331.715 325.482 331.344ZM329.103 329.158V334.145H328.019V327.805H329.045L329.103 329.158ZM328.846 330.734L328.394 330.717C328.398 330.283 328.463 329.883 328.588 329.516C328.713 329.145 328.889 328.822 329.115 328.549C329.342 328.276 329.611 328.065 329.924 327.916C330.24 327.764 330.59 327.688 330.973 327.688C331.285 327.688 331.566 327.731 331.816 327.817C332.066 327.899 332.279 328.031 332.455 328.215C332.635 328.399 332.771 328.637 332.865 328.93C332.959 329.219 333.006 329.572 333.006 329.99V334.145H331.916V329.979C331.916 329.647 331.867 329.381 331.769 329.182C331.672 328.979 331.529 328.832 331.342 328.742C331.154 328.649 330.924 328.602 330.65 328.602C330.381 328.602 330.135 328.658 329.912 328.772C329.693 328.885 329.504 329.041 329.344 329.24C329.187 329.44 329.064 329.668 328.975 329.926C328.889 330.18 328.846 330.449 328.846 330.734Z" fill="white"/>
<path d="M60.923 331.654V325.613H62.048V331.654C62.048 332.217 61.9327 332.692 61.7023 333.078C61.4718 333.465 61.1534 333.76 60.7472 333.963C60.3448 334.162 59.8819 334.262 59.3585 334.262C58.8351 334.262 58.3702 334.172 57.964 333.992C57.5577 333.813 57.2394 333.539 57.0089 333.172C56.7784 332.805 56.6632 332.342 56.6632 331.783H57.794C57.794 332.143 57.8605 332.438 57.9933 332.668C58.1261 332.899 58.3097 333.068 58.544 333.178C58.7823 333.287 59.0538 333.342 59.3585 333.342C59.6554 333.342 59.921 333.279 60.1554 333.154C60.3937 333.026 60.5812 332.836 60.7179 332.586C60.8546 332.332 60.923 332.022 60.923 331.654ZM67.5382 333.061V329.797C67.5382 329.547 67.4874 329.33 67.3858 329.147C67.2882 328.959 67.1398 328.815 66.9405 328.713C66.7413 328.611 66.4952 328.561 66.2023 328.561C65.9288 328.561 65.6886 328.608 65.4815 328.701C65.2784 328.795 65.1183 328.918 65.0011 329.07C64.8878 329.223 64.8312 329.387 64.8312 329.563H63.7472C63.7472 329.336 63.8058 329.111 63.923 328.889C64.0401 328.666 64.2081 328.465 64.4269 328.285C64.6495 328.102 64.9151 327.957 65.2237 327.852C65.5362 327.742 65.8839 327.688 66.2667 327.688C66.7276 327.688 67.1339 327.766 67.4855 327.922C67.8409 328.078 68.1183 328.315 68.3175 328.631C68.5206 328.943 68.6222 329.336 68.6222 329.809V332.762C68.6222 332.973 68.6398 333.197 68.6749 333.436C68.714 333.674 68.7706 333.879 68.8448 334.051V334.145H67.714C67.6593 334.02 67.6163 333.854 67.5851 333.647C67.5538 333.436 67.5382 333.24 67.5382 333.061ZM67.7257 330.301L67.7374 331.063H66.6417C66.3331 331.063 66.0577 331.088 65.8155 331.139C65.5733 331.186 65.3702 331.258 65.2062 331.356C65.0421 331.453 64.9171 331.576 64.8312 331.725C64.7452 331.869 64.7023 332.039 64.7023 332.234C64.7023 332.434 64.7472 332.615 64.837 332.779C64.9269 332.943 65.0616 333.074 65.2413 333.172C65.4249 333.266 65.6495 333.313 65.9151 333.313C66.2472 333.313 66.5401 333.242 66.794 333.102C67.048 332.961 67.2491 332.789 67.3976 332.586C67.5499 332.383 67.6319 332.186 67.6437 331.994L68.1065 332.516C68.0792 332.68 68.005 332.861 67.8839 333.061C67.7628 333.26 67.6007 333.451 67.3976 333.635C67.1983 333.815 66.9601 333.965 66.6827 334.086C66.4093 334.203 66.1007 334.262 65.7569 334.262C65.3273 334.262 64.9503 334.178 64.6261 334.01C64.3058 333.842 64.0558 333.617 63.8761 333.336C63.7003 333.051 63.6124 332.733 63.6124 332.381C63.6124 332.041 63.6788 331.742 63.8116 331.484C63.9444 331.223 64.1358 331.006 64.3858 330.834C64.6358 330.658 64.9366 330.526 65.2882 330.436C65.6398 330.346 66.0323 330.301 66.4659 330.301H67.7257ZM71.4112 329.158V334.145H70.3273V327.805H71.3526L71.4112 329.158ZM71.1534 330.734L70.7023 330.717C70.7062 330.283 70.7706 329.883 70.8956 329.516C71.0206 329.145 71.1964 328.822 71.423 328.549C71.6495 328.276 71.919 328.065 72.2315 327.916C72.548 327.764 72.8976 327.688 73.2804 327.688C73.5929 327.688 73.8741 327.731 74.1241 327.817C74.3741 327.899 74.587 328.031 74.7628 328.215C74.9425 328.399 75.0792 328.637 75.173 328.93C75.2667 329.219 75.3136 329.572 75.3136 329.99V334.145H74.2237V329.979C74.2237 329.647 74.1749 329.381 74.0773 329.182C73.9796 328.979 73.837 328.832 73.6495 328.742C73.462 328.649 73.2315 328.602 72.9581 328.602C72.6886 328.602 72.4425 328.658 72.2198 328.772C72.0011 328.885 71.8116 329.041 71.6515 329.24C71.4952 329.44 71.3722 329.668 71.2823 329.926C71.1964 330.18 71.1534 330.449 71.1534 330.734Z" fill="white"/>
<path d="M32.8204 118.969V120H27.5782V119.114L30.1241 116.337C30.4034 116.022 30.6236 115.75 30.7847 115.521C30.9459 115.291 31.0586 115.085 31.1231 114.903C31.1911 114.717 31.2251 114.536 31.2251 114.36C31.2251 114.113 31.1786 113.897 31.0855 113.71C30.996 113.521 30.8635 113.372 30.688 113.265C30.5126 113.154 30.2995 113.098 30.0489 113.098C29.7588 113.098 29.5154 113.161 29.3184 113.286C29.1215 113.411 28.9729 113.585 28.8726 113.807C28.7723 114.026 28.7222 114.276 28.7222 114.559H27.4278C27.4278 114.104 27.5316 113.689 27.7393 113.313C27.947 112.933 28.2478 112.633 28.6417 112.411C29.0355 112.185 29.51 112.072 30.065 112.072C30.5878 112.072 31.0318 112.16 31.397 112.335C31.7623 112.511 32.0398 112.76 32.2295 113.082C32.4229 113.404 32.5196 113.786 32.5196 114.226C32.5196 114.47 32.4802 114.711 32.4014 114.951C32.3226 115.191 32.2098 115.431 32.063 115.671C31.9198 115.907 31.7497 116.145 31.5528 116.385C31.3558 116.622 31.1392 116.861 30.9029 117.105L29.211 118.969H32.8204ZM34.8721 118.979H34.9795C35.4737 118.979 35.8855 118.915 36.2149 118.786C36.5479 118.654 36.8129 118.471 37.0098 118.238C37.2068 118.006 37.3482 117.732 37.4341 117.417C37.5201 117.101 37.563 116.759 37.563 116.391V115.042C37.563 114.724 37.529 114.444 37.461 114.205C37.3965 113.961 37.3034 113.759 37.1817 113.598C37.0635 113.433 36.9257 113.309 36.7681 113.227C36.6141 113.145 36.4476 113.104 36.2686 113.104C36.0717 113.104 35.8944 113.148 35.7369 113.238C35.5829 113.324 35.4522 113.444 35.3448 113.598C35.2409 113.748 35.1604 113.925 35.1031 114.129C35.0494 114.33 35.0225 114.545 35.0225 114.774C35.0225 114.989 35.0476 115.196 35.0977 115.397C35.1514 115.594 35.2302 115.769 35.334 115.923C35.4379 116.077 35.5686 116.199 35.7261 116.289C35.8837 116.378 36.0681 116.423 36.2793 116.423C36.4799 116.423 36.6643 116.385 36.8326 116.31C37.0009 116.231 37.1477 116.126 37.273 115.993C37.3983 115.861 37.4968 115.712 37.5684 115.547C37.64 115.383 37.6794 115.214 37.6866 115.042L38.1807 115.193C38.1807 115.465 38.1234 115.734 38.0088 115.999C37.8978 116.26 37.7421 116.5 37.5416 116.718C37.3446 116.933 37.1137 117.105 36.8487 117.234C36.5873 117.363 36.3026 117.427 35.9947 117.427C35.6223 117.427 35.2929 117.357 35.0064 117.218C34.7235 117.075 34.4872 116.881 34.2974 116.638C34.1112 116.394 33.9716 116.115 33.8785 115.8C33.7854 115.485 33.7388 115.153 33.7388 114.806C33.7388 114.43 33.7961 114.077 33.9107 113.748C34.0253 113.419 34.1918 113.129 34.4102 112.878C34.6286 112.624 34.8936 112.427 35.2051 112.287C35.5202 112.144 35.8765 112.072 36.274 112.072C36.6965 112.072 37.0671 112.155 37.3858 112.319C37.7045 112.484 37.973 112.711 38.1915 113.001C38.4099 113.292 38.5746 113.628 38.6856 114.011C38.7966 114.394 38.8521 114.806 38.8521 115.247V115.703C38.8521 116.165 38.8109 116.611 38.7286 117.041C38.6462 117.467 38.5119 117.862 38.3257 118.228C38.1431 118.589 37.9014 118.908 37.6006 119.184C37.3034 119.456 36.9382 119.669 36.5049 119.823C36.0752 119.973 35.5704 120.048 34.9903 120.048H34.8721V118.979Z" fill="white"/>
<path d="M31.7623 160.295V161.326H26.5201V160.44L29.066 157.663C29.3453 157.348 29.5656 157.076 29.7267 156.847C29.8878 156.617 30.0006 156.412 30.0651 156.229C30.1331 156.043 30.1671 155.862 30.1671 155.686C30.1671 155.439 30.1206 155.223 30.0275 155.037C29.938 154.847 29.8055 154.698 29.63 154.591C29.4546 154.48 29.2415 154.424 28.9909 154.424C28.7008 154.424 28.4573 154.487 28.2604 154.612C28.0634 154.738 27.9148 154.911 27.8146 155.133C27.7143 155.352 27.6642 155.602 27.6642 155.885H26.3698C26.3698 155.43 26.4736 155.015 26.6813 154.639C26.889 154.26 27.1897 153.959 27.5836 153.737C27.9775 153.511 28.452 153.398 29.007 153.398C29.5298 153.398 29.9738 153.486 30.339 153.662C30.7042 153.837 30.9817 154.086 31.1715 154.408C31.3649 154.73 31.4616 155.112 31.4616 155.552C31.4616 155.796 31.4222 156.037 31.3434 156.277C31.2646 156.517 31.1518 156.757 31.005 156.997C30.8618 157.233 30.6917 157.471 30.4948 157.711C30.2978 157.948 30.0812 158.188 29.8449 158.431L28.153 160.295H31.7623ZM37.8854 159.194C37.8854 159.681 37.7726 160.091 37.547 160.424C37.3214 160.757 37.0135 161.009 36.6232 161.181C36.2365 161.349 35.7996 161.434 35.3126 161.434C34.8256 161.434 34.387 161.349 33.9967 161.181C33.6064 161.009 33.2985 160.757 33.0729 160.424C32.8473 160.091 32.7345 159.681 32.7345 159.194C32.7345 158.872 32.7972 158.58 32.9225 158.318C33.0478 158.053 33.2251 157.826 33.4542 157.636C33.687 157.443 33.9591 157.294 34.2706 157.19C34.5857 157.087 34.9295 157.035 35.3019 157.035C35.796 157.035 36.2382 157.126 36.6285 157.309C37.0188 157.491 37.325 157.744 37.547 158.066C37.7726 158.388 37.8854 158.764 37.8854 159.194ZM36.5856 159.129C36.5856 158.868 36.5319 158.639 36.4244 158.442C36.317 158.245 36.1666 158.093 35.9733 157.985C35.7799 157.878 35.5561 157.824 35.3019 157.824C35.0441 157.824 34.8203 157.878 34.6305 157.985C34.4407 158.093 34.2921 158.245 34.1847 158.442C34.0809 158.639 34.0289 158.868 34.0289 159.129C34.0289 159.394 34.0809 159.624 34.1847 159.817C34.2885 160.007 34.4371 160.152 34.6305 160.252C34.8239 160.352 35.0512 160.402 35.3126 160.402C35.574 160.402 35.7996 160.352 35.9894 160.252C36.1792 160.152 36.326 160.007 36.4298 159.817C36.5337 159.624 36.5856 159.394 36.5856 159.129ZM37.7081 155.563C37.7081 155.953 37.6043 156.301 37.3966 156.605C37.1925 156.909 36.9096 157.149 36.548 157.325C36.1863 157.497 35.7745 157.582 35.3126 157.582C34.8471 157.582 34.4318 157.497 34.0665 157.325C33.7049 157.149 33.4202 156.909 33.2125 156.605C33.0084 156.301 32.9064 155.953 32.9064 155.563C32.9064 155.097 33.0084 154.705 33.2125 154.387C33.4202 154.064 33.7049 153.819 34.0665 153.651C34.4282 153.483 34.8418 153.398 35.3073 153.398C35.7728 153.398 36.1863 153.483 36.548 153.651C36.9096 153.819 37.1925 154.064 37.3966 154.387C37.6043 154.705 37.7081 155.097 37.7081 155.563ZM36.4137 155.606C36.4137 155.373 36.3672 155.169 36.2741 154.994C36.1845 154.815 36.0574 154.675 35.8927 154.575C35.728 154.474 35.5328 154.424 35.3073 154.424C35.0817 154.424 34.8865 154.473 34.7218 154.569C34.5571 154.666 34.43 154.802 34.3405 154.978C34.2509 155.153 34.2062 155.362 34.2062 155.606C34.2062 155.846 34.2509 156.055 34.3405 156.234C34.43 156.41 34.5571 156.548 34.7218 156.648C34.8901 156.748 35.087 156.798 35.3126 156.798C35.5382 156.798 35.7334 156.748 35.8981 156.648C36.0628 156.548 36.1899 156.41 36.2794 156.234C36.3689 156.055 36.4137 155.846 36.4137 155.606Z" fill="white"/>
<path d="M32.3979 209.135V210.166H27.1557V209.28L29.7016 206.503C29.9809 206.188 30.2012 205.916 30.3623 205.687C30.5234 205.457 30.6362 205.252 30.7007 205.069C30.7687 204.883 30.8027 204.702 30.8027 204.526C30.8027 204.279 30.7562 204.063 30.6631 203.877C30.5736 203.687 30.4411 203.538 30.2656 203.431C30.0902 203.32 29.8771 203.264 29.6265 203.264C29.3364 203.264 29.0929 203.327 28.896 203.452C28.699 203.578 28.5504 203.751 28.4502 203.973C28.3499 204.192 28.2998 204.442 28.2998 204.725H27.0054C27.0054 204.27 27.1092 203.855 27.3169 203.479C27.5246 203.1 27.8253 202.799 28.2192 202.577C28.6131 202.351 29.0876 202.238 29.6426 202.238C30.1654 202.238 30.6094 202.326 30.9746 202.502C31.3398 202.677 31.6173 202.926 31.8071 203.248C32.0005 203.57 32.0972 203.952 32.0972 204.392C32.0972 204.636 32.0578 204.877 31.979 205.117C31.9002 205.357 31.7874 205.597 31.6406 205.837C31.4974 206.073 31.3273 206.311 31.1304 206.551C30.9334 206.788 30.7168 207.028 30.4805 207.271L28.7886 209.135H32.3979ZM38.6015 202.346V203.055L35.4756 210.166H34.1113L37.2319 203.377H33.1821V202.346H38.6015Z" fill="white"/>
<path d="M32.8204 256.723V257.754H27.5782V256.868L30.1241 254.091C30.4034 253.776 30.6236 253.504 30.7847 253.274C30.9459 253.045 31.0586 252.839 31.1231 252.657C31.1911 252.471 31.2251 252.29 31.2251 252.114C31.2251 251.867 31.1786 251.651 31.0855 251.464C30.996 251.275 30.8635 251.126 30.688 251.019C30.5126 250.908 30.2995 250.852 30.0489 250.852C29.7588 250.852 29.5154 250.915 29.3184 251.04C29.1215 251.165 28.9729 251.339 28.8726 251.561C28.7723 251.779 28.7222 252.03 28.7222 252.313H27.4278C27.4278 251.858 27.5316 251.443 27.7393 251.067C27.947 250.687 28.2478 250.387 28.6417 250.165C29.0355 249.939 29.51 249.826 30.065 249.826C30.5878 249.826 31.0318 249.914 31.397 250.089C31.7623 250.265 32.0398 250.514 32.2295 250.836C32.4229 251.158 32.5196 251.54 32.5196 251.98C32.5196 252.223 32.4802 252.465 32.4014 252.705C32.3226 252.945 32.2098 253.185 32.063 253.425C31.9198 253.661 31.7497 253.899 31.5528 254.139C31.3558 254.375 31.1392 254.615 30.9029 254.859L29.211 256.723H32.8204ZM37.7403 249.885H37.9014V250.943H37.8101C37.3482 250.943 36.9489 251.015 36.6124 251.158C36.2793 251.301 36.0054 251.498 35.7906 251.749C35.5757 252 35.4146 252.293 35.3072 252.63C35.2033 252.963 35.1514 253.317 35.1514 253.693V254.923C35.1514 255.235 35.1854 255.511 35.2535 255.75C35.3215 255.987 35.4164 256.186 35.5381 256.347C35.6635 256.504 35.8067 256.624 35.9678 256.707C36.129 256.789 36.3026 256.83 36.4888 256.83C36.6822 256.83 36.8576 256.791 37.0152 256.712C37.1727 256.63 37.307 256.517 37.418 256.374C37.529 256.23 37.6132 256.06 37.6705 255.863C37.7278 255.666 37.7564 255.451 37.7564 255.219C37.7564 254.997 37.7278 254.789 37.6705 254.596C37.6168 254.399 37.5362 254.227 37.4288 254.08C37.3213 253.93 37.1871 253.813 37.0259 253.731C36.8684 253.645 36.6858 253.602 36.4781 253.602C36.2203 253.602 35.9857 253.663 35.7745 253.785C35.5668 253.906 35.3985 254.066 35.2696 254.263C35.1443 254.456 35.0762 254.662 35.0655 254.88L34.5713 254.719C34.6 254.386 34.6734 254.087 34.7916 253.822C34.9133 253.557 35.0726 253.332 35.2696 253.146C35.4665 252.959 35.6939 252.818 35.9517 252.721C36.2131 252.621 36.4996 252.571 36.8111 252.571C37.1906 252.571 37.5201 252.642 37.7994 252.786C38.0787 252.929 38.3096 253.124 38.4922 253.371C38.6784 253.615 38.8163 253.894 38.9058 254.209C38.9989 254.521 39.0455 254.846 39.0455 255.187C39.0455 255.562 38.9882 255.913 38.8736 256.239C38.759 256.562 38.5907 256.844 38.3687 257.088C38.1503 257.331 37.8835 257.521 37.5684 257.657C37.2569 257.793 36.9024 257.861 36.5049 257.861C36.086 257.861 35.7118 257.781 35.3824 257.62C35.0565 257.458 34.779 257.236 34.5499 256.954C34.3243 256.671 34.1524 256.345 34.0342 255.976C33.9161 255.607 33.857 255.217 33.857 254.805V254.268C33.857 253.674 33.9322 253.113 34.0826 252.587C34.233 252.057 34.4639 251.59 34.7754 251.185C35.0905 250.78 35.4934 250.464 35.9839 250.234C36.4745 250.002 37.0599 249.885 37.7403 249.885Z" fill="white"/>
<path d="M32.3979 303.058V304.089H27.1557V303.203L29.7016 300.426C29.9809 300.111 30.2012 299.839 30.3623 299.61C30.5234 299.381 30.6362 299.175 30.7007 298.992C30.7687 298.806 30.8027 298.625 30.8027 298.45C30.8027 298.203 30.7562 297.986 30.6631 297.8C30.5736 297.61 30.4411 297.461 30.2656 297.354C30.0902 297.243 29.8771 297.187 29.6265 297.187C29.3364 297.187 29.0929 297.25 28.896 297.375C28.699 297.501 28.5504 297.674 28.4502 297.896C28.3499 298.115 28.2998 298.365 28.2998 298.648H27.0054C27.0054 298.194 27.1092 297.778 27.3169 297.402C27.5246 297.023 27.8253 296.722 28.2192 296.5C28.6131 296.274 29.0876 296.161 29.6426 296.161C30.1654 296.161 30.6094 296.249 30.9746 296.425C31.3398 296.6 31.6173 296.849 31.8071 297.171C32.0005 297.494 32.0972 297.875 32.0972 298.315C32.0972 298.559 32.0578 298.8 31.979 299.04C31.9002 299.28 31.7874 299.52 31.6406 299.76C31.4974 299.996 31.3273 300.235 31.1304 300.474C30.9334 300.711 30.7168 300.951 30.4805 301.194L28.7886 303.058H32.3979ZM34.7666 300.453L33.7353 300.201L34.1597 296.269H38.376V297.365H35.2339L35.019 299.282C35.1408 299.21 35.3091 299.141 35.5239 299.073C35.7388 299.001 35.984 298.965 36.2598 298.965C36.6286 298.965 36.958 299.026 37.248 299.148C37.5417 299.266 37.7905 299.44 37.9946 299.669C38.1987 299.894 38.3545 300.17 38.4619 300.496C38.5693 300.818 38.623 301.182 38.623 301.586C38.623 301.948 38.5693 302.286 38.4619 302.601C38.3581 302.917 38.2005 303.194 37.9892 303.434C37.778 303.674 37.5112 303.862 37.189 303.998C36.8703 304.13 36.4925 304.197 36.0557 304.197C35.7298 304.197 35.4165 304.15 35.1157 304.057C34.8185 303.96 34.5517 303.819 34.3154 303.633C34.0791 303.443 33.8893 303.21 33.7461 302.934C33.6029 302.655 33.5205 302.335 33.499 301.973H34.7666C34.7988 302.227 34.8686 302.444 34.9761 302.623C35.0871 302.798 35.2339 302.933 35.4165 303.026C35.5991 303.119 35.8104 303.165 36.0503 303.165C36.2687 303.165 36.4567 303.128 36.6142 303.053C36.7718 302.974 36.9025 302.863 37.0063 302.72C37.1138 302.573 37.1925 302.401 37.2427 302.204C37.2964 302.007 37.3232 301.789 37.3232 301.549C37.3232 301.32 37.2928 301.11 37.2319 300.92C37.1746 300.731 37.0869 300.566 36.9687 300.426C36.8542 300.286 36.7091 300.179 36.5337 300.104C36.3582 300.025 36.1559 299.986 35.9267 299.986C35.6188 299.986 35.3825 300.03 35.2178 300.12C35.0566 300.21 34.9062 300.321 34.7666 300.453Z" fill="white"/>
<path d="M57.7979 300.229H334.999" stroke="#151A20" stroke-width="1.25231" stroke-linecap="square"/>
<path d="M57.7979 253.894H334.999" stroke="#151A20" stroke-width="1.25231" stroke-linecap="square"/>
<path d="M57.7979 207.558H334.999" stroke="#151A20" stroke-width="1.25231" stroke-linecap="square"/>
<path d="M57.7979 161.223H334.999" stroke="#151A20" stroke-width="1.25231" stroke-linecap="square"/>
<path d="M57.7988 114.888H335" stroke="#151A20" stroke-width="1.25231" stroke-linecap="square"/>
<path d="M62.2937 225.771C63.5546 223.869 68.906 228.121 75.453 225.709C80.608 223.81 85.0923 217.712 91.6921 215.869C104.218 212.371 114.442 208.777 120.25 200.423C126.059 192.069 134.779 163.744 145.169 163.744C155.56 163.744 160.848 178.477 164.768 188.183C168.522 197.478 175.754 219.805 187.447 222.267C200.353 224.984 210.965 241.553 226.365 244.338C234.572 245.822 241.147 242.933 248.483 238.444C255.819 233.955 254.383 232.017 270.882 228.556C284.497 225.7 288.059 215.869 301.4 214.686C314.742 213.503 320.913 250.523 334.998 247.432" stroke="#009BE8" stroke-width="2.50462" stroke-linecap="round" stroke-linejoin="round"/>
<path d="M332.352 228.027C325.426 218.125 325.739 230.376 319.192 227.965C314.037 226.066 309.553 219.967 302.953 218.125C290.549 244.061 280.218 214.363 274.395 202.679C268.586 194.325 260.14 248.5 249.75 248.5C196.002 208.341 176.353 222.5 168.281 246.594C160.209 270.687 155.424 216.989 148.088 212.5C140.752 208.011 140.262 234.273 123.763 230.812C110.148 227.956 106.587 218.125 93.2451 216.942C79.9035 215.759 73.7328 252.778 59.6469 249.688" stroke="#FF031C" stroke-width="2.50462" stroke-linecap="round" stroke-linejoin="round"/>
<rect width="360" height="96" transform="translate(0 364.145)" fill="#12171D"/>
<path d="M32.3828 403.27C32.3828 403.004 32.3411 402.77 32.2578 402.567C32.1797 402.358 32.0391 402.171 31.8359 402.004C31.638 401.837 31.362 401.679 31.0078 401.527C30.6589 401.376 30.2161 401.223 29.6797 401.067C29.1172 400.9 28.6094 400.715 28.1562 400.512C27.7031 400.304 27.3151 400.067 26.9922 399.801C26.6693 399.535 26.4219 399.231 26.25 398.887C26.0781 398.543 25.9922 398.15 25.9922 397.707C25.9922 397.264 26.0833 396.856 26.2656 396.481C26.4479 396.106 26.7083 395.78 27.0469 395.504C27.3906 395.223 27.7995 395.004 28.2734 394.848C28.7474 394.692 29.276 394.613 29.8594 394.613C30.7135 394.613 31.4375 394.777 32.0312 395.106C32.6302 395.429 33.0859 395.853 33.3984 396.379C33.7109 396.9 33.8672 397.457 33.8672 398.051H32.3672C32.3672 397.624 32.276 397.246 32.0938 396.918C31.9115 396.585 31.6354 396.324 31.2656 396.137C30.8958 395.944 30.4271 395.848 29.8594 395.848C29.3229 395.848 28.8802 395.929 28.5312 396.09C28.1823 396.251 27.9219 396.47 27.75 396.746C27.5833 397.022 27.5 397.337 27.5 397.692C27.5 397.931 27.5495 398.15 27.6484 398.348C27.7526 398.54 27.9115 398.72 28.125 398.887C28.3438 399.054 28.6198 399.207 28.9531 399.348C29.2917 399.488 29.6953 399.624 30.1641 399.754C30.8099 399.936 31.3672 400.139 31.8359 400.363C32.3047 400.587 32.6901 400.84 32.9922 401.121C33.2995 401.397 33.526 401.712 33.6719 402.067C33.8229 402.415 33.8984 402.811 33.8984 403.254C33.8984 403.718 33.8047 404.137 33.6172 404.512C33.4297 404.887 33.1615 405.207 32.8125 405.473C32.4635 405.738 32.0443 405.944 31.5547 406.09C31.0703 406.231 30.5286 406.301 29.9297 406.301C29.4036 406.301 28.8854 406.228 28.375 406.082C27.8698 405.936 27.4089 405.718 26.9922 405.426C26.5807 405.134 26.25 404.775 26 404.348C25.7552 403.915 25.6328 403.415 25.6328 402.848H27.1328C27.1328 403.238 27.2083 403.574 27.3594 403.856C27.5104 404.132 27.7161 404.361 27.9766 404.543C28.2422 404.725 28.5417 404.861 28.875 404.949C29.2135 405.033 29.5651 405.074 29.9297 405.074C30.4557 405.074 30.901 405.001 31.2656 404.856C31.6302 404.71 31.9062 404.501 32.0938 404.231C32.2865 403.96 32.3828 403.639 32.3828 403.27ZM39.6094 406.301C39.0208 406.301 38.487 406.202 38.0078 406.004C37.5339 405.801 37.125 405.517 36.7812 405.152C36.4427 404.788 36.1823 404.356 36 403.856C35.8177 403.356 35.7266 402.809 35.7266 402.215V401.887C35.7266 401.199 35.8281 400.587 36.0312 400.051C36.2344 399.509 36.5104 399.051 36.8594 398.676C37.2083 398.301 37.6042 398.017 38.0469 397.824C38.4896 397.632 38.9479 397.535 39.4219 397.535C40.026 397.535 40.5469 397.639 40.9844 397.848C41.4271 398.056 41.7891 398.348 42.0703 398.723C42.3516 399.093 42.5599 399.53 42.6953 400.035C42.8307 400.535 42.8984 401.082 42.8984 401.676V402.324H36.5859V401.145H41.4531V401.035C41.4323 400.66 41.3542 400.296 41.2188 399.942C41.0885 399.587 40.8802 399.296 40.5938 399.067C40.3073 398.837 39.9167 398.723 39.4219 398.723C39.0938 398.723 38.7917 398.793 38.5156 398.934C38.2396 399.069 38.0026 399.272 37.8047 399.543C37.6068 399.814 37.4531 400.145 37.3438 400.535C37.2344 400.926 37.1797 401.376 37.1797 401.887V402.215C37.1797 402.616 37.2344 402.994 37.3438 403.348C37.4583 403.697 37.6224 404.004 37.8359 404.27C38.0547 404.535 38.3177 404.744 38.625 404.895C38.9375 405.046 39.2917 405.121 39.6875 405.121C40.1979 405.121 40.6302 405.017 40.9844 404.809C41.3385 404.6 41.6484 404.322 41.9141 403.973L42.7891 404.668C42.6068 404.944 42.375 405.207 42.0938 405.457C41.8125 405.707 41.4661 405.91 41.0547 406.067C40.6484 406.223 40.1667 406.301 39.6094 406.301ZM46.6562 394.145V406.145H45.2031V394.145H46.6562ZM52.9844 406.301C52.3958 406.301 51.862 406.202 51.3828 406.004C50.9089 405.801 50.5 405.517 50.1562 405.152C49.8177 404.788 49.5573 404.356 49.375 403.856C49.1927 403.356 49.1016 402.809 49.1016 402.215V401.887C49.1016 401.199 49.2031 400.587 49.4062 400.051C49.6094 399.509 49.8854 399.051 50.2344 398.676C50.5833 398.301 50.9792 398.017 51.4219 397.824C51.8646 397.632 52.3229 397.535 52.7969 397.535C53.401 397.535 53.9219 397.639 54.3594 397.848C54.8021 398.056 55.1641 398.348 55.4453 398.723C55.7266 399.093 55.9349 399.53 56.0703 400.035C56.2057 400.535 56.2734 401.082 56.2734 401.676V402.324H49.9609V401.145H54.8281V401.035C54.8073 400.66 54.7292 400.296 54.5938 399.942C54.4635 399.587 54.2552 399.296 53.9688 399.067C53.6823 398.837 53.2917 398.723 52.7969 398.723C52.4688 398.723 52.1667 398.793 51.8906 398.934C51.6146 399.069 51.3776 399.272 51.1797 399.543C50.9818 399.814 50.8281 400.145 50.7188 400.535C50.6094 400.926 50.5547 401.376 50.5547 401.887V402.215C50.5547 402.616 50.6094 402.994 50.7188 403.348C50.8333 403.697 50.9974 404.004 51.2109 404.27C51.4297 404.535 51.6927 404.744 52 404.895C52.3125 405.046 52.6667 405.121 53.0625 405.121C53.5729 405.121 54.0052 405.017 54.3594 404.809C54.7135 404.6 55.0234 404.322 55.2891 403.973L56.1641 404.668C55.9818 404.944 55.75 405.207 55.4688 405.457C55.1875 405.707 54.8411 405.91 54.4297 406.067C54.0234 406.223 53.5417 406.301 52.9844 406.301ZM61.8438 405.113C62.1875 405.113 62.5052 405.043 62.7969 404.902C63.0885 404.762 63.3281 404.569 63.5156 404.324C63.7031 404.074 63.8099 403.79 63.8359 403.473H65.2109C65.1849 403.973 65.0156 404.439 64.7031 404.871C64.3958 405.298 63.9922 405.645 63.4922 405.91C62.9922 406.171 62.4427 406.301 61.8438 406.301C61.2083 406.301 60.6536 406.189 60.1797 405.965C59.7109 405.741 59.3203 405.434 59.0078 405.043C58.7005 404.652 58.4688 404.205 58.3125 403.699C58.1615 403.189 58.0859 402.65 58.0859 402.082V401.754C58.0859 401.186 58.1615 400.65 58.3125 400.145C58.4688 399.634 58.7005 399.184 59.0078 398.793C59.3203 398.402 59.7109 398.095 60.1797 397.871C60.6536 397.647 61.2083 397.535 61.8438 397.535C62.5052 397.535 63.0833 397.671 63.5781 397.942C64.0729 398.207 64.4609 398.572 64.7422 399.035C65.0286 399.494 65.1849 400.014 65.2109 400.598H63.8359C63.8099 400.249 63.7109 399.934 63.5391 399.652C63.3724 399.371 63.1432 399.147 62.8516 398.981C62.5651 398.809 62.2292 398.723 61.8438 398.723C61.401 398.723 61.0286 398.811 60.7266 398.988C60.4297 399.16 60.1927 399.395 60.0156 399.692C59.8438 399.983 59.7188 400.309 59.6406 400.668C59.5677 401.022 59.5312 401.384 59.5312 401.754V402.082C59.5312 402.452 59.5677 402.817 59.6406 403.176C59.7135 403.535 59.8359 403.861 60.0078 404.152C60.1849 404.444 60.4219 404.679 60.7188 404.856C61.0208 405.027 61.3958 405.113 61.8438 405.113ZM70.875 397.692V398.801H66.3047V397.692H70.875ZM67.8516 395.637H69.2969V404.051C69.2969 404.337 69.3411 404.554 69.4297 404.699C69.5182 404.845 69.6328 404.942 69.7734 404.988C69.9141 405.035 70.0651 405.059 70.2266 405.059C70.3464 405.059 70.4714 405.048 70.6016 405.027C70.737 405.001 70.8385 404.981 70.9062 404.965L70.9141 406.145C70.7995 406.181 70.6484 406.215 70.4609 406.246C70.2786 406.283 70.0573 406.301 69.7969 406.301C69.4427 406.301 69.1172 406.231 68.8203 406.09C68.5234 405.949 68.2865 405.715 68.1094 405.387C67.9375 405.054 67.8516 404.606 67.8516 404.043V395.637ZM82.5234 404.699V400.348C82.5234 400.014 82.4557 399.725 82.3203 399.481C82.1901 399.231 81.9922 399.038 81.7266 398.902C81.4609 398.767 81.1328 398.699 80.7422 398.699C80.3776 398.699 80.0573 398.762 79.7812 398.887C79.5104 399.012 79.2969 399.176 79.1406 399.379C78.9896 399.582 78.9141 399.801 78.9141 400.035H77.4688C77.4688 399.733 77.5469 399.434 77.7031 399.137C77.8594 398.84 78.0833 398.572 78.375 398.332C78.6719 398.087 79.026 397.895 79.4375 397.754C79.8542 397.608 80.3177 397.535 80.8281 397.535C81.4427 397.535 81.9844 397.639 82.4531 397.848C82.9271 398.056 83.2969 398.371 83.5625 398.793C83.8333 399.21 83.9688 399.733 83.9688 400.363V404.301C83.9688 404.582 83.9922 404.882 84.0391 405.199C84.0911 405.517 84.1667 405.79 84.2656 406.02V406.145H82.7578C82.6849 405.978 82.6276 405.757 82.5859 405.481C82.5443 405.199 82.5234 404.939 82.5234 404.699ZM82.7734 401.02L82.7891 402.035H81.3281C80.9167 402.035 80.5495 402.069 80.2266 402.137C79.9036 402.199 79.6328 402.296 79.4141 402.426C79.1953 402.556 79.0286 402.72 78.9141 402.918C78.7995 403.111 78.7422 403.337 78.7422 403.598C78.7422 403.863 78.8021 404.106 78.9219 404.324C79.0417 404.543 79.2214 404.718 79.4609 404.848C79.7057 404.973 80.0052 405.035 80.3594 405.035C80.8021 405.035 81.1927 404.942 81.5312 404.754C81.8698 404.567 82.138 404.337 82.3359 404.067C82.5391 403.796 82.6484 403.533 82.6641 403.277L83.2812 403.973C83.2448 404.192 83.1458 404.434 82.9844 404.699C82.8229 404.965 82.6068 405.22 82.3359 405.465C82.0703 405.705 81.7526 405.905 81.3828 406.067C81.0182 406.223 80.6068 406.301 80.1484 406.301C79.5755 406.301 79.0729 406.189 78.6406 405.965C78.2135 405.741 77.8802 405.442 77.6406 405.067C77.4062 404.686 77.2891 404.262 77.2891 403.793C77.2891 403.34 77.3776 402.942 77.5547 402.598C77.7318 402.249 77.987 401.96 78.3203 401.731C78.6536 401.496 79.0547 401.319 79.5234 401.199C79.9922 401.08 80.5156 401.02 81.0938 401.02H82.7734ZM88.1875 399.496V406.145H86.7422V397.692H88.1094L88.1875 399.496ZM87.8438 401.598L87.2422 401.574C87.2474 400.996 87.3333 400.462 87.5 399.973C87.6667 399.478 87.901 399.048 88.2031 398.684C88.5052 398.319 88.8646 398.038 89.2812 397.84C89.7031 397.637 90.1693 397.535 90.6797 397.535C91.0964 397.535 91.4714 397.593 91.8047 397.707C92.138 397.817 92.4219 397.994 92.6562 398.238C92.8958 398.483 93.0781 398.801 93.2031 399.192C93.3281 399.577 93.3906 400.048 93.3906 400.606V406.145H91.9375V400.59C91.9375 400.147 91.8724 399.793 91.7422 399.527C91.612 399.257 91.4219 399.061 91.1719 398.942C90.9219 398.817 90.6146 398.754 90.25 398.754C89.8906 398.754 89.5625 398.83 89.2656 398.981C88.974 399.132 88.7214 399.34 88.5078 399.606C88.2995 399.871 88.1354 400.176 88.0156 400.52C87.901 400.858 87.8438 401.218 87.8438 401.598ZM105.539 404.699V400.348C105.539 400.014 105.471 399.725 105.336 399.481C105.206 399.231 105.008 399.038 104.742 398.902C104.477 398.767 104.148 398.699 103.758 398.699C103.393 398.699 103.073 398.762 102.797 398.887C102.526 399.012 102.312 399.176 102.156 399.379C102.005 399.582 101.93 399.801 101.93 400.035H100.484C100.484 399.733 100.562 399.434 100.719 399.137C100.875 398.84 101.099 398.572 101.391 398.332C101.688 398.087 102.042 397.895 102.453 397.754C102.87 397.608 103.333 397.535 103.844 397.535C104.458 397.535 105 397.639 105.469 397.848C105.943 398.056 106.312 398.371 106.578 398.793C106.849 399.21 106.984 399.733 106.984 400.363V404.301C106.984 404.582 107.008 404.882 107.055 405.199C107.107 405.517 107.182 405.79 107.281 406.02V406.145H105.773C105.701 405.978 105.643 405.757 105.602 405.481C105.56 405.199 105.539 404.939 105.539 404.699ZM105.789 401.02L105.805 402.035H104.344C103.932 402.035 103.565 402.069 103.242 402.137C102.919 402.199 102.648 402.296 102.43 402.426C102.211 402.556 102.044 402.72 101.93 402.918C101.815 403.111 101.758 403.337 101.758 403.598C101.758 403.863 101.818 404.106 101.938 404.324C102.057 404.543 102.237 404.718 102.477 404.848C102.721 404.973 103.021 405.035 103.375 405.035C103.818 405.035 104.208 404.942 104.547 404.754C104.885 404.567 105.154 404.337 105.352 404.067C105.555 403.796 105.664 403.533 105.68 403.277L106.297 403.973C106.26 404.192 106.161 404.434 106 404.699C105.839 404.965 105.622 405.22 105.352 405.465C105.086 405.705 104.768 405.905 104.398 406.067C104.034 406.223 103.622 406.301 103.164 406.301C102.591 406.301 102.089 406.189 101.656 405.965C101.229 405.741 100.896 405.442 100.656 405.067C100.422 404.686 100.305 404.262 100.305 403.793C100.305 403.34 100.393 402.942 100.57 402.598C100.747 402.249 101.003 401.96 101.336 401.731C101.669 401.496 102.07 401.319 102.539 401.199C103.008 401.08 103.531 401.02 104.109 401.02H105.789ZM111.203 399.02V406.145H109.758V397.692H111.164L111.203 399.02ZM113.844 397.645L113.836 398.988C113.716 398.962 113.602 398.947 113.492 398.942C113.388 398.931 113.268 398.926 113.133 398.926C112.799 398.926 112.505 398.978 112.25 399.082C111.995 399.186 111.779 399.332 111.602 399.52C111.424 399.707 111.284 399.931 111.18 400.192C111.081 400.447 111.016 400.728 110.984 401.035L110.578 401.27C110.578 400.759 110.628 400.28 110.727 399.832C110.831 399.384 110.99 398.988 111.203 398.645C111.417 398.296 111.688 398.025 112.016 397.832C112.349 397.634 112.745 397.535 113.203 397.535C113.307 397.535 113.427 397.548 113.562 397.574C113.698 397.595 113.792 397.619 113.844 397.645ZM119.031 406.301C118.443 406.301 117.909 406.202 117.43 406.004C116.956 405.801 116.547 405.517 116.203 405.152C115.865 404.788 115.604 404.356 115.422 403.856C115.24 403.356 115.148 402.809 115.148 402.215V401.887C115.148 401.199 115.25 400.587 115.453 400.051C115.656 399.509 115.932 399.051 116.281 398.676C116.63 398.301 117.026 398.017 117.469 397.824C117.911 397.632 118.37 397.535 118.844 397.535C119.448 397.535 119.969 397.639 120.406 397.848C120.849 398.056 121.211 398.348 121.492 398.723C121.773 399.093 121.982 399.53 122.117 400.035C122.253 400.535 122.32 401.082 122.32 401.676V402.324H116.008V401.145H120.875V401.035C120.854 400.66 120.776 400.296 120.641 399.942C120.51 399.587 120.302 399.296 120.016 399.067C119.729 398.837 119.339 398.723 118.844 398.723C118.516 398.723 118.214 398.793 117.938 398.934C117.661 399.069 117.424 399.272 117.227 399.543C117.029 399.814 116.875 400.145 116.766 400.535C116.656 400.926 116.602 401.376 116.602 401.887V402.215C116.602 402.616 116.656 402.994 116.766 403.348C116.88 403.697 117.044 404.004 117.258 404.27C117.477 404.535 117.74 404.744 118.047 404.895C118.359 405.046 118.714 405.121 119.109 405.121C119.62 405.121 120.052 405.017 120.406 404.809C120.76 404.6 121.07 404.322 121.336 403.973L122.211 404.668C122.029 404.944 121.797 405.207 121.516 405.457C121.234 405.707 120.888 405.91 120.477 406.067C120.07 406.223 119.589 406.301 119.031 406.301ZM129.492 404.699V400.348C129.492 400.014 129.424 399.725 129.289 399.481C129.159 399.231 128.961 399.038 128.695 398.902C128.43 398.767 128.102 398.699 127.711 398.699C127.346 398.699 127.026 398.762 126.75 398.887C126.479 399.012 126.266 399.176 126.109 399.379C125.958 399.582 125.883 399.801 125.883 400.035H124.438C124.438 399.733 124.516 399.434 124.672 399.137C124.828 398.84 125.052 398.572 125.344 398.332C125.641 398.087 125.995 397.895 126.406 397.754C126.823 397.608 127.286 397.535 127.797 397.535C128.411 397.535 128.953 397.639 129.422 397.848C129.896 398.056 130.266 398.371 130.531 398.793C130.802 399.21 130.938 399.733 130.938 400.363V404.301C130.938 404.582 130.961 404.882 131.008 405.199C131.06 405.517 131.135 405.79 131.234 406.02V406.145H129.727C129.654 405.978 129.596 405.757 129.555 405.481C129.513 405.199 129.492 404.939 129.492 404.699ZM129.742 401.02L129.758 402.035H128.297C127.885 402.035 127.518 402.069 127.195 402.137C126.872 402.199 126.602 402.296 126.383 402.426C126.164 402.556 125.997 402.72 125.883 402.918C125.768 403.111 125.711 403.337 125.711 403.598C125.711 403.863 125.771 404.106 125.891 404.324C126.01 404.543 126.19 404.718 126.43 404.848C126.674 404.973 126.974 405.035 127.328 405.035C127.771 405.035 128.161 404.942 128.5 404.754C128.839 404.567 129.107 404.337 129.305 404.067C129.508 403.796 129.617 403.533 129.633 403.277L130.25 403.973C130.214 404.192 130.115 404.434 129.953 404.699C129.792 404.965 129.576 405.22 129.305 405.465C129.039 405.705 128.721 405.905 128.352 406.067C127.987 406.223 127.576 406.301 127.117 406.301C126.544 406.301 126.042 406.189 125.609 405.965C125.182 405.741 124.849 405.442 124.609 405.067C124.375 404.686 124.258 404.262 124.258 403.793C124.258 403.34 124.346 402.942 124.523 402.598C124.701 402.249 124.956 401.96 125.289 401.731C125.622 401.496 126.023 401.319 126.492 401.199C126.961 401.08 127.484 401.02 128.062 401.02H129.742ZM138.172 394.145H139.625V404.504L139.5 406.145H138.172V394.145ZM145.336 401.848V402.012C145.336 402.626 145.263 403.197 145.117 403.723C144.971 404.244 144.758 404.697 144.477 405.082C144.195 405.468 143.852 405.767 143.445 405.981C143.039 406.194 142.573 406.301 142.047 406.301C141.51 406.301 141.039 406.21 140.633 406.027C140.232 405.84 139.893 405.572 139.617 405.223C139.341 404.874 139.12 404.452 138.953 403.957C138.792 403.462 138.68 402.905 138.617 402.285V401.567C138.68 400.942 138.792 400.382 138.953 399.887C139.12 399.392 139.341 398.97 139.617 398.621C139.893 398.267 140.232 397.999 140.633 397.817C141.034 397.629 141.5 397.535 142.031 397.535C142.562 397.535 143.034 397.639 143.445 397.848C143.857 398.051 144.201 398.343 144.477 398.723C144.758 399.103 144.971 399.559 145.117 400.09C145.263 400.616 145.336 401.202 145.336 401.848ZM143.883 402.012V401.848C143.883 401.426 143.844 401.03 143.766 400.66C143.688 400.285 143.562 399.957 143.391 399.676C143.219 399.389 142.992 399.165 142.711 399.004C142.43 398.837 142.083 398.754 141.672 398.754C141.307 398.754 140.99 398.817 140.719 398.942C140.453 399.067 140.227 399.236 140.039 399.449C139.852 399.658 139.698 399.897 139.578 400.168C139.464 400.434 139.378 400.71 139.32 400.996V402.879C139.404 403.244 139.539 403.595 139.727 403.934C139.919 404.267 140.174 404.54 140.492 404.754C140.815 404.968 141.214 405.074 141.688 405.074C142.078 405.074 142.411 404.996 142.688 404.84C142.969 404.679 143.195 404.457 143.367 404.176C143.544 403.895 143.674 403.569 143.758 403.199C143.841 402.83 143.883 402.434 143.883 402.012ZM149.945 405.27L152.297 397.692H153.844L150.453 407.449C150.375 407.658 150.271 407.882 150.141 408.121C150.016 408.366 149.854 408.598 149.656 408.817C149.458 409.035 149.219 409.212 148.938 409.348C148.661 409.488 148.331 409.559 147.945 409.559C147.831 409.559 147.685 409.543 147.508 409.512C147.331 409.481 147.206 409.455 147.133 409.434L147.125 408.262C147.167 408.267 147.232 408.272 147.32 408.277C147.414 408.288 147.479 408.293 147.516 408.293C147.844 408.293 148.122 408.249 148.352 408.16C148.581 408.077 148.773 407.934 148.93 407.731C149.091 407.533 149.229 407.259 149.344 406.91L149.945 405.27ZM148.219 397.692L150.414 404.254L150.789 405.777L149.75 406.309L146.641 397.692H148.219ZM165.445 404.504V394.145H166.898V406.145H165.57L165.445 404.504ZM159.758 402.012V401.848C159.758 401.202 159.836 400.616 159.992 400.09C160.154 399.559 160.38 399.103 160.672 398.723C160.969 398.343 161.32 398.051 161.727 397.848C162.138 397.639 162.596 397.535 163.102 397.535C163.633 397.535 164.096 397.629 164.492 397.817C164.893 397.999 165.232 398.267 165.508 398.621C165.789 398.97 166.01 399.392 166.172 399.887C166.333 400.382 166.445 400.942 166.508 401.567V402.285C166.451 402.905 166.339 403.462 166.172 403.957C166.01 404.452 165.789 404.874 165.508 405.223C165.232 405.572 164.893 405.84 164.492 406.027C164.091 406.21 163.622 406.301 163.086 406.301C162.591 406.301 162.138 406.194 161.727 405.981C161.32 405.767 160.969 405.468 160.672 405.082C160.38 404.697 160.154 404.244 159.992 403.723C159.836 403.197 159.758 402.626 159.758 402.012ZM161.211 401.848V402.012C161.211 402.434 161.253 402.83 161.336 403.199C161.424 403.569 161.56 403.895 161.742 404.176C161.924 404.457 162.156 404.679 162.438 404.84C162.719 404.996 163.055 405.074 163.445 405.074C163.924 405.074 164.318 404.973 164.625 404.77C164.938 404.567 165.188 404.298 165.375 403.965C165.562 403.632 165.708 403.27 165.812 402.879V400.996C165.75 400.71 165.659 400.434 165.539 400.168C165.424 399.897 165.273 399.658 165.086 399.449C164.904 399.236 164.677 399.067 164.406 398.942C164.141 398.817 163.826 398.754 163.461 398.754C163.065 398.754 162.724 398.837 162.438 399.004C162.156 399.165 161.924 399.389 161.742 399.676C161.56 399.957 161.424 400.285 161.336 400.66C161.253 401.03 161.211 401.426 161.211 401.848ZM171.094 399.02V406.145H169.648V397.692H171.055L171.094 399.02ZM173.734 397.645L173.727 398.988C173.607 398.962 173.492 398.947 173.383 398.942C173.279 398.931 173.159 398.926 173.023 398.926C172.69 398.926 172.396 398.978 172.141 399.082C171.885 399.186 171.669 399.332 171.492 399.52C171.315 399.707 171.174 399.931 171.07 400.192C170.971 400.447 170.906 400.728 170.875 401.035L170.469 401.27C170.469 400.759 170.518 400.28 170.617 399.832C170.721 399.384 170.88 398.988 171.094 398.645C171.307 398.296 171.578 398.025 171.906 397.832C172.24 397.634 172.635 397.535 173.094 397.535C173.198 397.535 173.318 397.548 173.453 397.574C173.589 397.595 173.682 397.619 173.734 397.645ZM180.242 404.699V400.348C180.242 400.014 180.174 399.725 180.039 399.481C179.909 399.231 179.711 399.038 179.445 398.902C179.18 398.767 178.852 398.699 178.461 398.699C178.096 398.699 177.776 398.762 177.5 398.887C177.229 399.012 177.016 399.176 176.859 399.379C176.708 399.582 176.633 399.801 176.633 400.035H175.188C175.188 399.733 175.266 399.434 175.422 399.137C175.578 398.84 175.802 398.572 176.094 398.332C176.391 398.087 176.745 397.895 177.156 397.754C177.573 397.608 178.036 397.535 178.547 397.535C179.161 397.535 179.703 397.639 180.172 397.848C180.646 398.056 181.016 398.371 181.281 398.793C181.552 399.21 181.688 399.733 181.688 400.363V404.301C181.688 404.582 181.711 404.882 181.758 405.199C181.81 405.517 181.885 405.79 181.984 406.02V406.145H180.477C180.404 405.978 180.346 405.757 180.305 405.481C180.263 405.199 180.242 404.939 180.242 404.699ZM180.492 401.02L180.508 402.035H179.047C178.635 402.035 178.268 402.069 177.945 402.137C177.622 402.199 177.352 402.296 177.133 402.426C176.914 402.556 176.747 402.72 176.633 402.918C176.518 403.111 176.461 403.337 176.461 403.598C176.461 403.863 176.521 404.106 176.641 404.324C176.76 404.543 176.94 404.718 177.18 404.848C177.424 404.973 177.724 405.035 178.078 405.035C178.521 405.035 178.911 404.942 179.25 404.754C179.589 404.567 179.857 404.337 180.055 404.067C180.258 403.796 180.367 403.533 180.383 403.277L181 403.973C180.964 404.192 180.865 404.434 180.703 404.699C180.542 404.965 180.326 405.22 180.055 405.465C179.789 405.705 179.471 405.905 179.102 406.067C178.737 406.223 178.326 406.301 177.867 406.301C177.294 406.301 176.792 406.189 176.359 405.965C175.932 405.741 175.599 405.442 175.359 405.067C175.125 404.686 175.008 404.262 175.008 403.793C175.008 403.34 175.096 402.942 175.273 402.598C175.451 402.249 175.706 401.96 176.039 401.731C176.372 401.496 176.773 401.319 177.242 401.199C177.711 401.08 178.234 401.02 178.812 401.02H180.492ZM189.938 397.692H191.25V405.965C191.25 406.71 191.099 407.345 190.797 407.871C190.495 408.397 190.073 408.796 189.531 409.067C188.995 409.343 188.375 409.481 187.672 409.481C187.38 409.481 187.036 409.434 186.641 409.34C186.25 409.251 185.865 409.098 185.484 408.879C185.109 408.665 184.794 408.376 184.539 408.012L185.297 407.152C185.651 407.58 186.021 407.876 186.406 408.043C186.797 408.21 187.182 408.293 187.562 408.293C188.021 408.293 188.417 408.207 188.75 408.035C189.083 407.863 189.341 407.608 189.523 407.27C189.711 406.936 189.805 406.525 189.805 406.035V399.551L189.938 397.692ZM184.117 402.012V401.848C184.117 401.202 184.193 400.616 184.344 400.09C184.5 399.559 184.721 399.103 185.008 398.723C185.299 398.343 185.651 398.051 186.062 397.848C186.474 397.639 186.938 397.535 187.453 397.535C187.984 397.535 188.448 397.629 188.844 397.817C189.245 397.999 189.583 398.267 189.859 398.621C190.141 398.97 190.362 399.392 190.523 399.887C190.685 400.382 190.797 400.942 190.859 401.567V402.285C190.802 402.905 190.69 403.462 190.523 403.957C190.362 404.452 190.141 404.874 189.859 405.223C189.583 405.572 189.245 405.84 188.844 406.027C188.443 406.21 187.974 406.301 187.438 406.301C186.932 406.301 186.474 406.194 186.062 405.981C185.656 405.767 185.307 405.468 185.016 405.082C184.724 404.697 184.5 404.244 184.344 403.723C184.193 403.197 184.117 402.626 184.117 402.012ZM185.562 401.848V402.012C185.562 402.434 185.604 402.83 185.688 403.199C185.776 403.569 185.909 403.895 186.086 404.176C186.268 404.457 186.5 404.679 186.781 404.84C187.062 404.996 187.398 405.074 187.789 405.074C188.268 405.074 188.664 404.973 188.977 404.77C189.289 404.567 189.536 404.298 189.719 403.965C189.906 403.632 190.052 403.27 190.156 402.879V400.996C190.099 400.71 190.01 400.434 189.891 400.168C189.776 399.897 189.625 399.658 189.438 399.449C189.255 399.236 189.029 399.067 188.758 398.942C188.487 398.817 188.169 398.754 187.805 398.754C187.409 398.754 187.068 398.837 186.781 399.004C186.5 399.165 186.268 399.389 186.086 399.676C185.909 399.957 185.776 400.285 185.688 400.66C185.604 401.03 185.562 401.426 185.562 401.848ZM199.422 397.692H200.734V405.965C200.734 406.71 200.583 407.345 200.281 407.871C199.979 408.397 199.557 408.796 199.016 409.067C198.479 409.343 197.859 409.481 197.156 409.481C196.865 409.481 196.521 409.434 196.125 409.34C195.734 409.251 195.349 409.098 194.969 408.879C194.594 408.665 194.279 408.376 194.023 408.012L194.781 407.152C195.135 407.58 195.505 407.876 195.891 408.043C196.281 408.21 196.667 408.293 197.047 408.293C197.505 408.293 197.901 408.207 198.234 408.035C198.568 407.863 198.826 407.608 199.008 407.27C199.195 406.936 199.289 406.525 199.289 406.035V399.551L199.422 397.692ZM193.602 402.012V401.848C193.602 401.202 193.677 400.616 193.828 400.09C193.984 399.559 194.206 399.103 194.492 398.723C194.784 398.343 195.135 398.051 195.547 397.848C195.958 397.639 196.422 397.535 196.938 397.535C197.469 397.535 197.932 397.629 198.328 397.817C198.729 397.999 199.068 398.267 199.344 398.621C199.625 398.97 199.846 399.392 200.008 399.887C200.169 400.382 200.281 400.942 200.344 401.567V402.285C200.286 402.905 200.174 403.462 200.008 403.957C199.846 404.452 199.625 404.874 199.344 405.223C199.068 405.572 198.729 405.84 198.328 406.027C197.927 406.21 197.458 406.301 196.922 406.301C196.417 406.301 195.958 406.194 195.547 405.981C195.141 405.767 194.792 405.468 194.5 405.082C194.208 404.697 193.984 404.244 193.828 403.723C193.677 403.197 193.602 402.626 193.602 402.012ZM195.047 401.848V402.012C195.047 402.434 195.089 402.83 195.172 403.199C195.26 403.569 195.393 403.895 195.57 404.176C195.753 404.457 195.984 404.679 196.266 404.84C196.547 404.996 196.883 405.074 197.273 405.074C197.753 405.074 198.148 404.973 198.461 404.77C198.773 404.567 199.021 404.298 199.203 403.965C199.391 403.632 199.536 403.27 199.641 402.879V400.996C199.583 400.71 199.495 400.434 199.375 400.168C199.26 399.897 199.109 399.658 198.922 399.449C198.74 399.236 198.513 399.067 198.242 398.942C197.971 398.817 197.654 398.754 197.289 398.754C196.893 398.754 196.552 398.837 196.266 399.004C195.984 399.165 195.753 399.389 195.57 399.676C195.393 399.957 195.26 400.285 195.172 400.66C195.089 401.03 195.047 401.426 195.047 401.848ZM205 397.692V406.145H203.547V397.692H205ZM203.438 395.449C203.438 395.215 203.508 395.017 203.648 394.856C203.794 394.694 204.008 394.613 204.289 394.613C204.565 394.613 204.776 394.694 204.922 394.856C205.073 395.017 205.148 395.215 205.148 395.449C205.148 395.673 205.073 395.866 204.922 396.027C204.776 396.184 204.565 396.262 204.289 396.262C204.008 396.262 203.794 396.184 203.648 396.027C203.508 395.866 203.438 395.673 203.438 395.449ZM209.266 399.496V406.145H207.82V397.692H209.188L209.266 399.496ZM208.922 401.598L208.32 401.574C208.326 400.996 208.411 400.462 208.578 399.973C208.745 399.478 208.979 399.048 209.281 398.684C209.583 398.319 209.943 398.038 210.359 397.84C210.781 397.637 211.247 397.535 211.758 397.535C212.174 397.535 212.549 397.593 212.883 397.707C213.216 397.817 213.5 397.994 213.734 398.238C213.974 398.483 214.156 398.801 214.281 399.192C214.406 399.577 214.469 400.048 214.469 400.606V406.145H213.016V400.59C213.016 400.147 212.951 399.793 212.82 399.527C212.69 399.257 212.5 399.061 212.25 398.942C212 398.817 211.693 398.754 211.328 398.754C210.969 398.754 210.641 398.83 210.344 398.981C210.052 399.132 209.799 399.34 209.586 399.606C209.378 399.871 209.214 400.176 209.094 400.52C208.979 400.858 208.922 401.218 208.922 401.598ZM222.641 397.692H223.953V405.965C223.953 406.71 223.802 407.345 223.5 407.871C223.198 408.397 222.776 408.796 222.234 409.067C221.698 409.343 221.078 409.481 220.375 409.481C220.083 409.481 219.74 409.434 219.344 409.34C218.953 409.251 218.568 409.098 218.188 408.879C217.812 408.665 217.497 408.376 217.242 408.012L218 407.152C218.354 407.58 218.724 407.876 219.109 408.043C219.5 408.21 219.885 408.293 220.266 408.293C220.724 408.293 221.12 408.207 221.453 408.035C221.786 407.863 222.044 407.608 222.227 407.27C222.414 406.936 222.508 406.525 222.508 406.035V399.551L222.641 397.692ZM216.82 402.012V401.848C216.82 401.202 216.896 400.616 217.047 400.09C217.203 399.559 217.424 399.103 217.711 398.723C218.003 398.343 218.354 398.051 218.766 397.848C219.177 397.639 219.641 397.535 220.156 397.535C220.688 397.535 221.151 397.629 221.547 397.817C221.948 397.999 222.286 398.267 222.562 398.621C222.844 398.97 223.065 399.392 223.227 399.887C223.388 400.382 223.5 400.942 223.562 401.567V402.285C223.505 402.905 223.393 403.462 223.227 403.957C223.065 404.452 222.844 404.874 222.562 405.223C222.286 405.572 221.948 405.84 221.547 406.027C221.146 406.21 220.677 406.301 220.141 406.301C219.635 406.301 219.177 406.194 218.766 405.981C218.359 405.767 218.01 405.468 217.719 405.082C217.427 404.697 217.203 404.244 217.047 403.723C216.896 403.197 216.82 402.626 216.82 402.012ZM218.266 401.848V402.012C218.266 402.434 218.307 402.83 218.391 403.199C218.479 403.569 218.612 403.895 218.789 404.176C218.971 404.457 219.203 404.679 219.484 404.84C219.766 404.996 220.102 405.074 220.492 405.074C220.971 405.074 221.367 404.973 221.68 404.77C221.992 404.567 222.24 404.298 222.422 403.965C222.609 403.632 222.755 403.27 222.859 402.879V400.996C222.802 400.71 222.714 400.434 222.594 400.168C222.479 399.897 222.328 399.658 222.141 399.449C221.958 399.236 221.732 399.067 221.461 398.942C221.19 398.817 220.872 398.754 220.508 398.754C220.112 398.754 219.771 398.837 219.484 399.004C219.203 399.165 218.971 399.389 218.789 399.676C218.612 399.957 218.479 400.285 218.391 400.66C218.307 401.03 218.266 401.426 218.266 401.848ZM236.102 404.699V400.348C236.102 400.014 236.034 399.725 235.898 399.481C235.768 399.231 235.57 399.038 235.305 398.902C235.039 398.767 234.711 398.699 234.32 398.699C233.956 398.699 233.635 398.762 233.359 398.887C233.089 399.012 232.875 399.176 232.719 399.379C232.568 399.582 232.492 399.801 232.492 400.035H231.047C231.047 399.733 231.125 399.434 231.281 399.137C231.438 398.84 231.661 398.572 231.953 398.332C232.25 398.087 232.604 397.895 233.016 397.754C233.432 397.608 233.896 397.535 234.406 397.535C235.021 397.535 235.562 397.639 236.031 397.848C236.505 398.056 236.875 398.371 237.141 398.793C237.411 399.21 237.547 399.733 237.547 400.363V404.301C237.547 404.582 237.57 404.882 237.617 405.199C237.669 405.517 237.745 405.79 237.844 406.02V406.145H236.336C236.263 405.978 236.206 405.757 236.164 405.481C236.122 405.199 236.102 404.939 236.102 404.699ZM236.352 401.02L236.367 402.035H234.906C234.495 402.035 234.128 402.069 233.805 402.137C233.482 402.199 233.211 402.296 232.992 402.426C232.773 402.556 232.607 402.72 232.492 402.918C232.378 403.111 232.32 403.337 232.32 403.598C232.32 403.863 232.38 404.106 232.5 404.324C232.62 404.543 232.799 404.718 233.039 404.848C233.284 404.973 233.583 405.035 233.938 405.035C234.38 405.035 234.771 404.942 235.109 404.754C235.448 404.567 235.716 404.337 235.914 404.067C236.117 403.796 236.227 403.533 236.242 403.277L236.859 403.973C236.823 404.192 236.724 404.434 236.562 404.699C236.401 404.965 236.185 405.22 235.914 405.465C235.648 405.705 235.331 405.905 234.961 406.067C234.596 406.223 234.185 406.301 233.727 406.301C233.154 406.301 232.651 406.189 232.219 405.965C231.792 405.741 231.458 405.442 231.219 405.067C230.984 404.686 230.867 404.262 230.867 403.793C230.867 403.34 230.956 402.942 231.133 402.598C231.31 402.249 231.565 401.96 231.898 401.731C232.232 401.496 232.633 401.319 233.102 401.199C233.57 401.08 234.094 401.02 234.672 401.02H236.352ZM243.703 405.113C244.047 405.113 244.365 405.043 244.656 404.902C244.948 404.762 245.188 404.569 245.375 404.324C245.562 404.074 245.669 403.79 245.695 403.473H247.07C247.044 403.973 246.875 404.439 246.562 404.871C246.255 405.298 245.852 405.645 245.352 405.91C244.852 406.171 244.302 406.301 243.703 406.301C243.068 406.301 242.513 406.189 242.039 405.965C241.57 405.741 241.18 405.434 240.867 405.043C240.56 404.652 240.328 404.205 240.172 403.699C240.021 403.189 239.945 402.65 239.945 402.082V401.754C239.945 401.186 240.021 400.65 240.172 400.145C240.328 399.634 240.56 399.184 240.867 398.793C241.18 398.402 241.57 398.095 242.039 397.871C242.513 397.647 243.068 397.535 243.703 397.535C244.365 397.535 244.943 397.671 245.438 397.942C245.932 398.207 246.32 398.572 246.602 399.035C246.888 399.494 247.044 400.014 247.07 400.598H245.695C245.669 400.249 245.57 399.934 245.398 399.652C245.232 399.371 245.003 399.147 244.711 398.981C244.424 398.809 244.089 398.723 243.703 398.723C243.26 398.723 242.888 398.811 242.586 398.988C242.289 399.16 242.052 399.395 241.875 399.692C241.703 399.983 241.578 400.309 241.5 400.668C241.427 401.022 241.391 401.384 241.391 401.754V402.082C241.391 402.452 241.427 402.817 241.5 403.176C241.573 403.535 241.695 403.861 241.867 404.152C242.044 404.444 242.281 404.679 242.578 404.856C242.88 405.027 243.255 405.113 243.703 405.113ZM250.641 399.02V406.145H249.195V397.692H250.602L250.641 399.02ZM253.281 397.645L253.273 398.988C253.154 398.962 253.039 398.947 252.93 398.942C252.826 398.931 252.706 398.926 252.57 398.926C252.237 398.926 251.943 398.978 251.688 399.082C251.432 399.186 251.216 399.332 251.039 399.52C250.862 399.707 250.721 399.931 250.617 400.192C250.518 400.447 250.453 400.728 250.422 401.035L250.016 401.27C250.016 400.759 250.065 400.28 250.164 399.832C250.268 399.384 250.427 398.988 250.641 398.645C250.854 398.296 251.125 398.025 251.453 397.832C251.786 397.634 252.182 397.535 252.641 397.535C252.745 397.535 252.865 397.548 253 397.574C253.135 397.595 253.229 397.619 253.281 397.645ZM254.578 402.012V401.832C254.578 401.223 254.667 400.658 254.844 400.137C255.021 399.611 255.276 399.155 255.609 398.77C255.943 398.379 256.346 398.077 256.82 397.863C257.294 397.645 257.826 397.535 258.414 397.535C259.008 397.535 259.542 397.645 260.016 397.863C260.495 398.077 260.901 398.379 261.234 398.77C261.573 399.155 261.831 399.611 262.008 400.137C262.185 400.658 262.273 401.223 262.273 401.832V402.012C262.273 402.621 262.185 403.186 262.008 403.707C261.831 404.228 261.573 404.684 261.234 405.074C260.901 405.46 260.497 405.762 260.023 405.981C259.555 406.194 259.023 406.301 258.43 406.301C257.836 406.301 257.302 406.194 256.828 405.981C256.354 405.762 255.948 405.46 255.609 405.074C255.276 404.684 255.021 404.228 254.844 403.707C254.667 403.186 254.578 402.621 254.578 402.012ZM256.023 401.832V402.012C256.023 402.434 256.073 402.832 256.172 403.207C256.271 403.577 256.419 403.905 256.617 404.192C256.82 404.478 257.073 404.705 257.375 404.871C257.677 405.033 258.029 405.113 258.43 405.113C258.826 405.113 259.172 405.033 259.469 404.871C259.771 404.705 260.021 404.478 260.219 404.192C260.417 403.905 260.565 403.577 260.664 403.207C260.768 402.832 260.82 402.434 260.82 402.012V401.832C260.82 401.415 260.768 401.022 260.664 400.652C260.565 400.277 260.414 399.947 260.211 399.66C260.013 399.369 259.763 399.139 259.461 398.973C259.164 398.806 258.815 398.723 258.414 398.723C258.018 398.723 257.669 398.806 257.367 398.973C257.07 399.139 256.82 399.369 256.617 399.66C256.419 399.947 256.271 400.277 256.172 400.652C256.073 401.022 256.023 401.415 256.023 401.832ZM269.508 403.902C269.508 403.694 269.461 403.501 269.367 403.324C269.279 403.142 269.094 402.978 268.812 402.832C268.536 402.681 268.12 402.551 267.562 402.442C267.094 402.343 266.669 402.225 266.289 402.09C265.914 401.955 265.594 401.79 265.328 401.598C265.068 401.405 264.867 401.179 264.727 400.918C264.586 400.658 264.516 400.353 264.516 400.004C264.516 399.671 264.589 399.356 264.734 399.059C264.885 398.762 265.096 398.499 265.367 398.27C265.643 398.04 265.974 397.861 266.359 397.731C266.745 397.6 267.174 397.535 267.648 397.535C268.326 397.535 268.904 397.655 269.383 397.895C269.862 398.134 270.229 398.455 270.484 398.856C270.74 399.251 270.867 399.692 270.867 400.176H269.422C269.422 399.942 269.352 399.715 269.211 399.496C269.076 399.272 268.875 399.087 268.609 398.942C268.349 398.796 268.029 398.723 267.648 398.723C267.247 398.723 266.922 398.785 266.672 398.91C266.427 399.03 266.247 399.184 266.133 399.371C266.023 399.559 265.969 399.757 265.969 399.965C265.969 400.121 265.995 400.262 266.047 400.387C266.104 400.507 266.203 400.619 266.344 400.723C266.484 400.822 266.682 400.915 266.938 401.004C267.193 401.093 267.518 401.181 267.914 401.27C268.607 401.426 269.177 401.613 269.625 401.832C270.073 402.051 270.406 402.319 270.625 402.637C270.844 402.955 270.953 403.34 270.953 403.793C270.953 404.163 270.875 404.501 270.719 404.809C270.568 405.116 270.346 405.382 270.055 405.606C269.768 405.824 269.424 405.996 269.023 406.121C268.628 406.241 268.182 406.301 267.688 406.301C266.943 406.301 266.312 406.168 265.797 405.902C265.281 405.637 264.891 405.293 264.625 404.871C264.359 404.449 264.227 404.004 264.227 403.535H265.68C265.701 403.931 265.815 404.246 266.023 404.481C266.232 404.71 266.487 404.874 266.789 404.973C267.091 405.067 267.391 405.113 267.688 405.113C268.083 405.113 268.414 405.061 268.68 404.957C268.951 404.853 269.156 404.71 269.297 404.527C269.438 404.345 269.508 404.137 269.508 403.902ZM278.273 403.902C278.273 403.694 278.227 403.501 278.133 403.324C278.044 403.142 277.859 402.978 277.578 402.832C277.302 402.681 276.885 402.551 276.328 402.442C275.859 402.343 275.435 402.225 275.055 402.09C274.68 401.955 274.359 401.79 274.094 401.598C273.833 401.405 273.633 401.179 273.492 400.918C273.352 400.658 273.281 400.353 273.281 400.004C273.281 399.671 273.354 399.356 273.5 399.059C273.651 398.762 273.862 398.499 274.133 398.27C274.409 398.04 274.74 397.861 275.125 397.731C275.51 397.6 275.94 397.535 276.414 397.535C277.091 397.535 277.669 397.655 278.148 397.895C278.628 398.134 278.995 398.455 279.25 398.856C279.505 399.251 279.633 399.692 279.633 400.176H278.188C278.188 399.942 278.117 399.715 277.977 399.496C277.841 399.272 277.641 399.087 277.375 398.942C277.115 398.796 276.794 398.723 276.414 398.723C276.013 398.723 275.688 398.785 275.438 398.91C275.193 399.03 275.013 399.184 274.898 399.371C274.789 399.559 274.734 399.757 274.734 399.965C274.734 400.121 274.76 400.262 274.812 400.387C274.87 400.507 274.969 400.619 275.109 400.723C275.25 400.822 275.448 400.915 275.703 401.004C275.958 401.093 276.284 401.181 276.68 401.27C277.372 401.426 277.943 401.613 278.391 401.832C278.839 402.051 279.172 402.319 279.391 402.637C279.609 402.955 279.719 403.34 279.719 403.793C279.719 404.163 279.641 404.501 279.484 404.809C279.333 405.116 279.112 405.382 278.82 405.606C278.534 405.824 278.19 405.996 277.789 406.121C277.393 406.241 276.948 406.301 276.453 406.301C275.708 406.301 275.078 406.168 274.562 405.902C274.047 405.637 273.656 405.293 273.391 404.871C273.125 404.449 272.992 404.004 272.992 403.535H274.445C274.466 403.931 274.581 404.246 274.789 404.481C274.997 404.71 275.253 404.874 275.555 404.973C275.857 405.067 276.156 405.113 276.453 405.113C276.849 405.113 277.18 405.061 277.445 404.957C277.716 404.853 277.922 404.71 278.062 404.527C278.203 404.345 278.273 404.137 278.273 403.902ZM290.125 397.692V398.801H285.555V397.692H290.125ZM287.102 395.637H288.547V404.051C288.547 404.337 288.591 404.554 288.68 404.699C288.768 404.845 288.883 404.942 289.023 404.988C289.164 405.035 289.315 405.059 289.477 405.059C289.596 405.059 289.721 405.048 289.852 405.027C289.987 405.001 290.089 404.981 290.156 404.965L290.164 406.145C290.049 406.181 289.898 406.215 289.711 406.246C289.529 406.283 289.307 406.301 289.047 406.301C288.693 406.301 288.367 406.231 288.07 406.09C287.773 405.949 287.536 405.715 287.359 405.387C287.188 405.054 287.102 404.606 287.102 404.043V395.637ZM293.766 394.145V406.145H292.32V394.145H293.766ZM293.422 401.598L292.82 401.574C292.826 400.996 292.911 400.462 293.078 399.973C293.245 399.478 293.479 399.048 293.781 398.684C294.083 398.319 294.443 398.038 294.859 397.84C295.281 397.637 295.747 397.535 296.258 397.535C296.674 397.535 297.049 397.593 297.383 397.707C297.716 397.817 298 397.994 298.234 398.238C298.474 398.483 298.656 398.801 298.781 399.192C298.906 399.577 298.969 400.048 298.969 400.606V406.145H297.516V400.59C297.516 400.147 297.451 399.793 297.32 399.527C297.19 399.257 297 399.061 296.75 398.942C296.5 398.817 296.193 398.754 295.828 398.754C295.469 398.754 295.141 398.83 294.844 398.981C294.552 399.132 294.299 399.34 294.086 399.606C293.878 399.871 293.714 400.176 293.594 400.52C293.479 400.858 293.422 401.218 293.422 401.598ZM305.141 406.301C304.552 406.301 304.018 406.202 303.539 406.004C303.065 405.801 302.656 405.517 302.312 405.152C301.974 404.788 301.714 404.356 301.531 403.856C301.349 403.356 301.258 402.809 301.258 402.215V401.887C301.258 401.199 301.359 400.587 301.562 400.051C301.766 399.509 302.042 399.051 302.391 398.676C302.74 398.301 303.135 398.017 303.578 397.824C304.021 397.632 304.479 397.535 304.953 397.535C305.557 397.535 306.078 397.639 306.516 397.848C306.958 398.056 307.32 398.348 307.602 398.723C307.883 399.093 308.091 399.53 308.227 400.035C308.362 400.535 308.43 401.082 308.43 401.676V402.324H302.117V401.145H306.984V401.035C306.964 400.66 306.885 400.296 306.75 399.942C306.62 399.587 306.411 399.296 306.125 399.067C305.839 398.837 305.448 398.723 304.953 398.723C304.625 398.723 304.323 398.793 304.047 398.934C303.771 399.069 303.534 399.272 303.336 399.543C303.138 399.814 302.984 400.145 302.875 400.535C302.766 400.926 302.711 401.376 302.711 401.887V402.215C302.711 402.616 302.766 402.994 302.875 403.348C302.99 403.697 303.154 404.004 303.367 404.27C303.586 404.535 303.849 404.744 304.156 404.895C304.469 405.046 304.823 405.121 305.219 405.121C305.729 405.121 306.161 405.017 306.516 404.809C306.87 404.6 307.18 404.322 307.445 403.973L308.32 404.668C308.138 404.944 307.906 405.207 307.625 405.457C307.344 405.707 306.997 405.91 306.586 406.067C306.18 406.223 305.698 406.301 305.141 406.301ZM27.6719 417.145V429.145H26.2188V417.145H27.6719ZM30.1094 425.012V424.832C30.1094 424.223 30.1979 423.658 30.375 423.137C30.5521 422.611 30.8073 422.155 31.1406 421.77C31.474 421.379 31.8776 421.077 32.3516 420.863C32.8255 420.645 33.3568 420.535 33.9453 420.535C34.5391 420.535 35.0729 420.645 35.5469 420.863C36.026 421.077 36.4323 421.379 36.7656 421.77C37.1042 422.155 37.362 422.611 37.5391 423.137C37.7161 423.658 37.8047 424.223 37.8047 424.832V425.012C37.8047 425.621 37.7161 426.186 37.5391 426.707C37.362 427.228 37.1042 427.684 36.7656 428.074C36.4323 428.46 36.0286 428.762 35.5547 428.981C35.0859 429.194 34.5547 429.301 33.9609 429.301C33.3672 429.301 32.8333 429.194 32.3594 428.981C31.8854 428.762 31.4792 428.46 31.1406 428.074C30.8073 427.684 30.5521 427.228 30.375 426.707C30.1979 426.186 30.1094 425.621 30.1094 425.012ZM31.5547 424.832V425.012C31.5547 425.434 31.6042 425.832 31.7031 426.207C31.8021 426.577 31.9505 426.905 32.1484 427.192C32.3516 427.478 32.6042 427.705 32.9062 427.871C33.2083 428.033 33.5599 428.113 33.9609 428.113C34.3568 428.113 34.7031 428.033 35 427.871C35.3021 427.705 35.5521 427.478 35.75 427.192C35.9479 426.905 36.0964 426.577 36.1953 426.207C36.2995 425.832 36.3516 425.434 36.3516 425.012V424.832C36.3516 424.415 36.2995 424.022 36.1953 423.652C36.0964 423.277 35.9453 422.947 35.7422 422.66C35.5443 422.369 35.2943 422.139 34.9922 421.973C34.6953 421.806 34.3464 421.723 33.9453 421.723C33.5495 421.723 33.2005 421.806 32.8984 421.973C32.6016 422.139 32.3516 422.369 32.1484 422.66C31.9505 422.947 31.8021 423.277 31.7031 423.652C31.6042 424.022 31.5547 424.415 31.5547 424.832ZM42.2578 427.645L44.4297 420.692H45.3828L45.1953 422.074L42.9844 429.145H42.0547L42.2578 427.645ZM40.7969 420.692L42.6484 427.723L42.7812 429.145H41.8047L39.3516 420.692H40.7969ZM47.4609 427.668L49.2266 420.692H50.6641L48.2109 429.145H47.2422L47.4609 427.668ZM45.5938 420.692L47.7188 427.527L47.9609 429.145H47.0391L44.7656 422.059L44.5781 420.692H45.5938ZM56.1562 429.301C55.5677 429.301 55.0339 429.202 54.5547 429.004C54.0807 428.801 53.6719 428.517 53.3281 428.152C52.9896 427.788 52.7292 427.356 52.5469 426.856C52.3646 426.356 52.2734 425.809 52.2734 425.215V424.887C52.2734 424.199 52.375 423.587 52.5781 423.051C52.7812 422.509 53.0573 422.051 53.4062 421.676C53.7552 421.301 54.151 421.017 54.5938 420.824C55.0365 420.632 55.4948 420.535 55.9688 420.535C56.5729 420.535 57.0938 420.639 57.5312 420.848C57.974 421.056 58.3359 421.348 58.6172 421.723C58.8984 422.093 59.1068 422.53 59.2422 423.035C59.3776 423.535 59.4453 424.082 59.4453 424.676V425.324H53.1328V424.145H58V424.035C57.9792 423.66 57.901 423.296 57.7656 422.942C57.6354 422.587 57.4271 422.296 57.1406 422.067C56.8542 421.837 56.4635 421.723 55.9688 421.723C55.6406 421.723 55.3385 421.793 55.0625 421.934C54.7865 422.069 54.5495 422.272 54.3516 422.543C54.1536 422.814 54 423.145 53.8906 423.535C53.7812 423.926 53.7266 424.376 53.7266 424.887V425.215C53.7266 425.616 53.7812 425.994 53.8906 426.348C54.0052 426.697 54.1693 427.004 54.3828 427.27C54.6016 427.535 54.8646 427.744 55.1719 427.895C55.4844 428.046 55.8385 428.121 56.2344 428.121C56.7448 428.121 57.1771 428.017 57.5312 427.809C57.8854 427.6 58.1953 427.322 58.4609 426.973L59.3359 427.668C59.1536 427.944 58.9219 428.207 58.6406 428.457C58.3594 428.707 58.013 428.91 57.6016 429.067C57.1953 429.223 56.7135 429.301 56.1562 429.301ZM63.0781 422.02V429.145H61.6328V420.692H63.0391L63.0781 422.02ZM65.7188 420.645L65.7109 421.988C65.5911 421.962 65.4766 421.947 65.3672 421.942C65.263 421.931 65.1432 421.926 65.0078 421.926C64.6745 421.926 64.3802 421.978 64.125 422.082C63.8698 422.186 63.6536 422.332 63.4766 422.52C63.2995 422.707 63.1589 422.931 63.0547 423.192C62.9557 423.447 62.8906 423.728 62.8594 424.035L62.4531 424.27C62.4531 423.759 62.5026 423.28 62.6016 422.832C62.7057 422.384 62.8646 421.988 63.0781 421.645C63.2917 421.296 63.5625 421.025 63.8906 420.832C64.224 420.634 64.6198 420.535 65.0781 420.535C65.1823 420.535 65.3021 420.548 65.4375 420.574C65.5729 420.595 65.6667 420.619 65.7188 420.645ZM75.4062 428.113C75.75 428.113 76.0677 428.043 76.3594 427.902C76.651 427.762 76.8906 427.569 77.0781 427.324C77.2656 427.074 77.3724 426.79 77.3984 426.473H78.7734C78.7474 426.973 78.5781 427.439 78.2656 427.871C77.9583 428.298 77.5547 428.645 77.0547 428.91C76.5547 429.171 76.0052 429.301 75.4062 429.301C74.7708 429.301 74.2161 429.189 73.7422 428.965C73.2734 428.741 72.8828 428.434 72.5703 428.043C72.263 427.652 72.0312 427.205 71.875 426.699C71.724 426.189 71.6484 425.65 71.6484 425.082V424.754C71.6484 424.186 71.724 423.65 71.875 423.145C72.0312 422.634 72.263 422.184 72.5703 421.793C72.8828 421.402 73.2734 421.095 73.7422 420.871C74.2161 420.647 74.7708 420.535 75.4062 420.535C76.0677 420.535 76.6458 420.671 77.1406 420.942C77.6354 421.207 78.0234 421.572 78.3047 422.035C78.5911 422.494 78.7474 423.014 78.7734 423.598H77.3984C77.3724 423.249 77.2734 422.934 77.1016 422.652C76.9349 422.371 76.7057 422.147 76.4141 421.981C76.1276 421.809 75.7917 421.723 75.4062 421.723C74.9635 421.723 74.5911 421.811 74.2891 421.988C73.9922 422.16 73.7552 422.395 73.5781 422.692C73.4062 422.983 73.2812 423.309 73.2031 423.668C73.1302 424.022 73.0938 424.384 73.0938 424.754V425.082C73.0938 425.452 73.1302 425.817 73.2031 426.176C73.276 426.535 73.3984 426.861 73.5703 427.152C73.7474 427.444 73.9844 427.679 74.2812 427.856C74.5833 428.027 74.9583 428.113 75.4062 428.113ZM82.3438 417.145V429.145H80.8984V417.145H82.3438ZM82 424.598L81.3984 424.574C81.4036 423.996 81.4896 423.462 81.6562 422.973C81.8229 422.478 82.0573 422.048 82.3594 421.684C82.6615 421.319 83.0208 421.038 83.4375 420.84C83.8594 420.637 84.3255 420.535 84.8359 420.535C85.2526 420.535 85.6276 420.593 85.9609 420.707C86.2943 420.817 86.5781 420.994 86.8125 421.238C87.0521 421.483 87.2344 421.801 87.3594 422.192C87.4844 422.577 87.5469 423.048 87.5469 423.606V429.145H86.0938V423.59C86.0938 423.147 86.0286 422.793 85.8984 422.527C85.7682 422.257 85.5781 422.061 85.3281 421.942C85.0781 421.817 84.7708 421.754 84.4062 421.754C84.0469 421.754 83.7188 421.83 83.4219 421.981C83.1302 422.132 82.8776 422.34 82.6641 422.606C82.4557 422.871 82.2917 423.176 82.1719 423.52C82.0573 423.858 82 424.218 82 424.598ZM95.1953 427.699V423.348C95.1953 423.014 95.1276 422.725 94.9922 422.481C94.862 422.231 94.6641 422.038 94.3984 421.902C94.1328 421.767 93.8047 421.699 93.4141 421.699C93.0495 421.699 92.7292 421.762 92.4531 421.887C92.1823 422.012 91.9688 422.176 91.8125 422.379C91.6615 422.582 91.5859 422.801 91.5859 423.035H90.1406C90.1406 422.733 90.2188 422.434 90.375 422.137C90.5312 421.84 90.7552 421.572 91.0469 421.332C91.3438 421.087 91.6979 420.895 92.1094 420.754C92.526 420.608 92.9896 420.535 93.5 420.535C94.1146 420.535 94.6562 420.639 95.125 420.848C95.599 421.056 95.9688 421.371 96.2344 421.793C96.5052 422.21 96.6406 422.733 96.6406 423.363V427.301C96.6406 427.582 96.6641 427.882 96.7109 428.199C96.763 428.517 96.8385 428.79 96.9375 429.02V429.145H95.4297C95.3568 428.978 95.2995 428.757 95.2578 428.481C95.2161 428.199 95.1953 427.939 95.1953 427.699ZM95.4453 424.02L95.4609 425.035H94C93.5885 425.035 93.2214 425.069 92.8984 425.137C92.5755 425.199 92.3047 425.296 92.0859 425.426C91.8672 425.556 91.7005 425.72 91.5859 425.918C91.4714 426.111 91.4141 426.337 91.4141 426.598C91.4141 426.863 91.474 427.106 91.5938 427.324C91.7135 427.543 91.8932 427.718 92.1328 427.848C92.3776 427.973 92.6771 428.035 93.0312 428.035C93.474 428.035 93.8646 427.942 94.2031 427.754C94.5417 427.567 94.8099 427.337 95.0078 427.067C95.2109 426.796 95.3203 426.533 95.3359 426.277L95.9531 426.973C95.9167 427.192 95.8177 427.434 95.6562 427.699C95.4948 427.965 95.2786 428.22 95.0078 428.465C94.7422 428.705 94.4245 428.905 94.0547 429.067C93.6901 429.223 93.2786 429.301 92.8203 429.301C92.2474 429.301 91.7448 429.189 91.3125 428.965C90.8854 428.741 90.5521 428.442 90.3125 428.067C90.0781 427.686 89.9609 427.262 89.9609 426.793C89.9609 426.34 90.0495 425.942 90.2266 425.598C90.4036 425.249 90.6589 424.96 90.9922 424.731C91.3255 424.496 91.7266 424.319 92.1953 424.199C92.6641 424.08 93.1875 424.02 93.7656 424.02H95.4453ZM100.859 422.02V429.145H99.4141V420.692H100.82L100.859 422.02ZM103.5 420.645L103.492 421.988C103.372 421.962 103.258 421.947 103.148 421.942C103.044 421.931 102.924 421.926 102.789 421.926C102.456 421.926 102.161 421.978 101.906 422.082C101.651 422.186 101.435 422.332 101.258 422.52C101.081 422.707 100.94 422.931 100.836 423.192C100.737 423.447 100.672 423.728 100.641 424.035L100.234 424.27C100.234 423.759 100.284 423.28 100.383 422.832C100.487 422.384 100.646 421.988 100.859 421.645C101.073 421.296 101.344 421.025 101.672 420.832C102.005 420.634 102.401 420.535 102.859 420.535C102.964 420.535 103.083 420.548 103.219 420.574C103.354 420.595 103.448 420.619 103.5 420.645ZM109.266 420.692V421.801H104.695V420.692H109.266ZM106.242 418.637H107.688V427.051C107.688 427.337 107.732 427.554 107.82 427.699C107.909 427.845 108.023 427.942 108.164 427.988C108.305 428.035 108.456 428.059 108.617 428.059C108.737 428.059 108.862 428.048 108.992 428.027C109.128 428.001 109.229 427.981 109.297 427.965L109.305 429.145C109.19 429.181 109.039 429.215 108.852 429.246C108.669 429.283 108.448 429.301 108.188 429.301C107.833 429.301 107.508 429.231 107.211 429.09C106.914 428.949 106.677 428.715 106.5 428.387C106.328 428.054 106.242 427.606 106.242 427.043V418.637Z" fill="#CED8E1"/>
</g>
<defs>
<clipPath id="clip0_1_531">
<rect width="360" height="460.145" rx="20" fill="white"/>
</clipPath>
</defs>
</svg>
