<svg width="360" height="326" viewBox="0 0 360 326" fill="none" xmlns="http://www.w3.org/2000/svg">
<g clip-path="url(#clip0_1_451)">
<rect width="360" height="325.12" rx="20" fill="#0A0D10"/>
<path d="M34.5703 45.7637H29.457L29.4297 42.9473H33.7227C34.4792 42.9473 35.099 42.8516 35.582 42.6602C36.0651 42.4596 36.4251 42.1725 36.6621 41.7988C36.9082 41.416 37.0312 40.9512 37.0312 40.4043C37.0312 39.7845 36.9128 39.2832 36.6758 38.9004C36.4479 38.5176 36.0879 38.2396 35.5957 38.0664C35.1126 37.8932 34.4883 37.8066 33.7227 37.8066H30.8789V54.5H26.7773V34.5938H33.7227C34.8802 34.5938 35.9147 34.7031 36.8262 34.9219C37.7467 35.1406 38.526 35.4733 39.1641 35.9199C39.8021 36.3665 40.2897 36.9316 40.627 37.6152C40.9642 38.2897 41.1328 39.0918 41.1328 40.0215C41.1328 40.8418 40.946 41.5983 40.5723 42.291C40.2077 42.9837 39.6289 43.5488 38.8359 43.9863C38.0521 44.4238 37.0267 44.6654 35.7598 44.7109L34.5703 45.7637ZM34.3926 54.5H28.3359L29.9355 51.3008H34.3926C35.1126 51.3008 35.7005 51.1868 36.1562 50.959C36.612 50.722 36.9492 50.403 37.168 50.002C37.3867 49.6009 37.4961 49.1406 37.4961 48.6211C37.4961 48.0378 37.3958 47.5319 37.1953 47.1035C37.0039 46.6751 36.694 46.347 36.2656 46.1191C35.8372 45.8822 35.2721 45.7637 34.5703 45.7637H30.6191L30.6465 42.9473H35.5684L36.5117 44.0547C37.724 44.0365 38.6992 44.2507 39.4375 44.6973C40.1849 45.1348 40.7272 45.7044 41.0645 46.4062C41.4108 47.1081 41.584 47.86 41.584 48.6621C41.584 49.9382 41.306 51.0137 40.75 51.8887C40.194 52.7546 39.3783 53.4062 38.3027 53.8438C37.2363 54.2812 35.9329 54.5 34.3926 54.5ZM52.3984 51.1641V44.5742C52.3984 44.1003 52.321 43.6947 52.166 43.3574C52.0111 43.0111 51.7695 42.7422 51.4414 42.5508C51.1224 42.3594 50.7077 42.2637 50.1973 42.2637C49.7598 42.2637 49.3815 42.3411 49.0625 42.4961C48.7435 42.6419 48.4974 42.8561 48.3242 43.1387C48.151 43.4121 48.0645 43.7357 48.0645 44.1094H44.127C44.127 43.4805 44.2728 42.8835 44.5645 42.3184C44.8561 41.7533 45.2799 41.2565 45.8359 40.8281C46.3919 40.3906 47.0527 40.0488 47.8184 39.8027C48.5931 39.5566 49.459 39.4336 50.416 39.4336C51.5645 39.4336 52.5853 39.625 53.4785 40.0078C54.3717 40.3906 55.0736 40.9648 55.584 41.7305C56.1035 42.4961 56.3633 43.4531 56.3633 44.6016V50.9316C56.3633 51.7428 56.4134 52.4082 56.5137 52.9277C56.6139 53.4382 56.7598 53.8848 56.9512 54.2676V54.5H52.9727C52.7812 54.099 52.6354 53.5977 52.5352 52.9961C52.444 52.3854 52.3984 51.7747 52.3984 51.1641ZM52.918 45.4902L52.9453 47.7188H50.7441C50.2246 47.7188 49.7734 47.778 49.3906 47.8965C49.0078 48.015 48.6934 48.1836 48.4473 48.4023C48.2012 48.612 48.0189 48.8581 47.9004 49.1406C47.791 49.4232 47.7363 49.7331 47.7363 50.0703C47.7363 50.4076 47.8138 50.7129 47.9688 50.9863C48.1237 51.2507 48.347 51.4603 48.6387 51.6152C48.9303 51.7611 49.2721 51.834 49.6641 51.834C50.2565 51.834 50.7715 51.7155 51.209 51.4785C51.6465 51.2415 51.9837 50.9499 52.2207 50.6035C52.4668 50.2572 52.5944 49.929 52.6035 49.6191L53.6426 51.2871C53.4967 51.6608 53.2962 52.0482 53.041 52.4492C52.7949 52.8503 52.4805 53.2285 52.0977 53.584C51.7148 53.9303 51.2546 54.2174 50.7168 54.4453C50.179 54.6641 49.541 54.7734 48.8027 54.7734C47.8639 54.7734 47.0117 54.5866 46.2461 54.2129C45.4896 53.8301 44.888 53.306 44.4414 52.6406C44.0039 51.9661 43.7852 51.2005 43.7852 50.3438C43.7852 49.569 43.931 48.8809 44.2227 48.2793C44.5143 47.6777 44.9427 47.1719 45.5078 46.7617C46.082 46.3424 46.7975 46.028 47.6543 45.8184C48.5111 45.5996 49.5046 45.4902 50.6348 45.4902H52.918ZM63.5547 33.5V54.5H59.6035V33.5H63.5547ZM74.793 51.1641V44.5742C74.793 44.1003 74.7155 43.6947 74.5605 43.3574C74.4056 43.0111 74.1641 42.7422 73.8359 42.5508C73.5169 42.3594 73.1022 42.2637 72.5918 42.2637C72.1543 42.2637 71.776 42.3411 71.457 42.4961C71.138 42.6419 70.8919 42.8561 70.7188 43.1387C70.5456 43.4121 70.459 43.7357 70.459 44.1094H66.5215C66.5215 43.4805 66.6673 42.8835 66.959 42.3184C67.2507 41.7533 67.6745 41.2565 68.2305 40.8281C68.7865 40.3906 69.4473 40.0488 70.2129 39.8027C70.9876 39.5566 71.8535 39.4336 72.8105 39.4336C73.959 39.4336 74.9798 39.625 75.873 40.0078C76.7663 40.3906 77.4681 40.9648 77.9785 41.7305C78.498 42.4961 78.7578 43.4531 78.7578 44.6016V50.9316C78.7578 51.7428 78.8079 52.4082 78.9082 52.9277C79.0085 53.4382 79.1543 53.8848 79.3457 54.2676V54.5H75.3672C75.1758 54.099 75.0299 53.5977 74.9297 52.9961C74.8385 52.3854 74.793 51.7747 74.793 51.1641ZM75.3125 45.4902L75.3398 47.7188H73.1387C72.6191 47.7188 72.168 47.778 71.7852 47.8965C71.4023 48.015 71.0879 48.1836 70.8418 48.4023C70.5957 48.612 70.4134 48.8581 70.2949 49.1406C70.1855 49.4232 70.1309 49.7331 70.1309 50.0703C70.1309 50.4076 70.2083 50.7129 70.3633 50.9863C70.5182 51.2507 70.7415 51.4603 71.0332 51.6152C71.3249 51.7611 71.6667 51.834 72.0586 51.834C72.651 51.834 73.166 51.7155 73.6035 51.4785C74.041 51.2415 74.3783 50.9499 74.6152 50.6035C74.8613 50.2572 74.9889 49.929 74.998 49.6191L76.0371 51.2871C75.8913 51.6608 75.6908 52.0482 75.4355 52.4492C75.1895 52.8503 74.875 53.2285 74.4922 53.584C74.1094 53.9303 73.6491 54.2174 73.1113 54.4453C72.5736 54.6641 71.9355 54.7734 71.1973 54.7734C70.2585 54.7734 69.4062 54.5866 68.6406 54.2129C67.8841 53.8301 67.2826 53.306 66.8359 52.6406C66.3984 51.9661 66.1797 51.2005 66.1797 50.3438C66.1797 49.569 66.3255 48.8809 66.6172 48.2793C66.9089 47.6777 67.3372 47.1719 67.9023 46.7617C68.4766 46.3424 69.1921 46.028 70.0488 45.8184C70.9056 45.5996 71.8991 45.4902 73.0293 45.4902H75.3125ZM85.6484 42.8652V54.5H81.7109V39.707H85.4023L85.6484 42.8652ZM85.0742 46.584H84.0078C84.0078 45.4902 84.1491 44.5059 84.4316 43.6309C84.7142 42.7467 85.1107 41.9948 85.6211 41.375C86.1315 40.7461 86.7376 40.2676 87.4395 39.9395C88.1504 39.6022 88.9434 39.4336 89.8184 39.4336C90.5111 39.4336 91.1445 39.5339 91.7188 39.7344C92.293 39.9349 92.7852 40.2539 93.1953 40.6914C93.6146 41.1289 93.9336 41.7077 94.1523 42.4277C94.3802 43.1478 94.4941 44.0273 94.4941 45.0664V54.5H90.5293V45.0527C90.5293 44.3965 90.4382 43.8861 90.2559 43.5215C90.0736 43.1569 89.8047 42.9017 89.4492 42.7559C89.1029 42.6009 88.6745 42.5234 88.1641 42.5234C87.6354 42.5234 87.1751 42.6283 86.7832 42.8379C86.4004 43.0475 86.0814 43.3392 85.8262 43.7129C85.5801 44.0775 85.3932 44.5059 85.2656 44.998C85.138 45.4902 85.0742 46.0189 85.0742 46.584ZM103.6 51.6973C104.083 51.6973 104.511 51.6061 104.885 51.4238C105.258 51.2324 105.55 50.9681 105.76 50.6309C105.979 50.2845 106.092 49.8789 106.102 49.4141H109.807C109.798 50.4531 109.52 51.3783 108.973 52.1895C108.426 52.9915 107.692 53.625 106.771 54.0898C105.851 54.5456 104.821 54.7734 103.682 54.7734C102.533 54.7734 101.531 54.582 100.674 54.1992C99.8262 53.8164 99.1198 53.2878 98.5547 52.6133C97.9896 51.9297 97.5658 51.1367 97.2832 50.2344C97.0007 49.3229 96.8594 48.3477 96.8594 47.3086V46.9121C96.8594 45.8639 97.0007 44.8887 97.2832 43.9863C97.5658 43.0749 97.9896 42.2819 98.5547 41.6074C99.1198 40.9238 99.8262 40.3906 100.674 40.0078C101.521 39.625 102.515 39.4336 103.654 39.4336C104.867 39.4336 105.928 39.666 106.84 40.1309C107.76 40.5957 108.48 41.2611 109 42.127C109.529 42.9837 109.798 44 109.807 45.1758H106.102C106.092 44.6836 105.988 44.237 105.787 43.8359C105.596 43.4349 105.313 43.1159 104.939 42.8789C104.575 42.6328 104.124 42.5098 103.586 42.5098C103.012 42.5098 102.542 42.6328 102.178 42.8789C101.813 43.1159 101.531 43.444 101.33 43.8633C101.13 44.2734 100.988 44.7428 100.906 45.2715C100.833 45.791 100.797 46.3379 100.797 46.9121V47.3086C100.797 47.8828 100.833 48.4342 100.906 48.9629C100.979 49.4915 101.116 49.9609 101.316 50.3711C101.526 50.7812 101.813 51.1048 102.178 51.3418C102.542 51.5788 103.016 51.6973 103.6 51.6973ZM118.898 54.7734C117.75 54.7734 116.72 54.5911 115.809 54.2266C114.897 53.8529 114.122 53.3379 113.484 52.6816C112.855 52.0254 112.372 51.2643 112.035 50.3984C111.698 49.5234 111.529 48.5938 111.529 47.6094V47.0625C111.529 45.9414 111.689 44.916 112.008 43.9863C112.327 43.0566 112.783 42.25 113.375 41.5664C113.977 40.8828 114.706 40.3587 115.562 39.9941C116.419 39.6204 117.385 39.4336 118.461 39.4336C119.509 39.4336 120.439 39.6068 121.25 39.9531C122.061 40.2995 122.74 40.7917 123.287 41.4297C123.843 42.0677 124.262 42.8333 124.545 43.7266C124.827 44.6107 124.969 45.5951 124.969 46.6797V48.3203H113.211V45.6953H121.1V45.3945C121.1 44.8477 120.999 44.36 120.799 43.9316C120.607 43.4941 120.316 43.1478 119.924 42.8926C119.532 42.6374 119.031 42.5098 118.42 42.5098C117.9 42.5098 117.454 42.6237 117.08 42.8516C116.706 43.0794 116.401 43.3984 116.164 43.8086C115.936 44.2188 115.763 44.7018 115.645 45.2578C115.535 45.8047 115.48 46.4062 115.48 47.0625V47.6094C115.48 48.2018 115.562 48.7487 115.727 49.25C115.9 49.7513 116.141 50.1842 116.451 50.5488C116.77 50.9134 117.153 51.196 117.6 51.3965C118.055 51.597 118.57 51.6973 119.145 51.6973C119.855 51.6973 120.516 51.5605 121.127 51.2871C121.747 51.0046 122.28 50.5807 122.727 50.0156L124.641 52.0938C124.331 52.5404 123.907 52.9688 123.369 53.3789C122.84 53.7891 122.202 54.1263 121.455 54.3906C120.708 54.6458 119.855 54.7734 118.898 54.7734Z" fill="white"/>
<rect x="295" y="25" width="40" height="40" rx="20" fill="#151A20"/>
<path d="M315 48.6C317.107 48.6 318.821 46.9854 318.821 45C318.821 43.0146 317.107 41.4 315 41.4C312.893 41.4 311.179 43.0146 311.179 45C311.179 46.9854 312.893 48.6 315 48.6ZM315 43.2C316.035 43.2 316.91 44.0244 316.91 45C316.91 45.9756 316.035 46.8 315 46.8C313.965 46.8 313.09 45.9756 313.09 45C313.09 44.0244 313.965 43.2 315 43.2Z" fill="white"/>
<path d="M306.256 48.7224L307.211 50.2794C307.718 51.1047 308.939 51.4143 309.818 50.9364L310.324 50.661C310.876 51.0706 311.486 51.4073 312.135 51.6618V52.2C312.135 53.1927 312.991 54 314.045 54H315.955C317.009 54 317.865 53.1927 317.865 52.2V51.6618C318.514 51.4072 319.123 51.0709 319.676 50.6619L320.182 50.9373C321.063 51.4143 322.281 51.1065 322.79 50.2794L323.744 48.7233C323.997 48.3099 324.066 47.8188 323.935 47.3578C323.804 46.8967 323.484 46.5035 323.046 46.2645L322.564 46.0017C322.666 45.338 322.666 44.6638 322.564 44.0001L323.046 43.7373C323.484 43.4981 323.804 43.1049 323.935 42.6439C324.066 42.183 323.997 41.6919 323.744 41.2785L322.79 39.7224C322.283 38.8944 321.063 38.5839 320.182 39.0636L319.676 39.339C319.124 38.9294 318.514 38.5927 317.865 38.3382V37.8C317.865 36.8073 317.009 36 315.955 36H314.045C312.991 36 312.135 36.8073 312.135 37.8V38.3382C311.486 38.5928 310.877 38.9291 310.324 39.3381L309.818 39.0627C308.936 38.5848 307.717 38.8944 307.21 39.7215L306.256 41.2776C306.003 41.691 305.934 42.1821 306.065 42.6431C306.196 43.1042 306.516 43.4974 306.954 43.7364L307.436 43.9992C307.333 44.6626 307.333 45.3365 307.436 45.9999L306.954 46.2627C306.516 46.5021 306.196 46.8954 306.065 47.3565C305.934 47.8176 306.003 48.3088 306.256 48.7224ZM309.433 46.2402C309.325 45.8346 309.27 45.4181 309.269 45C309.269 44.5842 309.325 44.1666 309.432 43.7598C309.482 43.5702 309.465 43.3703 309.384 43.1903C309.303 43.0104 309.162 42.8602 308.983 42.7626L307.91 42.1776L308.863 40.6215L309.957 41.2173C310.135 41.3145 310.342 41.3547 310.547 41.3316C310.751 41.3086 310.943 41.2236 311.092 41.0895C311.738 40.5104 312.517 40.0795 313.369 39.8304C313.564 39.7741 313.736 39.6601 313.857 39.5053C313.979 39.3504 314.045 39.1627 314.045 38.97V37.8H315.955V38.97C315.955 39.1627 316.021 39.3504 316.143 39.5053C316.264 39.6601 316.436 39.7741 316.631 39.8304C317.483 40.0799 318.262 40.5107 318.908 41.0895C319.058 41.2234 319.249 41.3081 319.453 41.3312C319.658 41.3542 319.865 41.3143 320.043 41.2173L321.136 40.6224L322.091 42.1785L321.017 42.7626C320.838 42.8604 320.697 43.0105 320.616 43.1904C320.535 43.3703 320.518 43.5702 320.568 43.7598C320.675 44.1666 320.731 44.5842 320.731 45C320.731 45.4149 320.675 45.8325 320.567 46.2402C320.517 46.4299 320.534 46.6298 320.615 46.8097C320.696 46.9897 320.838 47.1398 321.017 47.2374L322.09 47.8215L321.137 49.3776L320.043 48.7827C319.865 48.6853 319.658 48.6451 319.453 48.6682C319.248 48.6912 319.057 48.7763 318.908 48.9105C318.262 49.4896 317.483 49.9205 316.631 50.1696C316.436 50.2259 316.264 50.3399 316.143 50.4947C316.021 50.6496 315.955 50.8373 315.955 51.03L315.957 52.2H314.045V51.03C314.045 50.8373 313.979 50.6496 313.857 50.4947C313.736 50.3399 313.564 50.2259 313.369 50.1696C312.517 49.9201 311.738 49.4893 311.092 48.9105C310.943 48.7759 310.752 48.6906 310.547 48.6677C310.342 48.6448 310.135 48.6855 309.957 48.7836L308.864 49.3794L307.909 47.8233L308.983 47.2374C309.162 47.1398 309.304 46.9897 309.385 46.8097C309.466 46.6298 309.483 46.4299 309.433 46.2402Z" fill="white"/>
<path d="M141.183 132H138.734L138.75 130.735H141.183C142.021 130.735 142.719 130.561 143.278 130.211C143.836 129.857 144.255 129.363 144.535 128.729C144.819 128.09 144.962 127.343 144.962 126.489V125.772C144.962 125.101 144.881 124.505 144.72 123.984C144.559 123.457 144.323 123.014 144.011 122.654C143.699 122.289 143.318 122.012 142.867 121.824C142.421 121.636 141.908 121.542 141.328 121.542H138.686V120.27H141.328C142.096 120.27 142.797 120.398 143.431 120.656C144.065 120.909 144.61 121.277 145.066 121.76C145.528 122.238 145.883 122.818 146.13 123.5C146.377 124.177 146.5 124.94 146.5 125.788V126.489C146.5 127.338 146.377 128.103 146.13 128.785C145.883 129.462 145.526 130.04 145.058 130.518C144.596 130.996 144.038 131.364 143.383 131.621C142.733 131.874 142 132 141.183 132ZM139.564 120.27V132H138.009V120.27H139.564ZM150.231 123.283V132H148.732V123.283H150.231ZM148.619 120.97C148.619 120.729 148.692 120.525 148.837 120.358C148.987 120.192 149.208 120.108 149.498 120.108C149.782 120.108 150 120.192 150.15 120.358C150.306 120.525 150.384 120.729 150.384 120.97C150.384 121.201 150.306 121.4 150.15 121.567C150 121.728 149.782 121.808 149.498 121.808C149.208 121.808 148.987 121.728 148.837 121.567C148.692 121.4 148.619 121.201 148.619 120.97ZM157.764 130.51V126.022C157.764 125.678 157.694 125.38 157.554 125.128C157.42 124.87 157.216 124.671 156.942 124.531C156.668 124.392 156.33 124.322 155.927 124.322C155.551 124.322 155.22 124.386 154.936 124.515C154.656 124.644 154.436 124.813 154.275 125.023C154.119 125.232 154.042 125.458 154.042 125.7H152.551C152.551 125.388 152.632 125.079 152.793 124.773C152.954 124.467 153.185 124.19 153.486 123.943C153.792 123.691 154.157 123.492 154.581 123.347C155.011 123.197 155.489 123.122 156.015 123.122C156.649 123.122 157.208 123.229 157.691 123.444C158.18 123.659 158.561 123.984 158.835 124.419C159.115 124.848 159.254 125.388 159.254 126.038V130.099C159.254 130.389 159.278 130.698 159.327 131.025C159.38 131.353 159.458 131.635 159.56 131.871V132H158.005C157.93 131.828 157.871 131.6 157.828 131.315C157.785 131.025 157.764 130.757 157.764 130.51ZM158.021 126.715L158.038 127.762H156.531C156.107 127.762 155.728 127.797 155.395 127.867C155.062 127.931 154.783 128.031 154.557 128.165C154.332 128.299 154.16 128.469 154.042 128.673C153.923 128.871 153.864 129.105 153.864 129.374C153.864 129.647 153.926 129.897 154.05 130.123C154.173 130.348 154.358 130.528 154.605 130.663C154.858 130.792 155.167 130.856 155.532 130.856C155.989 130.856 156.391 130.759 156.74 130.566C157.09 130.373 157.366 130.136 157.57 129.857C157.78 129.578 157.893 129.306 157.909 129.043L158.545 129.76C158.508 129.986 158.406 130.236 158.239 130.51C158.073 130.783 157.85 131.047 157.57 131.299C157.296 131.546 156.969 131.753 156.587 131.919C156.211 132.081 155.787 132.161 155.314 132.161C154.724 132.161 154.205 132.046 153.76 131.815C153.319 131.584 152.975 131.275 152.728 130.888C152.487 130.496 152.366 130.058 152.366 129.575C152.366 129.108 152.457 128.697 152.64 128.342C152.822 127.982 153.085 127.684 153.429 127.448C153.773 127.206 154.187 127.024 154.67 126.9C155.153 126.777 155.693 126.715 156.289 126.715H158.021ZM167.246 123.283H168.6V131.815C168.6 132.583 168.444 133.238 168.133 133.781C167.821 134.323 167.386 134.734 166.827 135.013C166.274 135.298 165.635 135.44 164.91 135.44C164.609 135.44 164.255 135.392 163.846 135.295C163.444 135.204 163.046 135.045 162.654 134.82C162.267 134.6 161.942 134.302 161.679 133.926L162.461 133.039C162.826 133.48 163.207 133.786 163.605 133.958C164.008 134.13 164.405 134.216 164.797 134.216C165.27 134.216 165.678 134.127 166.022 133.95C166.365 133.772 166.631 133.509 166.819 133.16C167.013 132.816 167.109 132.392 167.109 131.887V125.2L167.246 123.283ZM161.244 127.738V127.569C161.244 126.903 161.322 126.299 161.478 125.756C161.639 125.208 161.867 124.738 162.163 124.346C162.463 123.954 162.826 123.653 163.25 123.444C163.675 123.229 164.153 123.122 164.684 123.122C165.232 123.122 165.71 123.218 166.118 123.412C166.532 123.6 166.881 123.876 167.166 124.241C167.456 124.601 167.684 125.036 167.851 125.547C168.017 126.057 168.133 126.634 168.197 127.279V128.02C168.138 128.659 168.022 129.234 167.851 129.744C167.684 130.254 167.456 130.689 167.166 131.049C166.881 131.409 166.532 131.686 166.118 131.879C165.705 132.067 165.221 132.161 164.668 132.161C164.147 132.161 163.675 132.051 163.25 131.831C162.831 131.611 162.471 131.302 162.171 130.904C161.87 130.507 161.639 130.04 161.478 129.502C161.322 128.96 161.244 128.372 161.244 127.738ZM162.735 127.569V127.738C162.735 128.173 162.778 128.581 162.864 128.963C162.955 129.344 163.092 129.68 163.274 129.97C163.462 130.26 163.701 130.488 163.991 130.655C164.281 130.816 164.628 130.896 165.031 130.896C165.525 130.896 165.933 130.792 166.255 130.582C166.578 130.373 166.833 130.096 167.021 129.752C167.214 129.408 167.365 129.035 167.472 128.632V126.691C167.413 126.395 167.322 126.111 167.198 125.837C167.08 125.557 166.924 125.31 166.731 125.095C166.543 124.875 166.309 124.701 166.03 124.572C165.75 124.443 165.423 124.378 165.047 124.378C164.639 124.378 164.287 124.464 163.991 124.636C163.701 124.803 163.462 125.034 163.274 125.329C163.092 125.619 162.955 125.958 162.864 126.344C162.778 126.726 162.735 127.134 162.735 127.569ZM172.354 125.144V132H170.864V123.283H172.274L172.354 125.144ZM172 127.311L171.379 127.287C171.385 126.691 171.473 126.14 171.645 125.635C171.817 125.125 172.059 124.682 172.37 124.306C172.682 123.93 173.052 123.64 173.482 123.436C173.917 123.226 174.398 123.122 174.924 123.122C175.354 123.122 175.741 123.181 176.084 123.299C176.428 123.412 176.721 123.594 176.963 123.847C177.21 124.099 177.398 124.427 177.527 124.83C177.656 125.227 177.72 125.713 177.72 126.288V132H176.221V126.272C176.221 125.815 176.154 125.45 176.02 125.176C175.886 124.897 175.69 124.695 175.432 124.572C175.174 124.443 174.857 124.378 174.481 124.378C174.111 124.378 173.772 124.456 173.466 124.612C173.165 124.768 172.905 124.983 172.685 125.257C172.47 125.531 172.301 125.845 172.177 126.199C172.059 126.548 172 126.919 172 127.311ZM179.589 127.738V127.553C179.589 126.924 179.68 126.342 179.863 125.804C180.046 125.262 180.309 124.792 180.653 124.395C180.996 123.992 181.413 123.68 181.901 123.46C182.39 123.234 182.938 123.122 183.545 123.122C184.157 123.122 184.708 123.234 185.197 123.46C185.691 123.68 186.11 123.992 186.453 124.395C186.802 124.792 187.068 125.262 187.251 125.804C187.434 126.342 187.525 126.924 187.525 127.553V127.738C187.525 128.366 187.434 128.949 187.251 129.486C187.068 130.023 186.802 130.493 186.453 130.896C186.11 131.294 185.693 131.605 185.205 131.831C184.721 132.051 184.173 132.161 183.561 132.161C182.949 132.161 182.398 132.051 181.909 131.831C181.421 131.605 181.002 131.294 180.653 130.896C180.309 130.493 180.046 130.023 179.863 129.486C179.68 128.949 179.589 128.366 179.589 127.738ZM181.08 127.553V127.738C181.08 128.173 181.131 128.584 181.233 128.971C181.335 129.352 181.488 129.69 181.692 129.986C181.901 130.281 182.162 130.515 182.473 130.687C182.785 130.853 183.147 130.937 183.561 130.937C183.969 130.937 184.326 130.853 184.633 130.687C184.944 130.515 185.202 130.281 185.406 129.986C185.61 129.69 185.763 129.352 185.865 128.971C185.973 128.584 186.026 128.173 186.026 127.738V127.553C186.026 127.123 185.973 126.718 185.865 126.336C185.763 125.949 185.607 125.608 185.398 125.313C185.194 125.012 184.936 124.776 184.625 124.604C184.318 124.432 183.958 124.346 183.545 124.346C183.137 124.346 182.777 124.432 182.465 124.604C182.159 124.776 181.901 125.012 181.692 125.313C181.488 125.608 181.335 125.949 181.233 126.336C181.131 126.718 181.08 127.123 181.08 127.553ZM194.47 129.688C194.47 129.473 194.421 129.274 194.325 129.092C194.233 128.904 194.043 128.734 193.753 128.584C193.468 128.428 193.038 128.294 192.464 128.181C191.98 128.079 191.542 127.958 191.15 127.819C190.764 127.679 190.433 127.51 190.159 127.311C189.891 127.112 189.684 126.879 189.539 126.61C189.394 126.342 189.322 126.027 189.322 125.667C189.322 125.324 189.397 124.999 189.547 124.693C189.703 124.386 189.92 124.115 190.2 123.879C190.484 123.643 190.825 123.457 191.223 123.323C191.62 123.189 192.063 123.122 192.552 123.122C193.25 123.122 193.847 123.245 194.341 123.492C194.835 123.739 195.214 124.07 195.477 124.483C195.74 124.891 195.872 125.345 195.872 125.845H194.381C194.381 125.603 194.309 125.369 194.164 125.144C194.024 124.913 193.817 124.722 193.543 124.572C193.275 124.421 192.944 124.346 192.552 124.346C192.139 124.346 191.803 124.411 191.545 124.54C191.293 124.663 191.107 124.822 190.989 125.015C190.876 125.208 190.82 125.412 190.82 125.627C190.82 125.788 190.847 125.933 190.901 126.062C190.96 126.186 191.062 126.301 191.207 126.409C191.352 126.511 191.556 126.607 191.819 126.699C192.082 126.79 192.418 126.881 192.826 126.973C193.541 127.134 194.129 127.327 194.591 127.553C195.052 127.778 195.396 128.055 195.622 128.383C195.847 128.71 195.96 129.108 195.96 129.575C195.96 129.956 195.88 130.305 195.719 130.622C195.563 130.939 195.334 131.213 195.034 131.444C194.738 131.67 194.384 131.847 193.97 131.976C193.562 132.099 193.103 132.161 192.593 132.161C191.824 132.161 191.175 132.024 190.643 131.75C190.111 131.476 189.708 131.122 189.434 130.687C189.16 130.252 189.023 129.792 189.023 129.309H190.522C190.543 129.717 190.662 130.042 190.876 130.284C191.091 130.52 191.354 130.689 191.666 130.792C191.978 130.888 192.286 130.937 192.593 130.937C193.001 130.937 193.342 130.883 193.616 130.775C193.895 130.668 194.107 130.52 194.252 130.332C194.397 130.144 194.47 129.929 194.47 129.688ZM201.568 123.283V124.427H196.854V123.283H201.568ZM198.45 121.164H199.94V129.841C199.94 130.136 199.986 130.359 200.077 130.51C200.168 130.66 200.287 130.759 200.432 130.808C200.577 130.856 200.732 130.88 200.899 130.88C201.022 130.88 201.151 130.869 201.286 130.848C201.425 130.821 201.53 130.8 201.6 130.783L201.608 132C201.49 132.038 201.334 132.073 201.141 132.105C200.953 132.142 200.724 132.161 200.456 132.161C200.091 132.161 199.755 132.089 199.449 131.944C199.143 131.799 198.898 131.557 198.716 131.219C198.538 130.875 198.45 130.413 198.45 129.833V121.164ZM204.935 123.283V132H203.437V123.283H204.935ZM203.324 120.97C203.324 120.729 203.396 120.525 203.542 120.358C203.692 120.192 203.912 120.108 204.202 120.108C204.487 120.108 204.704 120.192 204.855 120.358C205.01 120.525 205.088 120.729 205.088 120.97C205.088 121.201 205.01 121.4 204.855 121.567C204.704 121.728 204.487 121.808 204.202 121.808C203.912 121.808 203.692 121.728 203.542 121.567C203.396 121.4 203.324 121.201 203.324 120.97ZM210.817 130.937C211.171 130.937 211.499 130.864 211.8 130.719C212.1 130.574 212.347 130.375 212.541 130.123C212.734 129.865 212.844 129.572 212.871 129.245H214.289C214.262 129.76 214.088 130.241 213.765 130.687C213.448 131.127 213.032 131.484 212.517 131.758C212.001 132.027 211.434 132.161 210.817 132.161C210.161 132.161 209.589 132.046 209.101 131.815C208.617 131.584 208.214 131.267 207.892 130.864C207.575 130.461 207.336 129.999 207.175 129.478C207.019 128.952 206.941 128.396 206.941 127.811V127.472C206.941 126.887 207.019 126.333 207.175 125.813C207.336 125.286 207.575 124.822 207.892 124.419C208.214 124.016 208.617 123.699 209.101 123.468C209.589 123.237 210.161 123.122 210.817 123.122C211.499 123.122 212.095 123.261 212.605 123.541C213.115 123.814 213.516 124.19 213.806 124.668C214.101 125.141 214.262 125.678 214.289 126.28H212.871C212.844 125.92 212.742 125.595 212.565 125.305C212.393 125.015 212.157 124.784 211.856 124.612C211.561 124.435 211.214 124.346 210.817 124.346C210.36 124.346 209.976 124.438 209.665 124.62C209.358 124.797 209.114 125.039 208.931 125.345C208.754 125.646 208.625 125.982 208.545 126.352C208.469 126.718 208.432 127.091 208.432 127.472V127.811C208.432 128.192 208.469 128.568 208.545 128.938C208.62 129.309 208.746 129.645 208.923 129.946C209.106 130.246 209.35 130.488 209.656 130.671C209.968 130.848 210.355 130.937 210.817 130.937ZM221.041 129.688C221.041 129.473 220.992 129.274 220.896 129.092C220.804 128.904 220.614 128.734 220.323 128.584C220.039 128.428 219.609 128.294 219.034 128.181C218.551 128.079 218.113 127.958 217.721 127.819C217.334 127.679 217.004 127.51 216.73 127.311C216.462 127.112 216.255 126.879 216.11 126.61C215.965 126.342 215.892 126.027 215.892 125.667C215.892 125.324 215.968 124.999 216.118 124.693C216.274 124.386 216.491 124.115 216.771 123.879C217.055 123.643 217.396 123.457 217.794 123.323C218.191 123.189 218.634 123.122 219.123 123.122C219.821 123.122 220.417 123.245 220.912 123.492C221.406 123.739 221.784 124.07 222.048 124.483C222.311 124.891 222.442 125.345 222.442 125.845H220.952C220.952 125.603 220.879 125.369 220.734 125.144C220.595 124.913 220.388 124.722 220.114 124.572C219.845 124.421 219.515 124.346 219.123 124.346C218.709 124.346 218.374 124.411 218.116 124.54C217.864 124.663 217.678 124.822 217.56 125.015C217.447 125.208 217.391 125.412 217.391 125.627C217.391 125.788 217.418 125.933 217.471 126.062C217.531 126.186 217.633 126.301 217.778 126.409C217.923 126.511 218.127 126.607 218.39 126.699C218.653 126.79 218.989 126.881 219.397 126.973C220.111 127.134 220.699 127.327 221.161 127.553C221.623 127.778 221.967 128.055 222.193 128.383C222.418 128.71 222.531 129.108 222.531 129.575C222.531 129.956 222.45 130.305 222.289 130.622C222.134 130.939 221.905 131.213 221.604 131.444C221.309 131.67 220.955 131.847 220.541 131.976C220.133 132.099 219.674 132.161 219.163 132.161C218.395 132.161 217.745 132.024 217.214 131.75C216.682 131.476 216.279 131.122 216.005 130.687C215.731 130.252 215.594 129.792 215.594 129.309H217.093C217.114 129.717 217.232 130.042 217.447 130.284C217.662 130.52 217.925 130.689 218.237 130.792C218.548 130.888 218.857 130.937 219.163 130.937C219.572 130.937 219.913 130.883 220.187 130.775C220.466 130.668 220.678 130.52 220.823 130.332C220.968 130.144 221.041 129.929 221.041 129.688Z" fill="#C3D9E1"/>
<path d="M153.413 190.918V195H127.82V191.428L140.63 177.168C142.205 175.413 143.423 173.927 144.282 172.71C145.16 171.475 145.768 170.374 146.108 169.407C146.466 168.422 146.646 167.419 146.646 166.399C146.646 165.11 146.377 163.946 145.84 162.908C145.321 161.851 144.551 161.01 143.53 160.383C142.51 159.757 141.274 159.443 139.824 159.443C138.088 159.443 136.637 159.784 135.474 160.464C134.328 161.126 133.468 162.057 132.896 163.257C132.323 164.456 132.036 165.835 132.036 167.393H127.068C127.068 165.19 127.551 163.176 128.518 161.35C129.485 159.524 130.917 158.074 132.815 157C134.713 155.907 137.049 155.361 139.824 155.361C142.295 155.361 144.408 155.8 146.162 156.677C147.917 157.537 149.259 158.754 150.19 160.33C151.139 161.887 151.614 163.713 151.614 165.808C151.614 166.954 151.417 168.118 151.023 169.299C150.647 170.463 150.119 171.627 149.438 172.791C148.776 173.954 147.997 175.1 147.102 176.228C146.225 177.356 145.285 178.466 144.282 179.558L133.809 190.918H153.413ZM159.348 192.368C159.348 191.527 159.608 190.819 160.127 190.247C160.664 189.656 161.434 189.36 162.437 189.36C163.439 189.36 164.2 189.656 164.719 190.247C165.256 190.819 165.525 191.527 165.525 192.368C165.525 193.192 165.256 193.89 164.719 194.463C164.2 195.036 163.439 195.322 162.437 195.322C161.434 195.322 160.664 195.036 160.127 194.463C159.608 193.89 159.348 193.192 159.348 192.368ZM199.658 181.841V185.923H171.406V182.996L188.916 155.898H192.971L188.621 163.74L177.046 181.841H199.658ZM194.207 155.898V195H189.238V155.898H194.207ZM210.642 155.898V195H205.459V155.898H210.642ZM234.248 155.898L218 174.133L208.87 183.613L208.01 178.081L214.885 170.508L228.018 155.898H234.248ZM229.253 195L214.778 175.933L217.866 171.824L235.43 195H229.253Z" fill="#E80054"/>
<path d="M151.383 232V223.424C150.978 223.712 150.492 223.973 149.927 224.208V222.976C150.322 222.645 150.668 222.299 150.967 221.936C151.266 221.573 151.511 221.2 151.703 220.816H152.391C152.583 221.2 152.823 221.573 153.111 221.936C153.41 222.299 153.756 222.645 154.151 222.976V224.208C153.874 224.101 153.612 223.984 153.367 223.856C153.132 223.728 152.914 223.589 152.711 223.44V232H151.383ZM162.406 230.789H162.555C163.388 230.789 164.065 230.672 164.586 230.438C165.107 230.203 165.508 229.888 165.789 229.492C166.07 229.096 166.263 228.651 166.367 228.156C166.471 227.656 166.523 227.143 166.523 226.617V224.875C166.523 224.359 166.464 223.901 166.344 223.5C166.229 223.099 166.068 222.763 165.859 222.492C165.656 222.221 165.424 222.016 165.164 221.875C164.904 221.734 164.628 221.664 164.336 221.664C164.003 221.664 163.703 221.732 163.438 221.867C163.177 221.997 162.956 222.182 162.773 222.422C162.596 222.661 162.461 222.943 162.367 223.266C162.273 223.589 162.227 223.94 162.227 224.32C162.227 224.659 162.268 224.987 162.352 225.305C162.435 225.622 162.562 225.909 162.734 226.164C162.906 226.419 163.12 226.622 163.375 226.773C163.635 226.919 163.94 226.992 164.289 226.992C164.612 226.992 164.914 226.93 165.195 226.805C165.482 226.674 165.734 226.5 165.953 226.281C166.177 226.057 166.354 225.805 166.484 225.523C166.62 225.242 166.698 224.948 166.719 224.641H167.406C167.406 225.073 167.32 225.5 167.148 225.922C166.982 226.339 166.747 226.719 166.445 227.062C166.143 227.406 165.789 227.682 165.383 227.891C164.977 228.094 164.534 228.195 164.055 228.195C163.492 228.195 163.005 228.086 162.594 227.867C162.182 227.648 161.844 227.357 161.578 226.992C161.318 226.628 161.122 226.221 160.992 225.773C160.867 225.32 160.805 224.862 160.805 224.398C160.805 223.857 160.88 223.349 161.031 222.875C161.182 222.401 161.406 221.984 161.703 221.625C162 221.26 162.367 220.977 162.805 220.773C163.247 220.57 163.758 220.469 164.336 220.469C164.987 220.469 165.542 220.599 166 220.859C166.458 221.12 166.831 221.469 167.117 221.906C167.409 222.344 167.622 222.836 167.758 223.383C167.893 223.93 167.961 224.492 167.961 225.07V225.594C167.961 226.182 167.922 226.781 167.844 227.391C167.771 227.995 167.628 228.573 167.414 229.125C167.206 229.677 166.901 230.172 166.5 230.609C166.099 231.042 165.576 231.385 164.93 231.641C164.289 231.891 163.497 232.016 162.555 232.016H162.406V230.789ZM177.422 230.812V232H169.977V230.961L173.703 226.812C174.161 226.302 174.516 225.87 174.766 225.516C175.021 225.156 175.198 224.836 175.297 224.555C175.401 224.268 175.453 223.977 175.453 223.68C175.453 223.305 175.375 222.966 175.219 222.664C175.068 222.357 174.844 222.112 174.547 221.93C174.25 221.747 173.891 221.656 173.469 221.656C172.964 221.656 172.542 221.755 172.203 221.953C171.87 222.146 171.62 222.417 171.453 222.766C171.286 223.115 171.203 223.516 171.203 223.969H169.758C169.758 223.328 169.898 222.742 170.18 222.211C170.461 221.68 170.878 221.258 171.43 220.945C171.982 220.628 172.661 220.469 173.469 220.469C174.188 220.469 174.802 220.596 175.312 220.852C175.823 221.102 176.214 221.456 176.484 221.914C176.76 222.367 176.898 222.898 176.898 223.508C176.898 223.841 176.841 224.18 176.727 224.523C176.617 224.862 176.464 225.201 176.266 225.539C176.073 225.878 175.846 226.211 175.586 226.539C175.331 226.867 175.057 227.19 174.766 227.508L171.719 230.812H177.422ZM179.148 231.234C179.148 230.99 179.224 230.784 179.375 230.617C179.531 230.445 179.755 230.359 180.047 230.359C180.339 230.359 180.56 230.445 180.711 230.617C180.867 230.784 180.945 230.99 180.945 231.234C180.945 231.474 180.867 231.677 180.711 231.844C180.56 232.01 180.339 232.094 180.047 232.094C179.755 232.094 179.531 232.01 179.375 231.844C179.224 231.677 179.148 231.474 179.148 231.234ZM190.328 225.406V227.141C190.328 228.073 190.245 228.859 190.078 229.5C189.911 230.141 189.672 230.656 189.359 231.047C189.047 231.438 188.669 231.721 188.227 231.898C187.789 232.07 187.294 232.156 186.742 232.156C186.305 232.156 185.901 232.102 185.531 231.992C185.161 231.883 184.828 231.708 184.531 231.469C184.24 231.224 183.99 230.906 183.781 230.516C183.573 230.125 183.414 229.651 183.305 229.094C183.195 228.536 183.141 227.885 183.141 227.141V225.406C183.141 224.474 183.224 223.693 183.391 223.062C183.562 222.432 183.805 221.927 184.117 221.547C184.43 221.161 184.805 220.885 185.242 220.719C185.685 220.552 186.18 220.469 186.727 220.469C187.169 220.469 187.576 220.523 187.945 220.633C188.32 220.737 188.654 220.906 188.945 221.141C189.237 221.37 189.484 221.677 189.688 222.062C189.896 222.443 190.055 222.909 190.164 223.461C190.273 224.013 190.328 224.661 190.328 225.406ZM188.875 227.375V225.164C188.875 224.654 188.844 224.206 188.781 223.82C188.724 223.43 188.638 223.096 188.523 222.82C188.409 222.544 188.263 222.32 188.086 222.148C187.914 221.977 187.714 221.852 187.484 221.773C187.26 221.69 187.008 221.648 186.727 221.648C186.383 221.648 186.078 221.714 185.812 221.844C185.547 221.969 185.323 222.169 185.141 222.445C184.964 222.721 184.828 223.083 184.734 223.531C184.641 223.979 184.594 224.523 184.594 225.164V227.375C184.594 227.885 184.622 228.336 184.68 228.727C184.742 229.117 184.833 229.456 184.953 229.742C185.073 230.023 185.219 230.255 185.391 230.438C185.562 230.62 185.76 230.755 185.984 230.844C186.214 230.927 186.466 230.969 186.742 230.969C187.096 230.969 187.406 230.901 187.672 230.766C187.938 230.63 188.159 230.419 188.336 230.133C188.518 229.841 188.654 229.469 188.742 229.016C188.831 228.557 188.875 228.01 188.875 227.375ZM199.641 230.812V232H192.195V230.961L195.922 226.812C196.38 226.302 196.734 225.87 196.984 225.516C197.24 225.156 197.417 224.836 197.516 224.555C197.62 224.268 197.672 223.977 197.672 223.68C197.672 223.305 197.594 222.966 197.438 222.664C197.286 222.357 197.062 222.112 196.766 221.93C196.469 221.747 196.109 221.656 195.688 221.656C195.182 221.656 194.76 221.755 194.422 221.953C194.089 222.146 193.839 222.417 193.672 222.766C193.505 223.115 193.422 223.516 193.422 223.969H191.977C191.977 223.328 192.117 222.742 192.398 222.211C192.68 221.68 193.096 221.258 193.648 220.945C194.201 220.628 194.88 220.469 195.688 220.469C196.406 220.469 197.021 220.596 197.531 220.852C198.042 221.102 198.432 221.456 198.703 221.914C198.979 222.367 199.117 222.898 199.117 223.508C199.117 223.841 199.06 224.18 198.945 224.523C198.836 224.862 198.682 225.201 198.484 225.539C198.292 225.878 198.065 226.211 197.805 226.539C197.549 226.867 197.276 227.19 196.984 227.508L193.938 230.812H199.641ZM201.062 223.414V222.812C201.062 222.38 201.156 221.987 201.344 221.633C201.531 221.279 201.799 220.995 202.148 220.781C202.497 220.568 202.911 220.461 203.391 220.461C203.88 220.461 204.297 220.568 204.641 220.781C204.99 220.995 205.258 221.279 205.445 221.633C205.633 221.987 205.727 222.38 205.727 222.812V223.414C205.727 223.836 205.633 224.224 205.445 224.578C205.263 224.932 204.997 225.216 204.648 225.43C204.305 225.643 203.891 225.75 203.406 225.75C202.922 225.75 202.503 225.643 202.148 225.43C201.799 225.216 201.531 224.932 201.344 224.578C201.156 224.224 201.062 223.836 201.062 223.414ZM202.148 222.812V223.414C202.148 223.654 202.193 223.88 202.281 224.094C202.375 224.307 202.516 224.482 202.703 224.617C202.891 224.747 203.125 224.812 203.406 224.812C203.688 224.812 203.919 224.747 204.102 224.617C204.284 224.482 204.419 224.307 204.508 224.094C204.596 223.88 204.641 223.654 204.641 223.414V222.812C204.641 222.568 204.594 222.339 204.5 222.125C204.411 221.906 204.273 221.732 204.086 221.602C203.904 221.466 203.672 221.398 203.391 221.398C203.115 221.398 202.883 221.466 202.695 221.602C202.513 221.732 202.375 221.906 202.281 222.125C202.193 222.339 202.148 222.568 202.148 222.812ZM206.602 229.82V229.211C206.602 228.784 206.695 228.393 206.883 228.039C207.07 227.685 207.339 227.401 207.688 227.188C208.036 226.974 208.451 226.867 208.93 226.867C209.419 226.867 209.836 226.974 210.18 227.188C210.529 227.401 210.797 227.685 210.984 228.039C211.172 228.393 211.266 228.784 211.266 229.211V229.82C211.266 230.247 211.172 230.638 210.984 230.992C210.802 231.346 210.536 231.63 210.188 231.844C209.844 232.057 209.43 232.164 208.945 232.164C208.461 232.164 208.044 232.057 207.695 231.844C207.346 231.63 207.076 231.346 206.883 230.992C206.695 230.638 206.602 230.247 206.602 229.82ZM207.688 229.211V229.82C207.688 230.06 207.732 230.289 207.82 230.508C207.914 230.721 208.055 230.896 208.242 231.031C208.43 231.161 208.664 231.227 208.945 231.227C209.227 231.227 209.458 231.161 209.641 231.031C209.828 230.896 209.966 230.721 210.055 230.508C210.143 230.294 210.188 230.065 210.188 229.82V229.211C210.188 228.966 210.141 228.737 210.047 228.523C209.958 228.31 209.82 228.138 209.633 228.008C209.451 227.872 209.216 227.805 208.93 227.805C208.654 227.805 208.422 227.872 208.234 228.008C208.052 228.138 207.914 228.31 207.82 228.523C207.732 228.737 207.688 228.966 207.688 229.211ZM209.289 222.242L203.734 231.133L202.922 230.617L208.477 221.727L209.289 222.242Z" fill="white"/>
<path fill-rule="evenodd" clip-rule="evenodd" d="M83.9131 300.12C79.7961 300.12 76.4586 296.782 76.4586 292.665V262.26C76.4586 258.143 79.7961 254.806 83.9131 254.806C88.0302 254.806 91.3677 258.143 91.3677 262.26V292.665C91.3677 296.782 88.0302 300.12 83.9131 300.12Z" fill="#E80054"/>
<path fill-rule="evenodd" clip-rule="evenodd" d="M59.9396 300.12C55.8226 300.12 52.4851 296.782 52.4851 292.665V279.689C52.4851 275.572 55.8226 272.234 59.9396 272.234C64.0567 272.234 67.3942 275.572 67.3942 279.689V292.665C67.3942 296.782 64.0567 300.12 59.9396 300.12Z" fill="#FFC300"/>
<path fill-rule="evenodd" clip-rule="evenodd" d="M127.143 300.12C123.025 300.12 119.688 296.782 119.688 292.665V255.289C119.688 251.172 123.025 247.834 127.143 247.834C131.26 247.834 134.597 251.172 134.597 255.289V292.665C134.597 296.782 131.26 300.12 127.143 300.12Z" fill="#E80054"/>
<path fill-rule="evenodd" clip-rule="evenodd" d="M103.169 300.12C99.0519 300.12 95.7144 296.782 95.7144 292.665V262.26C95.7144 258.143 99.0519 254.806 103.169 254.806C107.286 254.806 110.624 258.143 110.624 262.26V292.665C110.624 296.782 107.286 300.12 103.169 300.12Z" fill="#FFC300"/>
<path fill-rule="evenodd" clip-rule="evenodd" d="M170.372 300.12C166.255 300.12 162.917 296.782 162.917 292.665V265.746C162.917 261.629 166.255 258.291 170.372 258.291C174.489 258.291 177.827 261.629 177.827 265.746V292.665C177.827 296.782 174.489 300.12 170.372 300.12Z" fill="#E80054"/>
<path fill-rule="evenodd" clip-rule="evenodd" d="M146.398 300.12C142.281 300.12 138.944 296.782 138.944 292.665V276.203C138.944 272.086 142.281 268.749 146.398 268.749C150.515 268.749 153.853 272.086 153.853 276.203V292.665C153.853 296.782 150.515 300.12 146.398 300.12Z" fill="#FFC300"/>
<path fill-rule="evenodd" clip-rule="evenodd" d="M213.602 300.12C209.485 300.12 206.147 296.782 206.147 292.665V258.775C206.147 254.658 209.485 251.32 213.602 251.32C217.719 251.32 221.056 254.658 221.056 258.775V292.665C221.056 296.782 217.719 300.12 213.602 300.12Z" fill="#E80054"/>
<path fill-rule="evenodd" clip-rule="evenodd" d="M189.628 300.12C185.511 300.12 182.173 296.782 182.173 292.665V279.689C182.173 275.572 185.511 272.234 189.628 272.234C193.745 272.234 197.082 275.572 197.082 279.689V292.665C197.082 296.782 193.745 300.12 189.628 300.12Z" fill="#FFC300"/>
<path fill-rule="evenodd" clip-rule="evenodd" d="M256.831 300.12C252.714 300.12 249.377 296.782 249.377 292.665V251.455C249.377 247.338 252.714 244 256.831 244C260.948 244 264.286 247.338 264.286 251.455V292.665C264.286 296.782 260.948 300.12 256.831 300.12Z" fill="#E80054"/>
<path fill-rule="evenodd" clip-rule="evenodd" d="M232.857 300.12C228.74 300.12 225.403 296.782 225.403 292.665V269.232C225.403 265.115 228.74 261.777 232.857 261.777C236.974 261.777 240.312 265.115 240.312 269.232V292.665C240.312 296.782 236.974 300.12 232.857 300.12Z" fill="#FFC300"/>
<path fill-rule="evenodd" clip-rule="evenodd" d="M300.06 300.12C295.848 300.12 292.432 296.705 292.432 292.492L292.432 251.628C292.432 247.415 295.848 244 300.06 244C304.273 244 307.688 247.415 307.688 251.628V292.492C307.688 296.705 304.273 300.12 300.06 300.12Z" fill="#E80054"/>
<path fill-rule="evenodd" clip-rule="evenodd" d="M276.087 300.12C271.874 300.12 268.459 296.705 268.459 292.492L268.459 279.862C268.459 275.649 271.874 272.234 276.087 272.234C280.3 272.234 283.715 275.649 283.715 279.862V292.492C283.715 296.705 280.3 300.12 276.087 300.12Z" fill="#FFC300"/>
</g>
<defs>
<clipPath id="clip0_1_451">
<rect width="360" height="325.12" rx="20" fill="white"/>
</clipPath>
</defs>
</svg>
