<svg width="360" height="479" viewBox="0 0 360 479" fill="none" xmlns="http://www.w3.org/2000/svg">
<g clip-path="url(#clip0_1_169)">
<rect width="360" height="479" rx="20" fill="#0A0D10"/>
<path d="M38.3191 54.6455L31.2782 46.8223H47V43.1777H31.2782L38.3191 35.3545L36 32.7778L25 45L36 57.2222L38.3191 54.6455Z" fill="white"/>
<rect x="295" y="25" width="40" height="40" rx="20" fill="#151A20"/>
<path d="M315 39C316.105 39 317 38.1046 317 37C317 35.8954 316.105 35 315 35C313.895 35 313 35.8954 313 37C313 38.1046 313.895 39 315 39Z" fill="white"/>
<path d="M315 47C316.105 47 317 46.1046 317 45C317 43.8954 316.105 43 315 43C313.895 43 313 43.8954 313 45C313 46.1046 313.895 47 315 47Z" fill="white"/>
<path d="M315 55C316.105 55 317 54.1046 317 53C317 51.8954 316.105 51 315 51C313.895 51 313 51.8954 313 53C313 54.1046 313.895 55 315 55Z" fill="white"/>
<g filter="url(#filter0_d_1_169)">
<path d="M261 195.5C261 240.235 224.735 276.5 180 276.5C135.265 276.5 99 240.235 99 195.5C99 150.765 135.265 114.5 180 114.5C224.735 114.5 261 150.765 261 195.5ZM123.3 195.5C123.3 226.815 148.685 252.2 180 252.2C211.315 252.2 236.7 226.815 236.7 195.5C236.7 164.185 211.315 138.8 180 138.8C148.685 138.8 123.3 164.185 123.3 195.5Z" fill="#151A20"/>
</g>
<path d="M248.85 196.5C255.56 196.5 261.093 201.97 260.09 208.605C258.6 218.469 255.294 228.009 250.304 236.728C243.296 248.977 233.209 259.182 221.042 266.332C208.876 273.483 195.052 277.331 180.941 277.495C166.83 277.659 152.921 274.133 140.592 267.267C128.262 260.401 117.941 250.433 110.649 238.351C103.358 226.268 99.3498 212.491 99.0219 198.382C98.6939 184.274 102.058 170.325 108.78 157.917C113.565 149.084 119.934 141.25 127.535 134.788C132.647 130.442 140.21 132.265 143.744 137.969C147.278 143.674 145.398 151.084 140.575 155.75C136.435 159.756 132.912 164.385 130.146 169.492C125.44 178.177 123.086 187.942 123.315 197.818C123.545 207.693 126.351 217.338 131.455 225.796C136.559 234.253 143.784 241.231 152.414 246.037C161.045 250.843 170.781 253.311 180.659 253.196C190.537 253.081 200.213 250.388 208.73 245.383C217.246 240.377 224.307 233.234 229.213 224.66C232.097 219.619 234.178 214.186 235.403 208.557C236.83 202.001 242.14 196.5 248.85 196.5Z" fill="#3A9745"/>
<path d="M171.293 186.727V188.619L164.421 204.5H160.71L167.583 189.473H158.732V186.727H171.293ZM185.539 194.051V197.127C185.539 198.462 185.397 199.613 185.112 200.582C184.827 201.542 184.416 202.331 183.879 202.95C183.35 203.56 182.719 204.012 181.987 204.305C181.254 204.598 180.441 204.744 179.545 204.744C178.829 204.744 178.162 204.655 177.543 204.476C176.925 204.288 176.368 204 175.871 203.609C175.383 203.218 174.96 202.726 174.602 202.132C174.252 201.53 173.983 200.813 173.796 199.983C173.609 199.153 173.515 198.201 173.515 197.127V194.051C173.515 192.716 173.658 191.573 173.942 190.621C174.235 189.66 174.646 188.875 175.175 188.265C175.712 187.654 176.347 187.207 177.08 186.922C177.812 186.629 178.626 186.482 179.521 186.482C180.237 186.482 180.9 186.576 181.511 186.763C182.129 186.942 182.687 187.223 183.183 187.605C183.68 187.988 184.103 188.48 184.453 189.083C184.803 189.677 185.071 190.389 185.258 191.219C185.445 192.041 185.539 192.985 185.539 194.051ZM182.011 197.591V193.575C182.011 192.932 181.975 192.37 181.901 191.89C181.836 191.41 181.735 191.003 181.596 190.669C181.458 190.328 181.287 190.051 181.083 189.839C180.88 189.628 180.648 189.473 180.388 189.375C180.127 189.278 179.838 189.229 179.521 189.229C179.122 189.229 178.768 189.306 178.459 189.461C178.158 189.616 177.902 189.864 177.69 190.206C177.478 190.539 177.316 190.987 177.202 191.548C177.096 192.102 177.043 192.777 177.043 193.575V197.591C177.043 198.234 177.076 198.799 177.141 199.288C177.214 199.776 177.32 200.195 177.458 200.545C177.604 200.887 177.775 201.167 177.971 201.387C178.174 201.599 178.406 201.753 178.667 201.851C178.935 201.949 179.228 201.998 179.545 201.998C179.936 201.998 180.282 201.92 180.583 201.766C180.892 201.603 181.153 201.351 181.364 201.009C181.584 200.659 181.747 200.203 181.853 199.642C181.958 199.08 182.011 198.396 182.011 197.591ZM187.883 191.084V190.145C187.883 189.469 188.029 188.855 188.322 188.301C188.615 187.748 189.047 187.304 189.616 186.971C190.186 186.637 190.886 186.47 191.716 186.47C192.57 186.47 193.282 186.637 193.852 186.971C194.43 187.304 194.861 187.748 195.146 188.301C195.439 188.855 195.585 189.469 195.585 190.145V191.084C195.585 191.744 195.439 192.35 195.146 192.903C194.861 193.457 194.434 193.9 193.864 194.234C193.295 194.568 192.587 194.734 191.74 194.734C190.902 194.734 190.194 194.568 189.616 194.234C189.047 193.9 188.615 193.457 188.322 192.903C188.029 192.35 187.883 191.744 187.883 191.084ZM190.214 190.145V191.084C190.214 191.369 190.267 191.642 190.373 191.902C190.487 192.155 190.658 192.362 190.886 192.525C191.122 192.68 191.407 192.757 191.74 192.757C192.09 192.757 192.375 192.68 192.595 192.525C192.814 192.362 192.977 192.155 193.083 191.902C193.189 191.642 193.242 191.369 193.242 191.084V190.145C193.242 189.843 193.185 189.567 193.071 189.314C192.965 189.054 192.798 188.847 192.57 188.692C192.351 188.529 192.066 188.448 191.716 188.448C191.39 188.448 191.114 188.529 190.886 188.692C190.658 188.847 190.487 189.054 190.373 189.314C190.267 189.567 190.214 189.843 190.214 190.145ZM196.379 201.082V200.142C196.379 199.475 196.525 198.864 196.818 198.311C197.119 197.758 197.555 197.314 198.125 196.98C198.702 196.647 199.41 196.48 200.249 196.48C201.095 196.48 201.803 196.647 202.373 196.98C202.942 197.314 203.374 197.758 203.667 198.311C203.959 198.864 204.106 199.475 204.106 200.142V201.082C204.106 201.749 203.959 202.36 203.667 202.913C203.382 203.466 202.954 203.91 202.385 204.244C201.815 204.577 201.111 204.744 200.273 204.744C199.427 204.744 198.715 204.577 198.137 204.244C197.559 203.91 197.119 203.466 196.818 202.913C196.525 202.36 196.379 201.749 196.379 201.082ZM198.723 200.142V201.082C198.723 201.375 198.788 201.652 198.918 201.912C199.048 202.173 199.227 202.38 199.455 202.535C199.691 202.689 199.964 202.767 200.273 202.767C200.664 202.767 200.969 202.689 201.188 202.535C201.408 202.38 201.559 202.173 201.64 201.912C201.73 201.652 201.774 201.375 201.774 201.082V200.142C201.774 199.849 201.717 199.576 201.604 199.324C201.49 199.064 201.319 198.856 201.091 198.702C200.871 198.539 200.59 198.458 200.249 198.458C199.907 198.458 199.622 198.539 199.394 198.702C199.174 198.856 199.007 199.064 198.894 199.324C198.78 199.576 198.723 199.849 198.723 200.142ZM201.115 189.266L192.436 203.157L190.727 202.254L199.406 188.362L201.115 189.266Z" fill="white"/>
<path d="M115.955 334.939L121.053 313.406H123.9L124.551 316.992L119.119 339H116.061L115.955 334.939ZM113.336 313.406L117.555 334.939L117.203 339H113.793L108.115 313.406H113.336ZM129.033 334.852L133.199 313.406H138.42L132.76 339H129.35L129.033 334.852ZM125.5 313.406L130.633 335.027L130.492 339H127.434L121.967 316.975L122.67 313.406H125.5ZM146.312 319.98V339H141.232V319.98H146.312ZM140.916 315.023C140.916 314.285 141.174 313.676 141.689 313.195C142.205 312.715 142.896 312.475 143.764 312.475C144.619 312.475 145.305 312.715 145.82 313.195C146.348 313.676 146.611 314.285 146.611 315.023C146.611 315.762 146.348 316.371 145.82 316.852C145.305 317.332 144.619 317.572 143.764 317.572C142.896 317.572 142.205 317.332 141.689 316.852C141.174 316.371 140.916 315.762 140.916 315.023ZM155.453 324.041V339H150.391V319.98H155.137L155.453 324.041ZM154.715 328.822H153.344C153.344 327.416 153.525 326.15 153.889 325.025C154.252 323.889 154.762 322.922 155.418 322.125C156.074 321.316 156.854 320.701 157.756 320.279C158.67 319.846 159.689 319.629 160.814 319.629C161.705 319.629 162.52 319.758 163.258 320.016C163.996 320.273 164.629 320.684 165.156 321.246C165.695 321.809 166.105 322.553 166.387 323.479C166.68 324.404 166.826 325.535 166.826 326.871V339H161.729V326.854C161.729 326.01 161.611 325.354 161.377 324.885C161.143 324.416 160.797 324.088 160.34 323.9C159.895 323.701 159.344 323.602 158.688 323.602C158.008 323.602 157.416 323.736 156.912 324.006C156.42 324.275 156.01 324.65 155.682 325.131C155.365 325.6 155.125 326.15 154.961 326.783C154.797 327.416 154.715 328.096 154.715 328.822ZM179.957 313.406H189.502C191.459 313.406 193.141 313.699 194.547 314.285C195.965 314.871 197.055 315.738 197.816 316.887C198.578 318.035 198.959 319.447 198.959 321.123C198.959 322.494 198.725 323.672 198.256 324.656C197.799 325.629 197.148 326.443 196.305 327.1C195.473 327.744 194.494 328.26 193.369 328.646L191.699 329.525H183.402L183.367 325.412H189.537C190.463 325.412 191.23 325.248 191.84 324.92C192.449 324.592 192.906 324.135 193.211 323.549C193.527 322.963 193.686 322.283 193.686 321.51C193.686 320.689 193.533 319.98 193.229 319.383C192.924 318.785 192.461 318.328 191.84 318.012C191.219 317.695 190.439 317.537 189.502 317.537H185.23V339H179.957V313.406ZM194.266 339L188.43 327.592L194.002 327.557L199.908 338.754V339H194.266ZM212.969 334.711V326.238C212.969 325.629 212.869 325.107 212.67 324.674C212.471 324.229 212.16 323.883 211.738 323.637C211.328 323.391 210.795 323.268 210.139 323.268C209.576 323.268 209.09 323.367 208.68 323.566C208.27 323.754 207.953 324.029 207.73 324.393C207.508 324.744 207.396 325.16 207.396 325.641H202.334C202.334 324.832 202.521 324.064 202.896 323.338C203.271 322.611 203.816 321.973 204.531 321.422C205.246 320.859 206.096 320.42 207.08 320.104C208.076 319.787 209.189 319.629 210.42 319.629C211.896 319.629 213.209 319.875 214.357 320.367C215.506 320.859 216.408 321.598 217.064 322.582C217.732 323.566 218.066 324.797 218.066 326.273V334.412C218.066 335.455 218.131 336.311 218.26 336.979C218.389 337.635 218.576 338.209 218.822 338.701V339H213.707C213.461 338.484 213.273 337.84 213.145 337.066C213.027 336.281 212.969 335.496 212.969 334.711ZM213.637 327.416L213.672 330.281H210.842C210.174 330.281 209.594 330.357 209.102 330.51C208.609 330.662 208.205 330.879 207.889 331.16C207.572 331.43 207.338 331.746 207.186 332.109C207.045 332.473 206.975 332.871 206.975 333.305C206.975 333.738 207.074 334.131 207.273 334.482C207.473 334.822 207.76 335.092 208.135 335.291C208.51 335.479 208.949 335.572 209.453 335.572C210.215 335.572 210.877 335.42 211.439 335.115C212.002 334.811 212.436 334.436 212.74 333.99C213.057 333.545 213.221 333.123 213.232 332.725L214.568 334.869C214.381 335.35 214.123 335.848 213.795 336.363C213.479 336.879 213.074 337.365 212.582 337.822C212.09 338.268 211.498 338.637 210.807 338.93C210.115 339.211 209.295 339.352 208.346 339.352C207.139 339.352 206.043 339.111 205.059 338.631C204.086 338.139 203.312 337.465 202.738 336.609C202.176 335.742 201.895 334.758 201.895 333.656C201.895 332.66 202.082 331.775 202.457 331.002C202.832 330.229 203.383 329.578 204.109 329.051C204.848 328.512 205.768 328.107 206.869 327.838C207.971 327.557 209.248 327.416 210.701 327.416H213.637ZM231.285 319.98V323.566H220.211V319.98H231.285ZM222.953 315.287H228.016V333.27C228.016 333.82 228.086 334.242 228.227 334.535C228.379 334.828 228.602 335.033 228.895 335.15C229.188 335.256 229.557 335.309 230.002 335.309C230.318 335.309 230.6 335.297 230.846 335.273C231.104 335.238 231.32 335.203 231.496 335.168L231.514 338.895C231.08 339.035 230.611 339.146 230.107 339.229C229.604 339.311 229.047 339.352 228.438 339.352C227.324 339.352 226.352 339.17 225.52 338.807C224.699 338.432 224.066 337.834 223.621 337.014C223.176 336.193 222.953 335.115 222.953 333.779V315.287ZM242.922 339.352C241.445 339.352 240.121 339.117 238.949 338.648C237.777 338.168 236.781 337.506 235.961 336.662C235.152 335.818 234.531 334.84 234.098 333.727C233.664 332.602 233.447 331.406 233.447 330.141V329.438C233.447 327.996 233.652 326.678 234.062 325.482C234.473 324.287 235.059 323.25 235.82 322.371C236.594 321.492 237.531 320.818 238.633 320.35C239.734 319.869 240.977 319.629 242.359 319.629C243.707 319.629 244.902 319.852 245.945 320.297C246.988 320.742 247.861 321.375 248.564 322.195C249.279 323.016 249.818 324 250.182 325.148C250.545 326.285 250.727 327.551 250.727 328.945V331.055H235.609V327.68H245.752V327.293C245.752 326.59 245.623 325.963 245.365 325.412C245.119 324.85 244.744 324.404 244.24 324.076C243.736 323.748 243.092 323.584 242.307 323.584C241.639 323.584 241.064 323.73 240.584 324.023C240.104 324.316 239.711 324.727 239.406 325.254C239.113 325.781 238.891 326.402 238.738 327.117C238.598 327.82 238.527 328.594 238.527 329.438V330.141C238.527 330.902 238.633 331.605 238.844 332.25C239.066 332.895 239.377 333.451 239.775 333.92C240.186 334.389 240.678 334.752 241.252 335.01C241.838 335.268 242.5 335.396 243.238 335.396C244.152 335.396 245.002 335.221 245.787 334.869C246.584 334.506 247.27 333.961 247.844 333.234L250.305 335.906C249.906 336.48 249.361 337.031 248.67 337.559C247.99 338.086 247.17 338.52 246.209 338.859C245.248 339.188 244.152 339.352 242.922 339.352Z" fill="white"/>
<g clip-path="url(#clip1_1_169)">
<g clip-path="url(#clip2_1_169)">
<rect x="25" y="393.5" width="20" height="20" rx="4" fill="#3A9745"/>
<path d="M58.5068 406.265L60.4893 398.547H61.5283L61.4121 400.536L59.293 408.5H58.2129L58.5068 406.265ZM57.0234 398.547L58.6299 406.203L58.7734 408.5H57.625L55.3213 398.547H57.0234ZM63.7773 406.183L65.3633 398.547H67.0723L64.7686 408.5H63.6201L63.7773 406.183ZM61.9316 398.547L63.8936 406.285L64.1807 408.5H63.1006L61.0156 400.536L60.9062 398.547H61.9316ZM69.9434 401.104V408.5H68.2891V401.104H69.9434ZM68.1797 399.162C68.1797 398.911 68.2617 398.704 68.4258 398.54C68.5944 398.371 68.8268 398.287 69.123 398.287C69.4147 398.287 69.6449 398.371 69.8135 398.54C69.9821 398.704 70.0664 398.911 70.0664 399.162C70.0664 399.408 69.9821 399.613 69.8135 399.777C69.6449 399.941 69.4147 400.023 69.123 400.023C68.8268 400.023 68.5944 399.941 68.4258 399.777C68.2617 399.613 68.1797 399.408 68.1797 399.162ZM73.3818 402.683V408.5H71.7344V401.104H73.2861L73.3818 402.683ZM73.0879 404.528L72.5547 404.521C72.5592 403.997 72.6322 403.517 72.7734 403.079C72.9193 402.642 73.1198 402.266 73.375 401.951C73.6348 401.637 73.9447 401.395 74.3047 401.227C74.6647 401.053 75.0658 400.967 75.5078 400.967C75.8633 400.967 76.1846 401.017 76.4717 401.117C76.7633 401.213 77.0117 401.37 77.2168 401.589C77.4264 401.808 77.5859 402.092 77.6953 402.443C77.8047 402.79 77.8594 403.216 77.8594 403.722V408.5H76.2051V403.715C76.2051 403.359 76.1527 403.079 76.0479 402.874C75.9476 402.664 75.7995 402.516 75.6035 402.43C75.4121 402.339 75.1729 402.293 74.8857 402.293C74.6032 402.293 74.3503 402.352 74.127 402.471C73.9036 402.589 73.7145 402.751 73.5596 402.956C73.4092 403.161 73.293 403.398 73.2109 403.667C73.1289 403.936 73.0879 404.223 73.0879 404.528Z" fill="white"/>
</g>
<rect x="25" y="424.5" width="20" height="20" rx="4" fill="#151A20"/>
<path d="M62.2461 438.14V439.5H57.249V438.14H62.2461ZM57.7275 429.547V439.5H56.0117V429.547H57.7275ZM63.0938 435.884V435.727C63.0938 435.193 63.1712 434.699 63.3262 434.243C63.4811 433.783 63.7044 433.384 63.9961 433.047C64.2923 432.705 64.6523 432.441 65.0762 432.254C65.5046 432.062 65.9876 431.967 66.5254 431.967C67.0677 431.967 67.5508 432.062 67.9746 432.254C68.403 432.441 68.7653 432.705 69.0615 433.047C69.3577 433.384 69.5833 433.783 69.7383 434.243C69.8932 434.699 69.9707 435.193 69.9707 435.727V435.884C69.9707 436.417 69.8932 436.911 69.7383 437.367C69.5833 437.823 69.3577 438.222 69.0615 438.563C68.7653 438.901 68.4053 439.165 67.9814 439.356C67.5576 439.543 67.0768 439.637 66.5391 439.637C65.9967 439.637 65.5114 439.543 65.083 439.356C64.6592 439.165 64.2992 438.901 64.0029 438.563C63.7067 438.222 63.4811 437.823 63.3262 437.367C63.1712 436.911 63.0938 436.417 63.0938 435.884ZM64.7412 435.727V435.884C64.7412 436.216 64.7754 436.531 64.8438 436.827C64.9121 437.123 65.0192 437.383 65.165 437.606C65.3109 437.83 65.4977 438.005 65.7256 438.133C65.9535 438.26 66.2246 438.324 66.5391 438.324C66.8444 438.324 67.1087 438.26 67.332 438.133C67.5599 438.005 67.7467 437.83 67.8926 437.606C68.0384 437.383 68.1455 437.123 68.2139 436.827C68.2868 436.531 68.3232 436.216 68.3232 435.884V435.727C68.3232 435.398 68.2868 435.089 68.2139 434.797C68.1455 434.501 68.0361 434.239 67.8857 434.011C67.7399 433.783 67.5531 433.605 67.3252 433.478C67.1019 433.345 66.8353 433.279 66.5254 433.279C66.2155 433.279 65.9466 433.345 65.7188 433.478C65.4954 433.605 65.3109 433.783 65.165 434.011C65.0192 434.239 64.9121 434.501 64.8438 434.797C64.7754 435.089 64.7412 435.398 64.7412 435.727ZM75.501 437.497C75.501 437.333 75.46 437.185 75.3779 437.053C75.2959 436.916 75.1387 436.793 74.9062 436.684C74.6784 436.574 74.3411 436.474 73.8945 436.383C73.5026 436.296 73.1426 436.194 72.8145 436.075C72.4909 435.952 72.2129 435.804 71.9805 435.631C71.748 435.458 71.568 435.253 71.4404 435.016C71.3128 434.779 71.249 434.505 71.249 434.195C71.249 433.895 71.3151 433.61 71.4473 433.341C71.5794 433.072 71.7686 432.835 72.0146 432.63C72.2607 432.425 72.5592 432.263 72.9102 432.145C73.2656 432.026 73.6621 431.967 74.0996 431.967C74.7194 431.967 75.2503 432.072 75.6924 432.281C76.139 432.486 76.4808 432.767 76.7178 433.122C76.9548 433.473 77.0732 433.869 77.0732 434.312H75.4258C75.4258 434.116 75.3757 433.933 75.2754 433.765C75.1797 433.591 75.0339 433.452 74.8379 433.348C74.6419 433.238 74.3958 433.184 74.0996 433.184C73.8171 433.184 73.5824 433.229 73.3955 433.32C73.2132 433.407 73.0765 433.521 72.9854 433.662C72.8988 433.803 72.8555 433.958 72.8555 434.127C72.8555 434.25 72.8783 434.362 72.9238 434.462C72.974 434.558 73.056 434.646 73.1699 434.729C73.2839 434.806 73.4388 434.879 73.6348 434.947C73.8353 435.016 74.0859 435.082 74.3867 435.146C74.9518 435.264 75.4372 435.417 75.8428 435.604C76.2529 435.786 76.5674 436.023 76.7861 436.314C77.0049 436.602 77.1143 436.966 77.1143 437.408C77.1143 437.736 77.0436 438.037 76.9023 438.311C76.7656 438.579 76.5651 438.814 76.3008 439.015C76.0365 439.211 75.7197 439.363 75.3506 439.473C74.986 439.582 74.5758 439.637 74.1201 439.637C73.4502 439.637 72.8828 439.518 72.418 439.281C71.9531 439.04 71.5999 438.732 71.3584 438.358C71.1214 437.98 71.0029 437.588 71.0029 437.183H72.5957C72.6139 437.488 72.6982 437.732 72.8486 437.914C73.0036 438.092 73.195 438.222 73.4229 438.304C73.6553 438.381 73.8945 438.42 74.1406 438.42C74.4368 438.42 74.6852 438.381 74.8857 438.304C75.0863 438.222 75.2389 438.112 75.3438 437.976C75.4486 437.834 75.501 437.675 75.501 437.497ZM82.7061 437.497C82.7061 437.333 82.665 437.185 82.583 437.053C82.501 436.916 82.3438 436.793 82.1113 436.684C81.8835 436.574 81.5462 436.474 81.0996 436.383C80.7077 436.296 80.3477 436.194 80.0195 436.075C79.696 435.952 79.418 435.804 79.1855 435.631C78.9531 435.458 78.7731 435.253 78.6455 435.016C78.5179 434.779 78.4541 434.505 78.4541 434.195C78.4541 433.895 78.5202 433.61 78.6523 433.341C78.7845 433.072 78.9736 432.835 79.2197 432.63C79.4658 432.425 79.7643 432.263 80.1152 432.145C80.4707 432.026 80.8672 431.967 81.3047 431.967C81.9245 431.967 82.4554 432.072 82.8975 432.281C83.3441 432.486 83.6859 432.767 83.9229 433.122C84.1598 433.473 84.2783 433.869 84.2783 434.312H82.6309C82.6309 434.116 82.5807 433.933 82.4805 433.765C82.3848 433.591 82.2389 433.452 82.043 433.348C81.847 433.238 81.6009 433.184 81.3047 433.184C81.0221 433.184 80.7874 433.229 80.6006 433.32C80.4183 433.407 80.2816 433.521 80.1904 433.662C80.1038 433.803 80.0605 433.958 80.0605 434.127C80.0605 434.25 80.0833 434.362 80.1289 434.462C80.179 434.558 80.2611 434.646 80.375 434.729C80.4889 434.806 80.6439 434.879 80.8398 434.947C81.0404 435.016 81.291 435.082 81.5918 435.146C82.1569 435.264 82.6423 435.417 83.0479 435.604C83.458 435.786 83.7725 436.023 83.9912 436.314C84.21 436.602 84.3193 436.966 84.3193 437.408C84.3193 437.736 84.2487 438.037 84.1074 438.311C83.9707 438.579 83.7702 438.814 83.5059 439.015C83.2415 439.211 82.9248 439.363 82.5557 439.473C82.1911 439.582 81.7809 439.637 81.3252 439.637C80.6553 439.637 80.0879 439.518 79.623 439.281C79.1582 439.04 78.805 438.732 78.5635 438.358C78.3265 437.98 78.208 437.588 78.208 437.183H79.8008C79.819 437.488 79.9033 437.732 80.0537 437.914C80.2087 438.092 80.4001 438.222 80.6279 438.304C80.8604 438.381 81.0996 438.42 81.3457 438.42C81.6419 438.42 81.8903 438.381 82.0908 438.304C82.2913 438.222 82.444 438.112 82.5488 437.976C82.6536 437.834 82.7061 437.675 82.7061 437.497Z" fill="white"/>
</g>
<rect x="213" y="400" width="122" height="39" rx="4" fill="#3A9745"/>
<path d="M235.999 422.515V424H231.346V422.515H235.999ZM231.962 414.758V424H230.057V414.758H231.962ZM244.372 422.515V424H239.453V422.515H244.372ZM240.075 414.758V424H238.171V414.758H240.075ZM243.731 418.522V419.969H239.453V418.522H243.731ZM244.366 414.758V416.25H239.453V414.758H244.366ZM250.321 416.338L247.807 424H245.782L249.217 414.758H250.505L250.321 416.338ZM252.409 424L249.889 416.338L249.686 414.758H250.987L254.441 424H252.409ZM252.295 420.56V422.051H247.414V420.56H252.295ZM256.378 414.758H259.824C260.531 414.758 261.138 414.864 261.646 415.075C262.158 415.287 262.552 415.6 262.827 416.015C263.102 416.429 263.239 416.939 263.239 417.544C263.239 418.04 263.155 418.465 262.985 418.82C262.82 419.172 262.586 419.466 262.281 419.703C261.98 419.935 261.627 420.122 261.221 420.261L260.618 420.579H257.622L257.609 419.093H259.837C260.171 419.093 260.449 419.034 260.669 418.916C260.889 418.797 261.054 418.632 261.164 418.42C261.278 418.209 261.335 417.963 261.335 417.684C261.335 417.388 261.28 417.132 261.17 416.916C261.06 416.7 260.893 416.535 260.669 416.421C260.444 416.307 260.163 416.25 259.824 416.25H258.282V424H256.378V414.758ZM261.545 424L259.437 419.88L261.449 419.868L263.582 423.911V424H261.545ZM273.308 414.758V424H271.403L267.69 417.805V424H265.786V414.758H267.69L271.41 420.959V414.758H273.308ZM281.231 414.758H282.844L285.218 421.543L287.592 414.758H289.204L285.865 424H284.57L281.231 414.758ZM280.362 414.758H281.968L282.26 421.372V424H280.362V414.758ZM288.468 414.758H290.08V424H288.176V421.372L288.468 414.758ZM300.421 419.163V419.601C300.421 420.304 300.326 420.934 300.136 421.493C299.945 422.051 299.676 422.527 299.329 422.921C298.982 423.31 298.568 423.609 298.085 423.816C297.607 424.023 297.076 424.127 296.492 424.127C295.912 424.127 295.381 424.023 294.899 423.816C294.421 423.609 294.006 423.31 293.655 422.921C293.303 422.527 293.03 422.051 292.836 421.493C292.645 420.934 292.55 420.304 292.55 419.601V419.163C292.55 418.456 292.645 417.826 292.836 417.271C293.026 416.713 293.295 416.237 293.642 415.843C293.993 415.45 294.408 415.149 294.886 414.942C295.368 414.735 295.9 414.631 296.479 414.631C297.063 414.631 297.594 414.735 298.073 414.942C298.555 415.149 298.97 415.45 299.317 415.843C299.668 416.237 299.939 416.713 300.129 417.271C300.324 417.826 300.421 418.456 300.421 419.163ZM298.498 419.601V419.15C298.498 418.66 298.453 418.228 298.365 417.855C298.276 417.483 298.144 417.17 297.971 416.916C297.797 416.662 297.586 416.472 297.336 416.345C297.087 416.214 296.801 416.148 296.479 416.148C296.158 416.148 295.872 416.214 295.622 416.345C295.377 416.472 295.167 416.662 294.994 416.916C294.825 417.17 294.696 417.483 294.607 417.855C294.518 418.228 294.473 418.66 294.473 419.15V419.601C294.473 420.088 294.518 420.519 294.607 420.896C294.696 421.268 294.827 421.584 295 421.842C295.174 422.096 295.385 422.288 295.635 422.419C295.885 422.551 296.17 422.616 296.492 422.616C296.814 422.616 297.099 422.551 297.349 422.419C297.599 422.288 297.808 422.096 297.977 421.842C298.147 421.584 298.276 421.268 298.365 420.896C298.453 420.519 298.498 420.088 298.498 419.601ZM302.872 414.758H306.319C307.026 414.758 307.633 414.864 308.141 415.075C308.653 415.287 309.046 415.6 309.322 416.015C309.597 416.429 309.734 416.939 309.734 417.544C309.734 418.04 309.649 418.465 309.48 418.82C309.315 419.172 309.08 419.466 308.776 419.703C308.475 419.935 308.122 420.122 307.716 420.261L307.113 420.579H304.116L304.104 419.093H306.332C306.666 419.093 306.943 419.034 307.163 418.916C307.383 418.797 307.548 418.632 307.658 418.42C307.773 418.209 307.83 417.963 307.83 417.684C307.83 417.388 307.775 417.132 307.665 416.916C307.555 416.7 307.388 416.535 307.163 416.421C306.939 416.307 306.658 416.25 306.319 416.25H304.777V424H302.872V414.758ZM308.039 424L305.932 419.88L307.944 419.868L310.077 423.911V424H308.039ZM318.482 422.515V424H313.563V422.515H318.482ZM314.185 414.758V424H312.28V414.758H314.185ZM317.841 418.522V419.969H313.563V418.522H317.841ZM318.476 414.758V416.25H313.563V414.758H318.476Z" fill="black"/>
</g>
<defs>
<filter id="filter0_d_1_169" x="87" y="102.5" width="186" height="186" filterUnits="userSpaceOnUse" color-interpolation-filters="sRGB">
<feFlood flood-opacity="0" result="BackgroundImageFix"/>
<feColorMatrix in="SourceAlpha" type="matrix" values="0 0 0 0 0 0 0 0 0 0 0 0 0 0 0 0 0 0 127 0" result="hardAlpha"/>
<feMorphology radius="12" operator="dilate" in="SourceAlpha" result="effect1_dropShadow_1_169"/>
<feOffset/>
<feComposite in2="hardAlpha" operator="out"/>
<feColorMatrix type="matrix" values="0 0 0 0 0 0 0 0 0 0 0 0 0 0 0 0 0 0 0.02 0"/>
<feBlend mode="normal" in2="BackgroundImageFix" result="effect1_dropShadow_1_169"/>
<feBlend mode="normal" in="SourceGraphic" in2="effect1_dropShadow_1_169" result="shape"/>
</filter>
<clipPath id="clip0_1_169">
<rect width="360" height="479" rx="20" fill="white"/>
</clipPath>
<clipPath id="clip1_1_169">
<rect width="201" height="52" fill="white" transform="translate(25 393.5)"/>
</clipPath>
<clipPath id="clip2_1_169">
<rect width="54" height="20" fill="white" transform="translate(25 393.5)"/>
</clipPath>
</defs>
</svg>
