<svg width="360" height="345" viewBox="0 0 360 345" fill="none" xmlns="http://www.w3.org/2000/svg">
<g clip-path="url(#clip0_2_631)">
<rect width="360" height="345" rx="20" fill="#0A0D10"/>
<path d="M127.892 65.9268V67H122.622V65.9268H127.892ZM122.888 57.0469V67H121.569V57.0469H122.888ZM127.195 61.3262V62.3994H122.622V61.3262H127.195ZM127.824 57.0469V58.127H122.622V57.0469H127.824ZM129.909 59.6035L131.529 62.2969L133.17 59.6035H134.653L132.233 63.2539L134.729 67H133.266L131.557 64.2246L129.848 67H128.378L130.866 63.2539L128.453 59.6035H129.909ZM136.985 61.0254V69.8438H135.713V59.6035H136.875L136.985 61.0254ZM141.968 63.2402V63.3838C141.968 63.9215 141.904 64.4206 141.777 64.8809C141.649 65.3366 141.462 65.7331 141.216 66.0703C140.975 66.4076 140.676 66.6696 140.321 66.8564C139.965 67.0433 139.557 67.1367 139.097 67.1367C138.628 67.1367 138.213 67.0592 137.853 66.9043C137.493 66.7493 137.187 66.5238 136.937 66.2275C136.686 65.9313 136.486 65.5758 136.335 65.1611C136.189 64.7464 136.089 64.2793 136.034 63.7598V62.9941C136.089 62.4473 136.192 61.9574 136.342 61.5244C136.493 61.0915 136.691 60.7223 136.937 60.417C137.187 60.1071 137.491 59.8724 137.846 59.7129C138.201 59.5488 138.612 59.4668 139.076 59.4668C139.541 59.4668 139.954 59.5579 140.314 59.7402C140.674 59.918 140.977 60.1732 141.223 60.5059C141.469 60.8385 141.654 61.2373 141.777 61.7021C141.904 62.1624 141.968 62.6751 141.968 63.2402ZM140.697 63.3838V63.2402C140.697 62.8711 140.658 62.5247 140.58 62.2012C140.503 61.873 140.382 61.5859 140.218 61.3398C140.059 61.0892 139.854 60.8932 139.603 60.752C139.352 60.6061 139.054 60.5332 138.707 60.5332C138.388 60.5332 138.11 60.5879 137.873 60.6973C137.641 60.8066 137.443 60.9548 137.279 61.1416C137.115 61.3239 136.98 61.5335 136.875 61.7705C136.775 62.0029 136.7 62.2445 136.65 62.4951V64.2656C136.741 64.5846 136.868 64.8854 137.033 65.168C137.197 65.446 137.415 65.6715 137.689 65.8447C137.962 66.0133 138.306 66.0977 138.721 66.0977C139.063 66.0977 139.357 66.027 139.603 65.8857C139.854 65.7399 140.059 65.5417 140.218 65.291C140.382 65.0404 140.503 64.7533 140.58 64.4297C140.658 64.1016 140.697 63.7529 140.697 63.3838ZM146.371 67.1367C145.856 67.1367 145.389 67.0501 144.969 66.877C144.555 66.6992 144.197 66.4508 143.896 66.1318C143.6 65.8128 143.372 65.4346 143.213 64.9971C143.053 64.5596 142.973 64.0811 142.973 63.5615V63.2744C142.973 62.6729 143.062 62.1374 143.24 61.668C143.418 61.194 143.659 60.793 143.964 60.4648C144.27 60.1367 144.616 59.8883 145.004 59.7197C145.391 59.5511 145.792 59.4668 146.207 59.4668C146.735 59.4668 147.191 59.5579 147.574 59.7402C147.961 59.9225 148.278 60.1777 148.524 60.5059C148.77 60.8294 148.952 61.2122 149.071 61.6543C149.189 62.0918 149.249 62.5703 149.249 63.0898V63.6572H143.725V62.625H147.984V62.5293C147.966 62.2012 147.897 61.8822 147.779 61.5723C147.665 61.2624 147.483 61.0072 147.232 60.8066C146.981 60.6061 146.64 60.5059 146.207 60.5059C145.92 60.5059 145.655 60.5674 145.414 60.6904C145.172 60.8089 144.965 60.9867 144.792 61.2236C144.618 61.4606 144.484 61.75 144.388 62.0918C144.293 62.4336 144.245 62.8278 144.245 63.2744V63.5615C144.245 63.9124 144.293 64.2428 144.388 64.5527C144.489 64.8581 144.632 65.127 144.819 65.3594C145.01 65.5918 145.24 65.7741 145.509 65.9062C145.783 66.0384 146.093 66.1045 146.439 66.1045C146.886 66.1045 147.264 66.0133 147.574 65.8311C147.884 65.6488 148.155 65.4049 148.387 65.0996L149.153 65.708C148.993 65.9495 148.791 66.1797 148.545 66.3984C148.298 66.6172 147.995 66.7949 147.635 66.9316C147.28 67.0684 146.858 67.1367 146.371 67.1367ZM153.405 66.0977C153.706 66.0977 153.984 66.0361 154.239 65.9131C154.494 65.79 154.704 65.6214 154.868 65.4072C155.032 65.1885 155.126 64.9401 155.148 64.6621H156.351C156.329 65.0996 156.181 65.5075 155.907 65.8857C155.638 66.2594 155.285 66.5625 154.848 66.7949C154.41 67.0228 153.929 67.1367 153.405 67.1367C152.849 67.1367 152.364 67.0387 151.949 66.8428C151.539 66.6468 151.197 66.3779 150.924 66.0361C150.655 65.6943 150.452 65.3024 150.315 64.8604C150.183 64.4137 150.117 63.9421 150.117 63.4453V63.1582C150.117 62.6615 150.183 62.1921 150.315 61.75C150.452 61.3034 150.655 60.9092 150.924 60.5674C151.197 60.2256 151.539 59.9567 151.949 59.7607C152.364 59.5648 152.849 59.4668 153.405 59.4668C153.984 59.4668 154.49 59.5853 154.923 59.8223C155.356 60.0547 155.695 60.3737 155.941 60.7793C156.192 61.1803 156.329 61.6361 156.351 62.1465H155.148C155.126 61.8411 155.039 61.5654 154.889 61.3193C154.743 61.0732 154.542 60.8773 154.287 60.7314C154.036 60.5811 153.742 60.5059 153.405 60.5059C153.018 60.5059 152.692 60.5833 152.428 60.7383C152.168 60.8887 151.96 61.0938 151.806 61.3535C151.655 61.6087 151.546 61.8936 151.477 62.208C151.414 62.5179 151.382 62.8346 151.382 63.1582V63.4453C151.382 63.7689 151.414 64.0879 151.477 64.4023C151.541 64.7168 151.648 65.0016 151.799 65.2568C151.954 65.512 152.161 65.7171 152.421 65.8721C152.685 66.0225 153.013 66.0977 153.405 66.0977ZM160.59 59.6035V60.5742H156.591V59.6035H160.59ZM157.944 57.8057H159.209V65.168C159.209 65.4186 159.248 65.6077 159.325 65.7354C159.403 65.863 159.503 65.9473 159.626 65.9883C159.749 66.0293 159.881 66.0498 160.023 66.0498C160.127 66.0498 160.237 66.0407 160.351 66.0225C160.469 65.9997 160.558 65.9814 160.617 65.9678L160.624 67C160.524 67.0319 160.392 67.0615 160.228 67.0889C160.068 67.1208 159.875 67.1367 159.647 67.1367C159.337 67.1367 159.052 67.0752 158.792 66.9521C158.532 66.8291 158.325 66.624 158.17 66.3369C158.02 66.0452 157.944 65.6533 157.944 65.1611V57.8057ZM164.863 67.1367C164.348 67.1367 163.881 67.0501 163.461 66.877C163.047 66.6992 162.689 66.4508 162.388 66.1318C162.092 65.8128 161.864 65.4346 161.705 64.9971C161.545 64.5596 161.465 64.0811 161.465 63.5615V63.2744C161.465 62.6729 161.554 62.1374 161.732 61.668C161.91 61.194 162.151 60.793 162.456 60.4648C162.762 60.1367 163.108 59.8883 163.496 59.7197C163.883 59.5511 164.284 59.4668 164.699 59.4668C165.227 59.4668 165.683 59.5579 166.066 59.7402C166.453 59.9225 166.77 60.1777 167.016 60.5059C167.262 60.8294 167.444 61.2122 167.563 61.6543C167.681 62.0918 167.741 62.5703 167.741 63.0898V63.6572H162.217V62.625H166.476V62.5293C166.458 62.2012 166.389 61.8822 166.271 61.5723C166.157 61.2624 165.975 61.0072 165.724 60.8066C165.473 60.6061 165.132 60.5059 164.699 60.5059C164.412 60.5059 164.147 60.5674 163.906 60.6904C163.664 60.8089 163.457 60.9867 163.284 61.2236C163.11 61.4606 162.976 61.75 162.88 62.0918C162.785 62.4336 162.737 62.8278 162.737 63.2744V63.5615C162.737 63.9124 162.785 64.2428 162.88 64.5527C162.981 64.8581 163.124 65.127 163.311 65.3594C163.502 65.5918 163.733 65.7741 164.001 65.9062C164.275 66.0384 164.585 66.1045 164.931 66.1045C165.378 66.1045 165.756 66.0133 166.066 65.8311C166.376 65.6488 166.647 65.4049 166.879 65.0996L167.645 65.708C167.485 65.9495 167.283 66.1797 167.037 66.3984C166.79 66.6172 166.487 66.7949 166.127 66.9316C165.772 67.0684 165.35 67.1367 164.863 67.1367ZM173.599 65.5645V56.5H174.871V67H173.709L173.599 65.5645ZM168.623 63.3838V63.2402C168.623 62.6751 168.691 62.1624 168.828 61.7021C168.969 61.2373 169.167 60.8385 169.423 60.5059C169.682 60.1732 169.99 59.918 170.345 59.7402C170.705 59.5579 171.106 59.4668 171.549 59.4668C172.013 59.4668 172.419 59.5488 172.765 59.7129C173.116 59.8724 173.412 60.1071 173.654 60.417C173.9 60.7223 174.094 61.0915 174.235 61.5244C174.376 61.9574 174.474 62.4473 174.529 62.9941V63.623C174.479 64.1654 174.381 64.653 174.235 65.0859C174.094 65.5189 173.9 65.888 173.654 66.1934C173.412 66.4987 173.116 66.7334 172.765 66.8975C172.414 67.057 172.004 67.1367 171.535 67.1367C171.102 67.1367 170.705 67.0433 170.345 66.8564C169.99 66.6696 169.682 66.4076 169.423 66.0703C169.167 65.7331 168.969 65.3366 168.828 64.8809C168.691 64.4206 168.623 63.9215 168.623 63.3838ZM169.894 63.2402V63.3838C169.894 63.7529 169.931 64.0993 170.004 64.4229C170.081 64.7464 170.2 65.0312 170.359 65.2773C170.519 65.5234 170.721 65.7171 170.967 65.8584C171.214 65.9951 171.508 66.0635 171.849 66.0635C172.269 66.0635 172.613 65.9746 172.882 65.7969C173.155 65.6191 173.374 65.3844 173.538 65.0928C173.702 64.8011 173.829 64.4844 173.921 64.1426V62.4951C173.866 62.2445 173.786 62.0029 173.681 61.7705C173.581 61.5335 173.449 61.3239 173.285 61.1416C173.125 60.9548 172.927 60.8066 172.69 60.6973C172.458 60.5879 172.182 60.5332 171.863 60.5332C171.517 60.5332 171.218 60.6061 170.967 60.752C170.721 60.8932 170.519 61.0892 170.359 61.3398C170.2 61.5859 170.081 61.873 170.004 62.2012C169.931 62.5247 169.894 62.8711 169.894 63.2402ZM182.822 67.1367C182.307 67.1367 181.839 67.0501 181.42 66.877C181.005 66.6992 180.648 66.4508 180.347 66.1318C180.051 65.8128 179.823 65.4346 179.663 64.9971C179.504 64.5596 179.424 64.0811 179.424 63.5615V63.2744C179.424 62.6729 179.513 62.1374 179.691 61.668C179.868 61.194 180.11 60.793 180.415 60.4648C180.721 60.1367 181.067 59.8883 181.454 59.7197C181.842 59.5511 182.243 59.4668 182.658 59.4668C183.186 59.4668 183.642 59.5579 184.025 59.7402C184.412 59.9225 184.729 60.1777 184.975 60.5059C185.221 60.8294 185.403 61.2122 185.522 61.6543C185.64 62.0918 185.699 62.5703 185.699 63.0898V63.6572H180.176V62.625H184.435V62.5293C184.417 62.2012 184.348 61.8822 184.23 61.5723C184.116 61.2624 183.934 61.0072 183.683 60.8066C183.432 60.6061 183.09 60.5059 182.658 60.5059C182.37 60.5059 182.106 60.5674 181.865 60.6904C181.623 60.8089 181.416 60.9867 181.242 61.2236C181.069 61.4606 180.935 61.75 180.839 62.0918C180.743 62.4336 180.696 62.8278 180.696 63.2744V63.5615C180.696 63.9124 180.743 64.2428 180.839 64.5527C180.939 64.8581 181.083 65.127 181.27 65.3594C181.461 65.5918 181.691 65.7741 181.96 65.9062C182.234 66.0384 182.544 66.1045 182.89 66.1045C183.337 66.1045 183.715 66.0133 184.025 65.8311C184.335 65.6488 184.606 65.4049 184.838 65.0996L185.604 65.708C185.444 65.9495 185.241 66.1797 184.995 66.3984C184.749 66.6172 184.446 66.7949 184.086 66.9316C183.731 67.0684 183.309 67.1367 182.822 67.1367ZM191.257 65.7354V61.9277C191.257 61.6361 191.198 61.3831 191.08 61.1689C190.966 60.9502 190.793 60.7816 190.56 60.6631C190.328 60.5446 190.041 60.4854 189.699 60.4854C189.38 60.4854 189.1 60.54 188.858 60.6494C188.621 60.7588 188.434 60.9023 188.297 61.0801C188.165 61.2578 188.099 61.4492 188.099 61.6543H186.835C186.835 61.39 186.903 61.1279 187.04 60.8682C187.176 60.6084 187.372 60.3737 187.628 60.1641C187.887 59.9499 188.197 59.7812 188.557 59.6582C188.922 59.5306 189.327 59.4668 189.774 59.4668C190.312 59.4668 190.786 59.5579 191.196 59.7402C191.611 59.9225 191.934 60.1982 192.167 60.5674C192.404 60.932 192.522 61.39 192.522 61.9414V65.3867C192.522 65.6328 192.543 65.8949 192.584 66.1729C192.629 66.4508 192.695 66.6901 192.782 66.8906V67H191.462C191.399 66.8542 191.349 66.6605 191.312 66.4189C191.276 66.1729 191.257 65.945 191.257 65.7354ZM191.476 62.5156L191.49 63.4043H190.211C189.851 63.4043 189.53 63.4339 189.248 63.4932C188.965 63.5479 188.728 63.6322 188.537 63.7461C188.345 63.86 188.199 64.0036 188.099 64.1768C187.999 64.3454 187.949 64.5436 187.949 64.7715C187.949 65.0039 188.001 65.2158 188.106 65.4072C188.211 65.5986 188.368 65.7513 188.578 65.8652C188.792 65.9746 189.054 66.0293 189.364 66.0293C189.751 66.0293 190.093 65.9473 190.389 65.7832C190.685 65.6191 190.92 65.4186 191.093 65.1816C191.271 64.9447 191.367 64.7145 191.38 64.4912L191.92 65.0996C191.889 65.291 191.802 65.5029 191.661 65.7354C191.519 65.9678 191.33 66.1911 191.093 66.4053C190.861 66.6149 190.583 66.7904 190.259 66.9316C189.94 67.0684 189.58 67.1367 189.179 67.1367C188.678 67.1367 188.238 67.0387 187.86 66.8428C187.486 66.6468 187.195 66.3848 186.985 66.0566C186.78 65.724 186.677 65.3525 186.677 64.9424C186.677 64.5459 186.755 64.1973 186.91 63.8965C187.065 63.5911 187.288 63.3382 187.58 63.1377C187.871 62.9326 188.222 62.7777 188.632 62.6729C189.043 62.568 189.501 62.5156 190.006 62.5156H191.476ZM195.496 60.7656V67H194.231V59.6035H195.462L195.496 60.7656ZM197.806 59.5625L197.8 60.7383C197.695 60.7155 197.595 60.7018 197.499 60.6973C197.408 60.6882 197.303 60.6836 197.184 60.6836C196.893 60.6836 196.635 60.7292 196.412 60.8203C196.189 60.9115 196 61.0391 195.845 61.2031C195.69 61.3672 195.567 61.5632 195.475 61.791C195.389 62.0143 195.332 62.2604 195.305 62.5293L194.949 62.7344C194.949 62.2878 194.992 61.8685 195.079 61.4766C195.17 61.0846 195.309 60.7383 195.496 60.4375C195.683 60.1322 195.92 59.8952 196.207 59.7266C196.499 59.5534 196.845 59.4668 197.246 59.4668C197.337 59.4668 197.442 59.4782 197.56 59.501C197.679 59.5192 197.761 59.5397 197.806 59.5625ZM199.96 61.1826V67H198.695V59.6035H199.892L199.96 61.1826ZM199.659 63.0215L199.133 63.001C199.137 62.4951 199.213 62.028 199.359 61.5996C199.504 61.1667 199.709 60.7907 199.974 60.4717C200.238 60.1527 200.553 59.9066 200.917 59.7334C201.286 59.5557 201.694 59.4668 202.141 59.4668C202.505 59.4668 202.833 59.5169 203.125 59.6172C203.417 59.7129 203.665 59.8678 203.87 60.082C204.08 60.2962 204.239 60.5742 204.349 60.916C204.458 61.2533 204.513 61.6657 204.513 62.1533V67H203.241V62.1396C203.241 61.7523 203.184 61.4424 203.07 61.21C202.957 60.973 202.79 60.8021 202.571 60.6973C202.353 60.5879 202.084 60.5332 201.765 60.5332C201.45 60.5332 201.163 60.5993 200.903 60.7314C200.648 60.8636 200.427 61.0459 200.24 61.2783C200.058 61.5107 199.915 61.7773 199.81 62.0781C199.709 62.3743 199.659 62.6888 199.659 63.0215ZM207.528 59.6035V67H206.256V59.6035H207.528ZM206.161 57.6416C206.161 57.4365 206.222 57.2633 206.345 57.1221C206.473 56.9808 206.66 56.9102 206.906 56.9102C207.147 56.9102 207.332 56.9808 207.459 57.1221C207.592 57.2633 207.658 57.4365 207.658 57.6416C207.658 57.8376 207.592 58.0062 207.459 58.1475C207.332 58.2842 207.147 58.3525 206.906 58.3525C206.66 58.3525 206.473 58.2842 206.345 58.1475C206.222 58.0062 206.161 57.8376 206.161 57.6416ZM210.543 61.1826V67H209.278V59.6035H210.474L210.543 61.1826ZM210.242 63.0215L209.716 63.001C209.72 62.4951 209.795 62.028 209.941 61.5996C210.087 61.1667 210.292 60.7907 210.556 60.4717C210.821 60.1527 211.135 59.9066 211.5 59.7334C211.869 59.5557 212.277 59.4668 212.723 59.4668C213.088 59.4668 213.416 59.5169 213.708 59.6172C213.999 59.7129 214.248 59.8678 214.453 60.082C214.662 60.2962 214.822 60.5742 214.931 60.916C215.041 61.2533 215.095 61.6657 215.095 62.1533V67H213.824V62.1396C213.824 61.7523 213.767 61.4424 213.653 61.21C213.539 60.973 213.373 60.8021 213.154 60.6973C212.935 60.5879 212.666 60.5332 212.347 60.5332C212.033 60.5332 211.746 60.5993 211.486 60.7314C211.231 60.8636 211.01 61.0459 210.823 61.2783C210.641 61.5107 210.497 61.7773 210.392 62.0781C210.292 62.3743 210.242 62.6888 210.242 63.0215ZM221.528 59.6035H222.677V66.8428C222.677 67.4945 222.545 68.0505 222.28 68.5107C222.016 68.971 221.647 69.3197 221.173 69.5566C220.703 69.7982 220.161 69.9189 219.546 69.9189C219.291 69.9189 218.99 69.8779 218.644 69.7959C218.302 69.7184 217.964 69.584 217.632 69.3926C217.304 69.2057 217.028 68.9528 216.805 68.6338L217.468 67.8818C217.778 68.2555 218.101 68.5153 218.438 68.6611C218.78 68.807 219.117 68.8799 219.45 68.8799C219.851 68.8799 220.198 68.8047 220.489 68.6543C220.781 68.5039 221.006 68.2806 221.166 67.9844C221.33 67.6927 221.412 67.3327 221.412 66.9043V61.2305L221.528 59.6035ZM216.436 63.3838V63.2402C216.436 62.6751 216.502 62.1624 216.634 61.7021C216.77 61.2373 216.964 60.8385 217.215 60.5059C217.47 60.1732 217.778 59.918 218.138 59.7402C218.498 59.5579 218.903 59.4668 219.354 59.4668C219.819 59.4668 220.225 59.5488 220.571 59.7129C220.922 59.8724 221.218 60.1071 221.46 60.417C221.706 60.7223 221.9 61.0915 222.041 61.5244C222.182 61.9574 222.28 62.4473 222.335 62.9941V63.623C222.285 64.1654 222.187 64.653 222.041 65.0859C221.9 65.5189 221.706 65.888 221.46 66.1934C221.218 66.4987 220.922 66.7334 220.571 66.8975C220.22 67.057 219.81 67.1367 219.341 67.1367C218.899 67.1367 218.498 67.0433 218.138 66.8564C217.782 66.6696 217.477 66.4076 217.222 66.0703C216.966 65.7331 216.77 65.3366 216.634 64.8809C216.502 64.4206 216.436 63.9215 216.436 63.3838ZM217.7 63.2402V63.3838C217.7 63.7529 217.737 64.0993 217.81 64.4229C217.887 64.7464 218.003 65.0312 218.158 65.2773C218.318 65.5234 218.52 65.7171 218.767 65.8584C219.013 65.9951 219.307 66.0635 219.648 66.0635C220.068 66.0635 220.414 65.9746 220.687 65.7969C220.961 65.6191 221.177 65.3844 221.337 65.0928C221.501 64.8011 221.629 64.4844 221.72 64.1426V62.4951C221.67 62.2445 221.592 62.0029 221.487 61.7705C221.387 61.5335 221.255 61.3239 221.091 61.1416C220.931 60.9548 220.733 60.8066 220.496 60.6973C220.259 60.5879 219.981 60.5332 219.662 60.5332C219.316 60.5332 219.017 60.6061 218.767 60.752C218.52 60.8932 218.318 61.0892 218.158 61.3398C218.003 61.5859 217.887 61.873 217.81 62.2012C217.737 62.5247 217.7 62.8711 217.7 63.2402ZM228.624 65.0381C228.624 64.8558 228.583 64.6872 228.501 64.5322C228.424 64.3727 228.262 64.2292 228.016 64.1016C227.774 63.9694 227.41 63.8555 226.922 63.7598C226.512 63.6732 226.141 63.5706 225.808 63.4521C225.48 63.3337 225.199 63.1901 224.967 63.0215C224.739 62.8529 224.564 62.6546 224.441 62.4268C224.318 62.1989 224.256 61.9323 224.256 61.627C224.256 61.3353 224.32 61.0596 224.447 60.7998C224.58 60.54 224.764 60.3099 225.001 60.1094C225.243 59.9089 225.532 59.7516 225.869 59.6377C226.207 59.5238 226.583 59.4668 226.997 59.4668C227.59 59.4668 228.096 59.5716 228.515 59.7812C228.934 59.9909 229.255 60.2712 229.479 60.6221C229.702 60.9684 229.814 61.3535 229.814 61.7773H228.549C228.549 61.5723 228.488 61.374 228.364 61.1826C228.246 60.9867 228.071 60.8249 227.838 60.6973C227.61 60.5697 227.33 60.5059 226.997 60.5059C226.646 60.5059 226.362 60.5605 226.143 60.6699C225.929 60.7747 225.771 60.9092 225.671 61.0732C225.575 61.2373 225.528 61.4105 225.528 61.5928C225.528 61.7295 225.55 61.8525 225.596 61.9619C225.646 62.0667 225.733 62.1647 225.856 62.2559C225.979 62.3424 226.152 62.4245 226.375 62.502C226.599 62.5794 226.883 62.6569 227.23 62.7344C227.836 62.8711 228.335 63.0352 228.727 63.2266C229.119 63.418 229.41 63.6527 229.602 63.9307C229.793 64.2087 229.889 64.5459 229.889 64.9424C229.889 65.266 229.821 65.5622 229.684 65.8311C229.552 66.0999 229.358 66.3324 229.103 66.5283C228.852 66.7197 228.551 66.8701 228.2 66.9795C227.854 67.0843 227.464 67.1367 227.031 67.1367C226.38 67.1367 225.828 67.0205 225.377 66.7881C224.926 66.5557 224.584 66.2549 224.352 65.8857C224.119 65.5166 224.003 65.127 224.003 64.7168H225.275C225.293 65.0632 225.393 65.3389 225.575 65.5439C225.758 65.7445 225.981 65.888 226.245 65.9746C226.51 66.0566 226.772 66.0977 227.031 66.0977C227.378 66.0977 227.667 66.0521 227.9 65.9609C228.137 65.8698 228.317 65.7445 228.44 65.585C228.563 65.4255 228.624 65.2432 228.624 65.0381Z" fill="#CED8E1"/>
<path d="M146.83 108H132.352V104.801H146.816L146.83 108ZM142.824 100.057H132.311V96.9531H142.824V100.057ZM138.436 93.7949L138.777 102.066C138.786 102.969 138.6 103.743 138.217 104.391C137.834 105.029 137.178 105.553 136.248 105.963L133.664 104.801C133.947 104.728 134.156 104.564 134.293 104.309C134.439 104.044 134.53 103.73 134.566 103.365C134.603 103.001 134.621 102.641 134.621 102.285L134.361 93.7949C134.361 92.5371 134.617 91.4661 135.127 90.582C135.646 89.6888 136.367 89.0098 137.287 88.5449C138.217 88.071 139.297 87.834 140.527 87.834C141.858 87.834 142.984 88.071 143.904 88.5449C144.834 89.0189 145.536 89.6797 146.01 90.5273C146.493 91.375 146.734 92.3639 146.734 93.4941H142.838C142.838 92.8835 142.733 92.4004 142.523 92.0449C142.314 91.6803 142.036 91.4206 141.689 91.2656C141.343 91.1016 140.96 91.0195 140.541 91.0195C140.131 91.0195 139.766 91.1243 139.447 91.334C139.137 91.5436 138.891 91.8535 138.709 92.2637C138.527 92.6738 138.436 93.1842 138.436 93.7949ZM159.135 87.8887H159.709V91.0332H159.477C158.438 91.0332 157.512 91.1882 156.701 91.498C155.89 91.8079 155.202 92.25 154.637 92.8242C154.081 93.3893 153.652 94.0729 153.352 94.875C153.06 95.6771 152.914 96.5749 152.914 97.5684V100.877C152.914 101.588 152.982 102.217 153.119 102.764C153.265 103.301 153.47 103.753 153.734 104.117C154.008 104.473 154.327 104.742 154.691 104.924C155.056 105.097 155.466 105.184 155.922 105.184C156.35 105.184 156.738 105.092 157.084 104.91C157.439 104.728 157.74 104.473 157.986 104.145C158.242 103.807 158.433 103.415 158.561 102.969C158.697 102.513 158.766 102.016 158.766 101.479C158.766 100.941 158.697 100.444 158.561 99.9883C158.433 99.5326 158.242 99.1406 157.986 98.8125C157.731 98.4753 157.421 98.2155 157.057 98.0332C156.692 97.8509 156.282 97.7598 155.826 97.7598C155.206 97.7598 154.66 97.9056 154.186 98.1973C153.721 98.4798 153.356 98.8444 153.092 99.291C152.827 99.7376 152.686 100.207 152.668 100.699L151.479 99.9336C151.506 99.2318 151.652 98.5664 151.916 97.9375C152.189 97.3086 152.563 96.7526 153.037 96.2695C153.52 95.7773 154.099 95.3945 154.773 95.1211C155.448 94.8385 156.209 94.6973 157.057 94.6973C157.986 94.6973 158.802 94.875 159.504 95.2305C160.215 95.5859 160.807 96.0736 161.281 96.6934C161.755 97.3132 162.111 98.0286 162.348 98.8398C162.585 99.651 162.703 100.517 162.703 101.438C162.703 102.404 162.544 103.301 162.225 104.131C161.915 104.96 161.464 105.685 160.871 106.305C160.288 106.924 159.586 107.408 158.766 107.754C157.945 108.1 157.025 108.273 156.004 108.273C154.947 108.273 153.985 108.082 153.119 107.699C152.262 107.307 151.524 106.76 150.904 106.059C150.285 105.357 149.806 104.523 149.469 103.557C149.141 102.59 148.977 101.533 148.977 100.385V98.8535C148.977 97.2493 149.209 95.7819 149.674 94.4512C150.148 93.1113 150.827 91.9538 151.711 90.9785C152.595 89.9941 153.661 89.2331 154.91 88.6953C156.159 88.1576 157.567 87.8887 159.135 87.8887ZM178.467 102.545C178.467 103.794 178.175 104.846 177.592 105.703C177.008 106.551 176.206 107.193 175.186 107.631C174.174 108.059 173.025 108.273 171.74 108.273C170.455 108.273 169.302 108.059 168.281 107.631C167.26 107.193 166.454 106.551 165.861 105.703C165.269 104.846 164.973 103.794 164.973 102.545C164.973 101.706 165.141 100.95 165.479 100.275C165.816 99.5918 166.285 99.0085 166.887 98.5254C167.497 98.0332 168.213 97.6595 169.033 97.4043C169.854 97.14 170.747 97.0078 171.713 97.0078C173.007 97.0078 174.165 97.2357 175.186 97.6914C176.206 98.1471 177.008 98.7897 177.592 99.6191C178.175 100.449 178.467 101.424 178.467 102.545ZM174.502 102.285C174.502 101.674 174.383 101.15 174.146 100.713C173.919 100.266 173.595 99.9245 173.176 99.6875C172.757 99.4505 172.269 99.332 171.713 99.332C171.157 99.332 170.669 99.4505 170.25 99.6875C169.831 99.9245 169.503 100.266 169.266 100.713C169.038 101.15 168.924 101.674 168.924 102.285C168.924 102.887 169.038 103.406 169.266 103.844C169.503 104.281 169.831 104.618 170.25 104.855C170.678 105.083 171.175 105.197 171.74 105.197C172.305 105.197 172.793 105.083 173.203 104.855C173.622 104.618 173.941 104.281 174.16 103.844C174.388 103.406 174.502 102.887 174.502 102.285ZM178.043 93.3711C178.043 94.3828 177.774 95.2806 177.236 96.0645C176.699 96.8392 175.951 97.4453 174.994 97.8828C174.046 98.3203 172.962 98.5391 171.74 98.5391C170.51 98.5391 169.416 98.3203 168.459 97.8828C167.502 97.4453 166.755 96.8392 166.217 96.0645C165.679 95.2806 165.41 94.3828 165.41 93.3711C165.41 92.168 165.679 91.1562 166.217 90.3359C166.764 89.5065 167.511 88.8776 168.459 88.4492C169.416 88.0208 170.501 87.8066 171.713 87.8066C172.943 87.8066 174.033 88.0208 174.98 88.4492C175.938 88.8776 176.685 89.5065 177.223 90.3359C177.77 91.1562 178.043 92.168 178.043 93.3711ZM174.105 93.5488C174.105 93.0111 174.01 92.5462 173.818 92.1543C173.627 91.7533 173.354 91.4434 172.998 91.2246C172.652 91.0059 172.223 90.8965 171.713 90.8965C171.221 90.8965 170.797 91.0013 170.441 91.2109C170.095 91.4206 169.826 91.7259 169.635 92.127C169.452 92.5189 169.361 92.9928 169.361 93.5488C169.361 94.0866 169.452 94.5605 169.635 94.9707C169.826 95.3717 170.1 95.6862 170.455 95.9141C170.811 96.1419 171.239 96.2559 171.74 96.2559C172.242 96.2559 172.665 96.1419 173.012 95.9141C173.367 95.6862 173.636 95.3717 173.818 94.9707C174.01 94.5605 174.105 94.0866 174.105 93.5488ZM194.75 104.924V108H181.133V105.375L187.572 98.4707C188.219 97.7507 188.73 97.1172 189.104 96.5703C189.477 96.0143 189.746 95.5176 189.91 95.0801C190.083 94.6335 190.17 94.2096 190.17 93.8086C190.17 93.207 190.07 92.6921 189.869 92.2637C189.669 91.8262 189.372 91.4889 188.98 91.252C188.598 91.015 188.124 90.8965 187.559 90.8965C186.957 90.8965 186.438 91.0423 186 91.334C185.572 91.6257 185.243 92.0312 185.016 92.5508C184.797 93.0703 184.688 93.6582 184.688 94.3145H180.736C180.736 93.1296 181.019 92.0449 181.584 91.0605C182.149 90.0671 182.947 89.2786 183.977 88.6953C185.007 88.1029 186.228 87.8066 187.641 87.8066C189.035 87.8066 190.211 88.0345 191.168 88.4902C192.134 88.9368 192.863 89.584 193.355 90.4316C193.857 91.2702 194.107 92.2728 194.107 93.4395C194.107 94.0957 194.003 94.7383 193.793 95.3672C193.583 95.987 193.283 96.6068 192.891 97.2266C192.508 97.8372 192.043 98.457 191.496 99.0859C190.949 99.7148 190.343 100.367 189.678 101.041L186.219 104.924H194.75ZM197.566 106.1C197.566 105.516 197.767 105.029 198.168 104.637C198.578 104.245 199.12 104.049 199.795 104.049C200.469 104.049 201.007 104.245 201.408 104.637C201.818 105.029 202.023 105.516 202.023 106.1C202.023 106.683 201.818 107.171 201.408 107.562C201.007 107.954 200.469 108.15 199.795 108.15C199.12 108.15 198.578 107.954 198.168 107.562C197.767 107.171 197.566 106.683 197.566 106.1ZM209.037 98.9355L205.893 98.1836L207.027 88.0938H218.211V91.2793H210.268L209.775 95.6953C210.04 95.5404 210.441 95.3763 210.979 95.2031C211.516 95.0208 212.118 94.9297 212.783 94.9297C213.749 94.9297 214.606 95.0801 215.354 95.3809C216.101 95.6816 216.734 96.1191 217.254 96.6934C217.783 97.2676 218.184 97.9694 218.457 98.7988C218.73 99.6283 218.867 100.567 218.867 101.615C218.867 102.499 218.73 103.342 218.457 104.145C218.184 104.938 217.769 105.648 217.213 106.277C216.657 106.897 215.96 107.385 215.121 107.74C214.283 108.096 213.289 108.273 212.141 108.273C211.284 108.273 210.454 108.146 209.652 107.891C208.859 107.635 208.144 107.257 207.506 106.756C206.877 106.255 206.371 105.648 205.988 104.938C205.615 104.217 205.419 103.397 205.4 102.477H209.311C209.365 103.042 209.511 103.529 209.748 103.939C209.994 104.34 210.318 104.65 210.719 104.869C211.12 105.088 211.589 105.197 212.127 105.197C212.628 105.197 213.057 105.102 213.412 104.91C213.768 104.719 214.055 104.454 214.273 104.117C214.492 103.771 214.652 103.37 214.752 102.914C214.861 102.449 214.916 101.948 214.916 101.41C214.916 100.872 214.852 100.385 214.725 99.9473C214.597 99.5098 214.401 99.1315 214.137 98.8125C213.872 98.4935 213.535 98.2474 213.125 98.0742C212.724 97.901 212.255 97.8145 211.717 97.8145C210.988 97.8145 210.423 97.9284 210.021 98.1562C209.63 98.3841 209.301 98.6439 209.037 98.9355Z" fill="white"/>
<rect x="139.5" y="125" width="72" height="30" rx="15" fill="#FFD60A"/>
<path d="M162.495 139.248V140.719H156.647V139.248H162.495ZM160.373 136.934V143.145H158.774V136.934H160.373ZM169.04 142.682V144H163.204V142.875L165.964 139.916C166.241 139.607 166.46 139.336 166.62 139.102C166.78 138.863 166.895 138.65 166.965 138.463C167.04 138.271 167.077 138.09 167.077 137.918C167.077 137.66 167.034 137.439 166.948 137.256C166.862 137.068 166.735 136.924 166.567 136.822C166.403 136.721 166.2 136.67 165.958 136.67C165.7 136.67 165.477 136.732 165.29 136.857C165.106 136.982 164.965 137.156 164.868 137.379C164.774 137.602 164.727 137.854 164.727 138.135H163.034C163.034 137.627 163.155 137.162 163.397 136.74C163.639 136.314 163.981 135.977 164.423 135.727C164.864 135.473 165.387 135.346 165.993 135.346C166.59 135.346 167.094 135.443 167.505 135.639C167.919 135.83 168.231 136.107 168.442 136.471C168.657 136.83 168.764 137.26 168.764 137.76C168.764 138.041 168.719 138.316 168.63 138.586C168.54 138.852 168.411 139.117 168.243 139.383C168.079 139.645 167.88 139.91 167.645 140.18C167.411 140.449 167.151 140.729 166.866 141.018L165.383 142.682H169.04ZM170.007 143.186C170.007 142.936 170.093 142.727 170.265 142.559C170.44 142.391 170.673 142.307 170.962 142.307C171.251 142.307 171.481 142.391 171.653 142.559C171.829 142.727 171.917 142.936 171.917 143.186C171.917 143.436 171.829 143.645 171.653 143.812C171.481 143.98 171.251 144.064 170.962 144.064C170.673 144.064 170.44 143.98 170.265 143.812C170.093 143.645 170.007 143.436 170.007 143.186ZM179.071 140.812V142.137H172.925L172.843 141.111L176.4 135.469H177.741L176.288 137.9L174.519 140.812H179.071ZM178.105 135.469V144H176.417V135.469H178.105ZM181.333 140.115L179.986 139.793L180.472 135.469H185.265V136.834H181.861L181.65 138.727C181.763 138.66 181.935 138.59 182.165 138.516C182.396 138.438 182.654 138.398 182.939 138.398C183.353 138.398 183.72 138.463 184.04 138.592C184.361 138.721 184.632 138.908 184.855 139.154C185.081 139.4 185.253 139.701 185.37 140.057C185.488 140.412 185.546 140.814 185.546 141.264C185.546 141.643 185.488 142.004 185.37 142.348C185.253 142.688 185.076 142.992 184.837 143.262C184.599 143.527 184.3 143.736 183.941 143.889C183.581 144.041 183.156 144.117 182.663 144.117C182.296 144.117 181.941 144.062 181.597 143.953C181.257 143.844 180.951 143.682 180.677 143.467C180.408 143.252 180.191 142.992 180.027 142.688C179.867 142.379 179.783 142.027 179.775 141.633H181.451C181.474 141.875 181.536 142.084 181.638 142.26C181.744 142.432 181.882 142.564 182.054 142.658C182.226 142.752 182.427 142.799 182.658 142.799C182.872 142.799 183.056 142.758 183.208 142.676C183.361 142.594 183.484 142.48 183.578 142.336C183.671 142.188 183.74 142.016 183.783 141.82C183.829 141.621 183.853 141.406 183.853 141.176C183.853 140.945 183.826 140.736 183.771 140.549C183.716 140.361 183.632 140.199 183.519 140.062C183.406 139.926 183.261 139.82 183.085 139.746C182.913 139.672 182.712 139.635 182.482 139.635C182.169 139.635 181.927 139.684 181.755 139.781C181.587 139.879 181.447 139.99 181.333 140.115ZM186.373 137.561V137.109C186.373 136.785 186.443 136.49 186.584 136.225C186.724 135.959 186.931 135.746 187.205 135.586C187.478 135.426 187.814 135.346 188.212 135.346C188.623 135.346 188.964 135.426 189.238 135.586C189.515 135.746 189.722 135.959 189.859 136.225C190 136.49 190.07 136.785 190.07 137.109V137.561C190.07 137.877 190 138.168 189.859 138.434C189.722 138.699 189.517 138.912 189.244 139.072C188.97 139.232 188.63 139.312 188.224 139.312C187.822 139.312 187.482 139.232 187.205 139.072C186.931 138.912 186.724 138.699 186.584 138.434C186.443 138.168 186.373 137.877 186.373 137.561ZM187.492 137.109V137.561C187.492 137.697 187.517 137.828 187.568 137.953C187.623 138.074 187.705 138.174 187.814 138.252C187.927 138.326 188.064 138.363 188.224 138.363C188.392 138.363 188.529 138.326 188.634 138.252C188.74 138.174 188.818 138.074 188.869 137.953C188.92 137.828 188.945 137.697 188.945 137.561V137.109C188.945 136.965 188.918 136.832 188.863 136.711C188.812 136.586 188.732 136.486 188.623 136.412C188.517 136.334 188.38 136.295 188.212 136.295C188.056 136.295 187.923 136.334 187.814 136.412C187.705 136.486 187.623 136.586 187.568 136.711C187.517 136.832 187.492 136.965 187.492 137.109ZM190.451 142.359V141.908C190.451 141.588 190.521 141.295 190.662 141.029C190.806 140.764 191.015 140.551 191.289 140.391C191.566 140.23 191.906 140.15 192.308 140.15C192.714 140.15 193.054 140.23 193.328 140.391C193.601 140.551 193.808 140.764 193.949 141.029C194.089 141.295 194.16 141.588 194.16 141.908V142.359C194.16 142.68 194.089 142.973 193.949 143.238C193.812 143.504 193.607 143.717 193.334 143.877C193.06 144.037 192.722 144.117 192.32 144.117C191.914 144.117 191.572 144.037 191.295 143.877C191.017 143.717 190.806 143.504 190.662 143.238C190.521 142.973 190.451 142.68 190.451 142.359ZM191.576 141.908V142.359C191.576 142.5 191.607 142.633 191.67 142.758C191.732 142.883 191.818 142.982 191.927 143.057C192.041 143.131 192.171 143.168 192.32 143.168C192.507 143.168 192.654 143.131 192.759 143.057C192.865 142.982 192.937 142.883 192.976 142.758C193.019 142.633 193.041 142.5 193.041 142.359V141.908C193.041 141.768 193.013 141.637 192.959 141.516C192.904 141.391 192.822 141.291 192.712 141.217C192.607 141.139 192.472 141.1 192.308 141.1C192.144 141.1 192.007 141.139 191.898 141.217C191.793 141.291 191.712 141.391 191.658 141.516C191.603 141.637 191.576 141.768 191.576 141.908ZM192.724 136.688L188.558 143.355L187.738 142.922L191.904 136.254L192.724 136.688Z" fill="black"/>
<rect x="294" y="22" width="43" height="43" rx="7" fill="#151A20"/>
<path d="M307.9 39.7H308.171C309.216 39.7 310.071 40.555 310.071 41.6V51.1C310.071 52.145 309.216 53 308.171 53H307.9C306.855 53 306 52.145 306 51.1V41.6C306 40.555 306.855 39.7 307.9 39.7V39.7ZM315.5 34C316.545 34 317.4 34.855 317.4 35.9V51.1C317.4 52.145 316.545 53 315.5 53C314.455 53 313.6 52.145 313.6 51.1V35.9C313.6 34.855 314.455 34 315.5 34ZM323.1 44.8571C324.145 44.8571 325 45.7121 325 46.7571V51.1C325 52.145 324.145 53 323.1 53C322.055 53 321.2 52.145 321.2 51.1V46.7571C321.2 45.7121 322.055 44.8571 323.1 44.8571V44.8571Z" fill="#FFD60A"/>
<path d="M42.2346 266.215L0 247.648V345.5H360V213.023L354.972 211.518L327.821 242.128L316.76 239.117L282.57 267.72L278.547 270.229L243.855 236.608L233.296 242.128L214.19 211.518H210.67L188.547 236.608H186.034L170.95 255.677L153.352 278.258L148.827 281.269L138.771 269.727L117.654 210.514L112.626 206.5L104.581 210.514L90 243.132L84.4693 247.648L73.4078 240.623L63.352 243.132L42.2346 266.215Z" fill="url(#paint0_linear_2_631)"/>
<path d="M0 247.722L38.9251 264.885C41.7597 266.135 45.0869 265.038 46.7875 262.449C52.9069 253.132 67.6948 233.895 79.7756 244.245C95.4278 257.654 96.3403 203.004 114.614 206.997C123.703 208.983 125.617 234.433 133.801 255.668C139.526 270.522 142.217 278.477 148.992 280.16C150.83 280.617 152.645 279.605 153.777 278.086L184.22 237.253C184.828 236.438 185.965 236.237 186.815 236.795V236.795C187.666 237.353 188.805 237.15 189.412 236.333L206.019 213.96C208.616 210.462 213.958 210.811 216.078 214.617L228.938 237.702C230.509 240.522 234.03 241.594 236.906 240.127L241.355 237.858C243.741 236.641 246.644 237.153 248.47 239.113L274.734 267.294C276.948 269.67 280.65 269.853 283.087 267.708L314.133 240.385C315.924 238.808 318.48 238.444 320.642 239.456L323.346 240.722C325.884 241.911 328.907 241.184 330.628 238.972L350.162 213.845C352.233 211.181 356.093 210.748 358.703 212.887L360 213.95" stroke="url(#paint1_linear_2_631)" stroke-width="4"/>
</g>
<defs>
<linearGradient id="paint0_linear_2_631" x1="180" y1="206.5" x2="180" y2="345.5" gradientUnits="userSpaceOnUse">
<stop stop-color="#00FAFF" stop-opacity="0.12"/>
<stop offset="1" stop-color="#0A9396" stop-opacity="0"/>
</linearGradient>
<linearGradient id="paint1_linear_2_631" x1="360" y1="206.5" x2="-8.66109e-06" y2="260" gradientUnits="userSpaceOnUse">
<stop stop-color="#FFD600"/>
<stop offset="1" stop-color="#EBFF00"/>
</linearGradient>
<clipPath id="clip0_2_631">
<rect width="360" height="345" rx="20" fill="white"/>
</clipPath>
</defs>
</svg>
