<svg xmlns="http://www.w3.org/2000/svg" width="1236" height="598" style="cursor: move;"><g transform="translate(21.088576839706434,10.732579284493454) scale(0.9686181892266273)"><path class="link" marker-end="" d="M450,249, 596,109" style="stroke-width: 0.5; stroke-opacity: 1; stroke: rgb(227, 227, 227); fill: none;"></path><path class="link" marker-end="" d="M450,269, 596,109" style="stroke-width: 0.5; stroke-opacity: 1; stroke: rgb(227, 227, 227); fill: none;"></path><path class="link" marker-end="" d="M450,289, 596,109" style="stroke-width: 0.5; stroke-opacity: 1; stroke: rgb(227, 227, 227); fill: none;"></path><path class="link" marker-end="" d="M450,309, 596,109" style="stroke-width: 0.5; stroke-opacity: 1; stroke: rgb(227, 227, 227); fill: none;"></path><path class="link" marker-end="" d="M450,329, 596,109" style="stroke-width: 0.5; stroke-opacity: 1; stroke: rgb(227, 227, 227); fill: none;"></path><path class="link" marker-end="" d="M596,109, 742,149" style="stroke-width: 0.5; stroke-opacity: 1; stroke: rgb(227, 227, 227); fill: none;"></path><path class="link" marker-end="" d="M450,249, 596,149" style="stroke-width: 0.5; stroke-opacity: 1; stroke: rgb(227, 227, 227); fill: none;"></path><path class="link" marker-end="" d="M450,249, 596,189" style="stroke-width: 0.5; stroke-opacity: 1; stroke: rgb(227, 227, 227); fill: none;"></path><path class="link" marker-end="" d="M450,249, 596,229" style="stroke-width: 0.5; stroke-opacity: 1; stroke: rgb(227, 227, 227); fill: none;"></path><path class="link" marker-end="" d="M450,249, 596,269" style="stroke-width: 0.5; stroke-opacity: 1; stroke: rgb(227, 227, 227); fill: none;"></path><path class="link" marker-end="" d="M450,269, 596,149" style="stroke-width: 0.5; stroke-opacity: 1; stroke: rgb(227, 227, 227); fill: none;"></path><path class="link" marker-end="" d="M450,269, 596,189" style="stroke-width: 0.5; stroke-opacity: 1; stroke: rgb(227, 227, 227); fill: none;"></path><path class="link" marker-end="" d="M450,269, 596,229" style="stroke-width: 0.5; stroke-opacity: 1; stroke: rgb(227, 227, 227); fill: none;"></path><path class="link" marker-end="" d="M450,269, 596,269" style="stroke-width: 0.5; stroke-opacity: 1; stroke: rgb(227, 227, 227); fill: none;"></path><path class="link" marker-end="" d="M450,289, 596,149" style="stroke-width: 0.5; stroke-opacity: 1; stroke: rgb(227, 227, 227); fill: none;"></path><path class="link" marker-end="" d="M450,289, 596,189" style="stroke-width: 0.5; stroke-opacity: 1; stroke: rgb(227, 227, 227); fill: none;"></path><path class="link" marker-end="" d="M450,289, 596,229" style="stroke-width: 0.5; stroke-opacity: 1; stroke: rgb(227, 227, 227); fill: none;"></path><path class="link" marker-end="" d="M450,289, 596,269" style="stroke-width: 0.5; stroke-opacity: 1; stroke: rgb(227, 227, 227); fill: none;"></path><path class="link" marker-end="" d="M450,309, 596,149" style="stroke-width: 0.5; stroke-opacity: 1; stroke: rgb(227, 227, 227); fill: none;"></path><path class="link" marker-end="" d="M450,309, 596,189" style="stroke-width: 0.5; stroke-opacity: 1; stroke: rgb(227, 227, 227); fill: none;"></path><path class="link" marker-end="" d="M450,309, 596,229" style="stroke-width: 0.5; stroke-opacity: 1; stroke: rgb(227, 227, 227); fill: none;"></path><path class="link" marker-end="" d="M450,309, 596,269" style="stroke-width: 0.5; stroke-opacity: 1; stroke: rgb(227, 227, 227); fill: none;"></path><path class="link" marker-end="" d="M450,329, 596,149" style="stroke-width: 0.5; stroke-opacity: 1; stroke: rgb(227, 227, 227); fill: none;"></path><path class="link" marker-end="" d="M450,329, 596,189" style="stroke-width: 0.5; stroke-opacity: 1; stroke: rgb(227, 227, 227); fill: none;"></path><path class="link" marker-end="" d="M450,329, 596,229" style="stroke-width: 0.5; stroke-opacity: 1; stroke: rgb(227, 227, 227); fill: none;"></path><path class="link" marker-end="" d="M450,329, 596,269" style="stroke-width: 0.5; stroke-opacity: 1; stroke: rgb(227, 227, 227); fill: none;"></path><path class="link" marker-end="" d="M596,149, 742,149" style="stroke-width: 0.5; stroke-opacity: 1; stroke: rgb(227, 227, 227); fill: none;"></path><path class="link" marker-end="" d="M596,189, 742,149" style="stroke-width: 0.5; stroke-opacity: 1; stroke: rgb(227, 227, 227); fill: none;"></path><path class="link" marker-end="" d="M596,229, 742,149" style="stroke-width: 0.5; stroke-opacity: 1; stroke: rgb(227, 227, 227); fill: none;"></path><path class="link" marker-end="" d="M596,269, 742,149" style="stroke-width: 0.5; stroke-opacity: 1; stroke: rgb(227, 227, 227); fill: none;"></path><path class="link" marker-end="" d="M450,249, 596,309" style="stroke-width: 0.5; stroke-opacity: 1; stroke: rgb(227, 227, 227); fill: none;"></path><path class="link" marker-end="" d="M450,269, 596,309" style="stroke-width: 0.5; stroke-opacity: 1; stroke: rgb(227, 227, 227); fill: none;"></path><path class="link" marker-end="" d="M450,289, 596,309" style="stroke-width: 0.5; stroke-opacity: 1; stroke: rgb(227, 227, 227); fill: none;"></path><path class="link" marker-end="" d="M450,309, 596,309" style="stroke-width: 0.5; stroke-opacity: 1; stroke: rgb(227, 227, 227); fill: none;"></path><path class="link" marker-end="" d="M450,329, 596,309" style="stroke-width: 0.5; stroke-opacity: 1; stroke: rgb(227, 227, 227); fill: none;"></path><path class="link" marker-end="" d="M596,309, 742,149" style="stroke-width: 0.5; stroke-opacity: 1; stroke: rgb(227, 227, 227); fill: none;"></path><path class="link" marker-end="" d="M450,249, 596,349" style="stroke-width: 0.5; stroke-opacity: 1; stroke: rgb(227, 227, 227); fill: none;"></path><path class="link" marker-end="" d="M450,269, 596,349" style="stroke-width: 0.5; stroke-opacity: 1; stroke: rgb(227, 227, 227); fill: none;"></path><path class="link" marker-end="" d="M450,289, 596,349" style="stroke-width: 0.5; stroke-opacity: 1; stroke: rgb(227, 227, 227); fill: none;"></path><path class="link" marker-end="" d="M450,309, 596,349" style="stroke-width: 0.5; stroke-opacity: 1; stroke: rgb(227, 227, 227); fill: none;"></path><path class="link" marker-end="" d="M450,329, 596,349" style="stroke-width: 0.5; stroke-opacity: 1; stroke: rgb(227, 227, 227); fill: none;"></path><path class="link" marker-end="" d="M596,349, 742,149" style="stroke-width: 0.5; stroke-opacity: 1; stroke: rgb(227, 227, 227); fill: none;"></path><path class="link" marker-end="" d="M450,249, 596,389" style="stroke-width: 0.5; stroke-opacity: 1; stroke: rgb(227, 227, 227); fill: none;"></path><path class="link" marker-end="" d="M450,269, 596,389" style="stroke-width: 0.5; stroke-opacity: 1; stroke: rgb(227, 227, 227); fill: none;"></path><path class="link" marker-end="" d="M450,289, 596,389" style="stroke-width: 0.5; stroke-opacity: 1; stroke: rgb(227, 227, 227); fill: none;"></path><path class="link" marker-end="" d="M450,309, 596,389" style="stroke-width: 0.5; stroke-opacity: 1; stroke: rgb(227, 227, 227); fill: none;"></path><path class="link" marker-end="" d="M450,329, 596,389" style="stroke-width: 0.5; stroke-opacity: 1; stroke: rgb(227, 227, 227); fill: none;"></path><path class="link" marker-end="" d="M596,389, 742,149" style="stroke-width: 0.5; stroke-opacity: 1; stroke: rgb(227, 227, 227); fill: none;"></path><path class="link" marker-end="" d="M450,249, 596,429" style="stroke-width: 0.5; stroke-opacity: 1; stroke: rgb(227, 227, 227); fill: none;"></path><path class="link" marker-end="" d="M450,269, 596,429" style="stroke-width: 0.5; stroke-opacity: 1; stroke: rgb(227, 227, 227); fill: none;"></path><path class="link" marker-end="" d="M450,289, 596,429" style="stroke-width: 0.5; stroke-opacity: 1; stroke: rgb(227, 227, 227); fill: none;"></path><path class="link" marker-end="" d="M450,309, 596,429" style="stroke-width: 0.5; stroke-opacity: 1; stroke: rgb(227, 227, 227); fill: none;"></path><path class="link" marker-end="" d="M450,329, 596,429" style="stroke-width: 0.5; stroke-opacity: 1; stroke: rgb(227, 227, 227); fill: none;"></path><path class="link" marker-end="" d="M596,429, 742,149" style="stroke-width: 0.5; stroke-opacity: 1; stroke: rgb(227, 227, 227); fill: none;"></path><path class="link" marker-end="" d="M450,249, 596,469" style="stroke-width: 0.5; stroke-opacity: 1; stroke: rgb(227, 227, 227); fill: none;"></path><path class="link" marker-end="" d="M450,269, 596,469" style="stroke-width: 0.5; stroke-opacity: 1; stroke: rgb(227, 227, 227); fill: none;"></path><path class="link" marker-end="" d="M450,289, 596,469" style="stroke-width: 0.5; stroke-opacity: 1; stroke: rgb(227, 227, 227); fill: none;"></path><path class="link" marker-end="" d="M450,309, 596,469" style="stroke-width: 0.5; stroke-opacity: 1; stroke: rgb(227, 227, 227); fill: none;"></path><path class="link" marker-end="" d="M450,329, 596,469" style="stroke-width: 0.5; stroke-opacity: 1; stroke: rgb(227, 227, 227); fill: none;"></path><path class="link" marker-end="" d="M596,469, 742,149" style="stroke-width: 0.5; stroke-opacity: 1; stroke: rgb(227, 227, 227); fill: none;"></path><path class="link" marker-end="" d="M742,149, 888,289" style="stroke-width: 0.5; stroke-opacity: 1; stroke: rgb(227, 227, 227); fill: none;"></path><path class="link" marker-end="" d="M596,109, 742,189" style="stroke-width: 0.5; stroke-opacity: 1; stroke: rgb(227, 227, 227); fill: none;"></path><path class="link" marker-end="" d="M596,149, 742,189" style="stroke-width: 0.5; stroke-opacity: 1; stroke: rgb(227, 227, 227); fill: none;"></path><path class="link" marker-end="" d="M596,189, 742,189" style="stroke-width: 0.5; stroke-opacity: 1; stroke: rgb(227, 227, 227); fill: none;"></path><path class="link" marker-end="" d="M596,229, 742,189" style="stroke-width: 0.5; stroke-opacity: 1; stroke: rgb(227, 227, 227); fill: none;"></path><path class="link" marker-end="" d="M596,269, 742,189" style="stroke-width: 0.5; stroke-opacity: 1; stroke: rgb(227, 227, 227); fill: none;"></path><path class="link" marker-end="" d="M596,309, 742,189" style="stroke-width: 0.5; stroke-opacity: 1; stroke: rgb(227, 227, 227); fill: none;"></path><path class="link" marker-end="" d="M596,349, 742,189" style="stroke-width: 0.5; stroke-opacity: 1; stroke: rgb(227, 227, 227); fill: none;"></path><path class="link" marker-end="" d="M596,389, 742,189" style="stroke-width: 0.5; stroke-opacity: 1; stroke: rgb(227, 227, 227); fill: none;"></path><path class="link" marker-end="" d="M596,429, 742,189" style="stroke-width: 0.5; stroke-opacity: 1; stroke: rgb(227, 227, 227); fill: none;"></path><path class="link" marker-end="" d="M596,469, 742,189" style="stroke-width: 0.5; stroke-opacity: 1; stroke: rgb(227, 227, 227); fill: none;"></path><path class="link" marker-end="" d="M742,189, 888,289" style="stroke-width: 0.5; stroke-opacity: 1; stroke: rgb(227, 227, 227); fill: none;"></path><path class="link" marker-end="" d="M596,109, 742,229" style="stroke-width: 0.5; stroke-opacity: 1; stroke: rgb(227, 227, 227); fill: none;"></path><path class="link" marker-end="" d="M596,149, 742,229" style="stroke-width: 0.5; stroke-opacity: 1; stroke: rgb(227, 227, 227); fill: none;"></path><path class="link" marker-end="" d="M596,189, 742,229" style="stroke-width: 0.5; stroke-opacity: 1; stroke: rgb(227, 227, 227); fill: none;"></path><path class="link" marker-end="" d="M596,229, 742,229" style="stroke-width: 0.5; stroke-opacity: 1; stroke: rgb(227, 227, 227); fill: none;"></path><path class="link" marker-end="" d="M596,269, 742,229" style="stroke-width: 0.5; stroke-opacity: 1; stroke: rgb(227, 227, 227); fill: none;"></path><path class="link" marker-end="" d="M596,309, 742,229" style="stroke-width: 0.5; stroke-opacity: 1; stroke: rgb(227, 227, 227); fill: none;"></path><path class="link" marker-end="" d="M596,349, 742,229" style="stroke-width: 0.5; stroke-opacity: 1; stroke: rgb(227, 227, 227); fill: none;"></path><path class="link" marker-end="" d="M596,389, 742,229" style="stroke-width: 0.5; stroke-opacity: 1; stroke: rgb(227, 227, 227); fill: none;"></path><path class="link" marker-end="" d="M596,429, 742,229" style="stroke-width: 0.5; stroke-opacity: 1; stroke: rgb(227, 227, 227); fill: none;"></path><path class="link" marker-end="" d="M596,469, 742,229" style="stroke-width: 0.5; stroke-opacity: 1; stroke: rgb(227, 227, 227); fill: none;"></path><path class="link" marker-end="" d="M742,229, 888,289" style="stroke-width: 0.5; stroke-opacity: 1; stroke: rgb(227, 227, 227); fill: none;"></path><path class="link" marker-end="" d="M596,109, 742,269" style="stroke-width: 0.5; stroke-opacity: 1; stroke: rgb(227, 227, 227); fill: none;"></path><path class="link" marker-end="" d="M596,149, 742,269" style="stroke-width: 0.5; stroke-opacity: 1; stroke: rgb(227, 227, 227); fill: none;"></path><path class="link" marker-end="" d="M596,189, 742,269" style="stroke-width: 0.5; stroke-opacity: 1; stroke: rgb(227, 227, 227); fill: none;"></path><path class="link" marker-end="" d="M596,229, 742,269" style="stroke-width: 0.5; stroke-opacity: 1; stroke: rgb(227, 227, 227); fill: none;"></path><path class="link" marker-end="" d="M596,269, 742,269" style="stroke-width: 0.5; stroke-opacity: 1; stroke: rgb(227, 227, 227); fill: none;"></path><path class="link" marker-end="" d="M596,309, 742,269" style="stroke-width: 0.5; stroke-opacity: 1; stroke: rgb(227, 227, 227); fill: none;"></path><path class="link" marker-end="" d="M596,349, 742,269" style="stroke-width: 0.5; stroke-opacity: 1; stroke: rgb(227, 227, 227); fill: none;"></path><path class="link" marker-end="" d="M596,389, 742,269" style="stroke-width: 0.5; stroke-opacity: 1; stroke: rgb(227, 227, 227); fill: none;"></path><path class="link" marker-end="" d="M596,429, 742,269" style="stroke-width: 0.5; stroke-opacity: 1; stroke: rgb(227, 227, 227); fill: none;"></path><path class="link" marker-end="" d="M596,469, 742,269" style="stroke-width: 0.5; stroke-opacity: 1; stroke: rgb(227, 227, 227); fill: none;"></path><path class="link" marker-end="" d="M742,269, 888,289" style="stroke-width: 0.5; stroke-opacity: 1; stroke: rgb(227, 227, 227); fill: none;"></path><path class="link" marker-end="" d="M596,109, 742,309" style="stroke-width: 0.5; stroke-opacity: 1; stroke: rgb(227, 227, 227); fill: none;"></path><path class="link" marker-end="" d="M596,149, 742,309" style="stroke-width: 0.5; stroke-opacity: 1; stroke: rgb(227, 227, 227); fill: none;"></path><path class="link" marker-end="" d="M596,189, 742,309" style="stroke-width: 0.5; stroke-opacity: 1; stroke: rgb(227, 227, 227); fill: none;"></path><path class="link" marker-end="" d="M596,229, 742,309" style="stroke-width: 0.5; stroke-opacity: 1; stroke: rgb(227, 227, 227); fill: none;"></path><path class="link" marker-end="" d="M596,269, 742,309" style="stroke-width: 0.5; stroke-opacity: 1; stroke: rgb(227, 227, 227); fill: none;"></path><path class="link" marker-end="" d="M596,309, 742,309" style="stroke-width: 0.5; stroke-opacity: 1; stroke: rgb(227, 227, 227); fill: none;"></path><path class="link" marker-end="" d="M596,349, 742,309" style="stroke-width: 0.5; stroke-opacity: 1; stroke: rgb(227, 227, 227); fill: none;"></path><path class="link" marker-end="" d="M596,389, 742,309" style="stroke-width: 0.5; stroke-opacity: 1; stroke: rgb(227, 227, 227); fill: none;"></path><path class="link" marker-end="" d="M596,429, 742,309" style="stroke-width: 0.5; stroke-opacity: 1; stroke: rgb(227, 227, 227); fill: none;"></path><path class="link" marker-end="" d="M596,469, 742,309" style="stroke-width: 0.5; stroke-opacity: 1; stroke: rgb(227, 227, 227); fill: none;"></path><path class="link" marker-end="" d="M742,309, 888,289" style="stroke-width: 0.5; stroke-opacity: 1; stroke: rgb(227, 227, 227); fill: none;"></path><path class="link" marker-end="" d="M596,109, 742,349" style="stroke-width: 0.5; stroke-opacity: 1; stroke: rgb(227, 227, 227); fill: none;"></path><path class="link" marker-end="" d="M596,149, 742,349" style="stroke-width: 0.5; stroke-opacity: 1; stroke: rgb(227, 227, 227); fill: none;"></path><path class="link" marker-end="" d="M596,189, 742,349" style="stroke-width: 0.5; stroke-opacity: 1; stroke: rgb(227, 227, 227); fill: none;"></path><path class="link" marker-end="" d="M596,229, 742,349" style="stroke-width: 0.5; stroke-opacity: 1; stroke: rgb(227, 227, 227); fill: none;"></path><path class="link" marker-end="" d="M596,269, 742,349" style="stroke-width: 0.5; stroke-opacity: 1; stroke: rgb(227, 227, 227); fill: none;"></path><path class="link" marker-end="" d="M596,309, 742,349" style="stroke-width: 0.5; stroke-opacity: 1; stroke: rgb(227, 227, 227); fill: none;"></path><path class="link" marker-end="" d="M596,349, 742,349" style="stroke-width: 0.5; stroke-opacity: 1; stroke: rgb(227, 227, 227); fill: none;"></path><path class="link" marker-end="" d="M596,389, 742,349" style="stroke-width: 0.5; stroke-opacity: 1; stroke: rgb(227, 227, 227); fill: none;"></path><path class="link" marker-end="" d="M596,429, 742,349" style="stroke-width: 0.5; stroke-opacity: 1; stroke: rgb(227, 227, 227); fill: none;"></path><path class="link" marker-end="" d="M596,469, 742,349" style="stroke-width: 0.5; stroke-opacity: 1; stroke: rgb(227, 227, 227); fill: none;"></path><path class="link" marker-end="" d="M742,349, 888,289" style="stroke-width: 0.5; stroke-opacity: 1; stroke: rgb(227, 227, 227); fill: none;"></path><path class="link" marker-end="" d="M596,109, 742,389" style="stroke-width: 0.5; stroke-opacity: 1; stroke: rgb(227, 227, 227); fill: none;"></path><path class="link" marker-end="" d="M596,149, 742,389" style="stroke-width: 0.5; stroke-opacity: 1; stroke: rgb(227, 227, 227); fill: none;"></path><path class="link" marker-end="" d="M596,189, 742,389" style="stroke-width: 0.5; stroke-opacity: 1; stroke: rgb(227, 227, 227); fill: none;"></path><path class="link" marker-end="" d="M596,229, 742,389" style="stroke-width: 0.5; stroke-opacity: 1; stroke: rgb(227, 227, 227); fill: none;"></path><path class="link" marker-end="" d="M596,269, 742,389" style="stroke-width: 0.5; stroke-opacity: 1; stroke: rgb(227, 227, 227); fill: none;"></path><path class="link" marker-end="" d="M596,309, 742,389" style="stroke-width: 0.5; stroke-opacity: 1; stroke: rgb(227, 227, 227); fill: none;"></path><path class="link" marker-end="" d="M596,349, 742,389" style="stroke-width: 0.5; stroke-opacity: 1; stroke: rgb(227, 227, 227); fill: none;"></path><path class="link" marker-end="" d="M596,389, 742,389" style="stroke-width: 0.5; stroke-opacity: 1; stroke: rgb(227, 227, 227); fill: none;"></path><path class="link" marker-end="" d="M596,429, 742,389" style="stroke-width: 0.5; stroke-opacity: 1; stroke: rgb(227, 227, 227); fill: none;"></path><path class="link" marker-end="" d="M596,469, 742,389" style="stroke-width: 0.5; stroke-opacity: 1; stroke: rgb(227, 227, 227); fill: none;"></path><path class="link" marker-end="" d="M742,389, 888,289" style="stroke-width: 0.5; stroke-opacity: 1; stroke: rgb(227, 227, 227); fill: none;"></path><path class="link" marker-end="" d="M596,109, 742,429" style="stroke-width: 0.5; stroke-opacity: 1; stroke: rgb(227, 227, 227); fill: none;"></path><path class="link" marker-end="" d="M596,149, 742,429" style="stroke-width: 0.5; stroke-opacity: 1; stroke: rgb(227, 227, 227); fill: none;"></path><path class="link" marker-end="" d="M596,189, 742,429" style="stroke-width: 0.5; stroke-opacity: 1; stroke: rgb(227, 227, 227); fill: none;"></path><path class="link" marker-end="" d="M596,229, 742,429" style="stroke-width: 0.5; stroke-opacity: 1; stroke: rgb(227, 227, 227); fill: none;"></path><path class="link" marker-end="" d="M596,269, 742,429" style="stroke-width: 0.5; stroke-opacity: 1; stroke: rgb(227, 227, 227); fill: none;"></path><path class="link" marker-end="" d="M596,309, 742,429" style="stroke-width: 0.5; stroke-opacity: 1; stroke: rgb(227, 227, 227); fill: none;"></path><path class="link" marker-end="" d="M596,349, 742,429" style="stroke-width: 0.5; stroke-opacity: 1; stroke: rgb(227, 227, 227); fill: none;"></path><path class="link" marker-end="" d="M596,389, 742,429" style="stroke-width: 0.5; stroke-opacity: 1; stroke: rgb(227, 227, 227); fill: none;"></path><path class="link" marker-end="" d="M596,429, 742,429" style="stroke-width: 0.5; stroke-opacity: 1; stroke: rgb(227, 227, 227); fill: none;"></path><path class="link" marker-end="" d="M596,469, 742,429" style="stroke-width: 0.5; stroke-opacity: 1; stroke: rgb(227, 227, 227); fill: none;"></path><path class="link" marker-end="" d="M742,429, 888,289" style="stroke-width: 0.5; stroke-opacity: 1; stroke: rgb(227, 227, 227); fill: none;"></path><circle r="10" class="node" id="0_0" cx="450" cy="249" style="fill: rgb(255, 255, 255); stroke: rgb(255, 255, 255);"></circle><circle r="10" class="node" id="0_1" cx="450" cy="269" style="fill: rgb(255, 255, 255); stroke: rgb(255, 255, 255);"></circle><circle r="10" class="node" id="0_2" cx="450" cy="289" style="fill: rgb(255, 255, 255); stroke: rgb(255, 255, 255);"></circle><circle r="10" class="node" id="0_3" cx="450" cy="309" style="fill: rgb(255, 255, 255); stroke: rgb(255, 255, 255);"></circle><circle r="10" class="node" id="0_4" cx="450" cy="329" style="fill: rgb(255, 255, 255); stroke: rgb(255, 255, 255);"></circle><circle r="10" class="node" id="1_0" cx="596" cy="109" style="fill: rgb(255, 255, 255); stroke: rgb(255, 255, 255);"></circle><text class="text" dy=".35em" x="415" y="509" style="font-size: 12px;"></text><text class="text" dy=".35em" x="561" y="509" style="font-size: 12px;"></text><circle r="10" class="node" id="1_1" cx="596" cy="149" style="fill: rgb(255, 255, 255); stroke: rgb(255, 255, 255);"></circle><circle r="10" class="node" id="1_2" cx="596" cy="189" style="fill: rgb(255, 255, 255); stroke: rgb(255, 255, 255);"></circle><circle r="10" class="node" id="1_3" cx="596" cy="229" style="fill: rgb(255, 255, 255); stroke: rgb(255, 255, 255);"></circle><circle r="10" class="node" id="1_4" cx="596" cy="269" style="fill: rgb(255, 255, 255); stroke: rgb(255, 255, 255);"></circle><circle r="10" class="node" id="1_5" cx="596" cy="309" style="fill: rgb(255, 255, 255); stroke: rgb(255, 255, 255);"></circle><circle r="10" class="node" id="1_6" cx="596" cy="349" style="fill: rgb(255, 255, 255); stroke: rgb(255, 255, 255);"></circle><circle r="10" class="node" id="1_7" cx="596" cy="389" style="fill: rgb(255, 255, 255); stroke: rgb(255, 255, 255);"></circle><circle r="10" class="node" id="1_8" cx="596" cy="429" style="fill: rgb(255, 255, 255); stroke: rgb(255, 255, 255);"></circle><circle r="10" class="node" id="1_9" cx="596" cy="469" style="fill: rgb(255, 255, 255); stroke: rgb(255, 255, 255);"></circle><circle r="10" class="node" id="2_0" cx="742" cy="149" style="fill: rgb(255, 255, 255); stroke: rgb(255, 255, 255);"></circle><text class="text" dy=".35em" x="707" y="509" style="font-size: 12px;"></text><circle r="10" class="node" id="2_1" cx="742" cy="189" style="fill: rgb(255, 255, 255); stroke: rgb(255, 255, 255);"></circle><circle r="10" class="node" id="2_2" cx="742" cy="229" style="fill: rgb(255, 255, 255); stroke: rgb(255, 255, 255);"></circle><circle r="10" class="node" id="2_3" cx="742" cy="269" style="fill: rgb(255, 255, 255); stroke: rgb(255, 255, 255);"></circle><circle r="10" class="node" id="2_4" cx="742" cy="309" style="fill: rgb(255, 255, 255); stroke: rgb(255, 255, 255);"></circle><circle r="10" class="node" id="2_5" cx="742" cy="349" style="fill: rgb(255, 255, 255); stroke: rgb(255, 255, 255);"></circle><circle r="10" class="node" id="2_6" cx="742" cy="389" style="fill: rgb(255, 255, 255); stroke: rgb(255, 255, 255);"></circle><circle r="10" class="node" id="2_7" cx="742" cy="429" style="fill: rgb(255, 255, 255); stroke: rgb(255, 255, 255);"></circle><circle r="10" class="node" id="3_0" cx="888" cy="289" style="fill: rgb(255, 255, 255); stroke: rgb(255, 255, 255);"></circle><text class="text" dy=".35em" x="853" y="509" style="font-size: 12px;"></text></g><defs><marker id="arrow" viewBox="0 -5 10 10" markerWidth="7" markerHeight="7" orient="auto" refX="40"><path d="M0,-5L10,0L0,5" style="stroke: rgb(80, 80, 80); fill: none;"></path></marker></defs></svg>